<svg xmlns="http://www.w3.org/2000/svg" xmlns:xlink="http://www.w3.org/1999/xlink" width="300" zoomAndPan="magnify" viewBox="0 0 224.87999 233.04" height="300" preserveAspectRatio="xMidYMid meet" version="1.0"><defs><clipPath id="188d74c2ea"><path d="M 2.976562 2.328125 L 221.824219 2.328125 L 221.824219 221.925781 L 2.976562 221.925781 Z M 2.976562 2.328125 " clip-rule="nonzero"/></clipPath></defs><g clip-path="url(#188d74c2ea)"><path fill="#0c1b37" d="M 189.785156 34.363281 C 169.230469 13.789062 141.894531 2.433594 112.769531 2.433594 C 52.753906 2.433594 3.910156 51.269531 3.886719 111.304688 C 3.886719 130.492188 8.894531 149.234375 18.425781 165.734375 L 2.976562 222.152344 L 60.695312 207.007812 C 76.601562 215.6875 94.507812 220.253906 112.726562 220.261719 L 112.769531 220.261719 C 172.773438 220.261719 221.628906 171.417969 221.640625 111.390625 C 221.640625 82.296875 210.339844 54.953125 189.773438 34.363281 Z M 112.769531 201.878906 L 112.734375 201.878906 C 96.503906 201.878906 80.566406 197.511719 66.671875 189.265625 L 63.367188 187.300781 L 29.113281 196.285156 L 38.25 162.890625 L 36.101562 159.464844 C 27.039062 145.0625 22.257812 128.40625 22.269531 111.304688 C 22.292969 61.417969 62.890625 20.816406 112.800781 20.816406 C 136.972656 20.816406 159.691406 30.246094 176.78125 47.359375 C 193.871094 64.460938 203.269531 87.199219 203.257812 111.382812 C 203.234375 161.28125 162.636719 201.878906 112.757812 201.878906 Z M 162.40625 134.109375 C 159.691406 132.75 146.316406 126.167969 143.820312 125.265625 C 141.320312 124.355469 139.515625 123.90625 137.703125 126.625 C 135.886719 129.351562 130.671875 135.476562 129.085938 137.292969 C 127.5 139.105469 125.914062 139.335938 123.1875 137.964844 C 120.472656 136.609375 111.703125 133.730469 101.308594 124.460938 C 93.222656 117.25 87.757812 108.339844 86.171875 105.613281 C 84.585938 102.886719 86.011719 101.417969 87.367188 100.0625 C 88.585938 98.84375 90.085938 96.878906 91.453125 95.292969 C 92.8125 93.707031 93.265625 92.566406 94.167969 90.75 C 95.082031 88.9375 94.625 87.351562 93.941406 85.980469 C 93.257812 84.625 87.824219 71.226562 85.554688 65.785156 C 83.347656 60.484375 81.097656 61.199219 79.4375 61.113281 C 77.851562 61.035156 76.035156 61.015625 74.222656 61.015625 C 72.40625 61.015625 69.464844 61.6875 66.964844 64.414062 C 64.464844 67.140625 57.449219 73.726562 57.449219 87.109375 C 57.449219 100.496094 67.191406 113.433594 68.5625 115.261719 C 69.921875 117.074219 87.75 144.550781 115.039062 156.335938 C 121.523438 159.140625 126.597656 160.8125 130.554688 162.074219 C 137.070312 164.148438 143.003906 163.855469 147.6875 163.148438 C 152.910156 162.367188 163.777344 156.566406 166.046875 150.210938 C 168.316406 143.855469 168.316406 138.410156 167.632812 137.269531 C 166.949219 136.128906 165.132812 135.457031 162.417969 134.085938 Z M 162.40625 134.109375 " fill-opacity="1" fill-rule="evenodd"/></g></svg>