<svg xmlns="http://www.w3.org/2000/svg" xmlns:xlink="http://www.w3.org/1999/xlink" width="300" zoomAndPan="magnify" viewBox="0 0 224.87999 233.04" height="300" preserveAspectRatio="xMidYMid meet" version="1.0"><defs><clipPath id="bd3c022c04"><path d="M 146 124 L 220.316406 124 L 220.316406 182 L 146 182 Z M 146 124 " clip-rule="nonzero"/></clipPath><clipPath id="9273c80218"><path d="M 4.457031 124 L 79 124 L 79 182 L 4.457031 182 Z M 4.457031 124 " clip-rule="nonzero"/></clipPath><clipPath id="50fa1c188a"><path d="M 29 11.75 L 196 11.75 L 196 76 L 29 76 Z M 29 11.75 " clip-rule="nonzero"/></clipPath></defs><path fill="#0c1b37" d="M 136.226562 103.882812 C 136.226562 104.660156 136.1875 105.4375 136.113281 106.214844 C 136.035156 106.988281 135.921875 107.757812 135.769531 108.523438 C 135.617188 109.289062 135.429688 110.042969 135.203125 110.789062 C 134.976562 111.53125 134.714844 112.265625 134.414062 112.984375 C 134.117188 113.703125 133.785156 114.410156 133.417969 115.09375 C 133.050781 115.78125 132.648438 116.449219 132.21875 117.097656 C 131.785156 117.746094 131.320312 118.371094 130.828125 118.972656 C 130.332031 119.574219 129.808594 120.152344 129.257812 120.703125 C 128.707031 121.253906 128.132812 121.777344 127.53125 122.269531 C 126.925781 122.765625 126.300781 123.226562 125.65625 123.660156 C 125.007812 124.09375 124.339844 124.492188 123.652344 124.859375 C 122.964844 125.226562 122.261719 125.558594 121.542969 125.859375 C 120.824219 126.15625 120.089844 126.417969 119.34375 126.644531 C 118.597656 126.871094 117.84375 127.058594 117.082031 127.210938 C 116.316406 127.363281 115.546875 127.476562 114.769531 127.554688 C 113.996094 127.628906 113.21875 127.667969 112.441406 127.667969 C 111.660156 127.667969 110.882812 127.628906 110.109375 127.554688 C 109.332031 127.476562 108.5625 127.363281 107.800781 127.210938 C 107.035156 127.058594 106.28125 126.871094 105.535156 126.644531 C 104.789062 126.417969 104.058594 126.15625 103.335938 125.859375 C 102.617188 125.558594 101.914062 125.226562 101.226562 124.859375 C 100.539062 124.492188 99.871094 124.09375 99.226562 123.660156 C 98.578125 123.226562 97.953125 122.765625 97.351562 122.269531 C 96.746094 121.777344 96.171875 121.253906 95.621094 120.703125 C 95.070312 120.152344 94.546875 119.574219 94.050781 118.972656 C 93.558594 118.371094 93.09375 117.746094 92.660156 117.097656 C 92.230469 116.449219 91.828125 115.78125 91.460938 115.09375 C 91.09375 114.410156 90.761719 113.703125 90.464844 112.984375 C 90.164062 112.265625 89.902344 111.53125 89.675781 110.789062 C 89.453125 110.042969 89.261719 109.289062 89.109375 108.523438 C 88.957031 107.757812 88.84375 106.988281 88.769531 106.214844 C 88.691406 105.4375 88.652344 104.660156 88.652344 103.882812 C 88.652344 103.105469 88.691406 102.328125 88.769531 101.550781 C 88.84375 100.777344 88.957031 100.007812 89.109375 99.242188 C 89.261719 98.476562 89.453125 97.722656 89.675781 96.976562 C 89.902344 96.230469 90.164062 95.5 90.464844 94.78125 C 90.761719 94.058594 91.09375 93.355469 91.460938 92.667969 C 91.828125 91.984375 92.230469 91.316406 92.660156 90.667969 C 93.09375 90.019531 93.558594 89.394531 94.050781 88.792969 C 94.546875 88.191406 95.070312 87.613281 95.621094 87.0625 C 96.171875 86.511719 96.746094 85.988281 97.351562 85.496094 C 97.953125 85 98.578125 84.539062 99.226562 84.105469 C 99.871094 83.671875 100.539062 83.273438 101.226562 82.90625 C 101.914062 82.539062 102.617188 82.203125 103.335938 81.90625 C 104.058594 81.609375 104.789062 81.347656 105.535156 81.121094 C 106.28125 80.894531 107.035156 80.707031 107.800781 80.554688 C 108.5625 80.402344 109.332031 80.285156 110.109375 80.210938 C 110.882812 80.132812 111.660156 80.097656 112.441406 80.097656 C 113.21875 80.097656 113.996094 80.132812 114.769531 80.210938 C 115.546875 80.285156 116.316406 80.402344 117.082031 80.554688 C 117.84375 80.707031 118.597656 80.894531 119.34375 81.121094 C 120.089844 81.347656 120.824219 81.609375 121.542969 81.90625 C 122.261719 82.203125 122.964844 82.539062 123.652344 82.90625 C 124.339844 83.273438 125.007812 83.671875 125.65625 84.105469 C 126.300781 84.539062 126.925781 85 127.53125 85.496094 C 128.132812 85.988281 128.707031 86.511719 129.257812 87.0625 C 129.808594 87.613281 130.332031 88.191406 130.828125 88.792969 C 131.320312 89.394531 131.785156 90.019531 132.21875 90.667969 C 132.648438 91.316406 133.050781 91.984375 133.417969 92.667969 C 133.785156 93.355469 134.117188 94.058594 134.414062 94.78125 C 134.714844 95.5 134.976562 96.230469 135.203125 96.976562 C 135.429688 97.722656 135.617188 98.476562 135.769531 99.242188 C 135.921875 100.007812 136.035156 100.777344 136.113281 101.550781 C 136.1875 102.328125 136.226562 103.105469 136.226562 103.882812 Z M 136.226562 103.882812 " fill-opacity="1" fill-rule="nonzero"/><path fill="#0c1b37" d="M 162.488281 184.65625 C 162.488281 157.015625 140.082031 134.609375 112.441406 134.609375 C 84.796875 134.609375 62.390625 157.015625 62.390625 184.65625 C 62.390625 212.300781 162.488281 212.300781 162.488281 184.65625 Z M 162.488281 184.65625 " fill-opacity="1" fill-rule="nonzero"/><path fill="#0c1b37" d="M 199.289062 99.378906 C 199.289062 100.007812 199.257812 100.632812 199.195312 101.257812 C 199.136719 101.878906 199.042969 102.5 198.921875 103.113281 C 198.800781 103.730469 198.648438 104.335938 198.464844 104.9375 C 198.28125 105.535156 198.070312 106.125 197.832031 106.703125 C 197.59375 107.285156 197.324219 107.851562 197.027344 108.402344 C 196.734375 108.957031 196.410156 109.492188 196.0625 110.015625 C 195.714844 110.535156 195.34375 111.039062 194.945312 111.523438 C 194.546875 112.007812 194.125 112.472656 193.683594 112.914062 C 193.238281 113.359375 192.777344 113.777344 192.292969 114.175781 C 191.804688 114.574219 191.304688 114.945312 190.78125 115.296875 C 190.261719 115.644531 189.722656 115.964844 189.171875 116.261719 C 188.617188 116.554688 188.050781 116.824219 187.472656 117.0625 C 186.894531 117.304688 186.304688 117.515625 185.703125 117.695312 C 185.105469 117.878906 184.496094 118.03125 183.882812 118.152344 C 183.269531 118.273438 182.648438 118.367188 182.023438 118.429688 C 181.402344 118.488281 180.777344 118.519531 180.148438 118.519531 C 179.523438 118.519531 178.894531 118.488281 178.273438 118.429688 C 177.648438 118.367188 177.03125 118.273438 176.414062 118.152344 C 175.800781 118.03125 175.191406 117.878906 174.59375 117.695312 C 173.992188 117.515625 173.402344 117.304688 172.824219 117.0625 C 172.246094 116.824219 171.679688 116.554688 171.125 116.261719 C 170.574219 115.964844 170.035156 115.644531 169.515625 115.296875 C 168.992188 114.945312 168.492188 114.574219 168.007812 114.175781 C 167.523438 113.777344 167.058594 113.359375 166.613281 112.914062 C 166.171875 112.472656 165.75 112.007812 165.351562 111.523438 C 164.957031 111.039062 164.582031 110.535156 164.234375 110.015625 C 163.886719 109.492188 163.5625 108.957031 163.269531 108.402344 C 162.972656 107.851562 162.707031 107.285156 162.464844 106.703125 C 162.226562 106.125 162.015625 105.535156 161.832031 104.9375 C 161.652344 104.335938 161.5 103.730469 161.375 103.113281 C 161.253906 102.5 161.160156 101.878906 161.101562 101.257812 C 161.039062 100.632812 161.007812 100.007812 161.007812 99.378906 C 161.007812 98.753906 161.039062 98.128906 161.101562 97.503906 C 161.160156 96.878906 161.253906 96.261719 161.375 95.644531 C 161.5 95.03125 161.652344 94.425781 161.832031 93.824219 C 162.015625 93.222656 162.226562 92.636719 162.464844 92.054688 C 162.707031 91.476562 162.972656 90.910156 163.269531 90.359375 C 163.5625 89.804688 163.886719 89.269531 164.234375 88.746094 C 164.582031 88.226562 164.957031 87.722656 165.351562 87.238281 C 165.75 86.753906 166.171875 86.289062 166.613281 85.847656 C 167.058594 85.402344 167.523438 84.980469 168.007812 84.585938 C 168.492188 84.1875 168.992188 83.8125 169.515625 83.464844 C 170.035156 83.117188 170.574219 82.796875 171.125 82.5 C 171.679688 82.203125 172.246094 81.9375 172.824219 81.695312 C 173.402344 81.457031 173.992188 81.246094 174.59375 81.0625 C 175.191406 80.882812 175.800781 80.730469 176.414062 80.609375 C 177.03125 80.484375 177.648438 80.394531 178.273438 80.332031 C 178.894531 80.269531 179.523438 80.238281 180.148438 80.238281 C 180.777344 80.238281 181.402344 80.269531 182.023438 80.332031 C 182.648438 80.394531 183.269531 80.484375 183.882812 80.609375 C 184.496094 80.730469 185.105469 80.882812 185.703125 81.0625 C 186.304688 81.246094 186.894531 81.457031 187.472656 81.695312 C 188.050781 81.9375 188.617188 82.203125 189.171875 82.5 C 189.722656 82.796875 190.261719 83.117188 190.78125 83.464844 C 191.304688 83.8125 191.804688 84.1875 192.292969 84.585938 C 192.777344 84.980469 193.238281 85.402344 193.683594 85.847656 C 194.125 86.289062 194.546875 86.753906 194.945312 87.238281 C 195.34375 87.722656 195.714844 88.226562 196.0625 88.746094 C 196.410156 89.269531 196.734375 89.804688 197.027344 90.359375 C 197.324219 90.910156 197.59375 91.476562 197.832031 92.054688 C 198.070312 92.636719 198.28125 93.222656 198.464844 93.824219 C 198.648438 94.425781 198.800781 95.03125 198.921875 95.644531 C 199.042969 96.261719 199.136719 96.878906 199.195312 97.503906 C 199.257812 98.128906 199.289062 98.753906 199.289062 99.378906 Z M 199.289062 99.378906 " fill-opacity="1" fill-rule="nonzero"/><g clip-path="url(#bd3c022c04)"><path fill="#0c1b37" d="M 220.421875 164.378906 C 220.421875 178.011719 190.160156 183.289062 166.734375 180.210938 C 166.476562 177.015625 165.941406 173.871094 165.128906 170.773438 C 164.3125 167.675781 163.230469 164.671875 161.886719 161.765625 C 160.539062 158.859375 158.949219 156.09375 157.113281 153.46875 C 155.28125 150.84375 153.226562 148.402344 150.960938 146.136719 C 149.558594 144.738281 148.085938 143.414062 146.546875 142.171875 C 153.753906 131.285156 166.113281 124.105469 180.148438 124.105469 C 202.390625 124.105469 220.421875 142.136719 220.421875 164.378906 Z M 220.421875 164.378906 " fill-opacity="1" fill-rule="nonzero"/></g><path fill="#0c1b37" d="M 63.871094 99.378906 C 63.871094 100.007812 63.839844 100.632812 63.777344 101.257812 C 63.71875 101.878906 63.625 102.5 63.503906 103.113281 C 63.382812 103.730469 63.230469 104.335938 63.046875 104.9375 C 62.863281 105.535156 62.652344 106.125 62.414062 106.703125 C 62.175781 107.285156 61.90625 107.851562 61.609375 108.402344 C 61.316406 108.957031 60.992188 109.492188 60.644531 110.015625 C 60.296875 110.535156 59.925781 111.039062 59.527344 111.523438 C 59.128906 112.007812 58.707031 112.472656 58.265625 112.914062 C 57.820312 113.359375 57.359375 113.777344 56.875 114.175781 C 56.390625 114.574219 55.886719 114.945312 55.363281 115.296875 C 54.84375 115.644531 54.304688 115.964844 53.753906 116.261719 C 53.199219 116.554688 52.632812 116.824219 52.054688 117.0625 C 51.476562 117.304688 50.886719 117.515625 50.285156 117.695312 C 49.6875 117.878906 49.078125 118.03125 48.464844 118.152344 C 47.851562 118.273438 47.230469 118.367188 46.605469 118.429688 C 45.984375 118.488281 45.359375 118.519531 44.730469 118.519531 C 44.105469 118.519531 43.480469 118.488281 42.855469 118.429688 C 42.230469 118.367188 41.613281 118.273438 40.996094 118.152344 C 40.382812 118.03125 39.773438 117.878906 39.175781 117.695312 C 38.574219 117.515625 37.984375 117.304688 37.40625 117.0625 C 36.828125 116.824219 36.261719 116.554688 35.707031 116.261719 C 35.15625 115.964844 34.617188 115.644531 34.097656 115.296875 C 33.574219 114.945312 33.074219 114.574219 32.589844 114.175781 C 32.105469 113.777344 31.640625 113.359375 31.195312 112.914062 C 30.753906 112.472656 30.332031 112.007812 29.933594 111.523438 C 29.539062 111.039062 29.164062 110.535156 28.816406 110.015625 C 28.46875 109.492188 28.144531 108.957031 27.851562 108.402344 C 27.554688 107.851562 27.289062 107.285156 27.046875 106.703125 C 26.808594 106.125 26.597656 105.535156 26.414062 104.9375 C 26.234375 104.335938 26.082031 103.730469 25.957031 103.113281 C 25.835938 102.5 25.746094 101.878906 25.683594 101.257812 C 25.621094 100.632812 25.589844 100.007812 25.589844 99.378906 C 25.589844 98.753906 25.621094 98.128906 25.683594 97.503906 C 25.746094 96.878906 25.835938 96.261719 25.957031 95.644531 C 26.082031 95.03125 26.234375 94.425781 26.414062 93.824219 C 26.597656 93.222656 26.808594 92.636719 27.046875 92.054688 C 27.289062 91.476562 27.554688 90.910156 27.851562 90.359375 C 28.144531 89.804688 28.46875 89.269531 28.816406 88.746094 C 29.164062 88.226562 29.539062 87.722656 29.933594 87.238281 C 30.332031 86.753906 30.753906 86.289062 31.195312 85.847656 C 31.640625 85.402344 32.105469 84.980469 32.589844 84.585938 C 33.074219 84.1875 33.574219 83.8125 34.097656 83.464844 C 34.617188 83.117188 35.15625 82.796875 35.707031 82.5 C 36.261719 82.203125 36.828125 81.9375 37.40625 81.695312 C 37.984375 81.457031 38.574219 81.246094 39.175781 81.0625 C 39.773438 80.882812 40.382812 80.730469 40.996094 80.609375 C 41.613281 80.484375 42.230469 80.394531 42.855469 80.332031 C 43.480469 80.269531 44.105469 80.238281 44.730469 80.238281 C 45.359375 80.238281 45.984375 80.269531 46.605469 80.332031 C 47.230469 80.394531 47.851562 80.484375 48.464844 80.609375 C 49.078125 80.730469 49.6875 80.882812 50.285156 81.0625 C 50.886719 81.246094 51.476562 81.457031 52.054688 81.695312 C 52.632812 81.9375 53.199219 82.203125 53.753906 82.5 C 54.304688 82.796875 54.84375 83.117188 55.363281 83.464844 C 55.886719 83.8125 56.390625 84.1875 56.875 84.585938 C 57.359375 84.980469 57.820312 85.402344 58.265625 85.847656 C 58.707031 86.289062 59.128906 86.753906 59.527344 87.238281 C 59.925781 87.722656 60.296875 88.226562 60.644531 88.746094 C 60.992188 89.269531 61.316406 89.804688 61.609375 90.359375 C 61.90625 90.910156 62.175781 91.476562 62.414062 92.054688 C 62.652344 92.636719 62.863281 93.222656 63.046875 93.824219 C 63.230469 94.425781 63.382812 95.03125 63.503906 95.644531 C 63.625 96.261719 63.71875 96.878906 63.777344 97.503906 C 63.839844 98.128906 63.871094 98.753906 63.871094 99.378906 Z M 63.871094 99.378906 " fill-opacity="1" fill-rule="nonzero"/><g clip-path="url(#9273c80218)"><path fill="#0c1b37" d="M 78.335938 142.171875 C 76.792969 143.414062 75.320312 144.738281 73.921875 146.136719 C 71.652344 148.402344 69.601562 150.84375 67.765625 153.46875 C 65.929688 156.09375 64.339844 158.859375 62.992188 161.765625 C 61.648438 164.671875 60.566406 167.675781 59.753906 170.773438 C 58.9375 173.871094 58.402344 177.015625 58.144531 180.207031 C 34.71875 183.289062 4.457031 178.011719 4.457031 164.378906 C 4.457031 142.132812 22.488281 124.105469 44.730469 124.105469 C 58.769531 124.105469 71.125 131.285156 78.335938 142.171875 Z M 78.335938 142.171875 " fill-opacity="1" fill-rule="nonzero"/></g><g clip-path="url(#50fa1c188a)"><path fill="#0c1b37" d="M 185.507812 11.769531 L 39.375 11.769531 C 38.714844 11.769531 38.0625 11.835938 37.414062 11.964844 C 36.765625 12.09375 36.136719 12.285156 35.523438 12.535156 C 34.914062 12.789062 34.335938 13.097656 33.785156 13.464844 C 33.234375 13.832031 32.726562 14.25 32.261719 14.71875 C 31.792969 15.183594 31.375 15.695312 31.007812 16.242188 C 30.644531 16.792969 30.332031 17.371094 30.082031 17.984375 C 29.828125 18.59375 29.636719 19.222656 29.507812 19.871094 C 29.378906 20.519531 29.316406 21.171875 29.316406 21.832031 L 29.316406 46.265625 C 29.316406 46.925781 29.378906 47.578125 29.507812 48.226562 C 29.636719 48.875 29.828125 49.503906 30.082031 50.113281 C 30.332031 50.726562 30.644531 51.304688 31.011719 51.855469 C 31.378906 52.402344 31.792969 52.910156 32.261719 53.378906 C 32.730469 53.847656 33.238281 54.261719 33.785156 54.628906 C 34.335938 54.996094 34.914062 55.308594 35.527344 55.558594 C 36.136719 55.8125 36.765625 56.003906 37.414062 56.132812 C 38.0625 56.261719 38.714844 56.324219 39.375 56.324219 L 60.828125 56.324219 L 59.65625 73.339844 C 59.535156 75.109375 61.75 75.996094 62.882812 74.628906 L 78.058594 56.324219 L 103.914062 56.324219 L 110.753906 72.960938 C 111.371094 74.472656 113.507812 74.472656 114.128906 72.960938 L 120.964844 56.324219 L 146.820312 56.324219 L 162 74.628906 C 163.128906 75.996094 165.347656 75.109375 165.226562 73.339844 L 164.054688 56.324219 L 185.507812 56.324219 C 186.167969 56.324219 186.824219 56.261719 187.46875 56.132812 C 188.117188 56.003906 188.746094 55.8125 189.355469 55.558594 C 189.96875 55.304688 190.546875 54.996094 191.097656 54.628906 C 191.644531 54.261719 192.152344 53.84375 192.621094 53.378906 C 193.085938 52.910156 193.503906 52.402344 193.871094 51.851562 C 194.238281 51.304688 194.546875 50.722656 194.800781 50.113281 C 195.050781 49.503906 195.242188 48.875 195.371094 48.226562 C 195.5 47.578125 195.566406 46.925781 195.566406 46.265625 L 195.566406 21.832031 C 195.566406 21.171875 195.5 20.519531 195.371094 19.871094 C 195.242188 19.222656 195.050781 18.59375 194.800781 17.984375 C 194.546875 17.375 194.238281 16.792969 193.871094 16.246094 C 193.503906 15.695312 193.085938 15.1875 192.621094 14.71875 C 192.152344 14.253906 191.644531 13.835938 191.097656 13.46875 C 190.546875 13.101562 189.96875 12.789062 189.359375 12.539062 C 188.746094 12.285156 188.117188 12.09375 187.46875 11.964844 C 186.824219 11.835938 186.167969 11.769531 185.507812 11.769531 Z M 64.933594 33.257812 L 60.765625 36.289062 C 60.429688 36.53125 60.199219 36.851562 60.070312 37.246094 C 59.945312 37.636719 59.945312 38.03125 60.070312 38.425781 L 61.664062 43.328125 C 62.238281 45.089844 60.21875 46.550781 58.722656 45.464844 L 54.554688 42.433594 C 54.21875 42.191406 53.84375 42.070312 53.429688 42.070312 C 53.015625 42.070312 52.640625 42.191406 52.304688 42.433594 L 48.136719 45.464844 C 46.636719 46.550781 44.621094 45.089844 45.195312 43.328125 L 46.785156 38.425781 C 46.914062 38.03125 46.914062 37.636719 46.785156 37.246094 C 46.65625 36.851562 46.425781 36.53125 46.089844 36.289062 L 41.921875 33.257812 C 40.425781 32.171875 41.195312 29.804688 43.046875 29.804688 L 48.199219 29.804688 C 48.613281 29.804688 48.988281 29.683594 49.324219 29.4375 C 49.65625 29.195312 49.890625 28.878906 50.019531 28.484375 L 51.609375 23.578125 C 52.183594 21.820312 54.675781 21.820312 55.246094 23.578125 L 56.839844 28.480469 C 56.96875 28.875 57.199219 29.191406 57.535156 29.4375 C 57.867188 29.679688 58.242188 29.800781 58.65625 29.800781 L 63.808594 29.800781 C 65.664062 29.800781 66.433594 32.171875 64.933594 33.257812 Z M 94.441406 33.257812 L 90.273438 36.289062 C 89.9375 36.53125 89.703125 36.851562 89.578125 37.246094 C 89.449219 37.636719 89.449219 38.03125 89.578125 38.425781 L 91.167969 43.328125 C 91.746094 45.089844 89.726562 46.550781 88.226562 45.464844 L 84.058594 42.433594 C 83.722656 42.191406 83.347656 42.070312 82.933594 42.070312 C 82.519531 42.070312 82.144531 42.191406 81.8125 42.433594 L 77.640625 45.464844 C 76.144531 46.550781 74.128906 45.089844 74.699219 43.328125 L 76.292969 38.425781 C 76.421875 38.03125 76.421875 37.636719 76.292969 37.246094 C 76.164062 36.851562 75.933594 36.53125 75.597656 36.289062 L 71.429688 33.257812 C 69.929688 32.171875 70.699219 29.804688 72.554688 29.804688 L 77.707031 29.804688 C 78.121094 29.804688 78.492188 29.683594 78.828125 29.4375 C 79.164062 29.195312 79.394531 28.878906 79.523438 28.484375 L 81.117188 23.582031 C 81.6875 21.820312 84.179688 21.820312 84.753906 23.582031 L 86.34375 28.484375 C 86.472656 28.878906 86.703125 29.195312 87.039062 29.4375 C 87.375 29.683594 87.75 29.804688 88.164062 29.804688 L 93.316406 29.804688 C 95.167969 29.800781 95.9375 32.171875 94.441406 33.257812 Z M 123.945312 33.257812 L 119.777344 36.289062 C 119.441406 36.53125 119.210938 36.851562 119.082031 37.246094 C 118.953125 37.636719 118.953125 38.03125 119.082031 38.425781 L 120.675781 43.328125 C 121.246094 45.089844 119.230469 46.550781 117.730469 45.464844 L 113.5625 42.433594 C 113.226562 42.191406 112.855469 42.070312 112.441406 42.070312 C 112.027344 42.070312 111.652344 42.191406 111.316406 42.433594 L 107.148438 45.464844 C 105.648438 46.550781 103.632812 45.089844 104.203125 43.328125 L 105.796875 38.425781 C 105.925781 38.03125 105.925781 37.636719 105.796875 37.246094 C 105.667969 36.851562 105.4375 36.53125 105.101562 36.289062 L 100.933594 33.257812 C 99.4375 32.171875 100.207031 29.804688 102.058594 29.804688 L 107.210938 29.804688 C 107.625 29.804688 108 29.683594 108.335938 29.4375 C 108.667969 29.195312 108.902344 28.878906 109.027344 28.484375 L 110.621094 23.582031 C 111.195312 21.820312 113.6875 21.820312 114.257812 23.582031 L 115.851562 28.484375 C 115.980469 28.878906 116.210938 29.195312 116.546875 29.4375 C 116.878906 29.683594 117.253906 29.804688 117.667969 29.804688 L 122.820312 29.804688 C 124.671875 29.800781 125.445312 32.171875 123.945312 33.257812 Z M 153.449219 33.257812 L 149.28125 36.289062 C 148.945312 36.53125 148.714844 36.851562 148.585938 37.246094 C 148.460938 37.636719 148.460938 38.03125 148.585938 38.425781 L 150.179688 43.328125 C 150.753906 45.089844 148.734375 46.550781 147.238281 45.464844 L 143.070312 42.433594 C 142.734375 42.191406 142.359375 42.070312 141.945312 42.070312 C 141.53125 42.070312 141.15625 42.191406 140.820312 42.433594 L 136.652344 45.464844 C 135.15625 46.550781 133.136719 45.089844 133.710938 43.328125 L 135.300781 38.425781 C 135.429688 38.03125 135.429688 37.636719 135.304688 37.246094 C 135.175781 36.851562 134.941406 36.53125 134.609375 36.289062 L 130.4375 33.257812 C 128.9375 32.171875 129.710938 29.804688 131.5625 29.804688 L 136.710938 29.804688 C 137.128906 29.804688 137.5 29.683594 137.835938 29.4375 C 138.171875 29.195312 138.402344 28.878906 138.53125 28.484375 L 140.125 23.582031 C 140.699219 21.820312 143.1875 21.820312 143.761719 23.582031 L 145.351562 28.484375 C 145.480469 28.878906 145.710938 29.195312 146.046875 29.4375 C 146.382812 29.683594 146.757812 29.804688 147.171875 29.804688 L 152.324219 29.804688 C 154.179688 29.800781 154.949219 32.171875 153.449219 33.257812 Z M 182.957031 33.257812 L 178.789062 36.289062 C 178.453125 36.53125 178.21875 36.851562 178.09375 37.246094 C 177.964844 37.636719 177.964844 38.03125 178.09375 38.425781 L 179.683594 43.328125 C 180.261719 45.089844 178.242188 46.550781 176.742188 45.464844 L 172.574219 42.433594 C 172.238281 42.191406 171.863281 42.070312 171.449219 42.070312 C 171.035156 42.070312 170.660156 42.191406 170.328125 42.433594 L 166.160156 45.464844 C 164.660156 46.550781 162.644531 45.089844 163.214844 43.328125 L 164.808594 38.425781 C 164.9375 38.03125 164.9375 37.636719 164.808594 37.246094 C 164.679688 36.851562 164.449219 36.53125 164.113281 36.289062 L 159.945312 33.257812 C 158.445312 32.171875 159.21875 29.804688 161.070312 29.804688 L 166.222656 29.804688 C 166.636719 29.804688 167.011719 29.683594 167.34375 29.4375 C 167.679688 29.195312 167.910156 28.878906 168.039062 28.484375 L 169.632812 23.582031 C 170.203125 21.820312 172.695312 21.820312 173.269531 23.582031 L 174.859375 28.484375 C 174.988281 28.875 175.222656 29.195312 175.554688 29.4375 C 175.890625 29.683594 176.265625 29.804688 176.679688 29.804688 L 181.832031 29.804688 C 183.683594 29.800781 184.453125 32.171875 182.957031 33.257812 Z M 182.957031 33.257812 " fill-opacity="1" fill-rule="nonzero"/></g></svg>