<svg xmlns="http://www.w3.org/2000/svg" xmlns:xlink="http://www.w3.org/1999/xlink" width="300" zoomAndPan="magnify" viewBox="0 0 224.87999 233.04" height="300" preserveAspectRatio="xMidYMid meet" version="1.0"><defs><clipPath id="9d96691aad"><path d="M 3.640625 120 L 28 120 L 28 208.839844 L 3.640625 208.839844 Z M 3.640625 120 " clip-rule="nonzero"/></clipPath><clipPath id="55a39c9ec4"><path d="M 33 102 L 220.996094 102 L 220.996094 191 L 33 191 Z M 33 102 " clip-rule="nonzero"/></clipPath><clipPath id="7bcf667d65"><path d="M 39 15.386719 L 51 15.386719 L 51 27 L 39 27 Z M 39 15.386719 " clip-rule="nonzero"/></clipPath></defs><g clip-path="url(#9d96691aad)"><path fill="#0c1b37" d="M 3.664062 125.601562 L 3.664062 203.402344 C 3.664062 206.289062 6.144531 208.675781 9.164062 208.675781 L 27.871094 208.675781 L 27.871094 120.328125 L 9.164062 120.328125 C 6.144531 120.328125 3.664062 122.714844 3.664062 125.601562 Z M 3.664062 125.601562 " fill-opacity="1" fill-rule="nonzero"/></g><g clip-path="url(#55a39c9ec4)"><path fill="#0c1b37" d="M 216.472656 106.039062 C 214.261719 103.558594 211.378906 102.207031 208.3125 102.207031 C 205.96875 102.207031 203.667969 103.015625 201.730469 104.59375 C 201.6875 104.640625 201.640625 104.640625 201.640625 104.683594 L 160.082031 134.253906 C 159.222656 143.765625 151.875 151.25 143.085938 151.25 L 138.351562 151.25 C 122.710938 151.25 107.609375 156.660156 95.753906 166.53125 C 95.261719 166.9375 94.675781 167.160156 94.042969 167.160156 C 93.277344 167.160156 92.511719 166.847656 92.015625 166.214844 C 91.066406 165.089844 91.246094 163.421875 92.375 162.472656 C 105.175781 151.835938 121.539062 145.976562 138.398438 145.976562 L 143.132812 145.976562 C 149.441406 145.976562 154.714844 140.070312 154.898438 132.8125 C 154.898438 132.769531 154.898438 132.769531 154.898438 132.722656 C 154.898438 132.632812 154.898438 132.542969 154.898438 132.453125 C 154.898438 131.820312 154.851562 131.191406 154.761719 130.558594 C 154.671875 129.882812 154.535156 129.207031 154.402344 128.574219 C 153.320312 124.472656 150.613281 121.136719 147.054688 119.652344 C 145.699219 119.109375 144.304688 118.839844 142.859375 118.882812 L 119.554688 119.46875 C 119.464844 119.46875 119.332031 119.46875 119.242188 119.46875 L 76.597656 115.097656 C 75.515625 115.007812 74.390625 114.917969 73.261719 114.917969 L 73.082031 114.917969 C 66.367188 114.917969 59.738281 116.945312 53.878906 120.777344 C 51.582031 122.308594 49.417969 124.113281 47.476562 126.097656 L 33.1875 140.835938 L 33.1875 190.558594 L 148.40625 190.558594 C 154.851562 190.558594 160.9375 187.71875 165.488281 182.578125 L 216.472656 125.285156 C 221.203125 120.011719 221.203125 111.355469 216.472656 106.039062 Z M 216.472656 106.039062 " fill-opacity="1" fill-rule="nonzero"/></g><path fill="#0c1b37" d="M 139.121094 42.570312 L 112.253906 40.226562 C 112.207031 40.226562 112.117188 40.226562 112.074219 40.226562 L 76.957031 37.160156 L 76.957031 93.730469 L 140.699219 99.140625 Z M 139.121094 42.570312 " fill-opacity="1" fill-rule="nonzero"/><path fill="#0c1b37" d="M 131.636719 22.734375 L 109.910156 20.933594 L 84.621094 32.472656 L 111.757812 34.859375 Z M 131.636719 22.734375 " fill-opacity="1" fill-rule="nonzero"/><path fill="#0c1b37" d="M 141.328125 37.386719 L 152.6875 32.605469 C 152.734375 32.605469 152.777344 32.5625 152.777344 32.5625 L 168.328125 26.027344 L 168.824219 25.800781 L 140.605469 23.457031 L 120.683594 35.582031 Z M 141.328125 37.386719 " fill-opacity="1" fill-rule="nonzero"/><path fill="#0c1b37" d="M 161.792969 45.363281 C 162.605469 45.320312 163.371094 45.632812 163.910156 46.21875 L 166.707031 49.242188 L 166.707031 32.515625 L 156.429688 36.84375 L 156.429688 51.359375 L 159.808594 46.535156 C 160.261719 45.859375 160.980469 45.410156 161.792969 45.363281 Z M 161.792969 45.363281 " fill-opacity="1" fill-rule="nonzero"/><path fill="#0c1b37" d="M 162.289062 52.304688 L 155.976562 61.367188 C 155.484375 62.085938 154.625 62.492188 153.816406 62.492188 C 153.542969 62.492188 153.273438 62.449219 153.003906 62.359375 C 151.875 61.996094 151.15625 61.003906 151.15625 59.832031 L 151.15625 39.054688 L 144.484375 41.847656 L 146.015625 97.96875 L 177.300781 83.90625 L 177.300781 28.101562 L 172.070312 30.261719 L 172.070312 56.136719 C 172.070312 57.21875 171.394531 58.210938 170.359375 58.617188 C 169.320312 59.023438 168.195312 58.75 167.429688 57.941406 Z M 162.289062 52.304688 " fill-opacity="1" fill-rule="nonzero"/><path fill="#0c1b37" d="M 59.738281 32.425781 L 61.722656 28.777344 L 65.375 26.792969 L 61.722656 24.808594 L 59.738281 21.15625 L 57.757812 24.808594 L 54.105469 26.792969 L 57.757812 28.777344 Z M 59.738281 32.425781 " fill-opacity="1" fill-rule="nonzero"/><g clip-path="url(#7bcf667d65)"><path fill="#0c1b37" d="M 44.683594 26.65625 L 46.667969 23.007812 L 50.316406 21.023438 L 46.667969 19.039062 L 44.683594 15.386719 L 42.699219 19.039062 L 39.050781 21.023438 L 42.699219 23.007812 Z M 44.683594 26.65625 " fill-opacity="1" fill-rule="nonzero"/></g></svg>