<svg xmlns="http://www.w3.org/2000/svg" xmlns:xlink="http://www.w3.org/1999/xlink" width="300" zoomAndPan="magnify" viewBox="0 0 224.87999 225" height="300" preserveAspectRatio="xMidYMid meet" version="1.0"><defs><clipPath id="06c35769e7"><path d="M 15 3.246094 L 211 3.246094 L 211 221 L 15 221 Z M 15 3.246094 " clip-rule="nonzero"/></clipPath></defs><g clip-path="url(#06c35769e7)"><path fill="#0c1b37" d="M 169.855469 64.378906 C 170.515625 64.378906 171.175781 64.347656 171.832031 64.28125 C 172.488281 64.21875 173.140625 64.121094 173.789062 63.996094 C 174.4375 63.867188 175.074219 63.707031 175.707031 63.515625 C 176.339844 63.324219 176.960938 63.101562 177.570312 62.851562 C 178.179688 62.597656 178.777344 62.316406 179.359375 62.007812 C 179.941406 61.695312 180.507812 61.355469 181.058594 60.992188 C 181.605469 60.625 182.136719 60.230469 182.648438 59.8125 C 183.15625 59.394531 183.644531 58.953125 184.113281 58.484375 C 184.582031 58.019531 185.023438 57.53125 185.441406 57.019531 C 185.863281 56.511719 186.253906 55.980469 186.621094 55.433594 C 186.988281 54.882812 187.328125 54.320312 187.640625 53.738281 C 187.953125 53.15625 188.234375 52.558594 188.488281 51.949219 C 188.738281 51.339844 188.960938 50.71875 189.152344 50.085938 C 189.347656 49.453125 189.507812 48.816406 189.636719 48.167969 C 189.765625 47.519531 189.863281 46.867188 189.925781 46.210938 C 189.992188 45.554688 190.023438 44.894531 190.023438 44.234375 C 190.023438 43.574219 189.992188 42.917969 189.929688 42.257812 C 189.863281 41.601562 189.765625 40.949219 189.636719 40.304688 C 189.507812 39.65625 189.347656 39.015625 189.15625 38.382812 C 188.964844 37.75 188.746094 37.132812 188.492188 36.519531 C 188.238281 35.910156 187.957031 35.316406 187.648438 34.734375 C 187.335938 34.148438 186.996094 33.585938 186.628906 33.035156 C 186.261719 32.488281 185.871094 31.957031 185.453125 31.445312 C 185.03125 30.9375 184.589844 30.449219 184.125 29.980469 C 183.65625 29.515625 183.167969 29.070312 182.65625 28.652344 C 182.148438 28.234375 181.617188 27.839844 181.070312 27.472656 C 180.519531 27.105469 179.953125 26.769531 179.371094 26.457031 C 178.789062 26.144531 178.195312 25.863281 177.585938 25.609375 C 176.972656 25.359375 176.351562 25.136719 175.722656 24.945312 C 175.089844 24.753906 174.449219 24.59375 173.800781 24.464844 C 173.15625 24.335938 172.503906 24.238281 171.847656 24.175781 C 171.1875 24.109375 170.53125 24.078125 169.871094 24.078125 C 169.210938 24.078125 168.550781 24.109375 167.894531 24.175781 C 167.238281 24.238281 166.585938 24.335938 165.9375 24.464844 C 165.289062 24.59375 164.652344 24.753906 164.019531 24.945312 C 163.386719 25.140625 162.765625 25.359375 162.15625 25.613281 C 161.546875 25.867188 160.949219 26.148438 160.367188 26.460938 C 159.785156 26.773438 159.222656 27.109375 158.671875 27.476562 C 158.125 27.84375 157.59375 28.238281 157.082031 28.65625 C 156.574219 29.078125 156.085938 29.519531 155.617188 29.988281 C 155.152344 30.453125 154.710938 30.941406 154.289062 31.453125 C 153.871094 31.964844 153.480469 32.492188 153.113281 33.042969 C 152.746094 33.589844 152.40625 34.15625 152.097656 34.738281 C 151.785156 35.320312 151.503906 35.917969 151.253906 36.527344 C 151 37.136719 150.777344 37.757812 150.585938 38.390625 C 150.394531 39.023438 150.234375 39.664062 150.109375 40.308594 C 149.980469 40.957031 149.882812 41.609375 149.820312 42.265625 C 149.753906 42.925781 149.722656 43.582031 149.722656 44.242188 C 149.726562 44.902344 149.757812 45.558594 149.824219 46.214844 C 149.890625 46.871094 149.988281 47.523438 150.117188 48.167969 C 150.246094 48.816406 150.40625 49.453125 150.597656 50.082031 C 150.789062 50.714844 151.011719 51.332031 151.265625 51.941406 C 151.519531 52.550781 151.800781 53.144531 152.109375 53.726562 C 152.421875 54.308594 152.761719 54.871094 153.128906 55.421875 C 153.492188 55.96875 153.886719 56.496094 154.304688 57.007812 C 154.722656 57.515625 155.164062 58.003906 155.628906 58.46875 C 156.097656 58.933594 156.582031 59.378906 157.09375 59.796875 C 157.601562 60.214844 158.132812 60.605469 158.679688 60.972656 C 159.226562 61.339844 159.792969 61.679688 160.371094 61.988281 C 160.953125 62.300781 161.546875 62.582031 162.15625 62.835938 C 162.765625 63.089844 163.382812 63.308594 164.015625 63.503906 C 164.644531 63.695312 165.285156 63.855469 165.929688 63.984375 C 166.578125 64.113281 167.226562 64.210938 167.882812 64.277344 C 168.539062 64.34375 169.195312 64.378906 169.855469 64.378906 Z M 67.953125 178.445312 L 50.800781 198.214844 C 50.167969 198.949219 49.367188 199.335938 48.398438 199.371094 L 48.234375 199.371094 C 47.335938 199.367188 46.558594 199.066406 45.894531 198.460938 L 33.691406 186.859375 C 33.359375 186.550781 33.097656 186.1875 32.90625 185.777344 C 32.71875 185.363281 32.617188 184.929688 32.601562 184.472656 C 32.585938 184.019531 32.660156 183.578125 32.820312 183.15625 C 32.984375 182.730469 33.222656 182.351562 33.535156 182.023438 C 33.847656 181.695312 34.210938 181.4375 34.628906 181.253906 C 35.046875 181.070312 35.480469 180.976562 35.933594 180.96875 C 36.390625 180.960938 36.828125 181.039062 37.25 181.207031 C 37.671875 181.375 38.046875 181.621094 38.371094 181.9375 L 48 191.050781 L 62.8125 173.980469 C 63.109375 173.644531 63.460938 173.378906 63.863281 173.179688 C 64.265625 172.980469 64.691406 172.867188 65.140625 172.835938 C 65.585938 172.808594 66.023438 172.863281 66.449219 173.007812 C 66.875 173.148438 67.257812 173.367188 67.597656 173.664062 C 67.9375 173.957031 68.207031 174.304688 68.40625 174.707031 C 68.609375 175.109375 68.726562 175.535156 68.757812 175.980469 C 68.792969 176.429688 68.738281 176.867188 68.597656 177.292969 C 68.460938 177.71875 68.242188 178.105469 67.953125 178.445312 Z M 135.671875 39.992188 L 141.246094 38.929688 C 141.871094 38.8125 142.421875 38.539062 142.894531 38.113281 C 143.367188 37.6875 143.695312 37.171875 143.878906 36.558594 C 144.417969 34.722656 145.144531 32.960938 146.058594 31.277344 C 146.363281 30.71875 146.5 30.125 146.46875 29.488281 C 146.4375 28.855469 146.238281 28.277344 145.878906 27.753906 L 142.679688 23.078125 L 148.6875 17.0625 L 153.355469 20.25 C 153.882812 20.613281 154.464844 20.8125 155.105469 20.84375 C 155.742188 20.875 156.34375 20.738281 156.90625 20.433594 C 158.585938 19.5 160.34375 18.761719 162.1875 18.21875 C 162.800781 18.042969 163.320312 17.722656 163.746094 17.25 C 164.175781 16.78125 164.449219 16.230469 164.5625 15.605469 L 165.605469 10.046875 L 174.101562 10.046875 L 175.148438 15.605469 C 175.265625 16.230469 175.535156 16.777344 175.964844 17.25 C 176.394531 17.71875 176.914062 18.042969 177.527344 18.214844 C 179.367188 18.757812 181.128906 19.5 182.804688 20.433594 C 183.367188 20.738281 183.96875 20.875 184.605469 20.84375 C 185.246094 20.808594 185.828125 20.613281 186.355469 20.25 L 191.019531 17.0625 L 197.03125 23.074219 L 193.832031 27.753906 C 193.472656 28.277344 193.277344 28.855469 193.246094 29.488281 C 193.210938 30.121094 193.347656 30.71875 193.652344 31.273438 C 194.566406 32.960938 195.292969 34.722656 195.832031 36.558594 C 196.015625 37.167969 196.34375 37.6875 196.816406 38.113281 C 197.289062 38.539062 197.839844 38.808594 198.464844 38.929688 L 204.039062 39.992188 L 204.039062 48.464844 L 198.445312 49.527344 C 197.820312 49.648438 197.269531 49.917969 196.796875 50.34375 C 196.324219 50.769531 195.992188 51.289062 195.808594 51.894531 C 195.269531 53.722656 194.542969 55.476562 193.632812 57.148438 C 193.324219 57.707031 193.1875 58.300781 193.222656 58.9375 C 193.253906 59.570312 193.449219 60.148438 193.808594 60.671875 L 197.027344 65.410156 L 191.019531 71.390625 L 186.304688 68.171875 C 185.777344 67.8125 185.195312 67.613281 184.554688 67.582031 C 183.917969 67.546875 183.316406 67.683594 182.757812 67.992188 C 181.097656 68.90625 179.359375 69.625 177.539062 70.148438 C 176.925781 70.332031 176.40625 70.660156 175.980469 71.136719 C 175.550781 71.609375 175.277344 72.160156 175.160156 72.789062 L 174.101562 78.40625 L 165.605469 78.40625 L 164.550781 72.792969 C 164.429688 72.164062 164.160156 71.613281 163.730469 71.140625 C 163.304688 70.664062 162.785156 70.335938 162.175781 70.152344 C 160.355469 69.625 158.613281 68.90625 156.953125 67.996094 C 156.390625 67.6875 155.792969 67.550781 155.15625 67.585938 C 154.519531 67.617188 153.9375 67.816406 153.410156 68.175781 L 148.6875 71.394531 L 142.679688 65.414062 L 145.898438 60.675781 C 146.261719 60.152344 146.457031 59.574219 146.492188 58.941406 C 146.523438 58.304688 146.386719 57.710938 146.078125 57.152344 C 145.164062 55.480469 144.4375 53.726562 143.898438 51.898438 C 143.714844 51.289062 143.386719 50.773438 142.914062 50.347656 C 142.441406 49.921875 141.890625 49.648438 141.265625 49.53125 L 135.671875 48.46875 Z M 50.703125 214.101562 C 51.621094 214.101562 52.535156 214.054688 53.449219 213.964844 C 54.359375 213.875 55.265625 213.742188 56.167969 213.5625 C 57.066406 213.382812 57.953125 213.160156 58.832031 212.894531 C 59.710938 212.628906 60.570312 212.320312 61.417969 211.96875 C 62.265625 211.617188 63.09375 211.222656 63.902344 210.792969 C 64.710938 210.359375 65.496094 209.886719 66.257812 209.378906 C 67.019531 208.871094 67.757812 208.324219 68.464844 207.742188 C 69.175781 207.160156 69.851562 206.542969 70.5 205.894531 C 71.148438 205.246094 71.765625 204.570312 72.347656 203.859375 C 72.925781 203.152344 73.472656 202.414062 73.980469 201.652344 C 74.492188 200.890625 74.960938 200.105469 75.394531 199.296875 C 75.828125 198.488281 76.21875 197.660156 76.570312 196.8125 C 76.917969 195.964844 77.226562 195.101562 77.492188 194.222656 C 77.761719 193.347656 77.984375 192.457031 78.160156 191.558594 C 78.339844 190.660156 78.472656 189.753906 78.5625 188.839844 C 78.652344 187.929688 78.699219 187.011719 78.699219 186.097656 C 78.699219 185.179688 78.652344 184.265625 78.5625 183.351562 C 78.472656 182.441406 78.339844 181.535156 78.160156 180.632812 C 77.980469 179.734375 77.757812 178.847656 77.492188 177.96875 C 77.226562 177.089844 76.917969 176.230469 76.566406 175.382812 C 76.214844 174.535156 75.824219 173.707031 75.390625 172.898438 C 74.957031 172.089844 74.488281 171.304688 73.976562 170.542969 C 73.46875 169.78125 72.921875 169.042969 72.339844 168.335938 C 71.757812 167.625 71.144531 166.949219 70.496094 166.300781 C 69.847656 165.652344 69.167969 165.035156 68.460938 164.453125 C 67.75 163.871094 67.015625 163.328125 66.253906 162.816406 C 65.488281 162.308594 64.703125 161.835938 63.894531 161.40625 C 63.085938 160.972656 62.257812 160.582031 61.410156 160.230469 C 60.5625 159.878906 59.703125 159.570312 58.824219 159.304688 C 57.945312 159.039062 57.058594 158.816406 56.160156 158.636719 C 55.257812 158.457031 54.355469 158.324219 53.441406 158.234375 C 52.527344 158.144531 51.613281 158.101562 50.695312 158.101562 C 49.78125 158.101562 48.863281 158.144531 47.953125 158.234375 C 47.039062 158.324219 46.132812 158.460938 45.234375 158.636719 C 44.335938 158.816406 43.445312 159.039062 42.570312 159.304688 C 41.691406 159.570312 40.828125 159.878906 39.980469 160.230469 C 39.136719 160.582031 38.308594 160.972656 37.5 161.40625 C 36.691406 161.839844 35.902344 162.308594 35.140625 162.820312 C 34.378906 163.328125 33.644531 163.875 32.933594 164.457031 C 32.226562 165.039062 31.546875 165.652344 30.898438 166.300781 C 30.25 166.949219 29.636719 167.628906 29.054688 168.335938 C 28.472656 169.046875 27.925781 169.78125 27.417969 170.542969 C 26.90625 171.304688 26.4375 172.09375 26.003906 172.902344 C 25.570312 173.710938 25.179688 174.539062 24.828125 175.382812 C 24.476562 176.230469 24.167969 177.09375 23.902344 177.972656 C 23.636719 178.847656 23.414062 179.738281 23.234375 180.636719 C 23.058594 181.535156 22.921875 182.441406 22.832031 183.355469 C 22.742188 184.265625 22.699219 185.183594 22.699219 186.097656 C 22.699219 187.015625 22.746094 187.929688 22.835938 188.84375 C 22.925781 189.753906 23.0625 190.660156 23.242188 191.558594 C 23.421875 192.457031 23.644531 193.347656 23.914062 194.222656 C 24.179688 195.101562 24.488281 195.964844 24.839844 196.808594 C 25.191406 197.65625 25.585938 198.484375 26.015625 199.292969 C 26.449219 200.101562 26.921875 200.886719 27.429688 201.648438 C 27.941406 202.410156 28.484375 203.144531 29.066406 203.855469 C 29.648438 204.5625 30.265625 205.242188 30.914062 205.890625 C 31.5625 206.539062 32.238281 207.152344 32.949219 207.734375 C 33.65625 208.316406 34.390625 208.859375 35.15625 209.371094 C 35.917969 209.878906 36.703125 210.351562 37.511719 210.785156 C 38.320312 211.214844 39.144531 211.609375 39.992188 211.960938 C 40.839844 212.3125 41.703125 212.621094 42.578125 212.886719 C 43.457031 213.152344 44.34375 213.378906 45.242188 213.558594 C 46.144531 213.738281 47.046875 213.871094 47.960938 213.960938 C 48.871094 214.054688 49.789062 214.101562 50.703125 214.101562 Z M 171.988281 182.667969 C 173.039062 182.667969 174.085938 182.617188 175.132812 182.515625 C 176.175781 182.410156 177.214844 182.257812 178.242188 182.050781 C 179.273438 181.847656 180.289062 181.59375 181.292969 181.289062 C 182.300781 180.984375 183.285156 180.628906 184.257812 180.226562 C 185.226562 179.828125 186.175781 179.378906 187.101562 178.882812 C 188.027344 178.386719 188.925781 177.847656 189.796875 177.265625 C 190.671875 176.683594 191.511719 176.058594 192.324219 175.390625 C 193.136719 174.726562 193.914062 174.023438 194.65625 173.28125 C 195.398438 172.539062 196.101562 171.761719 196.769531 170.949219 C 197.433594 170.136719 198.058594 169.296875 198.640625 168.421875 C 199.226562 167.550781 199.765625 166.648438 200.257812 165.722656 C 200.753906 164.796875 201.203125 163.851562 201.605469 162.878906 C 202.003906 161.910156 202.359375 160.921875 202.664062 159.917969 C 202.96875 158.914062 203.222656 157.898438 203.429688 156.867188 C 203.632812 155.835938 203.785156 154.800781 203.890625 153.753906 C 203.992188 152.710938 204.042969 151.664062 204.042969 150.613281 C 204.042969 149.5625 203.992188 148.515625 203.890625 147.472656 C 203.785156 146.425781 203.632812 145.390625 203.429688 144.359375 C 203.222656 143.332031 202.96875 142.3125 202.664062 141.308594 C 202.359375 140.304688 202.003906 139.316406 201.605469 138.347656 C 201.203125 137.375 200.753906 136.429688 200.257812 135.503906 C 199.765625 134.578125 199.226562 133.679688 198.640625 132.804688 C 198.058594 131.933594 197.433594 131.089844 196.769531 130.277344 C 196.101562 129.464844 195.398438 128.691406 194.65625 127.949219 C 193.914062 127.203125 193.136719 126.5 192.324219 125.835938 C 191.511719 125.167969 190.671875 124.542969 189.796875 123.960938 C 188.925781 123.378906 188.027344 122.839844 187.101562 122.34375 C 186.175781 121.847656 185.226562 121.402344 184.257812 121 C 183.285156 120.597656 182.300781 120.242188 181.292969 119.9375 C 180.289062 119.632812 179.273438 119.378906 178.242188 119.175781 C 177.214844 118.96875 176.175781 118.816406 175.132812 118.714844 C 174.085938 118.609375 173.039062 118.558594 171.988281 118.558594 L 147.171875 118.558594 C 146.992188 119.507812 146.734375 120.433594 146.394531 121.335938 C 146.054688 122.238281 145.640625 123.109375 145.152344 123.9375 C 144.660156 124.769531 144.105469 125.554688 143.480469 126.289062 C 142.855469 127.023438 142.167969 127.699219 141.425781 128.316406 C 140.683594 128.933594 139.894531 129.480469 139.054688 129.960938 C 138.21875 130.4375 137.347656 130.84375 136.4375 131.167969 C 135.53125 131.496094 134.601562 131.746094 133.652344 131.910156 C 132.699219 132.078125 131.742188 132.160156 130.777344 132.164062 L 101.515625 132.164062 C 100.550781 132.160156 99.59375 132.078125 98.640625 131.910156 C 97.691406 131.746094 96.761719 131.496094 95.855469 131.167969 C 94.949219 130.839844 94.074219 130.4375 93.238281 129.957031 C 92.398438 129.480469 91.609375 128.929688 90.867188 128.316406 C 90.125 127.699219 89.441406 127.023438 88.816406 126.289062 C 88.191406 125.554688 87.632812 124.769531 87.144531 123.9375 C 86.65625 123.105469 86.238281 122.238281 85.902344 121.335938 C 85.5625 120.433594 85.304688 119.507812 85.125 118.558594 L 54.746094 118.558594 C 53.472656 118.5625 52.199219 118.503906 50.929688 118.382812 C 49.660156 118.261719 48.402344 118.078125 47.152344 117.835938 C 45.898438 117.589844 44.664062 117.285156 43.441406 116.917969 C 42.222656 116.550781 41.023438 116.125 39.84375 115.640625 C 38.664062 115.152344 37.511719 114.613281 36.386719 114.015625 C 35.261719 113.414062 34.167969 112.761719 33.105469 112.058594 C 32.042969 111.351562 31.019531 110.59375 30.03125 109.789062 C 29.046875 108.980469 28.101562 108.128906 27.199219 107.226562 C 26.292969 106.328125 25.4375 105.386719 24.628906 104.402344 C 23.816406 103.417969 23.058594 102.394531 22.347656 101.335938 C 21.640625 100.277344 20.984375 99.1875 20.382812 98.0625 C 19.777344 96.9375 19.234375 95.789062 18.746094 94.609375 C 18.253906 93.433594 17.824219 92.234375 17.453125 91.015625 C 17.085938 89.796875 16.773438 88.558594 16.523438 87.308594 C 16.277344 86.058594 16.089844 84.800781 15.964844 83.53125 C 15.839844 82.261719 15.777344 80.992188 15.777344 79.714844 C 15.777344 78.441406 15.839844 77.167969 15.964844 75.902344 C 16.089844 74.632812 16.277344 73.371094 16.523438 72.121094 C 16.773438 70.871094 17.085938 69.636719 17.453125 68.417969 C 17.824219 67.199219 18.253906 66 18.746094 64.820312 C 19.234375 63.644531 19.777344 62.496094 20.382812 61.371094 C 20.984375 60.246094 21.640625 59.15625 22.347656 58.097656 C 23.058594 57.039062 23.816406 56.015625 24.628906 55.03125 C 25.4375 54.046875 26.292969 53.105469 27.199219 52.203125 C 28.101562 51.304688 29.046875 50.453125 30.03125 49.644531 C 31.019531 48.835938 32.042969 48.082031 33.105469 47.375 C 34.167969 46.667969 35.261719 46.015625 36.386719 45.417969 C 37.511719 44.820312 38.664062 44.277344 39.84375 43.792969 C 41.023438 43.308594 42.222656 42.882812 43.441406 42.515625 C 44.664062 42.148438 45.898438 41.84375 47.152344 41.597656 C 48.402344 41.351562 49.660156 41.171875 50.929688 41.050781 C 52.199219 40.929688 53.472656 40.871094 54.746094 40.875 L 55.765625 40.875 C 55.945312 39.925781 56.203125 38.996094 56.542969 38.09375 C 56.878906 37.1875 57.292969 36.320312 57.78125 35.488281 C 58.273438 34.65625 58.828125 33.871094 59.453125 33.132812 C 60.078125 32.398438 60.761719 31.71875 61.503906 31.101562 C 62.246094 30.484375 63.039062 29.9375 63.875 29.457031 C 64.714844 28.972656 65.585938 28.570312 66.492188 28.238281 C 67.402344 27.910156 68.332031 27.660156 69.28125 27.492188 C 70.234375 27.324219 71.191406 27.238281 72.15625 27.238281 L 101.421875 27.238281 C 102.386719 27.242188 103.34375 27.324219 104.296875 27.496094 C 105.246094 27.664062 106.175781 27.910156 107.085938 28.242188 C 107.992188 28.570312 108.863281 28.976562 109.703125 29.457031 C 110.539062 29.9375 111.332031 30.488281 112.074219 31.105469 C 112.816406 31.722656 113.5 32.398438 114.125 33.136719 C 114.75 33.871094 115.308594 34.65625 115.796875 35.488281 C 116.285156 36.320312 116.699219 37.1875 117.039062 38.09375 C 117.378906 38.996094 117.636719 39.925781 117.8125 40.875 L 128.871094 40.875 L 128.871094 38.140625 C 128.871094 37.605469 128.964844 37.089844 129.148438 36.585938 C 129.328125 36.085938 129.589844 35.628906 129.933594 35.21875 C 130.277344 34.808594 130.675781 34.46875 131.136719 34.199219 C 131.597656 33.925781 132.089844 33.742188 132.617188 33.644531 L 138.019531 32.613281 C 138.351562 31.703125 138.71875 30.820312 139.132812 29.910156 L 136.03125 25.386719 C 135.730469 24.945312 135.511719 24.464844 135.378906 23.945312 C 135.246094 23.429688 135.203125 22.902344 135.253906 22.371094 C 135.300781 21.839844 135.441406 21.332031 135.667969 20.847656 C 135.894531 20.363281 136.199219 19.933594 136.578125 19.554688 L 145.175781 10.960938 C 145.550781 10.578125 145.984375 10.273438 146.46875 10.046875 C 146.953125 9.816406 147.460938 9.675781 147.996094 9.628906 C 148.527344 9.578125 149.054688 9.621094 149.574219 9.753906 C 150.09375 9.890625 150.574219 10.109375 151.015625 10.414062 L 155.535156 13.511719 C 156.425781 13.085938 157.332031 12.691406 158.25 12.355469 L 159.261719 6.980469 C 159.363281 6.457031 159.550781 5.964844 159.820312 5.503906 C 160.09375 5.042969 160.433594 4.644531 160.847656 4.300781 C 161.257812 3.960938 161.714844 3.699219 162.21875 3.519531 C 162.722656 3.335938 163.242188 3.246094 163.777344 3.246094 L 175.933594 3.246094 C 176.46875 3.246094 176.988281 3.335938 177.492188 3.515625 C 177.992188 3.699219 178.449219 3.960938 178.863281 4.300781 C 179.273438 4.640625 179.617188 5.042969 179.886719 5.5 C 180.160156 5.960938 180.347656 6.453125 180.445312 6.980469 L 181.457031 12.355469 C 182.378906 12.6875 183.285156 13.085938 184.175781 13.507812 L 188.695312 10.410156 C 189.136719 10.109375 189.617188 9.886719 190.136719 9.753906 C 190.65625 9.617188 191.179688 9.574219 191.714844 9.625 C 192.25 9.675781 192.757812 9.816406 193.242188 10.042969 C 193.726562 10.273438 194.15625 10.578125 194.535156 10.957031 L 203.132812 19.554688 C 203.511719 19.929688 203.816406 20.359375 204.042969 20.84375 C 204.269531 21.328125 204.410156 21.835938 204.460938 22.371094 C 204.507812 22.902344 204.464844 23.425781 204.332031 23.945312 C 204.199219 24.464844 203.980469 24.941406 203.675781 25.382812 L 200.574219 29.910156 C 200.988281 30.789062 201.359375 31.699219 201.695312 32.613281 L 207.09375 33.644531 C 207.617188 33.742188 208.113281 33.925781 208.574219 34.195312 C 209.035156 34.464844 209.433594 34.804688 209.777344 35.214844 C 210.121094 35.625 210.382812 36.082031 210.5625 36.585938 C 210.746094 37.085938 210.839844 37.605469 210.839844 38.140625 L 210.839844 50.316406 C 210.839844 50.851562 210.746094 51.371094 210.566406 51.871094 C 210.382812 52.375 210.121094 52.832031 209.777344 53.242188 C 209.4375 53.652344 209.035156 53.992188 208.574219 54.261719 C 208.113281 54.53125 207.617188 54.714844 207.09375 54.8125 L 201.664062 55.84375 C 201.335938 56.753906 200.964844 57.636719 200.5625 58.515625 L 203.679688 63.074219 C 203.980469 63.515625 204.199219 63.992188 204.332031 64.511719 C 204.46875 65.027344 204.511719 65.554688 204.460938 66.085938 C 204.410156 66.621094 204.269531 67.128906 204.042969 67.609375 C 203.816406 68.09375 203.511719 68.527344 203.132812 68.902344 L 194.535156 77.496094 C 194.160156 77.878906 193.726562 78.183594 193.242188 78.410156 C 192.757812 78.640625 192.25 78.78125 191.714844 78.832031 C 191.183594 78.878906 190.65625 78.835938 190.136719 78.703125 C 189.617188 78.566406 189.136719 78.347656 188.695312 78.042969 L 184.117188 74.917969 C 183.253906 75.328125 182.375 75.691406 181.476562 76.011719 L 180.449219 81.480469 C 180.347656 82.003906 180.160156 82.496094 179.890625 82.957031 C 179.617188 83.417969 179.277344 83.816406 178.863281 84.160156 C 178.453125 84.5 177.996094 84.761719 177.492188 84.941406 C 176.988281 85.125 176.46875 85.214844 175.933594 85.214844 L 163.777344 85.214844 C 163.242188 85.214844 162.722656 85.121094 162.222656 84.941406 C 161.71875 84.757812 161.261719 84.5 160.847656 84.15625 C 160.4375 83.816406 160.09375 83.417969 159.824219 82.957031 C 159.550781 82.496094 159.363281 82.003906 159.265625 81.480469 L 158.238281 76.011719 C 157.34375 75.679688 156.460938 75.3125 155.59375 74.917969 L 151.015625 78.046875 C 150.574219 78.351562 150.09375 78.570312 149.574219 78.703125 C 149.054688 78.839844 148.53125 78.882812 147.996094 78.832031 C 147.460938 78.78125 146.953125 78.644531 146.46875 78.414062 C 145.984375 78.183594 145.554688 77.878906 145.175781 77.5 L 136.578125 68.902344 C 136.199219 68.527344 135.894531 68.09375 135.667969 67.609375 C 135.441406 67.125 135.300781 66.617188 135.253906 66.085938 C 135.203125 65.554688 135.246094 65.027344 135.378906 64.511719 C 135.511719 63.992188 135.730469 63.515625 136.03125 63.074219 L 139.148438 58.515625 C 138.746094 57.636719 138.375 56.753906 138.042969 55.84375 L 132.617188 54.8125 C 132.089844 54.714844 131.597656 54.527344 131.136719 54.257812 C 130.675781 53.988281 130.277344 53.648438 129.933594 53.238281 C 129.589844 52.828125 129.328125 52.371094 129.148438 51.871094 C 128.964844 51.367188 128.871094 50.851562 128.871094 50.316406 L 128.871094 47.644531 L 117.8125 47.644531 C 117.636719 48.59375 117.378906 49.519531 117.039062 50.425781 C 116.699219 51.328125 116.285156 52.195312 115.796875 53.03125 C 115.308594 53.863281 114.75 54.648438 114.125 55.382812 C 113.5 56.117188 112.816406 56.796875 112.074219 57.414062 C 111.332031 58.03125 110.539062 58.582031 109.703125 59.0625 C 108.863281 59.542969 107.992188 59.945312 107.085938 60.277344 C 106.175781 60.605469 105.246094 60.855469 104.296875 61.023438 C 103.34375 61.191406 102.386719 61.277344 101.421875 61.28125 L 72.15625 61.28125 C 71.191406 61.277344 70.234375 61.191406 69.28125 61.023438 C 68.332031 60.855469 67.402344 60.605469 66.492188 60.277344 C 65.585938 59.949219 64.714844 59.542969 63.875 59.0625 C 63.039062 58.582031 62.246094 58.03125 61.503906 57.414062 C 60.761719 56.796875 60.078125 56.121094 59.453125 55.382812 C 58.828125 54.648438 58.273438 53.863281 57.78125 53.03125 C 57.292969 52.199219 56.878906 51.332031 56.542969 50.425781 C 56.203125 49.519531 55.945312 48.59375 55.765625 47.644531 L 54.746094 47.644531 C 53.695312 47.644531 52.648438 47.695312 51.605469 47.800781 C 50.558594 47.902344 49.523438 48.054688 48.492188 48.261719 C 47.464844 48.464844 46.445312 48.71875 45.441406 49.023438 C 44.4375 49.332031 43.449219 49.683594 42.480469 50.085938 C 41.511719 50.488281 40.5625 50.933594 39.636719 51.429688 C 38.710938 51.925781 37.8125 52.464844 36.9375 53.046875 C 36.066406 53.628906 35.222656 54.253906 34.410156 54.921875 C 33.601562 55.585938 32.824219 56.292969 32.082031 57.035156 C 31.339844 57.777344 30.632812 58.554688 29.96875 59.363281 C 29.300781 60.175781 28.675781 61.019531 28.09375 61.890625 C 27.511719 62.765625 26.972656 63.664062 26.476562 64.589844 C 25.980469 65.515625 25.535156 66.464844 25.132812 67.433594 C 24.730469 68.402344 24.375 69.390625 24.070312 70.394531 C 23.765625 71.398438 23.511719 72.417969 23.308594 73.445312 C 23.101562 74.476562 22.949219 75.511719 22.847656 76.558594 C 22.742188 77.601562 22.691406 78.648438 22.691406 79.699219 C 22.691406 80.75 22.742188 81.796875 22.847656 82.84375 C 22.949219 83.886719 23.101562 84.925781 23.308594 85.953125 C 23.511719 86.984375 23.765625 88 24.070312 89.003906 C 24.375 90.007812 24.730469 90.996094 25.132812 91.96875 C 25.535156 92.9375 25.980469 93.882812 26.476562 94.808594 C 26.972656 95.738281 27.511719 96.636719 28.09375 97.507812 C 28.675781 98.382812 29.300781 99.222656 29.96875 100.035156 C 30.632812 100.847656 31.339844 101.625 32.082031 102.367188 C 32.824219 103.109375 33.601562 103.8125 34.410156 104.480469 C 35.222656 105.144531 36.066406 105.769531 36.9375 106.351562 C 37.8125 106.9375 38.710938 107.476562 39.636719 107.96875 C 40.5625 108.464844 41.511719 108.914062 42.480469 109.316406 C 43.449219 109.714844 44.4375 110.070312 45.441406 110.375 C 46.445312 110.679688 47.464844 110.933594 48.492188 111.140625 C 49.523438 111.34375 50.558594 111.496094 51.605469 111.601562 C 52.648438 111.703125 53.695312 111.753906 54.746094 111.753906 L 85.125 111.753906 C 85.304688 110.804688 85.5625 109.878906 85.902344 108.976562 C 86.242188 108.074219 86.65625 107.207031 87.144531 106.375 C 87.632812 105.542969 88.191406 104.761719 88.816406 104.023438 C 89.441406 103.289062 90.125 102.613281 90.867188 102 C 91.609375 101.382812 92.402344 100.835938 93.238281 100.355469 C 94.074219 99.875 94.949219 99.472656 95.855469 99.144531 C 96.761719 98.816406 97.691406 98.570312 98.644531 98.402344 C 99.59375 98.234375 100.550781 98.152344 101.515625 98.152344 L 130.78125 98.152344 C 131.746094 98.152344 132.703125 98.234375 133.652344 98.402344 C 134.601562 98.570312 135.53125 98.816406 136.441406 99.144531 C 137.347656 99.472656 138.21875 99.875 139.058594 100.355469 C 139.894531 100.832031 140.6875 101.382812 141.429688 101.996094 C 142.171875 102.613281 142.855469 103.289062 143.480469 104.023438 C 144.105469 104.757812 144.664062 105.542969 145.152344 106.375 C 145.644531 107.207031 146.058594 108.074219 146.394531 108.976562 C 146.734375 109.878906 146.996094 110.804688 147.171875 111.753906 L 171.992188 111.753906 C 173.261719 111.753906 174.53125 111.816406 175.796875 111.945312 C 177.0625 112.070312 178.320312 112.257812 179.570312 112.503906 C 180.816406 112.753906 182.050781 113.0625 183.265625 113.433594 C 184.484375 113.800781 185.679688 114.230469 186.855469 114.71875 C 188.03125 115.207031 189.179688 115.75 190.300781 116.347656 C 191.421875 116.949219 192.511719 117.601562 193.570312 118.308594 C 194.628906 119.015625 195.648438 119.773438 196.632812 120.582031 C 197.613281 121.390625 198.554688 122.242188 199.457031 123.144531 C 200.355469 124.042969 201.207031 124.984375 202.015625 125.96875 C 202.820312 126.953125 203.578125 127.972656 204.285156 129.03125 C 204.992188 130.089844 205.644531 131.179688 206.242188 132.300781 C 206.84375 133.421875 207.386719 134.570312 207.875 135.746094 C 208.359375 136.921875 208.789062 138.117188 209.15625 139.335938 C 209.527344 140.554688 209.835938 141.785156 210.082031 143.035156 C 210.332031 144.28125 210.519531 145.539062 210.640625 146.804688 C 210.765625 148.070312 210.828125 149.339844 210.828125 150.613281 C 210.828125 151.882812 210.765625 153.152344 210.640625 154.417969 C 210.519531 155.6875 210.332031 156.941406 210.082031 158.191406 C 209.835938 159.4375 209.527344 160.671875 209.15625 161.886719 C 208.789062 163.105469 208.359375 164.300781 207.875 165.476562 C 207.386719 166.652344 206.84375 167.800781 206.242188 168.925781 C 205.644531 170.046875 204.992188 171.136719 204.285156 172.195312 C 203.578125 173.253906 202.820312 174.273438 202.015625 175.257812 C 201.207031 176.242188 200.355469 177.183594 199.457031 178.082031 C 198.554688 178.980469 197.613281 179.835938 196.632812 180.644531 C 195.648438 181.449219 194.628906 182.207031 193.570312 182.914062 C 192.511719 183.621094 191.421875 184.273438 190.300781 184.875 C 189.179688 185.476562 188.03125 186.019531 186.855469 186.507812 C 185.679688 186.992188 184.484375 187.421875 183.265625 187.792969 C 182.050781 188.160156 180.816406 188.472656 179.570312 188.71875 C 178.320312 188.96875 177.0625 189.15625 175.796875 189.28125 C 174.53125 189.40625 173.261719 189.46875 171.992188 189.46875 L 163.78125 189.46875 C 163.601562 190.417969 163.34375 191.34375 163.003906 192.246094 C 162.667969 193.152344 162.25 194.019531 161.761719 194.851562 C 161.273438 195.683594 160.714844 196.464844 160.089844 197.199219 C 159.464844 197.933594 158.78125 198.609375 158.039062 199.226562 C 157.292969 199.84375 156.503906 200.390625 155.667969 200.871094 C 154.828125 201.347656 153.957031 201.753906 153.050781 202.082031 C 152.140625 202.410156 151.210938 202.65625 150.261719 202.824219 C 149.3125 202.988281 148.351562 203.074219 147.386719 203.074219 L 118.125 203.074219 C 117.160156 203.074219 116.203125 202.988281 115.25 202.824219 C 114.300781 202.65625 113.371094 202.410156 112.464844 202.082031 C 111.554688 201.753906 110.683594 201.351562 109.847656 200.871094 C 109.007812 200.390625 108.21875 199.84375 107.476562 199.226562 C 106.734375 198.609375 106.050781 197.933594 105.425781 197.199219 C 104.800781 196.464844 104.242188 195.683594 103.753906 194.851562 C 103.261719 194.019531 102.847656 193.152344 102.511719 192.246094 C 102.171875 191.34375 101.914062 190.417969 101.734375 189.46875 L 85.347656 189.46875 C 85.273438 190.203125 85.179688 190.929688 85.0625 191.65625 C 84.945312 192.382812 84.804688 193.105469 84.640625 193.820312 C 84.476562 194.539062 84.292969 195.25 84.082031 195.957031 C 83.875 196.660156 83.644531 197.359375 83.390625 198.050781 C 83.136719 198.742188 82.863281 199.421875 82.566406 200.097656 C 82.269531 200.769531 81.953125 201.433594 81.613281 202.085938 C 81.277344 202.738281 80.917969 203.382812 80.539062 204.011719 C 80.160156 204.640625 79.761719 205.257812 79.34375 205.863281 C 78.925781 206.46875 78.488281 207.0625 78.03125 207.640625 C 77.574219 208.214844 77.101562 208.777344 76.609375 209.324219 C 76.121094 209.875 75.613281 210.40625 75.085938 210.917969 C 74.5625 211.433594 74.019531 211.933594 73.464844 212.414062 C 72.90625 212.894531 72.335938 213.359375 71.75 213.800781 C 71.164062 214.246094 70.5625 214.671875 69.953125 215.078125 C 69.339844 215.484375 68.714844 215.871094 68.074219 216.238281 C 67.4375 216.605469 66.789062 216.953125 66.128906 217.277344 C 65.46875 217.605469 64.800781 217.910156 64.121094 218.191406 C 63.445312 218.476562 62.757812 218.738281 62.0625 218.976562 C 61.367188 219.214844 60.664062 219.433594 59.953125 219.628906 C 59.246094 219.824219 58.53125 219.996094 57.808594 220.148438 C 57.089844 220.296875 56.367188 220.421875 55.636719 220.527344 C 54.910156 220.632812 54.179688 220.710938 53.445312 220.769531 C 52.710938 220.828125 51.976562 220.863281 51.242188 220.871094 C 50.507812 220.882812 49.769531 220.871094 49.035156 220.835938 C 48.300781 220.800781 47.570312 220.742188 46.835938 220.660156 C 46.105469 220.578125 45.378906 220.472656 44.65625 220.34375 C 43.929688 220.214844 43.210938 220.0625 42.496094 219.890625 C 41.78125 219.714844 41.074219 219.519531 40.371094 219.300781 C 39.667969 219.082031 38.972656 218.839844 38.285156 218.578125 C 37.597656 218.316406 36.921875 218.03125 36.253906 217.726562 C 35.582031 217.417969 34.925781 217.09375 34.277344 216.746094 C 33.628906 216.398438 32.992188 216.027344 32.367188 215.640625 C 31.742188 215.253906 31.128906 214.84375 30.53125 214.417969 C 29.933594 213.992188 29.347656 213.546875 28.777344 213.082031 C 28.207031 212.617188 27.648438 212.136719 27.109375 211.636719 C 26.570312 211.136719 26.046875 210.621094 25.539062 210.089844 C 25.03125 209.558594 24.539062 209.007812 24.066406 208.445312 C 23.59375 207.882812 23.140625 207.304688 22.703125 206.710938 C 22.269531 206.121094 21.851562 205.515625 21.453125 204.894531 C 21.054688 204.277344 20.679688 203.644531 20.320312 203.003906 C 19.960938 202.359375 19.625 201.707031 19.308594 201.042969 C 18.992188 200.378906 18.699219 199.703125 18.425781 199.023438 C 18.152344 198.339844 17.898438 197.648438 17.671875 196.949219 C 17.441406 196.25 17.234375 195.546875 17.046875 194.832031 C 16.863281 194.121094 16.703125 193.402344 16.5625 192.683594 C 16.421875 191.960938 16.304688 191.234375 16.210938 190.503906 C 16.117188 189.773438 16.050781 189.042969 16 188.308594 C 15.953125 187.574219 15.929688 186.839844 15.929688 186.105469 C 15.929688 185.367188 15.953125 184.632812 16 183.898438 C 16.046875 183.164062 16.117188 182.433594 16.207031 181.703125 C 16.300781 180.972656 16.417969 180.246094 16.554688 179.523438 C 16.695312 178.800781 16.855469 178.085938 17.039062 177.375 C 17.222656 176.660156 17.429688 175.957031 17.660156 175.257812 C 17.886719 174.558594 18.140625 173.867188 18.414062 173.183594 C 18.683594 172.5 18.980469 171.824219 19.292969 171.160156 C 19.609375 170.496094 19.945312 169.84375 20.304688 169.199219 C 20.660156 168.558594 21.039062 167.925781 21.433594 167.304688 C 21.832031 166.6875 22.25 166.082031 22.683594 165.488281 C 23.121094 164.894531 23.574219 164.316406 24.046875 163.753906 C 24.515625 163.1875 25.007812 162.640625 25.515625 162.109375 C 26.019531 161.574219 26.542969 161.058594 27.085938 160.558594 C 27.625 160.058594 28.179688 159.578125 28.75 159.113281 C 29.320312 158.648438 29.902344 158.203125 30.503906 157.773438 C 31.101562 157.347656 31.714844 156.9375 32.335938 156.550781 C 32.960938 156.160156 33.597656 155.792969 34.246094 155.445312 C 34.894531 155.097656 35.550781 154.769531 36.222656 154.460938 C 36.890625 154.15625 37.566406 153.871094 38.253906 153.605469 C 38.941406 153.34375 39.636719 153.101562 40.335938 152.882812 C 41.039062 152.660156 41.746094 152.464844 42.460938 152.289062 C 43.175781 152.117188 43.894531 151.964844 44.621094 151.835938 C 45.34375 151.707031 46.070312 151.601562 46.804688 151.515625 C 47.535156 151.433594 48.265625 151.375 49 151.339844 C 49.734375 151.300781 50.472656 151.289062 51.207031 151.300781 C 51.941406 151.308594 52.675781 151.34375 53.410156 151.398438 C 54.144531 151.457031 54.875 151.535156 55.601562 151.640625 C 56.332031 151.742188 57.054688 151.871094 57.777344 152.019531 C 58.496094 152.167969 59.210938 152.339844 59.921875 152.535156 C 60.628906 152.726562 61.332031 152.945312 62.027344 153.183594 C 62.722656 153.421875 63.410156 153.683594 64.089844 153.96875 C 64.769531 154.25 65.4375 154.554688 66.097656 154.878906 C 66.757812 155.203125 67.40625 155.550781 68.046875 155.914062 C 68.683594 156.28125 69.308594 156.667969 69.921875 157.074219 C 70.535156 157.480469 71.136719 157.90625 71.722656 158.347656 C 72.308594 158.792969 72.878906 159.253906 73.4375 159.734375 C 73.996094 160.214844 74.535156 160.714844 75.0625 161.226562 C 75.585938 161.742188 76.097656 162.273438 76.589844 162.820312 C 77.078125 163.367188 77.554688 163.929688 78.011719 164.507812 C 78.464844 165.082031 78.902344 165.675781 79.324219 166.277344 C 79.742188 166.882812 80.140625 167.5 80.519531 168.132812 C 80.898438 168.761719 81.257812 169.402344 81.597656 170.054688 C 81.9375 170.707031 82.253906 171.371094 82.550781 172.042969 C 82.847656 172.71875 83.125 173.398438 83.378906 174.089844 C 83.632812 174.78125 83.863281 175.476562 84.074219 176.183594 C 84.28125 176.886719 84.46875 177.597656 84.632812 178.316406 C 84.796875 179.035156 84.9375 179.753906 85.058594 180.480469 C 85.175781 181.207031 85.269531 181.9375 85.34375 182.667969 L 101.734375 182.667969 C 101.914062 181.71875 102.171875 180.792969 102.511719 179.890625 C 102.847656 178.988281 103.261719 178.117188 103.753906 177.289062 C 104.242188 176.457031 104.800781 175.671875 105.425781 174.9375 C 106.050781 174.203125 106.734375 173.527344 107.476562 172.910156 C 108.21875 172.292969 109.007812 171.746094 109.847656 171.265625 C 110.683594 170.789062 111.554688 170.382812 112.464844 170.058594 C 113.371094 169.730469 114.300781 169.480469 115.25 169.316406 C 116.203125 169.148438 117.160156 169.066406 118.125 169.0625 L 147.386719 169.0625 C 148.351562 169.066406 149.3125 169.148438 150.261719 169.316406 C 151.210938 169.480469 152.140625 169.730469 153.046875 170.058594 C 153.957031 170.386719 154.828125 170.789062 155.667969 171.269531 C 156.503906 171.746094 157.292969 172.296875 158.035156 172.910156 C 158.78125 173.527344 159.464844 174.203125 160.089844 174.9375 C 160.714844 175.671875 161.273438 176.457031 161.761719 177.289062 C 162.25 178.121094 162.664062 178.988281 163.003906 179.890625 C 163.34375 180.792969 163.601562 181.71875 163.78125 182.667969 Z M 76.019531 47.644531 C 76.472656 47.648438 76.910156 47.566406 77.328125 47.398438 C 77.746094 47.230469 78.117188 46.984375 78.4375 46.667969 C 78.761719 46.347656 79.007812 45.980469 79.183594 45.5625 C 79.359375 45.144531 79.445312 44.710938 79.445312 44.257812 C 79.445312 43.804688 79.359375 43.371094 79.183594 42.953125 C 79.007812 42.535156 78.761719 42.167969 78.4375 41.851562 C 78.117188 41.53125 77.746094 41.289062 77.328125 41.121094 C 76.910156 40.949219 76.472656 40.867188 76.019531 40.871094 L 75.796875 40.871094 C 75.347656 40.867188 74.910156 40.949219 74.492188 41.121094 C 74.070312 41.289062 73.699219 41.53125 73.378906 41.851562 C 73.058594 42.167969 72.808594 42.535156 72.636719 42.953125 C 72.460938 43.371094 72.375 43.804688 72.375 44.257812 C 72.375 44.710938 72.460938 45.144531 72.636719 45.5625 C 72.808594 45.980469 73.058594 46.347656 73.378906 46.667969 C 73.699219 46.984375 74.070312 47.230469 74.492188 47.398438 C 74.910156 47.566406 75.347656 47.648438 75.796875 47.644531 Z M 86.898438 47.644531 C 87.351562 47.648438 87.785156 47.566406 88.207031 47.398438 C 88.625 47.230469 88.996094 46.984375 89.316406 46.667969 C 89.640625 46.347656 89.886719 45.980469 90.0625 45.5625 C 90.234375 45.144531 90.324219 44.710938 90.324219 44.257812 C 90.324219 43.804688 90.234375 43.371094 90.0625 42.953125 C 89.886719 42.535156 89.640625 42.167969 89.316406 41.851562 C 88.996094 41.53125 88.625 41.289062 88.207031 41.121094 C 87.785156 40.949219 87.351562 40.867188 86.898438 40.871094 L 86.675781 40.871094 C 86.222656 40.867188 85.789062 40.949219 85.367188 41.121094 C 84.949219 41.289062 84.578125 41.53125 84.257812 41.851562 C 83.9375 42.167969 83.6875 42.535156 83.515625 42.953125 C 83.339844 43.371094 83.253906 43.804688 83.253906 44.257812 C 83.253906 44.710938 83.339844 45.144531 83.515625 45.5625 C 83.6875 45.980469 83.9375 46.347656 84.257812 46.667969 C 84.578125 46.984375 84.949219 47.230469 85.367188 47.398438 C 85.789062 47.566406 86.222656 47.648438 86.675781 47.644531 Z M 94.15625 44.273438 C 94.160156 44.722656 94.246094 45.152344 94.421875 45.566406 C 94.59375 45.980469 94.839844 46.34375 95.160156 46.660156 C 95.476562 46.976562 95.84375 47.222656 96.261719 47.390625 C 96.675781 47.5625 97.105469 47.644531 97.554688 47.644531 L 97.777344 47.644531 C 98.230469 47.648438 98.664062 47.566406 99.085938 47.398438 C 99.503906 47.230469 99.875 46.984375 100.195312 46.667969 C 100.515625 46.347656 100.765625 45.980469 100.941406 45.5625 C 101.113281 45.144531 101.199219 44.710938 101.199219 44.257812 C 101.199219 43.804688 101.113281 43.371094 100.941406 42.953125 C 100.765625 42.535156 100.515625 42.167969 100.195312 41.851562 C 99.875 41.53125 99.503906 41.289062 99.085938 41.121094 C 98.664062 40.949219 98.230469 40.867188 97.777344 40.871094 L 97.554688 40.871094 C 97.105469 40.871094 96.671875 40.957031 96.253906 41.132812 C 95.835938 41.304688 95.46875 41.550781 95.152344 41.867188 C 94.832031 42.1875 94.585938 42.554688 94.414062 42.972656 C 94.242188 43.390625 94.15625 43.824219 94.15625 44.273438 Z M 105.378906 118.558594 C 105.832031 118.558594 106.265625 118.472656 106.679688 118.296875 C 107.097656 118.125 107.464844 117.878906 107.785156 117.5625 C 108.105469 117.242188 108.347656 116.875 108.523438 116.457031 C 108.695312 116.042969 108.78125 115.609375 108.78125 115.15625 C 108.78125 114.707031 108.695312 114.273438 108.523438 113.855469 C 108.347656 113.4375 108.105469 113.070312 107.785156 112.75 C 107.464844 112.433594 107.097656 112.1875 106.679688 112.015625 C 106.265625 111.84375 105.832031 111.753906 105.378906 111.753906 L 105.160156 111.753906 C 104.707031 111.753906 104.273438 111.84375 103.855469 112.015625 C 103.441406 112.1875 103.074219 112.433594 102.753906 112.75 C 102.433594 113.070312 102.1875 113.4375 102.015625 113.855469 C 101.84375 114.273438 101.757812 114.707031 101.757812 115.15625 C 101.757812 115.609375 101.84375 116.042969 102.015625 116.457031 C 102.1875 116.875 102.433594 117.242188 102.753906 117.5625 C 103.074219 117.878906 103.441406 118.125 103.855469 118.296875 C 104.273438 118.472656 104.707031 118.558594 105.160156 118.558594 Z M 116.261719 118.558594 C 116.714844 118.558594 117.148438 118.472656 117.5625 118.296875 C 117.980469 118.125 118.347656 117.878906 118.667969 117.5625 C 118.988281 117.242188 119.230469 116.875 119.40625 116.457031 C 119.578125 116.042969 119.664062 115.609375 119.664062 115.15625 C 119.664062 114.707031 119.578125 114.273438 119.40625 113.855469 C 119.230469 113.4375 118.988281 113.070312 118.667969 112.75 C 118.347656 112.433594 117.980469 112.1875 117.5625 112.015625 C 117.148438 111.84375 116.714844 111.753906 116.261719 111.753906 L 116.035156 111.753906 C 115.585938 111.753906 115.152344 111.84375 114.734375 112.015625 C 114.316406 112.1875 113.949219 112.433594 113.628906 112.75 C 113.3125 113.070312 113.066406 113.4375 112.894531 113.855469 C 112.722656 114.273438 112.632812 114.707031 112.632812 115.15625 C 112.632812 115.609375 112.722656 116.042969 112.894531 116.457031 C 113.066406 116.875 113.3125 117.242188 113.628906 117.5625 C 113.949219 117.878906 114.316406 118.125 114.734375 118.296875 C 115.152344 118.472656 115.585938 118.558594 116.035156 118.558594 Z M 123.519531 115.15625 C 123.519531 115.609375 123.605469 116.042969 123.777344 116.457031 C 123.949219 116.875 124.195312 117.242188 124.511719 117.5625 C 124.832031 117.882812 125.199219 118.128906 125.617188 118.300781 C 126.035156 118.472656 126.46875 118.558594 126.917969 118.558594 L 127.140625 118.558594 C 127.589844 118.558594 128.023438 118.472656 128.441406 118.296875 C 128.859375 118.125 129.226562 117.878906 129.546875 117.5625 C 129.863281 117.242188 130.109375 116.875 130.28125 116.457031 C 130.457031 116.042969 130.542969 115.609375 130.542969 115.15625 C 130.542969 114.707031 130.457031 114.273438 130.28125 113.855469 C 130.109375 113.4375 129.863281 113.070312 129.546875 112.75 C 129.226562 112.433594 128.859375 112.1875 128.441406 112.015625 C 128.023438 111.84375 127.589844 111.753906 127.140625 111.753906 L 126.917969 111.753906 C 126.46875 111.753906 126.035156 111.839844 125.617188 112.011719 C 125.199219 112.1875 124.832031 112.433594 124.511719 112.75 C 124.195312 113.070312 123.949219 113.4375 123.777344 113.855469 C 123.605469 114.269531 123.519531 114.707031 123.519531 115.15625 Z M 140.125 186.070312 C 140.125 186.519531 140.210938 186.953125 140.382812 187.371094 C 140.554688 187.785156 140.800781 188.15625 141.121094 188.472656 C 141.4375 188.792969 141.808594 189.039062 142.222656 189.210938 C 142.640625 189.382812 143.074219 189.46875 143.523438 189.46875 L 143.75 189.46875 C 144.199219 189.46875 144.632812 189.382812 145.050781 189.210938 C 145.46875 189.039062 145.835938 188.792969 146.15625 188.472656 C 146.472656 188.15625 146.71875 187.785156 146.890625 187.371094 C 147.0625 186.953125 147.152344 186.519531 147.152344 186.070312 C 147.152344 185.617188 147.0625 185.183594 146.890625 184.765625 C 146.71875 184.351562 146.472656 183.984375 146.15625 183.664062 C 145.835938 183.34375 145.46875 183.097656 145.050781 182.925781 C 144.632812 182.753906 144.199219 182.667969 143.75 182.667969 L 143.523438 182.667969 C 143.074219 182.667969 142.640625 182.753906 142.222656 182.925781 C 141.808594 183.097656 141.4375 183.34375 141.121094 183.664062 C 140.800781 183.984375 140.554688 184.351562 140.382812 184.765625 C 140.210938 185.183594 140.125 185.617188 140.125 186.070312 Z M 129.246094 186.070312 C 129.246094 186.519531 129.332031 186.953125 129.503906 187.371094 C 129.675781 187.789062 129.921875 188.15625 130.242188 188.476562 C 130.558594 188.792969 130.929688 189.039062 131.34375 189.210938 C 131.761719 189.382812 132.195312 189.46875 132.648438 189.46875 L 132.867188 189.46875 C 133.316406 189.46875 133.75 189.382812 134.167969 189.210938 C 134.582031 189.039062 134.953125 188.792969 135.269531 188.472656 C 135.589844 188.15625 135.835938 187.785156 136.007812 187.371094 C 136.179688 186.953125 136.265625 186.519531 136.265625 186.070312 C 136.265625 185.617188 136.179688 185.183594 136.007812 184.765625 C 135.835938 184.351562 135.589844 183.984375 135.269531 183.664062 C 134.953125 183.34375 134.582031 183.097656 134.167969 182.925781 C 133.75 182.753906 133.316406 182.667969 132.867188 182.667969 L 132.648438 182.667969 C 132.195312 182.667969 131.761719 182.753906 131.34375 182.925781 C 130.929688 183.097656 130.558594 183.34375 130.242188 183.664062 C 129.921875 183.980469 129.675781 184.351562 129.503906 184.765625 C 129.332031 185.183594 129.246094 185.617188 129.246094 186.070312 Z M 118.367188 186.070312 C 118.367188 186.519531 118.453125 186.953125 118.625 187.371094 C 118.796875 187.789062 119.042969 188.15625 119.359375 188.472656 C 119.679688 188.792969 120.046875 189.039062 120.464844 189.210938 C 120.882812 189.382812 121.316406 189.46875 121.765625 189.46875 L 121.988281 189.46875 C 122.4375 189.46875 122.871094 189.382812 123.289062 189.210938 C 123.707031 189.039062 124.074219 188.792969 124.394531 188.472656 C 124.710938 188.15625 124.957031 187.785156 125.128906 187.371094 C 125.300781 186.953125 125.390625 186.519531 125.390625 186.070312 C 125.390625 185.617188 125.300781 185.183594 125.128906 184.765625 C 124.957031 184.351562 124.710938 183.984375 124.394531 183.664062 C 124.074219 183.34375 123.707031 183.097656 123.289062 182.925781 C 122.871094 182.753906 122.4375 182.667969 121.988281 182.667969 L 121.765625 182.667969 C 121.316406 182.667969 120.882812 182.753906 120.464844 182.925781 C 120.046875 183.097656 119.679688 183.34375 119.359375 183.664062 C 119.042969 183.980469 118.796875 184.351562 118.625 184.765625 C 118.453125 185.183594 118.367188 185.617188 118.367188 186.070312 Z M 118.367188 186.070312 " fill-opacity="1" fill-rule="evenodd"/></g></svg>