<svg xmlns="http://www.w3.org/2000/svg" xmlns:xlink="http://www.w3.org/1999/xlink" width="300" zoomAndPan="magnify" viewBox="0 0 224.87999 225" height="300" preserveAspectRatio="xMidYMid meet" version="1.0"><path fill="#0c1b37" d="M 104.027344 178.714844 C 104.371094 179.085938 104.675781 179.484375 104.941406 179.914062 C 105.207031 180.339844 105.429688 180.789062 105.613281 181.261719 C 105.792969 181.730469 105.925781 182.214844 106.015625 182.710938 C 106.105469 183.207031 106.148438 183.707031 106.144531 184.210938 C 106.136719 184.714844 106.085938 185.214844 105.984375 185.707031 C 105.882812 186.203125 105.738281 186.679688 105.546875 187.148438 C 105.355469 187.613281 105.121094 188.058594 104.847656 188.480469 C 104.570312 188.902344 104.257812 189.292969 103.910156 189.65625 C 101.328125 192.503906 98.601562 195.199219 95.726562 197.746094 C 94.339844 198.726562 92.851562 199.507812 91.253906 200.082031 C 90.425781 200.15625 89.609375 200.105469 88.796875 199.9375 C 87.984375 199.765625 87.214844 199.484375 86.488281 199.085938 C 85.761719 198.6875 85.105469 198.195312 84.523438 197.605469 C 83.941406 197.015625 83.457031 196.351562 83.070312 195.617188 C 82.6875 194.976562 82.410156 194.292969 82.238281 193.566406 C 82.066406 192.835938 82.015625 192.101562 82.074219 191.355469 C 82.136719 190.613281 82.308594 189.894531 82.597656 189.203125 C 82.882812 188.511719 83.265625 187.882812 83.75 187.3125 C 86.667969 183.929688 89.816406 180.773438 93.191406 177.847656 C 93.574219 177.519531 93.988281 177.234375 94.425781 176.988281 C 94.867188 176.742188 95.328125 176.539062 95.808594 176.382812 C 96.289062 176.226562 96.78125 176.121094 97.28125 176.0625 C 97.785156 176.003906 98.285156 175.992188 98.789062 176.035156 C 99.292969 176.074219 99.785156 176.164062 100.273438 176.300781 C 100.757812 176.4375 101.226562 176.625 101.675781 176.855469 C 102.125 177.082031 102.546875 177.355469 102.945312 177.667969 C 103.339844 177.984375 103.703125 178.332031 104.027344 178.714844 Z M 51.722656 127.285156 C 51.378906 126.546875 50.9375 125.871094 50.40625 125.253906 C 49.871094 124.636719 49.261719 124.105469 48.582031 123.65625 C 47.898438 123.210938 47.167969 122.863281 46.390625 122.621094 C 45.613281 122.378906 44.816406 122.246094 44 122.226562 C 42.265625 122.816406 40.636719 123.625 39.113281 124.644531 C 36.097656 127.304688 33.253906 130.136719 30.578125 133.132812 C 30.21875 133.503906 29.898438 133.90625 29.621094 134.34375 C 29.34375 134.777344 29.109375 135.234375 28.925781 135.714844 C 28.738281 136.199219 28.601562 136.691406 28.511719 137.199219 C 28.425781 137.710938 28.390625 138.222656 28.40625 138.738281 C 28.417969 139.253906 28.484375 139.761719 28.601562 140.265625 C 28.71875 140.769531 28.882812 141.253906 29.097656 141.722656 C 29.3125 142.191406 29.570312 142.636719 29.875 143.054688 C 30.175781 143.472656 30.519531 143.855469 30.898438 144.207031 C 31.253906 144.566406 31.636719 144.890625 32.054688 145.175781 C 32.472656 145.460938 32.914062 145.703125 33.375 145.902344 C 33.839844 146.105469 34.320312 146.257812 34.8125 146.367188 C 35.304688 146.476562 35.804688 146.535156 36.308594 146.546875 C 36.816406 146.558594 37.316406 146.523438 37.816406 146.4375 C 38.3125 146.355469 38.796875 146.222656 39.269531 146.042969 C 39.742188 145.867188 40.195312 145.644531 40.625 145.378906 C 41.054688 145.113281 41.457031 144.808594 41.828125 144.464844 C 44.875 141.710938 47.773438 138.808594 50.523438 135.753906 C 51.0625 135.203125 51.5 134.585938 51.84375 133.894531 C 52.183594 133.203125 52.40625 132.476562 52.515625 131.714844 C 52.621094 130.953125 52.609375 130.191406 52.472656 129.433594 C 52.335938 128.675781 52.085938 127.957031 51.722656 127.28125 Z M 67.824219 142.585938 C 67.441406 142.238281 67.035156 141.929688 66.597656 141.660156 C 66.160156 141.390625 65.699219 141.164062 65.21875 140.976562 C 64.738281 140.792969 64.242188 140.65625 63.738281 140.566406 C 63.230469 140.476562 62.71875 140.433594 62.203125 140.441406 C 61.691406 140.445312 61.179688 140.5 60.675781 140.601562 C 60.171875 140.703125 59.679688 140.851562 59.203125 141.046875 C 58.726562 141.242188 58.273438 141.476562 57.84375 141.757812 C 57.410156 142.039062 57.007812 142.355469 56.636719 142.710938 C 53.800781 145.296875 51.109375 148.023438 48.5625 150.894531 C 47.625 152.195312 46.886719 153.601562 46.347656 155.109375 C 46.25 155.957031 46.28125 156.800781 46.445312 157.636719 C 46.609375 158.472656 46.894531 159.269531 47.300781 160.015625 C 47.710938 160.765625 48.222656 161.4375 48.835938 162.027344 C 49.453125 162.617188 50.144531 163.101562 50.910156 163.480469 C 51.605469 163.859375 52.339844 164.121094 53.117188 164.269531 C 53.894531 164.414062 54.675781 164.4375 55.460938 164.335938 C 56.246094 164.234375 56.996094 164.015625 57.710938 163.679688 C 58.425781 163.34375 59.074219 162.902344 59.648438 162.359375 C 62.625 159.671875 65.492188 156.851562 68.195312 153.886719 C 68.5625 153.507812 68.894531 153.097656 69.179688 152.65625 C 69.46875 152.210938 69.707031 151.742188 69.898438 151.25 C 70.089844 150.757812 70.230469 150.25 70.320312 149.730469 C 70.410156 149.207031 70.445312 148.683594 70.429688 148.15625 C 70.410156 147.625 70.339844 147.105469 70.21875 146.589844 C 70.09375 146.078125 69.921875 145.578125 69.695312 145.101562 C 69.472656 144.621094 69.203125 144.171875 68.886719 143.746094 C 68.570312 143.320312 68.21875 142.933594 67.824219 142.582031 Z M 88.355469 167.425781 C 88.042969 163.042969 86.648438 160.414062 83.453125 158.976562 C 82.722656 158.621094 81.953125 158.386719 81.148438 158.273438 C 80.34375 158.164062 79.542969 158.179688 78.742188 158.320312 C 77.941406 158.464844 77.183594 158.730469 76.46875 159.113281 C 75.753906 159.5 75.113281 159.984375 74.550781 160.574219 C 71.863281 163.050781 69.292969 165.675781 66.769531 168.3125 C 66.378906 168.683594 66.027344 169.085938 65.71875 169.527344 C 65.40625 169.964844 65.144531 170.429688 64.925781 170.921875 C 64.710938 171.414062 64.542969 171.921875 64.429688 172.449219 C 64.316406 172.972656 64.253906 173.503906 64.246094 174.042969 C 64.238281 174.582031 64.28125 175.113281 64.382812 175.644531 C 64.480469 176.171875 64.628906 176.683594 64.832031 177.183594 C 65.035156 177.683594 65.285156 178.15625 65.582031 178.605469 C 65.878906 179.050781 66.214844 179.46875 66.59375 179.847656 C 66.976562 180.226562 67.394531 180.5625 67.84375 180.859375 C 68.292969 181.15625 68.765625 181.40625 69.265625 181.605469 C 69.765625 181.808594 70.277344 181.960938 70.808594 182.058594 C 71.335938 182.160156 71.871094 182.207031 72.410156 182.199219 C 72.945312 182.195312 73.480469 182.132812 74.003906 182.023438 C 74.53125 181.910156 75.042969 181.75 75.535156 181.535156 C 76.03125 181.320312 76.5 181.0625 76.941406 180.757812 C 77.386719 180.449219 77.792969 180.101562 78.167969 179.714844 C 80.820312 177.320312 83.332031 174.785156 85.710938 172.117188 C 86.777344 170.652344 87.65625 169.085938 88.355469 167.417969 Z M 208.957031 51.566406 C 207.351562 49.238281 205.566406 47.054688 203.605469 45.019531 C 201.664062 42.925781 199.570312 40.988281 197.328125 39.214844 C 194.40625 36.957031 191.257812 35.066406 187.886719 33.550781 C 183.34375 31.421875 178.628906 29.78125 173.746094 28.621094 C 168.863281 27.460938 163.914062 26.808594 158.898438 26.664062 C 153.796875 26.792969 148.78125 27.519531 143.851562 28.84375 C 138.921875 30.171875 134.21875 32.0625 129.742188 34.515625 C 122.539062 38.785156 116.144531 44.046875 110.566406 50.292969 C 102.125 58.789062 93.5625 67.167969 85.140625 75.671875 C 84.859375 75.933594 84.589844 76.214844 84.335938 76.503906 C 84.085938 76.796875 83.847656 77.105469 83.628906 77.421875 C 83.410156 77.742188 83.210938 78.070312 83.03125 78.414062 C 82.847656 78.753906 82.683594 79.105469 82.542969 79.464844 C 82.398438 79.824219 82.277344 80.1875 82.175781 80.5625 C 82.070312 80.933594 81.992188 81.3125 81.929688 81.691406 C 81.871094 82.074219 81.832031 82.460938 81.8125 82.84375 C 81.796875 83.230469 81.800781 83.617188 81.824219 84.003906 C 81.851562 84.390625 81.898438 84.773438 81.964844 85.152344 C 82.03125 85.535156 82.121094 85.910156 82.230469 86.28125 C 82.339844 86.652344 82.472656 87.015625 82.621094 87.371094 C 82.769531 87.726562 82.941406 88.074219 83.128906 88.410156 C 83.320312 88.75 83.523438 89.074219 83.75 89.390625 C 83.976562 89.703125 84.21875 90.003906 84.476562 90.292969 C 84.734375 90.578125 85.007812 90.851562 85.296875 91.109375 C 85.585938 91.367188 85.886719 91.605469 86.203125 91.828125 C 86.691406 92.1875 87.203125 92.503906 87.746094 92.769531 C 88.289062 93.039062 88.851562 93.257812 89.433594 93.429688 C 90.011719 93.597656 90.605469 93.714844 91.207031 93.78125 C 91.808594 93.847656 92.410156 93.859375 93.015625 93.816406 C 93.617188 93.777344 94.214844 93.683594 94.800781 93.539062 C 95.390625 93.394531 95.960938 93.199219 96.511719 92.953125 C 97.066406 92.707031 97.59375 92.414062 98.09375 92.074219 C 98.597656 91.734375 99.0625 91.355469 99.5 90.933594 C 103.433594 87.234375 123.304688 67.886719 129.011719 62.144531 C 158.972656 91.824219 180.902344 113.734375 186.179688 119.144531 C 189.847656 122.90625 193.230469 126.425781 193.230469 126.425781 C 195.59375 128.90625 197.996094 131.445312 200.511719 134.070312 C 202.214844 131.921875 204.105469 129.777344 205.949219 127.546875 C 207.804688 125.304688 209.535156 122.964844 211.132812 120.535156 C 213.847656 116.207031 216.023438 111.625 217.660156 106.785156 C 219.296875 101.945312 220.351562 96.984375 220.820312 91.894531 C 221.164062 86.328125 220.738281 80.820312 219.546875 75.371094 C 218.355469 69.921875 216.441406 64.742188 213.808594 59.824219 C 212.371094 56.964844 210.753906 54.210938 208.957031 51.566406 Z M 129 74.871094 C 120.71875 82.925781 107.882812 95.503906 104.679688 98.316406 C 103.757812 99.082031 102.777344 99.757812 101.730469 100.34375 C 100.683594 100.925781 99.59375 101.414062 98.460938 101.796875 C 97.324219 102.179688 96.164062 102.457031 94.980469 102.628906 C 93.792969 102.800781 92.601562 102.863281 91.40625 102.8125 C 90.207031 102.765625 89.027344 102.609375 87.859375 102.339844 C 86.691406 102.074219 85.554688 101.703125 84.457031 101.230469 C 83.355469 100.753906 82.308594 100.183594 81.316406 99.515625 C 80.320312 98.847656 79.394531 98.097656 78.539062 97.257812 C 77.679688 96.421875 76.90625 95.511719 76.21875 94.53125 C 75.527344 93.550781 74.9375 92.515625 74.441406 91.425781 C 73.945312 90.332031 73.554688 89.207031 73.269531 88.042969 C 72.984375 86.878906 72.808594 85.695312 72.742188 84.5 C 72.679688 83.304688 72.722656 82.109375 72.882812 80.921875 C 73.039062 79.734375 73.304688 78.570312 73.675781 77.433594 C 74.050781 76.292969 74.527344 75.199219 75.105469 74.148438 C 75.683594 73.097656 76.351562 72.113281 77.113281 71.1875 C 79.640625 68.1875 82.507812 65.472656 85.296875 62.6875 C 92.21875 55.734375 99.183594 48.804688 106.296875 41.707031 C 104.359375 39.964844 102.316406 38.355469 100.164062 36.878906 C 98.011719 35.40625 95.773438 34.078125 93.445312 32.902344 C 91.121094 31.722656 88.726562 30.703125 86.261719 29.839844 C 83.800781 28.980469 81.292969 28.285156 78.742188 27.753906 C 76.1875 27.222656 73.609375 26.863281 71.007812 26.675781 C 68.40625 26.488281 65.804688 26.46875 63.199219 26.625 C 60.597656 26.78125 58.015625 27.105469 55.453125 27.601562 C 52.894531 28.101562 50.378906 28.761719 47.90625 29.59375 C 22.976562 38.0625 8.519531 55.867188 5.582031 82.09375 C 5.332031 84.195312 5.199219 86.304688 5.179688 88.421875 C 5.160156 90.539062 5.257812 92.652344 5.472656 94.757812 C 5.6875 96.863281 6.015625 98.953125 6.460938 101.023438 C 6.902344 103.09375 7.460938 105.132812 8.128906 107.144531 C 8.796875 109.152344 9.574219 111.117188 10.457031 113.042969 C 11.34375 114.964844 12.328125 116.835938 13.421875 118.652344 C 14.511719 120.464844 15.695312 122.214844 16.980469 123.898438 C 18.261719 125.585938 19.632812 127.195312 21.09375 128.726562 C 25.144531 125.027344 28.863281 121.542969 32.660156 118.167969 C 33.152344 117.699219 33.667969 117.261719 34.210938 116.855469 C 34.75 116.449219 35.316406 116.078125 35.902344 115.738281 C 36.492188 115.402344 37.097656 115.101562 37.71875 114.835938 C 38.34375 114.566406 38.980469 114.339844 39.628906 114.152344 C 40.28125 113.960938 40.941406 113.8125 41.609375 113.703125 C 42.277344 113.589844 42.949219 113.519531 43.625 113.492188 C 44.304688 113.460938 44.980469 113.472656 45.65625 113.523438 C 46.332031 113.574219 47 113.667969 47.667969 113.796875 C 48.332031 113.929688 48.984375 114.101562 49.628906 114.308594 C 50.273438 114.519531 50.902344 114.765625 51.519531 115.054688 C 52.132812 115.339844 52.726562 115.660156 53.304688 116.015625 C 53.878906 116.371094 54.433594 116.761719 54.960938 117.183594 C 55.492188 117.609375 55.992188 118.0625 56.46875 118.542969 C 56.945312 119.027344 57.386719 119.535156 57.800781 120.074219 C 58.214844 120.609375 58.597656 121.167969 58.945312 121.75 C 59.292969 122.332031 59.601562 122.933594 59.878906 123.550781 C 60.828125 126.035156 61.558594 128.585938 62.066406 131.195312 C 72.820312 132.140625 78.679688 138.160156 79.640625 149 C 90.667969 149.996094 96.621094 155.957031 97.507812 166.769531 C 97.816406 166.871094 98.136719 166.945312 98.460938 166.992188 C 99.117188 167.011719 99.765625 167.066406 100.414062 167.160156 C 101.0625 167.25 101.703125 167.378906 102.339844 167.546875 C 102.972656 167.710938 103.59375 167.910156 104.203125 168.148438 C 104.816406 168.382812 105.410156 168.652344 105.988281 168.957031 C 106.570312 169.261719 107.128906 169.597656 107.671875 169.964844 C 108.214844 170.335938 108.734375 170.730469 109.230469 171.160156 C 109.726562 171.585938 110.195312 172.039062 110.640625 172.519531 C 111.085938 173 111.5 173.503906 111.886719 174.035156 C 112.273438 174.5625 112.628906 175.109375 112.957031 175.679688 C 113.28125 176.246094 113.570312 176.832031 113.828125 177.433594 C 114.085938 178.035156 114.308594 178.648438 114.496094 179.277344 C 114.6875 179.90625 114.835938 180.539062 114.953125 181.183594 C 115.070312 181.828125 115.148438 182.476562 115.1875 183.132812 C 115.230469 183.785156 115.234375 184.4375 115.203125 185.09375 C 115.167969 185.746094 115.097656 186.398438 114.992188 187.042969 C 114.886719 187.6875 114.742188 188.328125 114.5625 188.957031 C 114.390625 189.742188 114.550781 190.457031 115.042969 191.097656 C 118.222656 194.359375 121.398438 197.644531 124.808594 200.660156 C 125.148438 200.933594 125.511719 201.175781 125.898438 201.382812 C 126.28125 201.59375 126.679688 201.769531 127.09375 201.910156 C 127.507812 202.050781 127.929688 202.15625 128.359375 202.226562 C 128.792969 202.296875 129.226562 202.328125 129.664062 202.324219 C 130.101562 202.320312 130.535156 202.28125 130.964844 202.203125 C 131.394531 202.125 131.816406 202.007812 132.226562 201.859375 C 132.636719 201.710938 133.03125 201.527344 133.410156 201.308594 C 133.789062 201.089844 134.148438 200.84375 134.484375 200.566406 C 134.96875 200.195312 135.402344 199.777344 135.789062 199.308594 C 136.175781 198.839844 136.507812 198.335938 136.78125 197.792969 C 137.054688 197.25 137.265625 196.683594 137.410156 196.09375 C 137.554688 195.503906 137.632812 194.90625 137.644531 194.300781 C 137.65625 193.691406 137.597656 193.089844 137.472656 192.496094 C 137.347656 191.902344 137.160156 191.328125 136.902344 190.777344 C 136.648438 190.226562 136.335938 189.710938 135.96875 189.230469 C 135.597656 188.746094 135.175781 188.3125 134.707031 187.925781 C 126.683594 179.898438 118.621094 171.90625 110.601562 163.871094 C 110.246094 163.511719 109.925781 163.121094 109.640625 162.703125 L 95.691406 148.753906 C 95.492188 148.546875 95.316406 148.328125 95.164062 148.085938 C 95.007812 147.847656 94.878906 147.597656 94.773438 147.332031 C 94.667969 147.066406 94.589844 146.796875 94.535156 146.515625 C 94.484375 146.238281 94.457031 145.953125 94.460938 145.667969 C 94.464844 145.386719 94.492188 145.101562 94.550781 144.824219 C 94.609375 144.546875 94.691406 144.273438 94.800781 144.011719 C 94.910156 143.75 95.046875 143.5 95.203125 143.265625 C 95.363281 143.027344 95.542969 142.808594 95.746094 142.609375 C 95.945312 142.40625 96.164062 142.226562 96.402344 142.070312 C 96.636719 141.910156 96.886719 141.777344 97.148438 141.664062 C 97.410156 141.554688 97.683594 141.472656 97.960938 141.414062 C 98.238281 141.355469 98.519531 141.328125 98.804688 141.324219 C 99.089844 141.320312 99.371094 141.347656 99.652344 141.398438 C 99.933594 141.453125 100.203125 141.53125 100.46875 141.636719 C 100.734375 141.742188 100.984375 141.871094 101.222656 142.027344 C 101.460938 142.179688 101.683594 142.355469 101.890625 142.554688 L 115.914062 156.582031 C 116.292969 156.847656 116.652344 157.140625 116.988281 157.457031 C 119.511719 159.855469 122.050781 162.246094 124.53125 164.691406 C 130.316406 170.410156 136.015625 176.214844 141.863281 181.871094 C 142.253906 182.273438 142.679688 182.628906 143.148438 182.945312 C 143.613281 183.257812 144.105469 183.519531 144.628906 183.726562 C 145.148438 183.9375 145.6875 184.089844 146.238281 184.1875 C 146.792969 184.28125 147.351562 184.320312 147.910156 184.300781 C 148.472656 184.28125 149.027344 184.203125 149.570312 184.066406 C 150.113281 183.929688 150.640625 183.738281 151.144531 183.492188 C 151.648438 183.242188 152.121094 182.949219 152.566406 182.601562 C 153.007812 182.253906 153.410156 181.867188 153.769531 181.4375 C 154.101562 181.027344 154.390625 180.59375 154.640625 180.128906 C 154.890625 179.664062 155.09375 179.183594 155.25 178.679688 C 155.40625 178.175781 155.515625 177.664062 155.570312 177.140625 C 155.628906 176.617188 155.640625 176.09375 155.597656 175.566406 C 155.554688 175.042969 155.464844 174.527344 155.324219 174.019531 C 155.183594 173.511719 154.996094 173.023438 154.761719 172.550781 C 154.527344 172.082031 154.25 171.636719 153.929688 171.21875 C 153.609375 170.796875 153.253906 170.414062 152.859375 170.0625 C 144.679688 161.828125 136.414062 153.644531 128.1875 145.429688 C 124.265625 141.515625 120.296875 137.648438 116.480469 133.628906 C 116.265625 133.433594 116.070312 133.214844 115.898438 132.976562 C 115.730469 132.738281 115.585938 132.484375 115.464844 132.21875 C 115.347656 131.949219 115.257812 131.671875 115.195312 131.386719 C 115.132812 131.101562 115.101562 130.808594 115.097656 130.515625 C 115.097656 130.222656 115.125 129.933594 115.179688 129.648438 C 115.238281 129.359375 115.324219 129.082031 115.441406 128.8125 C 115.554688 128.542969 115.695312 128.285156 115.863281 128.046875 C 116.03125 127.804688 116.21875 127.585938 116.433594 127.382812 C 116.640625 127.175781 116.863281 126.992188 117.105469 126.828125 C 117.347656 126.664062 117.601562 126.527344 117.871094 126.410156 C 118.140625 126.296875 118.417969 126.210938 118.703125 126.148438 C 118.988281 126.089844 119.277344 126.054688 119.570312 126.050781 C 119.863281 126.046875 120.152344 126.070312 120.441406 126.121094 C 120.726562 126.171875 121.007812 126.25 121.28125 126.355469 C 121.554688 126.460938 121.8125 126.59375 122.058594 126.746094 C 122.308594 126.902344 122.539062 127.082031 122.75 127.28125 C 123.296875 127.734375 123.816406 128.222656 124.304688 128.742188 C 135.960938 140.34375 147.585938 151.980469 159.308594 163.515625 C 160.585938 164.777344 162.089844 165.652344 163.820312 166.144531 C 164.652344 166.359375 165.496094 166.429688 166.351562 166.359375 C 167.210938 166.292969 168.03125 166.085938 168.820312 165.742188 C 169.609375 165.402344 170.320312 164.941406 170.957031 164.363281 C 171.589844 163.785156 172.117188 163.117188 172.53125 162.363281 C 172.964844 161.597656 173.265625 160.785156 173.429688 159.921875 C 173.597656 159.058594 173.621094 158.191406 173.503906 157.320312 C 173.382812 156.449219 173.128906 155.617188 172.734375 154.832031 C 172.34375 154.042969 171.835938 153.339844 171.210938 152.722656 C 162.28125 143.707031 153.273438 134.761719 144.296875 125.792969 C 141.082031 122.578125 137.789062 119.410156 134.625 116.128906 C 134.394531 115.929688 134.183594 115.710938 134 115.472656 C 133.8125 115.230469 133.648438 114.976562 133.511719 114.703125 C 133.378906 114.429688 133.269531 114.148438 133.191406 113.851562 C 133.113281 113.558594 133.0625 113.257812 133.046875 112.957031 C 133.027344 112.652344 133.039062 112.347656 133.078125 112.046875 C 133.121094 111.746094 133.195312 111.449219 133.292969 111.164062 C 133.394531 110.875 133.523438 110.601562 133.679688 110.339844 C 133.835938 110.078125 134.019531 109.835938 134.222656 109.609375 C 134.445312 109.386719 134.6875 109.191406 134.949219 109.015625 C 135.210938 108.84375 135.488281 108.695312 135.78125 108.578125 C 136.070312 108.457031 136.371094 108.371094 136.679688 108.308594 C 136.988281 108.25 137.300781 108.222656 137.613281 108.226562 C 137.929688 108.230469 138.238281 108.261719 138.546875 108.328125 C 138.855469 108.394531 139.152344 108.488281 139.441406 108.613281 C 139.730469 108.738281 140.003906 108.886719 140.261719 109.066406 C 140.523438 109.246094 140.761719 109.449219 140.980469 109.675781 C 141.382812 110.023438 141.734375 110.4375 142.113281 110.8125 C 153.691406 122.363281 165.28125 133.90625 176.878906 145.445312 C 177.433594 146.089844 178.074219 146.644531 178.789062 147.105469 C 179.507812 147.5625 180.277344 147.914062 181.09375 148.152344 C 181.914062 148.390625 182.75 148.507812 183.601562 148.507812 C 184.453125 148.503906 185.289062 148.378906 186.105469 148.136719 L 186.332031 148.058594 C 186.660156 147.925781 186.976562 147.773438 187.28125 147.601562 C 187.589844 147.425781 187.882812 147.234375 188.164062 147.023438 C 188.445312 146.8125 188.714844 146.585938 188.964844 146.339844 C 189.21875 146.09375 189.453125 145.832031 189.671875 145.558594 C 189.890625 145.28125 190.089844 144.992188 190.269531 144.691406 C 190.453125 144.390625 190.613281 144.078125 190.753906 143.753906 C 190.894531 143.433594 191.011719 143.101562 191.113281 142.765625 C 191.210938 142.425781 191.285156 142.082031 191.339844 141.734375 C 191.390625 141.386719 191.421875 141.039062 191.429688 140.6875 C 191.441406 140.332031 191.425781 139.984375 191.386719 139.632812 C 191.351562 139.28125 191.292969 138.9375 191.210938 138.59375 C 191.128906 138.253906 191.023438 137.917969 190.898438 137.589844 C 190.773438 137.257812 190.628906 136.941406 190.460938 136.628906 C 190.292969 136.320312 190.109375 136.023438 189.902344 135.734375 C 189.699219 135.449219 189.476562 135.179688 189.234375 134.921875 C 188.996094 134.664062 188.738281 134.425781 188.46875 134.199219 C 175.351562 121.078125 145.746094 91.523438 129 74.871094 Z M 129 74.871094 " fill-opacity="1" fill-rule="nonzero"/></svg>