<svg xmlns="http://www.w3.org/2000/svg" xmlns:xlink="http://www.w3.org/1999/xlink" width="300" zoomAndPan="magnify" viewBox="0 0 224.87999 233.04" height="300" preserveAspectRatio="xMidYMid meet" version="1.0"><defs><clipPath id="3f825ca86f"><path d="M 3.796875 95 L 221.152344 95 L 221.152344 168 L 3.796875 168 Z M 3.796875 95 " clip-rule="nonzero"/></clipPath><clipPath id="5bc0ee504c"><path d="M 69 6.109375 L 156 6.109375 L 156 50 L 69 50 Z M 69 6.109375 " clip-rule="nonzero"/></clipPath></defs><path fill="#0c1b37" d="M 216.9375 87.246094 L 8.046875 87.246094 C 5.738281 87.246094 4.328125 86.425781 4.917969 85.429688 L 24.484375 52.433594 C 24.878906 51.777344 26.714844 51.242188 28.574219 51.242188 L 44.496094 51.242188 L 44.496094 36.03125 C 44.496094 33.714844 46.394531 31.824219 48.707031 31.824219 L 60.445312 31.824219 L 60.445312 58.253906 L 164.539062 58.253906 L 164.539062 31.824219 L 176.28125 31.824219 C 178.589844 31.824219 180.488281 33.714844 180.488281 36.03125 L 180.488281 51.242188 L 196.410156 51.242188 C 198.269531 51.242188 200.105469 51.777344 200.5 52.433594 L 220.066406 85.429688 C 220.65625 86.425781 219.25 87.246094 216.9375 87.246094 " fill-opacity="1" fill-rule="nonzero"/><g clip-path="url(#3f825ca86f)"><path fill="#0c1b37" d="M 24.519531 105.21875 C 29.941406 105.21875 34.335938 109.613281 34.335938 115.035156 C 34.335938 120.449219 29.941406 124.84375 24.519531 124.84375 C 19.101562 124.84375 14.707031 120.449219 14.707031 115.035156 C 14.707031 109.613281 19.101562 105.21875 24.519531 105.21875 Z M 3.84375 95.460938 L 3.84375 163.75 C 3.84375 166.0625 5.738281 167.953125 8.046875 167.953125 L 44.851562 167.953125 L 44.851562 152.183594 C 44.851562 149.871094 46.742188 147.980469 49.058594 147.980469 L 175.933594 147.980469 C 178.242188 147.980469 180.136719 149.871094 180.136719 152.183594 L 180.136719 167.953125 L 216.9375 167.953125 C 219.25 167.953125 221.144531 166.0625 221.144531 163.75 L 221.144531 95.460938 L 3.84375 95.460938 " fill-opacity="1" fill-rule="nonzero"/></g><path fill="#0c1b37" d="M 149.882812 201.53125 L 75.101562 201.53125 C 72.136719 201.53125 70.003906 199.964844 70.328125 198.0625 C 70.65625 196.183594 73.253906 194.683594 76.136719 194.683594 L 148.847656 194.683594 C 151.734375 194.683594 154.328125 196.183594 154.65625 198.0625 C 154.980469 199.964844 152.847656 201.53125 149.882812 201.53125 Z M 73.011719 182.546875 C 73.292969 180.902344 75.710938 179.589844 78.417969 179.589844 L 146.566406 179.589844 C 149.273438 179.589844 151.691406 180.902344 151.972656 182.546875 C 152.261719 184.214844 150.25 185.585938 147.472656 185.585938 L 77.511719 185.585938 C 74.738281 185.585938 72.722656 184.214844 73.011719 182.546875 Z M 75.386719 168.785156 C 75.640625 167.328125 77.90625 166.167969 80.441406 166.167969 L 144.542969 166.167969 C 147.082031 166.167969 149.34375 167.328125 149.597656 168.785156 C 149.847656 170.257812 147.949219 171.464844 145.339844 171.464844 L 79.644531 171.464844 C 77.035156 171.464844 75.136719 170.257812 75.386719 168.785156 Z M 168.199219 213.796875 L 155.960938 156.738281 L 69.023438 156.738281 L 56.785156 213.796875 C 56.34375 215.863281 58.449219 217.578125 61.46875 217.578125 L 163.515625 217.578125 C 166.535156 217.578125 168.640625 215.863281 168.199219 213.796875 " fill-opacity="1" fill-rule="nonzero"/><g clip-path="url(#5bc0ee504c)"><path fill="#0c1b37" d="M 155.773438 10.589844 L 155.773438 49.492188 L 69.210938 49.492188 L 69.210938 10.589844 C 69.210938 8.273438 71.101562 6.382812 73.414062 6.382812 L 151.570312 6.382812 C 153.882812 6.382812 155.773438 8.273438 155.773438 10.589844 " fill-opacity="1" fill-rule="nonzero"/></g></svg>