<svg width="93" height="93" viewBox="0 0 93 93" fill="none" xmlns="http://www.w3.org/2000/svg">
<circle cx="46.5" cy="46.5" r="46.5" fill="#0C1B37"/>
<path fill-rule="evenodd" clip-rule="evenodd" d="M35.7454 21.028H58.2999C69.9123 21.028 74.8475 76.2257 53.0163 76.2103H34.29C55.6008 74.894 53.9116 20.7504 35.741 21.028H35.7454Z" fill="white"/>
<path fill-rule="evenodd" clip-rule="evenodd" d="M33.157 22.6426C20.5699 22.6426 19.0616 49.5396 25.5712 57.5918C27.4765 59.9519 28.7908 59.885 31.2385 58.7127C33.6113 57.5763 35.618 55.3396 36.0502 51.149C36.6632 44.3309 34.0523 42.048 30.3829 37.9345H40.0239C40.5664 34.9882 41.4617 32.155 42.6789 29.7487C40.4693 25.4604 37.2719 22.6683 33.1482 22.6683V22.6529L33.157 22.6426Z" fill="white"/>
<path fill-rule="evenodd" clip-rule="evenodd" d="M30.7666 75.3671C25.2537 74.8581 23.2823 71.9941 22.2635 66.5694L42.9612 66.3277C40.3282 71.3359 36.0105 74.8478 30.7666 75.3671Z" fill="white"/>
<path fill-rule="evenodd" clip-rule="evenodd" d="M34.8418 39.6313C39.971 44.0019 39.7769 57.1753 33.823 59.5148C33.4481 59.6639 32.2088 59.8285 32.6322 59.8285L34.855 59.8336H45.5677C47.129 55.7921 47.2877 44.6446 46.2866 39.6313H34.8418Z" fill="white"/>
</svg>
