<svg xmlns="http://www.w3.org/2000/svg" xmlns:xlink="http://www.w3.org/1999/xlink" width="300" zoomAndPan="magnify" viewBox="0 0 224.87999 233.04" height="300" preserveAspectRatio="xMidYMid meet" version="1.0"><defs><clipPath id="cd2907322d"><path d="M 4.199219 53 L 220.804688 53 L 220.804688 191.074219 L 4.199219 191.074219 Z M 4.199219 53 " clip-rule="nonzero"/></clipPath><clipPath id="1f0635ed9a"><path d="M 94 32.726562 L 131 32.726562 L 131 68 L 94 68 Z M 94 32.726562 " clip-rule="nonzero"/></clipPath></defs><g clip-path="url(#cd2907322d)"><path fill="#0c1b37" d="M 220.445312 181.832031 C 220.445312 187.082031 216.191406 191.335938 210.945312 191.335938 L 14.015625 191.335938 C 8.765625 191.335938 4.511719 187.082031 4.511719 181.832031 L 4.511719 63.269531 C 4.511719 58.023438 8.765625 53.769531 14.015625 53.769531 L 210.945312 53.769531 C 216.191406 53.769531 220.445312 58.023438 220.445312 63.269531 Z M 220.445312 181.832031 " fill-opacity="1" fill-rule="nonzero"/></g><path fill="#ffffff" d="M 136.164062 66.460938 C 136.164062 69.875 133.398438 72.640625 129.988281 72.640625 L 94.972656 72.640625 C 91.558594 72.640625 88.792969 69.875 88.792969 66.460938 L 88.792969 64.917969 C 88.792969 61.503906 91.558594 58.738281 94.972656 58.738281 L 129.988281 58.738281 C 133.398438 58.738281 136.164062 61.503906 136.164062 64.917969 Z M 136.164062 66.460938 " fill-opacity="1" fill-rule="nonzero"/><g clip-path="url(#1f0635ed9a)"><path fill="#0c1b37" d="M 130.761719 61.570312 C 130.761719 64.984375 127.996094 67.75 124.582031 67.75 L 100.375 67.75 C 96.964844 67.75 94.195312 64.984375 94.195312 61.570312 L 94.195312 38.914062 C 94.195312 35.5 96.964844 32.734375 100.375 32.734375 L 124.582031 32.734375 C 127.996094 32.734375 130.761719 35.5 130.761719 38.914062 Z M 130.761719 61.570312 " fill-opacity="1" fill-rule="nonzero"/></g><path stroke-linecap="round" transform="matrix(0.846404, 0, 0, 0.846404, -67.46596, -67.911115)" fill="none" stroke-linejoin="round" d="M 208.087512 203.772196 L 307.118596 203.772196 " stroke="#ffffff" stroke-width="9.125" stroke-opacity="1" stroke-miterlimit="10"/><path stroke-linecap="round" transform="matrix(0.846404, 0, 0, 0.846404, -67.46596, -67.911115)" fill="none" stroke-linejoin="round" d="M 208.087512 225.024789 L 307.118596 225.024789 " stroke="#ffffff" stroke-width="9.125" stroke-opacity="1" stroke-miterlimit="10"/><path stroke-linecap="round" transform="matrix(0.846404, 0, 0, 0.846404, -67.46596, -67.911115)" fill="none" stroke-linejoin="round" d="M 208.087512 246.281998 L 307.118596 246.281998 " stroke="#ffffff" stroke-width="9.125" stroke-opacity="1" stroke-miterlimit="10"/><path stroke-linecap="round" transform="matrix(0.846404, 0, 0, 0.846404, -67.46596, -67.911115)" fill="none" stroke-linejoin="round" d="M 208.087512 267.529976 L 307.118596 267.529976 " stroke="#ffffff" stroke-width="9.125" stroke-opacity="1" stroke-miterlimit="10"/><path fill="#ffffff" d="M 91.367188 162.34375 C 91.367188 173.191406 23.464844 173.191406 23.464844 162.34375 L 23.464844 148.59375 C 23.464844 137.746094 32.261719 128.953125 43.109375 128.953125 L 71.722656 128.953125 C 82.574219 128.953125 91.367188 137.746094 91.367188 148.59375 Z M 91.367188 162.34375 " fill-opacity="1" fill-rule="nonzero"/><path fill="#ffffff" d="M 82.152344 99.367188 C 82.152344 100.175781 82.113281 100.984375 82.035156 101.789062 C 81.953125 102.597656 81.835938 103.398438 81.675781 104.191406 C 81.519531 104.988281 81.324219 105.773438 81.085938 106.546875 C 80.851562 107.320312 80.578125 108.082031 80.269531 108.832031 C 79.960938 109.582031 79.613281 110.3125 79.230469 111.027344 C 78.851562 111.742188 78.433594 112.433594 77.984375 113.109375 C 77.535156 113.78125 77.050781 114.433594 76.539062 115.058594 C 76.023438 115.683594 75.480469 116.285156 74.90625 116.855469 C 74.335938 117.429688 73.734375 117.972656 73.109375 118.488281 C 72.484375 119 71.832031 119.484375 71.160156 119.933594 C 70.484375 120.382812 69.792969 120.800781 69.078125 121.179688 C 68.363281 121.5625 67.632812 121.910156 66.882812 122.21875 C 66.132812 122.53125 65.371094 122.800781 64.597656 123.039062 C 63.820312 123.273438 63.035156 123.46875 62.242188 123.628906 C 61.449219 123.785156 60.648438 123.902344 59.839844 123.984375 C 59.035156 124.0625 58.226562 124.101562 57.417969 124.101562 C 56.605469 124.101562 55.796875 124.0625 54.992188 123.984375 C 54.1875 123.902344 53.386719 123.785156 52.589844 123.628906 C 51.796875 123.46875 51.011719 123.273438 50.234375 123.039062 C 49.460938 122.800781 48.699219 122.53125 47.949219 122.21875 C 47.203125 121.910156 46.46875 121.5625 45.757812 121.179688 C 45.042969 120.800781 44.347656 120.382812 43.675781 119.933594 C 43 119.484375 42.351562 119 41.722656 118.488281 C 41.097656 117.972656 40.5 117.429688 39.925781 116.855469 C 39.351562 116.285156 38.808594 115.683594 38.296875 115.058594 C 37.78125 114.433594 37.300781 113.78125 36.847656 113.109375 C 36.398438 112.433594 35.984375 111.742188 35.601562 111.027344 C 35.21875 110.3125 34.875 109.582031 34.5625 108.832031 C 34.253906 108.082031 33.980469 107.320312 33.746094 106.546875 C 33.511719 105.773438 33.3125 104.988281 33.15625 104.191406 C 32.996094 103.398438 32.878906 102.597656 32.800781 101.789062 C 32.71875 100.984375 32.679688 100.175781 32.679688 99.367188 C 32.679688 98.554688 32.71875 97.746094 32.800781 96.941406 C 32.878906 96.136719 32.996094 95.335938 33.15625 94.539062 C 33.3125 93.746094 33.511719 92.960938 33.746094 92.1875 C 33.980469 91.410156 34.253906 90.648438 34.5625 89.898438 C 34.875 89.152344 35.21875 88.421875 35.601562 87.707031 C 35.984375 86.992188 36.398438 86.296875 36.847656 85.625 C 37.300781 84.949219 37.78125 84.300781 38.296875 83.671875 C 38.808594 83.046875 39.351562 82.449219 39.925781 81.875 C 40.5 81.300781 41.097656 80.757812 41.722656 80.246094 C 42.351562 79.730469 43 79.25 43.675781 78.800781 C 44.347656 78.347656 45.042969 77.933594 45.757812 77.550781 C 46.46875 77.167969 47.203125 76.824219 47.949219 76.511719 C 48.699219 76.203125 49.460938 75.929688 50.234375 75.695312 C 51.011719 75.460938 51.796875 75.261719 52.589844 75.105469 C 53.386719 74.949219 54.1875 74.828125 54.992188 74.75 C 55.796875 74.667969 56.605469 74.628906 57.417969 74.628906 C 58.226562 74.628906 59.035156 74.667969 59.839844 74.75 C 60.648438 74.828125 61.449219 74.949219 62.242188 75.105469 C 63.035156 75.261719 63.820312 75.460938 64.597656 75.695312 C 65.371094 75.929688 66.132812 76.203125 66.882812 76.511719 C 67.632812 76.824219 68.363281 77.167969 69.078125 77.550781 C 69.792969 77.933594 70.484375 78.347656 71.160156 78.800781 C 71.832031 79.25 72.484375 79.730469 73.109375 80.246094 C 73.734375 80.757812 74.335938 81.300781 74.90625 81.875 C 75.480469 82.449219 76.023438 83.046875 76.539062 83.671875 C 77.050781 84.300781 77.535156 84.949219 77.984375 85.625 C 78.433594 86.296875 78.851562 86.992188 79.230469 87.707031 C 79.613281 88.421875 79.960938 89.152344 80.269531 89.898438 C 80.578125 90.648438 80.851562 91.410156 81.085938 92.1875 C 81.324219 92.960938 81.519531 93.746094 81.675781 94.539062 C 81.835938 95.335938 81.953125 96.136719 82.035156 96.941406 C 82.113281 97.746094 82.152344 98.554688 82.152344 99.367188 Z M 82.152344 99.367188 " fill-opacity="1" fill-rule="nonzero"/><path fill="#0c1b37" d="M 57.414062 158.902344 L 45.050781 128.953125 L 69.785156 128.953125 Z M 57.414062 158.902344 " fill-opacity="1" fill-rule="nonzero"/><path fill="#ffffff" d="M 60.597656 135.257812 C 59.234375 135.257812 55.597656 135.257812 54.507812 135.257812 C 53.414062 135.257812 52.808594 128.953125 52.808594 128.953125 L 62.023438 128.953125 C 62.023438 128.953125 61.964844 135.257812 60.597656 135.257812 Z M 60.597656 135.257812 " fill-opacity="1" fill-rule="nonzero"/><path fill="#ffffff" d="M 64.328125 162.082031 L 50.867188 162.082031 L 54.507812 135.257812 L 60.597656 135.257812 Z M 64.328125 162.082031 " fill-opacity="1" fill-rule="nonzero"/><path fill="#ffffff" d="M 203.90625 77.113281 C 203.90625 77.863281 203.832031 78.605469 203.6875 79.339844 C 203.539062 80.074219 203.324219 80.789062 203.035156 81.484375 C 202.75 82.175781 202.398438 82.835938 201.980469 83.457031 C 201.5625 84.082031 201.089844 84.660156 200.558594 85.191406 C 200.03125 85.71875 199.453125 86.195312 198.828125 86.609375 C 198.207031 87.027344 197.546875 87.378906 196.855469 87.667969 C 196.160156 87.953125 195.445312 88.167969 194.710938 88.316406 C 193.976562 88.460938 193.234375 88.535156 192.484375 88.535156 C 191.730469 88.535156 190.988281 88.460938 190.253906 88.316406 C 189.519531 88.167969 188.804688 87.953125 188.109375 87.667969 C 187.417969 87.378906 186.757812 87.027344 186.136719 86.609375 C 185.511719 86.195312 184.933594 85.71875 184.40625 85.191406 C 183.875 84.660156 183.402344 84.082031 182.984375 83.457031 C 182.566406 82.835938 182.214844 82.175781 181.929688 81.484375 C 181.640625 80.789062 181.425781 80.074219 181.277344 79.339844 C 181.132812 78.605469 181.058594 77.863281 181.058594 77.113281 C 181.058594 76.363281 181.132812 75.617188 181.277344 74.882812 C 181.425781 74.148438 181.640625 73.433594 181.929688 72.738281 C 182.214844 72.046875 182.566406 71.386719 182.984375 70.765625 C 183.402344 70.140625 183.875 69.5625 184.40625 69.035156 C 184.933594 68.503906 185.511719 68.03125 186.136719 67.613281 C 186.757812 67.195312 187.417969 66.84375 188.109375 66.558594 C 188.804688 66.269531 189.519531 66.054688 190.253906 65.90625 C 190.988281 65.761719 191.730469 65.6875 192.484375 65.6875 C 193.234375 65.6875 193.976562 65.761719 194.710938 65.90625 C 195.445312 66.054688 196.160156 66.269531 196.855469 66.558594 C 197.546875 66.84375 198.207031 67.195312 198.828125 67.613281 C 199.453125 68.03125 200.03125 68.503906 200.558594 69.035156 C 201.089844 69.5625 201.5625 70.140625 201.980469 70.765625 C 202.398438 71.386719 202.75 72.046875 203.035156 72.738281 C 203.324219 73.433594 203.539062 74.148438 203.6875 74.882812 C 203.832031 75.617188 203.90625 76.363281 203.90625 77.113281 Z M 203.90625 77.113281 " fill-opacity="1" fill-rule="nonzero"/></svg>