<svg width="115" height="98" viewBox="0 0 115 98" fill="none" xmlns="http://www.w3.org/2000/svg">
<g clip-path="url(#clip0_70_4042)">
<path fill-rule="evenodd" clip-rule="evenodd" d="M47.5556 0.00114711H72.6999C85.6456 0.00114711 91.1475 59.4958 66.8096 59.4792H45.9331C69.6908 58.0604 67.8077 -0.298127 47.5507 0.00114711H47.5556Z" fill="white"/>
<path fill-rule="evenodd" clip-rule="evenodd" d="M44.6696 1.74146C30.6372 1.74146 28.9557 30.7323 36.2128 39.4112C38.3368 41.9551 39.802 41.883 42.5308 40.6194C45.176 39.3946 47.4131 36.9838 47.895 32.467C48.5784 25.1181 45.6677 22.6574 41.577 18.2237H52.325C52.9297 15.0481 53.9278 11.9944 55.2848 9.40066C52.8216 4.77854 49.2569 1.76917 44.6598 1.76917V1.75254L44.6696 1.74146Z" fill="white"/>
<path fill-rule="evenodd" clip-rule="evenodd" d="M42.0047 58.5703C35.8588 58.0217 33.661 54.9347 32.5252 49.0878L55.5995 48.8273C52.6642 54.2253 47.8507 58.0106 42.0047 58.5703Z" fill="white"/>
<path fill-rule="evenodd" clip-rule="evenodd" d="M46.5478 20.0526C52.266 24.7634 52.0496 38.9623 45.412 41.484C44.9941 41.6447 43.6125 41.8221 44.0845 41.8221L46.5625 41.8276H58.5053C60.2458 37.4715 60.4228 25.4562 59.3067 20.0526H46.5478Z" fill="white"/>
<path d="M8.84129 84.4465L7.81369 89.4455C7.07126 89.7115 6.38292 89.8611 5.74866 89.8611C4.19005 89.8611 3.01003 89.2072 2.20368 87.866C1.39242 86.558 1.20067 84.9231 1.59401 83.0166C2.02176 80.9328 3.04445 79.1815 4.62272 77.7793C6.21083 76.3495 7.94152 75.6401 9.8148 75.6401C10.8178 75.6401 11.7422 75.8784 12.578 76.3218C13.3844 76.7707 13.994 77.3914 14.3382 78.134C14.9725 79.4143 15.0118 81.2542 14.5152 83.6651L13.5319 88.4257C13.0009 91.0139 11.9044 93.1255 10.2819 94.7327C8.65937 96.3399 6.80576 97.1435 4.72106 97.1435C4.0868 97.1435 3.33453 96.9661 2.42985 96.6059L3.44762 91.6679C4.00321 92.0558 4.59814 92.2332 5.2324 92.2332C6.07808 92.2332 6.83034 91.9062 7.4056 91.2799C8.01528 90.626 8.44303 89.706 8.68887 88.5144L9.80989 83.0721C10.1246 81.5535 9.7558 80.7832 8.67412 80.7832C8.22669 80.7832 7.7891 80.9882 7.36626 81.3762C6.93851 81.7918 6.66317 82.2407 6.55008 82.7728C6.44192 83.3104 6.50092 83.7814 6.77134 84.1417C7.00734 84.5296 7.36626 84.707 7.86777 84.707C8.18244 84.707 8.5217 84.6183 8.8462 84.441L8.84129 84.4465Z" fill="white"/>
<path d="M29.3539 84.0641H22.0477C22.028 83.6484 22.0526 83.2605 22.1214 82.9335C22.2247 82.4292 22.4017 81.9525 22.6278 81.5036H25.0813C25.1501 80.4007 24.7076 79.8687 23.8079 79.8687C23.2031 79.8687 22.6672 80.168 22.1804 80.7333C21.6691 81.2986 21.3298 82.0412 21.1381 82.9667C20.9463 83.8867 20.9709 84.6626 21.2216 85.2556C21.4724 85.8209 21.8903 86.1202 22.4705 86.1202C22.9474 86.1202 23.4735 85.8542 24.0389 85.2889L26.0106 89.0354C24.4864 90.166 22.9425 90.7313 21.3888 90.7313C19.491 90.7313 18.0258 90.0163 17.0326 88.5587C16.0394 87.1012 15.7493 85.3166 16.182 83.2051C16.6245 81.0658 17.6521 79.2812 19.2697 77.8237C20.8627 76.3661 22.6278 75.6234 24.5503 75.6234C26.399 75.6234 27.8347 76.3384 28.8033 77.7627C29.7768 79.1926 30.0472 80.9439 29.6096 83.0554C29.5654 83.2605 29.4719 83.593 29.349 84.0641H29.3539Z" fill="white"/>
<path d="M47.0886 90.4264H42.2604L43.8731 82.6065C43.996 82.0135 44.0304 81.5978 43.9714 81.3595C43.9124 81.1212 43.7256 81.0048 43.4355 81.0048C42.9094 81.0048 42.5357 81.5424 42.3096 82.6398L40.7018 90.432H35.8735L37.4862 82.612C37.6092 82.019 37.6436 81.6034 37.56 81.3651C37.5059 81.1268 37.3191 81.0104 37.029 81.0104C36.5029 81.0104 36.1292 81.548 35.8981 82.6453L34.2904 90.4375H29.4621L31.301 81.5147C31.6402 79.8798 32.422 78.5109 33.6118 77.3526C34.8214 76.222 36.1243 75.6567 37.4961 75.6567C38.9219 75.6567 40.0724 76.3384 40.923 77.7073C42.4718 76.3384 43.878 75.6567 45.117 75.6567C46.7248 75.6567 47.8851 76.3107 48.5882 77.6186C49.1389 78.6605 49.2028 80.1458 48.7898 82.141L47.0788 90.4375L47.0886 90.4264Z" fill="white"/>
<path d="M57.163 75.9393L54.1786 90.4264H49.3503L52.3348 75.9393H57.163ZM56.1207 69.4828C56.755 69.4828 57.281 69.7488 57.6498 70.2587C58.0186 70.763 58.1267 71.3893 57.9841 72.1042C57.8317 72.8468 57.4925 73.4731 56.9172 73.9497C56.3665 74.454 55.7372 74.6924 55.0488 74.6924C54.3359 74.6924 53.8049 74.454 53.4607 73.9497C53.1116 73.4731 53.0035 72.8468 53.1559 72.1042C53.3034 71.3893 53.6672 70.763 54.2474 70.2587C54.8276 69.7543 55.4618 69.4828 56.1207 69.4828Z" fill="white"/>
<path d="M59.8771 95.78H55.0488L57.5367 83.7037C57.9989 81.4758 58.8986 79.658 60.2163 78.2614C60.9637 77.4578 61.8585 76.8315 62.8763 76.3604C63.8695 75.8838 64.8725 75.6455 65.8214 75.6455C67.7488 75.6455 69.209 76.3604 70.2268 77.818C71.2446 79.2756 71.5347 81.0602 71.102 83.1717C70.6792 85.2223 69.6516 87.0068 68.0536 88.4977C66.4262 89.983 64.7446 90.7256 62.95 90.7256C62.6599 90.7256 62.242 90.6979 61.6766 90.6369L62.9156 84.6293C63.2352 84.984 63.5941 85.1669 63.9924 85.1669C64.4939 85.1669 64.9561 84.9618 65.4133 84.5406C65.8411 84.1249 66.1312 83.6206 66.2492 83.0553C66.3672 82.49 66.2787 82.0134 65.9935 81.5977C65.7034 81.2098 65.3002 81.0047 64.7987 81.0047C63.5597 81.0047 62.7288 81.958 62.3256 83.9199L59.882 95.7856L59.8771 95.78Z" fill="white"/>
<path d="M82.5284 75.7956L81.3336 81.5926C81.0337 81.382 80.7633 81.2933 80.4978 81.2933C79.6275 81.2933 79.0277 82.036 78.713 83.5545L77.297 90.4268H72.4688L74.1011 82.5126C74.5338 80.4011 75.3795 78.7329 76.6627 77.5136C77.9214 76.2666 79.3964 75.6404 81.0878 75.6404C81.4811 75.6404 81.9482 75.7013 82.5333 75.79L82.5284 75.7956Z" fill="white"/>
<path d="M89.5105 75.9392L86.526 90.4263H81.6978L84.6822 75.9392H89.5105ZM88.4681 69.4827C89.1024 69.4827 89.6285 69.7487 89.9972 70.2586C90.366 70.7629 90.4741 71.3892 90.3316 72.1041C90.1791 72.8467 89.8399 73.473 89.2646 73.9496C88.7139 74.4539 88.0846 74.6923 87.3963 74.6923C86.6833 74.6923 86.1523 74.4539 85.8082 73.9496C85.4591 73.473 85.3509 72.8467 85.5033 72.1041C85.6508 71.3892 86.0147 70.7629 86.5948 70.2586C87.175 69.7542 87.8093 69.4827 88.4681 69.4827Z" fill="white"/>
<path d="M101.561 90.4268H96.7332L98.4196 82.2466C98.5917 81.4153 98.3852 80.9996 97.7805 80.9996C97.1757 80.9996 96.7971 81.4153 96.625 82.2466L94.9386 90.4268H90.1104L91.7771 82.3353C92.1655 80.462 93.0506 78.8548 94.4174 77.5746C95.7892 76.2944 97.2691 75.6404 98.8769 75.6404C100.726 75.6404 102.048 76.383 102.845 77.9016C103.474 79.0599 103.563 80.7003 103.13 82.7786L101.552 90.4212L101.561 90.4268Z" fill="white"/>
<path d="M113.519 70.5856L112.373 76.1499H114.537L113.352 81.8915H111.188C110.947 83.0498 110.947 83.8257 111.174 84.2691C111.4 84.7125 111.96 84.9231 112.806 84.9231L111.631 90.6315C111.395 90.6315 111.208 90.6315 111.075 90.6315C109.994 90.6315 109.025 90.3322 108.165 89.7669C107.334 89.2016 106.699 88.4312 106.321 87.4447C105.839 86.1978 105.809 84.5573 106.237 82.479L108.691 70.5801H113.519V70.5856Z" fill="white"/>
</g>
<defs>
<clipPath id="clip0_70_4042">
<rect width="114.38" height="97.18" fill="white"/>
</clipPath>
</defs>
</svg>
