<svg width="38" height="45" viewBox="0 0 38 45" fill="none" xmlns="http://www.w3.org/2000/svg">
<path fill-rule="evenodd" clip-rule="evenodd" d="M11.1519 0.00085052H29.1766C38.4569 0.00085052 42.4009 44.1129 24.9542 44.1006H9.98877C27.0196 43.0487 25.6697 -0.221045 11.1484 0.00085052H11.1519Z" fill="#373435"/>
<path fill-rule="evenodd" clip-rule="evenodd" d="M9.08292 1.29121C-0.976261 1.29121 -2.18167 22.7863 3.02062 29.2213C4.54324 31.1074 5.59357 31.054 7.54972 30.1171C9.44595 29.209 11.0496 27.4215 11.395 24.0725C11.885 18.6237 9.79841 16.7993 6.86595 13.5119H14.5707C15.0042 11.1574 15.7197 8.8932 16.6925 6.9701C14.9267 3.54304 12.3714 1.31176 9.07587 1.31176V1.29943L9.08292 1.29121Z" fill="#00AFEF"/>
<path fill-rule="evenodd" clip-rule="evenodd" d="M7.17259 43.4268C2.76685 43.02 1.19136 40.7312 0.377177 36.396L16.9181 36.2028C14.8139 40.2052 11.3633 43.0118 7.17259 43.4268Z" fill="#00AFEF"/>
<path fill-rule="evenodd" clip-rule="evenodd" d="M10.4293 14.868C14.5284 18.3608 14.3733 28.8885 9.61513 30.7582C9.31554 30.8773 8.32513 31.0088 8.66349 31.0088L10.4399 31.0129H19.0011C20.2488 27.7831 20.3757 18.8744 19.5756 14.868H10.4293Z" fill="#00AFEF"/>
</svg>
