<svg width="258" height="266" viewBox="0 0 258 266" fill="none" xmlns="http://www.w3.org/2000/svg">
<path d="M179.217 147.102C175.449 174.786 176.502 187.346 177.793 200.433C179.085 213.519 180.71 230.172 181.36 233.24C182.006 236.313 192.35 247.389 198.971 245.123C205.596 242.861 209.475 233.973 209.475 233.973L210.455 141.818L179.217 147.102Z" fill="#363C53"/>
<path d="M181.363 233.242C184.088 247.707 188.635 295.437 188.74 301.902C199.28 307.539 204.07 302.255 208.154 299.993C210.43 298.734 209.798 270.441 209.798 270.441C209.798 270.441 214.327 258.54 213.896 246.8C213.466 235.06 207.866 221.804 207.866 221.804L181.363 233.242Z" fill="#363C53"/>
<path d="M164.002 92.4585C164.002 92.4585 159.314 110.563 158.196 114.419C157.079 118.27 154.162 127.739 154.162 127.739L171.031 135.752C171.031 135.752 175.56 126.47 178.467 108.292C181.37 90.1187 164.002 92.4585 164.002 92.4585Z" fill="#3B4157"/>
<path d="M187.73 56.8872C183.902 55.6188 175.802 53.2516 170.573 65.3993C168.883 69.328 164.941 83.8385 164.002 92.4651C162.889 102.676 169.094 104.448 172.917 104.933C176.74 105.414 187.73 56.8872 187.73 56.8872Z" fill="#3B4157"/>
<path d="M28.0388 219.569C28.0388 219.569 29.179 222.247 28.6203 225.004C28.0617 227.76 28.3685 235.782 28.3685 235.782C28.3685 235.782 30.7496 241.689 32.2102 243.397C33.6709 245.105 35.0125 248.072 36.0382 248.631C37.0638 249.185 38.323 249.299 38.323 249.299L40.4064 251.296L42.444 251.291L45.4157 250.755L43.4788 228.887L36.0519 210.905L28.0388 219.569Z" fill="#FF9C78"/>
<path d="M9.91133 146.571C9.8747 146.951 6.01929 176.586 6.45887 184.388C6.89844 192.195 20.6946 192.685 23.1947 188.747C25.6947 184.809 27.7507 148.815 27.7507 148.815L9.91133 146.571Z" fill="#3B4157"/>
<path d="M10.8169 173.715C10.0294 175.592 5.52375 174.878 6.59521 185.377C7.66666 195.877 12.8774 213.982 18.134 221.537C28.0152 219.98 28.0793 219.266 28.1755 214.87C28.2716 210.47 22.722 175.84 22.722 175.84L10.8169 173.715Z" fill="#3B4157"/>
<path d="M34.0185 122.606C25.6804 118.719 17.0263 124.237 14.3981 129.837C11.7744 135.441 8.06544 151.632 7.90975 153.308C7.75865 154.984 22.0951 164.682 28.1484 163.194C34.2063 161.706 34.0185 122.606 34.0185 122.606Z" fill="#3B4157"/>
<path d="M191.873 161.375C192.033 164.283 189.611 189.489 193.329 197.411C197.047 205.328 204.437 208.977 204.437 208.977C204.437 208.977 206.58 245.755 207.793 251.927C208.412 255.059 215.463 257.994 221.727 257.307C227.803 256.639 232.771 246.735 232.771 246.735C232.771 246.735 241.187 199.792 240.885 185.895C240.583 171.998 238.412 150.226 231.627 144.41C224.836 138.591 191.873 161.375 191.873 161.375Z" fill="#3B4157"/>
<path d="M217.664 232.791C217.664 232.791 207.856 240.859 207.797 248.281C207.737 255.699 210.796 313.494 210.667 315.325C210.539 317.157 221.277 319.35 226.02 316.763C230.76 314.176 231.176 310.307 231.176 309.711C231.176 309.116 235.929 259.586 235.499 252.26C235.068 244.934 232.765 237.429 232.765 237.429L217.664 232.791Z" fill="#3B4157"/>
<path d="M214.662 57.1015C225.326 62.0009 241.595 70.6184 242.346 72.5598C243.101 74.4967 238.683 110.372 238.468 122.438C238.252 134.503 237.492 156.853 236.847 159.114C236.201 161.376 230.949 175.901 199.039 170.8C183.31 168.107 179.982 158.986 179.121 156.724C178.26 154.462 174.913 125.13 173.081 116.403C171.25 107.675 169.743 97.9818 171.68 82.2533C173.617 66.5249 175.957 64.1759 177.298 62.3169C179.533 59.217 182.793 54.1116 196.168 55.3433C209.543 56.575 214.662 57.1015 214.662 57.1015Z" fill="#EAEEF9"/>
<path d="M193.386 80.75C191.078 84.5184 188.038 116.974 188.038 120.618C188.038 124.263 191.247 139.309 191.247 139.309C191.247 139.309 195.515 131.727 196.06 129.904C196.609 128.082 195.3 81.7849 195.3 81.7849L193.386 80.75Z" fill="#343A51"/>
<path d="M191.249 133.182C191.249 133.182 182.265 103.479 182.265 79.2289C182.265 54.9791 205.059 55.817 205.059 55.817C205.059 55.817 203.419 52.4287 193.662 52.4287C183.904 52.4287 176.523 58.7201 173.606 67.9283C170.69 77.1364 168.899 93.1579 171.207 109.775C173.515 126.391 175.978 146.52 175.978 159.053C175.978 171.585 181.798 174.676 191.285 176.96C193.204 150.792 191.249 133.182 191.249 133.182Z" fill="#343A51"/>
<path d="M191.501 129.493C191.501 129.493 185.434 101.836 184.71 83.8778C183.987 65.9195 189.646 61.2673 194.111 57.9843C189.188 54.4311 186.02 55.0491 182.412 59.9485C178.803 64.8479 176.56 70.6356 176.56 79.0882C176.56 109.236 190.933 147.478 190.933 147.478C190.933 147.478 192.43 133.939 191.501 129.493Z" fill="#3B4157"/>
<path d="M215.077 58.0753C225.471 63.1213 210.453 101.712 191.24 133.183C191.867 161.375 190.26 172.937 191.272 176.952C192.284 180.968 210.21 187.236 226.318 180.638C242.427 174.04 244.428 165.835 242.422 160.912C240.421 155.99 239.373 101.364 239.373 101.364C239.373 101.364 248.05 77.4394 239.373 70.1269C230.696 62.8144 211.368 54.6687 211.368 54.6687L215.077 58.0753Z" fill="#343A51"/>
<path d="M215.081 58.0759C218.483 62.5128 216.72 71.6889 214.229 78.864C211.738 86.0345 191.499 129.493 191.499 129.493L191.243 133.183L190.932 147.483C190.932 147.483 209.572 115.921 217.082 99.469C226.656 78.5023 226.505 68.653 222.92 63.1217C219.334 57.5905 212.732 54.6737 212.732 54.6737L215.081 58.0759Z" fill="#3B4157"/>
<path d="M184.712 53.1674C186.544 53.813 190.852 62.7555 189.992 68.1403C189.131 73.525 196.027 76.4326 204.424 72.7741C212.826 69.111 217.744 61.0522 215.084 58.0805C212.424 55.1042 210.78 50.6947 210.564 48.3228C210.349 45.951 209.273 31.6237 209.273 30.0119C209.273 28.4002 198.824 23.1161 198.824 23.1161L184.712 53.1674Z" fill="#FF9C78"/>
<path d="M212.737 54.6709C213.762 58.5767 210.072 71.6586 194.481 72.0249C193.711 73.8381 193.711 73.8381 193.711 73.8381L197.439 81.4024C197.439 81.4024 201.404 80.8759 209.206 76.2192C217.009 71.5625 216.968 65.7335 216.968 65.7335C216.968 65.7335 217.787 61.988 216.409 58.943C215.031 55.8935 213.03 52.4227 213.03 52.4227L211.432 51.7725C211.432 51.7725 211.665 53.2285 212.737 54.6709Z" fill="#F8F7FB"/>
<path d="M195.302 72.7535C195.302 72.7535 196.809 73.3442 194.483 72.0255C192.156 70.7022 190.554 70.606 190.055 65.5051C189.194 67.9228 186.776 74.0677 189.83 78.5779C190.742 78.6237 193.709 73.8387 193.709 73.8387L195.302 72.7535Z" fill="#F8F7FB"/>
<path d="M200.261 32.2774C200.261 32.2774 203.448 50.3547 203.017 54.6131C202.587 58.876 190.796 66.0604 188.04 66.587C185.279 67.1135 181.867 65.3323 180.86 64.2059C179.848 63.084 172.545 50.6067 170.635 38.2483C168.726 25.8853 167.6 19.7038 171.757 16.3337C175.915 12.9637 181.533 9.7035 189.738 12.7393C197.939 15.7751 200.261 32.2774 200.261 32.2774Z" fill="#FF9C78"/>
<path d="M164.813 126.997C161.365 124.854 157.386 123.933 156.163 126.539C154.936 129.144 150.266 134.652 148.659 142.157C147.052 149.662 139.854 161.375 139.854 161.375L142.225 170.565C142.225 170.565 148.888 172.094 150.802 166.659C152.716 161.224 170.097 143.297 170.94 134.533C169.483 127.766 164.813 126.997 164.813 126.997Z" fill="#FF9C78"/>
<path d="M158.091 121.933C153.086 128.682 152.129 130.527 148.526 137.528C144.927 144.529 138.361 159.095 138.764 160.761C139.167 162.433 148.008 169.997 150.083 168.802C152.152 167.607 169.946 143.362 171.626 133.316C171.919 130.298 165.916 123.361 158.091 121.933Z" fill="#3B4157"/>
<path d="M142.182 178.216C139.228 178.56 134.585 178.908 132.177 179.993C129.773 181.078 123.175 191.009 114.992 198.102C106.81 205.195 99.6897 206.546 97.9314 206.463C96.1686 206.381 95.0696 190.671 100.679 186.495C106.288 182.319 117.625 178.587 123.024 173.312C128.427 168.037 128.427 168.037 128.427 168.037C128.427 168.037 130.68 162.286 131.408 161.508C132.131 160.729 134.334 159.777 136.193 159.64C138.052 159.502 138.235 160.862 138.235 160.862L136.17 162.827L137.882 164.292C137.882 164.292 148.784 165.285 150.383 165.473C151.981 165.656 152.026 167.662 152.026 167.662C152.026 167.662 148.075 169.26 147.96 169.251C147.846 169.241 150.859 169.901 151.005 169.988C151.152 170.079 150.378 173.047 150.378 173.047L147.892 173.742C147.892 173.742 149.215 173.862 149.119 174.878C149.027 175.895 147.351 176.82 147.351 176.82L146.051 178.701L142.182 178.216Z" fill="#FF9C78"/>
<path d="M232.025 109.134C232.877 112.064 240.18 137.28 241.76 140.188C243.344 143.095 255.666 139.455 256.421 136.117C257.177 132.779 254.352 105.681 253.111 102.073C251.875 98.4649 232.025 109.134 232.025 109.134Z" fill="#3B4157"/>
<path d="M247.052 135.361C247.052 135.361 245.555 127.93 242.427 140.531C239.3 153.136 240.669 181.896 240.023 184.886C239.378 187.876 235.417 198.783 235.499 200.477C235.582 202.176 237.193 203.064 237.193 203.064C237.193 203.064 237.596 217.282 238.686 218.294C239.776 219.306 241.782 217.607 241.782 217.607C241.782 217.607 244.305 216.435 244.707 215.423C245.11 214.411 249.231 207.909 250.486 203.705C251.736 199.507 250.729 191.952 250.889 189.488C251.049 187.025 259.081 148.205 256.42 136.895C247.862 137.701 247.052 135.361 247.052 135.361Z" fill="#FF9C78"/>
<path d="M144.255 158.39C139.663 159.539 138.069 160.62 137.488 161.572C136.906 162.525 137.593 169.796 137.593 169.796C137.593 169.796 137.9 173.125 139.851 173.546C141.801 173.967 142.722 173.088 142.722 171.476C142.722 169.869 142.3 167.149 142.3 167.149L142.534 164.713C142.534 164.713 144.723 165.13 145.922 165.029C147.122 164.929 148.23 163.894 147.735 161.101C147.241 158.312 147.268 157.772 144.255 158.39Z" fill="#FF9C78"/>
<path d="M141.989 177.171C141.696 176.278 139.887 176.2 139.283 176.85C138.678 177.5 137.332 178.993 137.332 178.993L134.347 179.222C134.347 179.222 134.347 181.328 135.991 181.328C137.639 181.328 139.283 181.827 139.819 181.521C140.354 181.214 140.698 180.948 140.698 180.948C140.698 180.948 142.575 181.37 143.798 181.292C145.025 181.214 144.906 181.484 145.941 180.719C146.975 179.955 147.424 177.958 147.516 176.662C147.607 175.367 146.664 174.634 146.055 174.826C145.442 175.019 145.02 173.718 144.027 174.02C143.033 174.323 141.989 177.171 141.989 177.171Z" fill="#FF9C78"/>
<path d="M173.884 26.3599C185.413 31.273 192.474 29.936 192.474 29.936C192.474 29.936 194.498 33.9837 194.722 34.4324C194.946 34.8812 197.094 35.829 197.094 35.829L199.621 41.5069L202.534 40.5269C202.534 40.5269 200.972 34.3134 204.791 32.8527C208.61 31.3921 206.476 46.2001 210.73 49.3916C210.73 49.3916 214.53 36.8593 214.961 33.0359C215.808 25.5037 216.632 15.5765 212.287 10.3063C207.525 4.53229 202.378 5.62677 202.378 5.62677C202.378 5.62677 194.759 -3.21971 182.872 1.27217C170.985 5.76863 166.525 16.6161 167.285 20.6638C168.045 24.7115 168.915 24.6245 168.915 24.6245L169.121 23.0128C169.121 23.0128 170.985 25.1236 173.884 26.3599Z" fill="#553012"/>
<path d="M203.793 36.754C204.045 32.427 203.711 31.8638 207.671 31.6989C211.632 31.5295 208.093 44.3413 204.974 44.3413C201.856 44.3367 203.793 36.754 203.793 36.754Z" fill="#FF9C78"/>
<path d="M40.677 354.503C39.7383 359.81 37.252 370.442 45.3749 375.95C48.484 379.508 47.0691 384 43.493 382.896C42.1102 382.47 41.0799 381.074 40.1046 379.416C38.5387 376.765 37.0872 373.427 34.4864 372.118C27.3754 368.56 23.5658 369.096 24.1748 366.408C24.8021 363.702 23.9915 341.219 24.2846 320.014C24.596 298.823 31.6154 291.14 31.0064 286.52C30.695 284.144 28.3735 275.041 26.052 264.56C23.8954 254.683 21.725 243.593 21.2992 235.708C20.6169 223.162 16.9905 206.358 49.0884 201.051C49.0884 201.051 59.2169 229.408 55.5355 254.28C51.8541 279.162 41.7988 348.092 40.677 354.503Z" fill="#FFA698"/>
<path d="M44.6603 298.49C37.9019 303.778 42.9295 307.625 39.6877 318.587C36.4641 329.567 33.149 364.156 35.9329 368.451C38.4193 372.265 39.1382 373.185 40.1135 379.412C38.5475 376.761 37.096 373.423 34.4952 372.114C27.3842 368.556 23.5746 369.092 24.1836 366.404C24.8109 363.698 24.0004 341.215 24.2935 320.011C24.6048 298.819 31.6243 291.136 31.0153 286.516C30.7039 284.14 28.3824 275.037 26.0609 264.556C33.4833 264.684 40.4431 268.796 43.8865 270.028C50.3289 272.326 51.3958 293.22 44.6603 298.49Z" fill="#FF806B"/>
<path d="M66.1665 393.712C65.8871 393.657 65.6124 393.547 65.356 393.382C62.1325 391.464 60.1452 386.729 52.3931 383.822C44.6411 380.891 41.4725 383.84 42.0998 381.148C42.7088 378.441 42.2097 353.729 42.5257 332.524C42.8187 311.333 49.5588 300.706 48.9498 296.081C48.4141 292.175 39.7783 280.087 39.6868 258.566C39.6868 254.551 39.9615 250.219 40.6438 245.539C42.4661 233.103 36.335 216.189 68.4147 210.882C68.4147 210.882 75.2463 272.459 70.2553 297.111C65.6902 319.791 57.1964 362.686 57.9336 369.151C58.3228 372.429 56.5508 378.492 70.1454 387.411C73.6666 389.934 69.39 394.486 66.1665 393.712Z" fill="#FFA698"/>
<path d="M50.0218 324.688C48.639 331.725 47.1325 376.324 50.791 378.192C57.2381 381.489 63.5523 389.378 66.1715 393.705C65.8921 393.65 65.6174 393.54 65.361 393.376C62.1375 391.457 60.1502 386.723 52.3982 383.815C44.6462 380.884 41.4776 383.833 42.1049 381.141C42.7139 378.435 42.2148 353.723 42.5307 332.518C42.8238 311.327 49.5639 300.699 48.9549 296.074C48.4192 292.169 39.7834 280.08 39.6918 258.56C62.7876 242.749 69.5782 267.017 68.438 273.409C62.2978 307.645 53.9276 304.641 50.0218 324.688Z" fill="#FF806B"/>
<path d="M84.1958 283.087C84.1958 283.769 85.3176 290.55 77.5289 294.859C74.1406 296.736 71.3245 297.844 68.0827 298.266C63.1283 298.948 57.1437 298.046 46.4429 295.963C28.7089 292.496 21.0301 282.899 21.0301 282.899C21.0301 282.899 21.0301 269.281 17.7333 239.34C15.5767 219.683 20.4944 208.144 24.1255 202.526C26.0395 199.577 27.5871 198.268 27.5871 198.268C27.5871 198.268 51.7865 195.745 67.0891 200.127C69.6304 200.864 69.1175 201.363 71.0132 202.521C72.5425 203.442 74.9968 205.218 75.9401 206.455C85.107 218.611 84.1958 282.386 84.1958 283.087Z" fill="#343A51"/>
<path d="M81.472 164.8C81.6551 170.437 77.7127 182.36 75.3775 187.667C74.1046 190.488 73.8116 197.264 73.8116 202.942C73.8116 207.878 74.0313 212.008 74.0313 212.008C74.0313 212.008 71.7831 215.049 66.3342 217.132C61.5264 218.991 54.2323 220.118 43.7924 217.796C25.1747 213.689 23.1646 207.608 23.7186 204.769C23.7735 204.494 23.9201 203.679 24.1215 202.539C24.8954 198.189 26.443 189.013 26.2919 186.087C25.8523 177.887 25.889 171.458 21.9282 160.441C16.5343 145.427 15.7422 137.629 17.4364 133.119C18.137 131.223 19.2771 129.914 20.7148 128.883C25.5593 125.417 40.5643 130.06 47.7669 132.441C54.9878 134.818 75.2813 145.523 79.6267 150.958C83.9766 156.361 81.2842 159.141 81.472 164.8Z" fill="#3B4157"/>
<path d="M68.0827 298.269C63.1283 298.951 57.1437 298.049 46.4429 295.966C28.7089 292.5 21.0301 282.902 21.0301 282.902C21.0301 282.902 21.0301 269.285 17.7333 239.343C15.5767 219.686 20.4944 208.147 24.1255 202.529C23.924 203.669 23.7729 204.484 23.7225 204.759C23.1684 207.598 25.1786 213.679 43.7963 217.786C54.2361 220.108 61.5303 218.986 66.3382 217.122C66.4114 226.28 67.4051 237.058 70.2806 249.293C74.3787 266.762 72.2266 286.643 68.0827 298.269Z" fill="#33374A"/>
<path d="M65.8556 165.628C65.8373 168.906 68.3602 187.313 67.1789 199.086C67.1423 199.438 67.1056 199.786 67.0873 200.134C66.6248 204.979 66.2585 210.657 66.3318 217.122C61.524 218.981 54.2298 220.107 43.79 217.786C25.1722 213.679 23.1621 207.598 23.7161 204.759C23.7711 204.484 23.9177 203.669 24.1191 202.529C24.893 198.179 26.4406 189.003 26.2895 186.077C25.85 177.876 25.8866 171.448 21.9258 160.431C16.5319 145.417 15.7398 137.619 17.4339 133.109C25.0944 130.549 33.8996 133.443 40.9694 136.813C48.4833 140.389 63.4746 140.746 72.3347 151.561C81.2178 162.377 65.8556 162.331 65.8556 165.628Z" fill="#343A51"/>
<path d="M64.8811 120.283C64.4004 121.24 63.7593 122.105 63.0771 122.953C62.8756 123.209 62.6696 123.47 62.4681 123.726C62.3216 123.91 62.1751 124.116 62.0239 124.299C61.7309 124.706 61.4516 125.127 61.2318 125.572C61.1036 125.81 60.9891 126.048 60.8975 126.291C59.0202 130.567 59.7574 136.149 59.4964 140.609C58.4845 140.847 57.3992 141.016 56.2728 141.108C53.0859 141.383 49.5327 141.089 46.4191 140.389C42.0005 139.45 38.4244 137.733 37.9115 135.837C37.4308 134.033 40.1415 126.277 39.6607 121.909C39.1845 117.522 38.8868 109.234 38.8868 109.234C38.8868 109.234 43.7313 104.774 49.5144 101.977C52.9944 100.301 56.8086 99.2111 60.1237 100.081C62.5184 100.708 64.1394 102.439 65.133 104.687C67.2942 109.449 66.7035 116.542 64.8811 120.283Z" fill="#FFA698"/>
<path d="M75.545 114.7C75.545 114.7 73.3517 126.198 68.6584 127.562C67.0008 128.043 65.0136 127.507 63.0401 126.55C62.4311 126.276 61.8221 125.941 61.236 125.575C60.6087 125.204 60.018 124.82 59.4502 124.412C58.7313 123.913 58.0491 123.419 57.4447 122.938C57.4264 122.938 57.4264 122.938 57.4264 122.938C56.1946 121.981 55.2148 121.152 54.6653 120.726C52.6964 119.27 49.5827 115.126 47.9435 110.112C47.4673 108.638 48.0717 105.506 49.5278 101.966C51.0022 98.4269 53.3008 94.4663 56.2496 91.316C60.4668 86.8012 65.9752 83.9669 72.1063 86.3982C72.1063 86.3982 76.0853 93.8023 76.0853 99.4435C76.0853 105.08 75.7144 105.396 76.9507 108.638C78.1596 111.88 75.545 114.7 75.545 114.7Z" fill="#FFA698"/>
<path d="M65.1343 104.678C65.0244 105.099 64.8412 105.488 64.5985 105.855C61.1552 111.052 62.2404 114.349 63.1608 119.71C63.344 120.722 62.8494 125.7 63.0326 126.547C62.4236 126.272 61.8146 125.938 61.2285 125.571C61.1003 125.81 60.9859 126.048 60.8943 126.29C60.5463 125.718 60.0105 125.017 59.4382 124.413C58.6277 123.529 57.7806 122.81 57.4326 122.939C57.4143 122.939 57.4143 122.939 57.4143 122.939C57.2494 123.012 57.2128 123.273 57.3411 123.767C58.0416 126.437 56.2009 135.027 53.9344 139.519C53.9344 139.519 50.6742 140.256 46.4204 140.384C42.0018 139.446 38.4257 137.728 37.9129 135.833C37.4321 134.029 40.1427 126.272 39.662 121.904C39.1858 117.517 38.8882 109.229 38.8882 109.229C38.8882 109.229 43.7326 104.77 49.5158 101.972C50.9902 98.4324 53.2888 94.4716 56.2376 91.3214C61.9108 92.7912 66.5721 100.163 65.1343 104.678Z" fill="#FF806B"/>
<path d="M59.5648 137.457C59.5648 137.457 52.3393 139.321 46.4463 137.59C40.5487 135.859 39.7749 133.716 39.7749 133.716L41.4783 131.07C41.4783 131.07 40.4709 130.79 39.7749 131.294C39.0743 131.802 36.5331 135.745 36.5331 135.745C36.5331 135.745 39.2713 141.853 50.5765 142.453C60.2517 142.97 61.4742 142.127 61.4742 142.127L67.1933 141.921L59.5648 137.457Z" fill="#F8F7FB"/>
<path d="M75.5429 93.4188C75.5429 93.4188 73.8304 96.276 70.9045 92.0359C70.9045 92.0359 70.2956 92.7548 69.6866 94.5589C69.2607 95.8501 68.8578 97.6909 68.6563 100.196C68.2122 106.24 67.2735 109.981 67.2735 109.981L66.0784 111.047C66.0784 111.047 64.4575 105.85 58.8209 105.997C53.1843 106.144 52.7813 111.377 54.9883 114.065C56.2613 115.631 54.6587 120.718 54.6587 120.718C54.6587 120.718 50.2767 123.369 47.0898 125.086C43.9029 126.799 39.4293 123.942 39.4293 123.942C39.4293 123.942 23.1514 119.628 23.7375 97.7778C23.7741 96.0287 23.9756 94.2201 24.3282 92.416C25.8392 84.8792 30.2944 77.5851 39.5942 75.4101C51.0826 72.704 55.8355 73.6243 61.6552 74.8744C66.7561 75.9779 70.6619 76.8066 73.3497 80.5658C76.0375 84.3068 72.5942 89.7786 72.6857 90.4791C72.7773 91.1705 75.5429 93.4188 75.5429 93.4188Z" fill="#202459"/>
<path d="M69.6866 94.564C69.2607 95.8553 68.8578 97.6961 68.6563 100.201C68.2122 106.245 67.2735 109.986 67.2735 109.986L66.0784 111.053C66.0784 111.053 64.4575 105.856 58.8209 106.002C53.1843 106.149 52.7813 111.382 54.9883 114.07C56.2613 115.636 54.6587 120.723 54.6587 120.723C54.6587 120.723 50.2767 123.374 47.0898 125.091C43.9029 126.804 39.4293 123.947 39.4293 123.947C39.4293 123.947 23.1514 119.633 23.7375 97.783C23.7741 96.0339 23.9756 94.2253 24.3282 92.4212C27.3823 91.2398 29.9968 91.5558 31.4529 94.0238C38.0099 105.192 64.3659 102.426 69.65 94.5045C69.65 94.5045 69.6637 94.5274 69.6866 94.564Z" fill="#191C45"/>
<path d="M38.3576 149.268C34.9326 155.829 28.8197 159.126 22.2261 159.845C14.1582 160.71 5.37585 157.743 0.000244141 152.253C8.80085 155.147 20.4404 145.215 11.3238 120.1C8.37963 112.009 8.96575 105.104 11.2689 99.7606C16.0768 88.5011 28.3985 84.1924 31.0497 90.383C33.1697 91.6193 32.1348 96.1295 30.9581 97.7183C29.7584 99.3026 25.175 103.982 32.0982 114.17C39.0398 124.354 45.9631 134.638 38.3576 149.268Z" fill="#202459"/>
<path d="M22.2261 159.84C14.1582 160.705 5.37585 157.738 0.000244141 152.248C8.80085 155.142 20.4404 145.211 11.3238 120.095C8.37963 112.005 8.96576 105.099 11.2689 99.7559C7.8073 113.277 27.3087 121.322 30.2942 132.129C31.9243 138.045 32.8537 151.255 22.2261 159.84Z" fill="#191C45"/>
<path d="M25.7699 87.5448C29.5337 84.5502 33.8288 88.5338 34.2912 91.7619C34.7491 94.99 33.1374 98.5799 30.0283 98.9325C31.2966 95.5303 29.7535 89.4633 25.7699 87.5448Z" fill="#3B4157"/>
<path d="M62.8582 108.479C62.8582 108.479 60.9946 104.532 56.7316 105.695C52.4687 106.854 53.2791 111.712 57.8443 116.062C62.4094 120.407 63.5267 115.283 63.7465 114.949C63.9708 114.606 61.7455 111.487 62.8582 108.479Z" fill="#FFA698"/>
<path d="M61.3114 109.066C61.3114 109.066 59.4295 106.846 57.6025 107.812C54.7911 109.295 58.8572 113.902 59.2464 114.488C59.6356 115.074 61.7144 114.84 61.9479 113.43C62.186 112.02 59.8737 110.843 61.3114 109.066Z" fill="#FFA698"/>
<path d="M60.306 116.565C60.306 117.078 60.7227 117.495 61.2355 117.495C61.7483 117.495 62.165 117.078 62.165 116.565C62.165 116.052 61.7483 115.636 61.2355 115.636C60.7227 115.636 60.306 116.052 60.306 116.565Z" fill="#F8FBFF"/>
<path d="M103.196 198.487C104.772 194.709 104.492 189.654 101.269 186.073C98.0452 182.488 80.3249 158.499 80.3249 158.499C80.3249 158.499 58.9873 164.855 64.2347 176.403C69.4821 187.955 93.5167 206.829 97.9307 206.467C101.864 202.978 103.196 198.487 103.196 198.487Z" fill="#3B4157"/>
<path d="M91.4159 173.532C83.7646 158.495 82.2628 147.373 67.3036 147.007C59.1074 152.561 57.8573 157.831 58.1824 163.55C58.5075 169.269 65.3392 178.619 66.3557 180.094C73.7415 179.228 90.6238 178.844 91.4159 173.532Z" fill="#3B4157"/>
<path d="M232.653 68.9056C230.606 70.412 223.491 75.0367 226.073 88.0179C228.66 100.999 238.665 128.541 238.665 128.541L253.111 102.08C253.111 102.08 248.427 80.9663 245.785 76.012C243.148 71.9185 239.961 70.2609 237.218 68.4569C234.576 67.5411 232.653 68.9056 232.653 68.9056Z" fill="#3B4157"/>
<path d="M130.567 176.49C129.358 171.193 124.752 171.147 122.907 172.553C121.061 173.958 100.795 185.044 100.676 186.5C100.557 187.956 91.3582 205.53 97.0498 206.359C102.746 207.192 107.064 204.394 110.177 202.535C113.287 200.681 125.672 188.528 129.184 183.286C131.341 180.561 130.567 176.49 130.567 176.49Z" fill="#3B4157"/>
<path d="M247.536 131.925C243.768 131.559 242.206 129.169 240.823 137.855C239.441 146.541 238.818 180.333 239.239 185.319C242.824 189.028 251.488 187.659 252.399 186.872C253.31 186.084 256.776 162.865 257.321 149.128C257.871 135.391 256.103 125.569 256.103 125.569L247.536 131.925Z" fill="#3B4157"/>
<path d="M238.728 193.624C238.751 193.624 236.238 192.822 235.505 199.81C235.157 203.116 235.569 209.169 234.777 210.689C233.985 212.209 236.64 213.606 237.836 212.997C239.031 212.388 238.889 203.051 239.113 202.461C239.337 201.879 241.888 196.407 238.728 193.624Z" fill="#FF9C78"/>
<path d="M193.707 73.8419C193.707 73.8419 190.868 76.7587 190.529 78.1552C190.602 80.8705 191.742 83.0135 191.742 83.0135L192.883 84.8816C192.883 84.8816 197.365 82.8028 197.242 81.017C197.123 79.2313 193.707 73.8419 193.707 73.8419Z" fill="#343A51"/>
</svg>
