<svg width="353" height="248" viewBox="0 0 353 248" fill="none" xmlns="http://www.w3.org/2000/svg">
<path d="M264.637 3.17838L270.171 0.860413C273.687 -0.611959 277.996 -0.24108 282.454 2.33279L276.921 4.65075C272.463 2.07318 268.153 1.70601 264.637 3.17838Z" fill="#71A4F5"/>
<path d="M300.001 12.4571L300.212 15.3017L297.078 13.5771L297.208 15.2757L300.001 12.4571Z" fill="#C2D8FB"/>
<path d="M339.581 42.5723L334.048 44.8902C332.717 45.4465 331.092 45.2945 329.438 44.3376L334.971 42.0197C336.625 42.9765 338.25 43.1286 339.581 42.5723Z" fill="#71A4F5"/>
<path d="M342.216 39.5521L343.029 37.3009L347.108 44.0842L347.594 42.7379L342.216 39.5521Z" fill="#C2D8FB"/>
<path d="M353.138 55.6118C360.615 59.9251 365.826 70.8214 364.765 79.9189L340.183 291.57C339.13 300.671 332.206 304.561 324.725 300.241L246.615 255.146C239.146 250.836 233.935 239.94 234.996 230.843L259.578 19.192C260.631 10.0907 267.559 6.20393 275.028 10.5172L289.129 18.6579L289.003 16.9593C289.515 23.7277 293.461 30.5259 298.579 33.4855L327.544 50.2082C332.662 53.1603 337.595 51.4877 339.516 46.1212L339.03 47.4674L353.138 55.6118Z" fill="url(#paint0_linear_64_25585)"/>
<path d="M328.893 244.193L266.917 208.411C259.069 203.879 251.796 207.952 250.687 217.516L250.064 222.887C248.955 232.448 254.425 243.878 262.273 248.41L324.25 284.192C332.098 288.724 339.359 284.645 340.472 275.084L341.095 269.713C342.204 260.148 336.741 248.725 328.893 244.193Z" fill="#9CC0F8"/>
<path d="M249.919 102.387L350.359 203.97L359.78 122.874L259.339 21.2919L249.919 102.387Z" fill="url(#paint1_linear_64_25585)"/>
<path d="M276.922 4.64609L282.455 2.32812L300.001 12.4567L294.464 14.7747L276.922 4.64609Z" fill="#71A4F5"/>
<path d="M294.464 14.7752L300.001 12.4573L300.212 15.3019L294.679 17.6198L294.464 14.7752Z" fill="#71A4F5"/>
<path d="M294.68 17.62L300.214 15.302C300.518 19.3853 302.914 23.5095 306.007 25.2971L300.473 27.615C297.38 25.8274 294.984 21.7033 294.68 17.62Z" fill="#71A4F5"/>
<path d="M300.475 27.6147L306.008 25.2968L334.973 42.0195L329.44 44.3374L300.475 27.6147Z" fill="#71A4F5"/>
<path d="M337.495 39.6198L343.028 37.3018L360.567 47.4267L355.03 49.7447L337.495 39.6198Z" fill="#71A4F5"/>
<path d="M370.415 81.914L375.949 79.596L351.367 291.247L345.833 293.565L370.415 81.914Z" fill="#71A4F5"/>
<path d="M107.032 5.24248L112.598 7.91649C109.146 6.25868 104.732 6.58135 100.063 9.2776L94.4961 6.6036C99.1654 3.90363 103.583 3.58467 107.032 5.24248Z" fill="#71A4F5"/>
<path d="M76.6277 19.5168L76.9504 16.7316L79.5057 19.3648L79.6985 17.681L76.6277 19.5168Z" fill="#C2D8FB"/>
<path d="M82.5177 19.3994L76.9509 16.7291L94.4933 6.5968L100.064 9.2708L82.5177 19.3994Z" fill="#71A4F5"/>
<path d="M82.1945 22.1908L76.6277 19.5168L76.9504 16.7316L82.5172 19.4019L82.1945 22.1908Z" fill="#71A4F5"/>
<path d="M76.1356 32.0758L70.5688 29.4017C73.6656 27.6141 76.1654 23.5308 76.6289 19.5179L82.1957 22.1919C81.7322 26.2011 79.2287 30.2881 76.1356 32.0758Z" fill="#71A4F5"/>
<path d="M47.1718 48.7952L41.605 46.1212L70.5665 29.3985L76.1371 32.0725L47.1718 48.7952Z" fill="#71A4F5"/>
<path d="M42.4787 49.3041L36.9119 46.6301C38.2173 47.2569 39.8789 47.1197 41.6072 46.122L47.174 48.796C45.4457 49.7937 43.7842 49.9309 42.4787 49.3041Z" fill="#71A4F5"/>
<path d="M21.955 54.3696L16.3882 51.6956L33.9231 41.5707L39.49 44.2447L21.955 54.3696Z" fill="#71A4F5"/>
<path d="M21.2458 293.741L15.6753 291.071L0.0688477 83.4514L5.63938 86.1254L21.2458 293.741Z" fill="#71A4F5"/>
<path d="M132.087 231.101L116.481 23.4813C115.81 14.5432 109.201 10.8048 101.731 15.1218L87.6269 23.2662L87.8234 21.5824C87.0594 28.2174 82.9353 34.9599 77.8098 37.9232L48.8445 54.6459C43.7191 57.6018 38.9644 55.9885 37.3178 50.7666L37.7369 52.072L23.6251 60.2202C16.1445 64.5371 10.626 75.2776 11.2972 84.212L26.9036 291.831C27.5712 300.758 34.1839 304.504 41.6607 300.187L119.771 255.092C127.24 250.775 132.762 240.024 132.087 231.101Z" fill="url(#paint2_linear_64_25585)"/>
<path d="M127.71 172.754L19.5552 63.3791C20.8161 62.1181 22.1921 61.05 23.6311 60.2155L37.7392 52.0748L37.3164 50.7619C38.9742 55.9838 43.7214 57.6008 48.8506 54.6449L63.7671 46.0295L122.662 105.592L127.71 172.754Z" fill="url(#paint3_linear_64_25585)"/>
<path d="M117.02 38.3711L116.83 35.8492C116.348 29.4145 111.586 26.7145 106.201 29.8262L96.9553 35.163C91.5702 38.271 87.5944 46.0148 88.0802 52.4495L88.2694 54.9715C88.7515 61.4061 93.5136 64.095 98.8987 60.987L108.141 55.6502C113.53 52.5385 117.505 44.8058 117.02 38.3711Z" fill="#9CC0F8"/>
<path d="M129.481 243.785C127.256 248.57 123.796 252.761 119.772 255.09L84.5647 275.417L20.8262 210.944L14.551 127.542L129.481 243.785Z" fill="url(#paint4_linear_64_25585)"/>
<path d="M111.8 235.072L111.589 232.257C111.048 225.066 98.5491 227.32 99.7063 225.522L52.1787 252.959C46.152 256.438 41.7164 265.09 42.2541 272.282L42.4655 275.097C43.007 282.299 48.3216 285.31 54.3483 281.832L101.876 254.391C107.903 250.919 112.338 242.274 111.8 235.072Z" fill="#9CC0F8"/>
<path d="M355.033 49.7432L337.498 39.6184L336.686 41.8696C335.529 45.1073 332.54 46.1235 329.443 44.3359L300.477 27.6131C297.381 25.8255 294.989 21.7014 294.681 17.6181L294.469 14.7735L276.923 4.64489C267.032 -1.06658 257.875 4.07374 256.473 16.1234L231.892 227.778C230.49 239.828 237.377 254.232 247.272 259.944L325.378 305.038C335.28 310.754 344.434 305.613 345.835 293.564L370.417 81.9129C371.823 69.8632 364.935 55.4621 355.033 49.7432ZM340.191 291.572C339.137 300.673 332.213 304.56 324.733 300.239L246.623 255.145C239.153 250.835 233.943 239.943 235.003 230.845L259.585 19.1906C260.638 10.0893 267.566 6.20256 275.032 10.5158L289.132 18.6565L289.203 18.6046C290.171 24.8019 293.88 30.7656 298.582 33.4841L327.548 50.2068C332.261 52.9253 336.812 51.7126 339.004 47.314L339.034 47.4661L353.138 55.6105C360.615 59.9237 365.826 70.82 364.765 79.9176L340.191 291.572Z" fill="url(#paint5_linear_64_25585)"/>
<path d="M119.586 20.3399C118.696 8.50897 109.955 3.5615 100.063 9.27668L82.5211 19.4053L82.1984 22.1905C81.7385 26.2034 79.2351 30.2904 76.142 32.0743L47.1768 48.7971C44.08 50.5847 41.1982 49.6093 40.1969 46.4383L39.4922 44.2464L21.9573 54.3713C12.0549 60.0865 4.75614 74.2947 5.64624 86.1256L21.2526 293.745C22.1427 305.565 30.8842 310.519 40.7829 304.804L118.893 259.71C128.784 253.998 136.087 239.783 135.196 227.959L119.586 20.3399ZM119.772 255.085L41.6619 300.179C34.185 304.5 27.5723 300.751 26.9047 291.824L11.2984 84.2044C10.6234 75.2701 16.1457 64.5258 23.6262 60.2126L37.738 52.0645L37.7714 51.9161C39.7259 56.196 44.1282 57.3568 48.8494 54.6383L77.8147 37.9156C82.5174 35.1971 86.3745 29.2928 87.565 23.2067L87.6318 23.2586L101.736 15.1142C109.206 10.7973 115.815 14.5357 116.486 23.4737L132.092 231.093C132.763 240.024 127.241 250.775 119.772 255.085Z" fill="url(#paint6_linear_64_25585)"/>
<path d="M5.64025 86.1281L0.0734528 83.454C-0.816646 71.6231 6.48586 57.4149 16.3845 51.6998L21.955 54.3738C12.049 60.089 4.75015 74.2934 5.64025 86.1281Z" fill="#71A4F5"/>
<path d="M118.618 30.4657L121.648 31.9195C119.767 31.0183 117.364 31.1926 114.823 32.6576L111.793 31.2037C114.338 29.7351 116.737 29.5608 118.618 30.4657Z" fill="#DAE6FB"/>
<path d="M100.693 64.5603L97.6625 63.1065C95.5634 62.0977 94.117 59.7464 93.8611 56.3529L96.8911 57.8067C97.147 61.2002 98.5934 63.5516 100.693 64.5603Z" fill="#DAE6FB"/>
<path d="M105.585 37.9951L102.555 36.5413L111.797 31.2044L114.827 32.6582L105.585 37.9951Z" fill="#DAE6FB"/>
<path d="M96.8933 57.8034L93.8595 56.3496L93.6704 53.8276L96.7005 55.2815L96.8933 57.8034Z" fill="#DAE6FB"/>
<path d="M115.734 35.8398C119.799 33.4885 123.4 35.532 123.763 40.3905L123.952 42.9124C124.32 47.7709 121.312 53.6158 117.243 55.9635L107.997 61.3004C103.929 63.6517 100.331 61.6156 99.968 56.7571L99.7825 54.2389C99.4154 49.3805 102.423 43.5243 106.488 41.1767L115.734 35.8398Z" fill="#F6F9FE"/>
<path d="M125.643 41.2061L125.453 38.6841C124.968 32.2495 120.209 29.5495 114.824 32.6611L105.578 37.998C100.193 41.1059 96.2174 48.8498 96.7033 55.2845L96.8924 57.8064C97.3745 64.2411 102.137 66.9299 107.522 63.822L116.768 58.4851C122.149 55.3698 126.125 47.6408 125.643 41.2061ZM117.246 55.9669L108 61.3038C103.932 63.6551 100.334 61.619 99.9707 56.7606L99.7815 54.2386C99.4144 49.3802 102.422 43.524 106.487 41.1764L115.733 35.8395C119.798 33.4882 123.399 35.5317 123.762 40.3902L123.951 42.9121C124.319 47.7706 121.311 53.6192 117.246 55.9669Z" fill="#EBF2FD"/>
<path d="M96.704 55.2819L93.6739 53.828C93.1918 47.3934 97.1638 39.6495 102.553 36.5416L105.583 37.9954C100.198 41.107 96.2218 48.8472 96.704 55.2819Z" fill="#DAE6FB"/>
<path d="M64.4157 100.225C54.0608 94.6805 44.6629 107.88 51.0234 119.273C57.3839 130.67 52.3511 144.151 45.5159 142.727C49.3136 148.046 67.2417 157.766 71.5253 142.063C75.8089 126.361 64.4157 100.225 64.4157 100.225Z" fill="#553012"/>
<path d="M102.587 157.524C108.358 158.877 109.14 161.44 111.347 165.075C113.553 168.706 123.812 182.239 124.665 183.377C125.518 184.516 122.599 198.335 120.819 197.905C119.039 197.478 113.509 194.7 106.051 184.802C98.5998 174.899 91.6904 160.016 102.587 157.524Z" fill="#FF9C78"/>
<path d="M83.0359 139.661C95.8904 141.067 100.092 144.486 104.65 149.259C109.209 154.032 111.345 160.797 111.345 160.797C111.345 160.797 107.428 168.986 102.229 170.625C97.029 172.265 83.0359 139.661 83.0359 139.661Z" fill="#4BDA6D"/>
<path d="M87.3462 267.417C87.2423 269.501 87.0124 271.8 86.6897 274.181C86.4969 275.661 86.267 277.163 86.0074 278.68L75.3855 284.826L59.7865 293.816C59.7086 292.762 59.5158 291.475 59.2599 290.01C57.9878 282.604 54.8873 270.799 53.2295 262.428C51.0932 251.603 51.8016 235.581 53.808 227.748L72.2219 223.234L81.1452 221.05C81.1452 221.05 87.7022 223.906 88.7704 229.098C89.8385 234.294 87.9878 254.38 87.3462 267.417Z" fill="#3B4157"/>
<path d="M109.188 261.193C108.891 262.735 108.583 264.304 108.224 265.862L86.0046 278.683L75.3828 284.828L75.1788 280.83L72.2229 223.237L71.8892 216.832L104.088 216.562C105.594 226.241 106.688 236.804 106.896 239.3C107.044 241.073 111.117 250.675 109.188 261.193Z" fill="#3B4157"/>
<path d="M68.5441 140.002C57.4327 147.479 49.1845 150.409 45.1938 157.389C41.2069 164.369 53.3716 206.096 54.0837 210.228C54.7957 214.359 51.5914 229.528 51.5914 233.611C51.5914 237.694 66.6897 248.046 86.8208 243.013C106.952 237.98 106.062 231.182 105.587 226.246C105.112 221.309 106.477 199.806 106.952 196.579C107.427 193.349 109.422 189.077 109.04 179.96C108.658 170.844 98.6887 151.566 95.1766 146.344C91.6644 141.122 85.5858 140.266 81.8807 139.413C78.1831 138.552 68.5441 140.002 68.5441 140.002Z" fill="#00D158"/>
<path d="M113.224 225.416L116.613 227.044C114.514 226.035 111.829 226.228 108.985 227.871L105.595 226.243C108.439 224.6 111.124 224.407 113.224 225.416Z" fill="#DAE6FB"/>
<path d="M61.4588 255.307L58.0691 253.682L105.597 226.241L108.986 227.87L61.4588 255.307Z" fill="#DAE6FB"/>
<path d="M110 231.427C114.55 228.798 118.571 231.086 118.979 236.515L119.19 239.33C119.602 244.767 116.245 251.306 111.691 253.932L64.1634 281.373C59.6127 284.002 55.5924 281.725 55.1845 276.284L54.9731 273.469C54.5614 268.04 57.9215 261.494 62.4721 258.868L110 231.427Z" fill="#F6F9FE"/>
<path d="M121.077 237.421L120.866 234.606C120.324 227.415 115.01 224.392 108.983 227.871L61.4553 255.308C55.4286 258.787 50.993 267.44 51.5307 274.635L51.7422 277.45C52.2836 284.652 57.5982 287.664 63.625 284.185L111.153 256.744C117.179 253.265 121.619 244.62 121.077 237.421ZM111.69 253.932L64.1627 281.37C59.6121 283.999 55.5918 281.722 55.1838 276.281L54.9725 273.466C54.5608 268.037 57.9209 261.491 62.4678 258.865L109.995 231.428C114.546 228.798 118.566 231.083 118.974 236.516L119.186 239.331C119.597 244.772 116.241 251.307 111.69 253.932Z" fill="#EBF2FD"/>
<path d="M65.9331 126.684C68.4032 134.376 64.1307 144.345 62.5137 147.005C60.9004 149.664 70.0164 159.065 75.6166 161.25C81.2206 163.434 86.8208 161.914 86.8208 161.914C86.8208 161.914 88.5305 156.503 86.2496 150.138C83.9688 143.774 83.9687 143.778 83.9687 143.778L89.4762 128.583C89.4836 128.583 70.5876 104.936 65.9331 126.684Z" fill="#FF9C78"/>
<path d="M76.7111 108.879C76.7111 108.879 73.0543 115.907 73.3881 123.502C73.7218 131.098 72.2977 135.326 74.1001 138.267C75.9026 141.212 85.983 147.561 88.071 147.657C90.159 147.754 91.8688 146.804 92.3917 145.71C92.9146 144.616 95.4959 134.324 95.9855 130.434C96.4342 126.877 96.4045 119.215 95.5515 113.659C94.6985 108.104 92.2322 105.389 90.7598 104.584C89.2912 103.775 76.7111 108.879 76.7111 108.879Z" fill="#FF9C78"/>
<path d="M44.2849 171.164C44.2849 171.164 40.9619 169.262 39.916 180.844C38.8702 192.43 38.2063 212.658 39.0631 215.031C39.9161 217.405 43.9993 219.304 47.8008 218.733C51.5986 218.161 54.3542 210.091 54.3542 210.091L59.1978 180.462L44.2849 171.164Z" fill="#FF9C78"/>
<path d="M52.166 209.145C44.9488 209.523 40.1052 214.652 39.9161 216.362C39.7269 218.072 66.1258 235.733 78.5649 240.862C82.2699 243.807 83.0265 244.185 85.6411 244.137C88.2521 244.089 89.8654 244.612 89.8654 244.612C89.8654 244.612 98.8406 248.22 100.217 248.268C101.592 248.317 102.449 246.985 102.449 246.985C102.449 246.985 103.825 248.365 104.775 248.268C105.724 248.172 106.15 247.508 106.15 247.508C106.15 247.508 107.623 247.556 108.049 246.418C108.476 245.279 108.049 244.137 108.049 244.137C108.049 244.137 108.19 242.998 108.239 242.334C108.287 241.671 103.158 237.016 101.544 235.733C99.931 234.45 96.5597 232.458 94.6126 232.221C92.6655 231.983 85.3556 233.359 83.5494 232.599C81.747 231.839 57.7774 212.791 56.2605 210.243C53.6866 209.097 52.166 209.145 52.166 209.145Z" fill="#FF9C78"/>
<path d="M163.697 175.609C155.934 177.033 139.983 181.413 123.957 182.43C121.32 186.294 116.833 194.057 120.823 197.903C123.457 198.474 132.291 197.546 137.917 195.41C143.543 193.274 159.78 185.868 162.061 185.868C164.342 185.868 168.792 188.36 172.423 188.43C176.054 188.501 187.273 189.639 187.273 186.613C189.658 186.116 190.266 185.545 189.728 183.798C191.26 183.194 190.726 181.699 190.511 181.198C190.296 180.701 190.83 179.418 189.443 178.992C188.056 178.565 185.133 179.348 182.355 178.955C179.577 178.561 173.347 176.106 173.347 176.106C173.347 176.106 175.164 174.148 176.087 173.9C177.015 173.651 179.755 173.937 182.177 172.868C184.599 171.8 184.135 170.232 182.248 170.339C180.36 170.447 173.239 170.766 171.351 170.625C169.464 170.484 163.697 175.609 163.697 175.609Z" fill="#FF9C78"/>
<path d="M178.082 180.621C176.087 182.234 172.905 183.565 169.582 180.999C166.259 178.436 162.602 179.196 162.602 179.196C162.602 179.196 166.922 180.906 168.632 182.853C170.342 184.8 176.869 185.297 176.869 185.297C176.869 185.297 183.849 185.794 186.271 184.8C188.693 183.803 193.039 178.225 178.082 180.621Z" fill="#FF926A"/>
<path d="M90.0529 106.908C83.8816 108.759 79.5572 109.742 77.6583 115.535C75.7594 121.328 75.2402 127.774 75.2402 127.774L73.2968 130.481C73.2968 130.481 73.3413 126.824 72.722 125.968C72.1026 125.115 68.0675 123.972 67.5928 126.301C67.1181 128.627 67.5186 137.799 65.4194 139.957C65.3156 134.613 63.0347 132.714 60.5202 129.532C58.0019 126.35 55.2501 122.6 55.5356 115.238C55.8212 107.88 57.5792 102.373 66.4097 99.4761C76.0969 94.3469 89.8638 101.067 91.5735 102.539C93.2832 104.012 94.1622 108.915 94.1622 108.915C94.1622 108.915 92.3783 106.53 92.0964 106.389C91.8109 106.245 90.0529 106.908 90.0529 106.908Z" fill="#553012"/>
<path d="M50.0344 156.462C46.3887 155.494 45.1907 157.389 45.1907 157.389C45.1907 157.389 41.393 162.255 40.4436 168.901C39.4941 175.547 38.9749 181.136 38.9749 181.136C38.9749 181.136 41.4857 185.19 58.0081 186.944C59.2394 187.074 60.8565 179.441 61.142 175.072C61.4313 170.704 59.7216 157.979 50.0344 156.462Z" fill="#4BDA6D"/>
<path d="M71.3468 128.347C71.7733 125.354 68.1165 123.822 66.3845 124.875C64.6525 125.929 65.7428 131.911 68.2129 133.049C70.6829 134.188 71.0352 133.621 71.3801 133.049C71.7288 132.475 71.3468 128.347 71.3468 128.347Z" fill="#FF9C78"/>
<path d="M262.877 121.629C262.31 121.603 257.155 120.668 253.153 125.479C249.837 129.465 247.201 134.45 245.15 138.559C243.099 142.669 234.45 158.305 234.45 158.305C234.45 158.305 226.543 167.38 226.446 167.944C226.35 168.511 223.687 177.831 226.884 181.117C230.081 184.407 238.029 185.419 239.509 184.707C250.891 179.215 259.365 159.195 259.365 159.195L262.877 121.629Z" fill="#737787"/>
<path d="M297.674 228.236L297.121 263.313L296.788 284.104L296.736 287.524C296.736 287.524 296.621 287.806 296.339 288.269L267.188 271.439C267.032 269.948 266.88 268.379 266.714 266.733C266.469 264.2 266.224 261.459 265.968 258.54C264.388 240.163 266.046 222.421 268.564 202.761C268.564 202.761 287.056 202.323 294.281 204.971C295.49 205.42 296.391 205.95 296.829 206.577C299.885 210.979 297.674 228.236 297.674 228.236Z" fill="#363C53"/>
<path d="M330.525 302.008C330.203 303.859 329.639 305.391 328.827 306.611C327.696 306.236 326.55 305.71 325.381 305.042L301.605 291.323C301.401 289.781 301.167 288.16 300.948 286.513C299.791 278.053 298.467 268.808 297.117 263.315C296.553 261.064 295.986 259.443 295.418 258.775C291.906 254.622 283.588 251.64 281.44 247.601C279.293 243.551 283.139 212.857 283.139 212.857C283.139 212.857 288.064 208.715 294.276 204.976C302.016 200.322 311.737 196.283 316.328 201.687C324.595 211.422 330.792 229.18 329.869 246.963C328.942 264.758 330.333 285.604 330.833 294.939C330.989 297.699 330.889 300.039 330.525 302.008Z" fill="#3B4157"/>
<path d="M257.919 127.036C263.85 121.08 287.115 119.137 287.115 119.137C287.115 119.137 291.491 118.076 295.419 118.981C299.346 119.882 318.784 130.756 319.025 131.275C319.266 131.795 323.972 155.838 323.141 165.678C322.311 175.517 322.826 206.722 322.533 214.704C311.103 225.937 286.77 224.076 279.089 221.335C271.412 218.59 268.311 215.223 267.681 213.643C267.05 212.067 260.174 182.289 260.174 182.289C260.174 182.289 255.038 168.611 254.296 159.302C253.554 149.993 252.193 132.789 257.919 127.036Z" fill="#EAEEF9"/>
<path d="M274.857 144.555C272.821 154.305 275.454 187.528 277.286 195.131C279.248 192.238 283.617 184.925 283.617 184.925L277.286 144.555H274.857Z" fill="#595E71"/>
<path d="M279.581 117.736C267.788 127.026 266.723 134.344 266.723 145.596C266.723 150.87 270.996 170.879 277.757 187.505C279.567 208.663 281.402 226.013 281.402 226.013C281.402 226.013 268.244 219.745 265.34 214.924C262.436 210.102 255.063 175.492 253.605 159.203C252.152 142.918 249.366 115.596 279.581 117.736Z" fill="#595E71"/>
<path d="M297.515 119.645C303.92 126.421 278.764 173.867 277.759 187.511C277.277 194.068 277.154 205.317 277.421 211.8C278 225.908 280.181 229.068 282.539 230.644C295.001 238.981 331.124 232.932 330.052 217.073C328.98 201.215 321.236 133.163 317.876 130.522C314.512 127.878 297.515 119.645 297.515 119.645Z" fill="#595E71"/>
<path d="M276.137 120.769C265.207 127.842 268.89 143.485 269.532 150.64C270.173 157.794 277.758 187.512 277.758 187.512L278.44 204.728C278.44 204.728 263.323 179.175 260.278 147.131C257.234 115.087 276.137 120.769 276.137 120.769Z" fill="#737787"/>
<path d="M267.163 120.101C268.409 121.421 270.698 127.333 270.672 131.045C270.646 134.761 273.646 136.441 276.743 136.204C279.836 135.963 283.804 134.654 288.233 130.455C292.661 126.257 297.019 121.48 295.891 120.164C294.764 118.847 291.526 113.436 291.526 113.436C291.526 113.436 290.039 105.662 289.709 102.777C289.379 99.8916 288.871 89.8409 286.586 88.936C284.305 88.0274 274.622 95.2186 274.622 95.2186L267.163 120.101Z" fill="#FF9C78"/>
<path d="M281.67 97.2376C281.67 97.2376 284.095 114.238 283.528 115.907C282.96 117.576 270.451 126.885 268.726 127.023C266.998 127.163 263.563 126.637 261.453 124.267C260.515 123.214 253.854 108.026 252.83 101.51C251.807 94.9901 251.592 85.6811 253.231 84.0344C254.87 82.3878 264.999 77.9669 269.052 78.2377C273.102 78.5084 280.969 86.9606 280.969 86.9606L281.67 97.2376Z" fill="#FF9C78"/>
<path d="M316.211 129.971C311.946 129.808 305.522 136.483 306.731 147.591C307.94 158.699 324.029 193.364 324.029 193.364C324.029 193.364 339.891 198.49 341.134 194.807C342.372 191.124 334.477 160.153 328.728 147.803C322.979 135.456 320.224 130.616 316.211 129.971Z" fill="#737787"/>
<path d="M237.623 177.369C235.056 172.826 228.885 167.537 226.445 167.949C224.004 168.36 198.381 179.208 198.381 179.208C198.381 179.208 195.551 180.213 196.408 184.749C197.264 189.281 198.088 191.458 199.356 191.733C200.625 192.007 232.853 190.935 240.475 184.208C241.951 181.014 237.623 177.369 237.623 177.369Z" fill="#737787"/>
<path d="M198.619 180.605C199.776 182.722 199.213 188.248 198.975 188.801C198.738 189.353 197.822 190.047 197.822 190.047L193.327 189.669C193.327 189.669 190.453 190.418 188.061 189.976C185.668 189.535 174.349 184.202 173.934 182.355C173.519 180.508 171.672 173.013 176.942 171.551C182.212 170.09 187.812 171.466 187.812 171.466C187.812 171.466 189.559 171.659 190.2 173.669C190.838 175.679 198.619 180.605 198.619 180.605Z" fill="#FF9C78"/>
<path d="M185.542 155.381L155.924 165.643L160.453 217.206L190.067 206.94L185.542 155.381Z" fill="#F8F7FB"/>
<path d="M182.535 162.79L160.019 170.593L163.461 209.791L185.976 201.988L182.535 162.79Z" fill="#DDDEE2"/>
<path d="M184.791 163.527L157.754 172.899L157.995 175.625L185.032 166.257L184.791 163.527Z" fill="#F8F7FB"/>
<path d="M185.181 167.693L158.144 177.062L158.385 179.791L185.418 170.423L185.181 167.693Z" fill="#F8F7FB"/>
<path d="M185.571 171.862L158.538 181.231L158.775 183.957L185.812 174.588L185.571 171.862Z" fill="#F8F7FB"/>
<path d="M185.967 176.029L158.93 185.398L159.171 188.127L186.208 178.759L185.967 176.029Z" fill="#F8F7FB"/>
<path d="M186.355 180.198L159.318 189.567L159.556 192.296L186.592 182.924L186.355 180.198Z" fill="#F8F7FB"/>
<path d="M186.749 184.362L159.712 193.734L159.953 196.46L186.99 187.092L186.749 184.362Z" fill="#F8F7FB"/>
<path d="M187.138 188.529L160.101 197.898L160.342 200.627L187.379 191.259L187.138 188.529Z" fill="#F8F7FB"/>
<path d="M187.535 192.7L160.498 202.069L160.735 204.798L187.772 195.426L187.535 192.7Z" fill="#F8F7FB"/>
<path d="M187.924 196.864L160.887 206.233L161.128 208.962L188.165 199.594L187.924 196.864Z" fill="#F8F7FB"/>
<path d="M190.501 177.987C190.501 177.987 184.125 178.984 183.146 179.303C182.167 179.618 179.938 179.481 178.555 180.078C177.171 180.675 177.516 182.8 179.378 183.294C181.244 183.783 184.196 183.227 184.196 183.227C184.196 183.227 187.133 183.424 187.793 184.625C188.453 185.823 188.932 186.962 191.098 187.24C193.267 187.518 197.202 188.278 197.102 184.981C197.002 181.68 190.501 177.987 190.501 177.987Z" fill="#FF9C78"/>
<path d="M257.492 90.0068C264.85 92.6363 269.757 90.7708 269.954 91.431C270.147 92.0912 270.97 97.8694 270.97 97.8694L275.09 99.0043L278.109 104.782L281.336 103.981C281.336 103.981 280.909 99.6755 283.517 97.8916C286.124 96.1114 288.334 99.9797 288.164 102.427C287.993 104.879 290.853 109.819 290.853 109.819C290.853 109.819 293.026 102.401 293.667 100.547C297.688 88.9053 300.955 79.27 283.416 73.0801C272.079 62.6066 257.159 70.5396 253.487 76.8037C249.815 83.0678 252.215 87.3699 252.215 87.3699C252.215 87.3699 253.179 88.464 257.492 90.0068Z" fill="#553012"/>
<path d="M282.333 102.023C281.94 97.8725 283.616 96.5559 286.409 96.8971C289.202 97.2383 288.556 100.687 287.625 103.68C286.694 106.677 286.086 108.806 283.872 108.35C281.662 107.897 282.333 102.023 282.333 102.023Z" fill="#FF9C78"/>
<path d="M294.953 118.884C295.368 122.507 287.027 133.786 275.534 134.909C275.385 136.174 275.385 136.174 275.385 136.174L279.417 141.9C279.417 141.9 299.614 135.792 300.045 122.37C299.091 120.43 293.373 116.444 293.373 116.444L294.953 118.884Z" fill="#F8F7FB"/>
<path d="M275.542 134.909C271.803 133.663 271.062 131.705 270.49 128.886C267.827 132.15 269.396 137.72 271.725 140.012C273.413 138.484 275.393 136.174 275.393 136.174L275.542 134.909Z" fill="#F8F7FB"/>
<path d="M248.544 210.579L251.47 209.351C254.263 208.183 257.682 208.476 261.22 210.52L258.294 211.747C254.756 209.704 251.336 209.407 248.544 210.579Z" fill="#DAE6FB"/>
<path d="M258.295 211.748L261.225 210.52L323.198 246.302L320.272 247.526L258.295 211.748Z" fill="#DAE6FB"/>
<path d="M319.113 252.045C325.039 255.465 329.171 264.106 328.329 271.323L327.706 276.694C326.871 283.914 321.375 286.996 315.452 283.573L253.475 247.791C247.549 244.372 243.41 235.723 244.252 228.51L244.875 223.139C245.709 215.922 251.213 212.84 257.139 216.263L319.113 252.045Z" fill="#F6F9FE"/>
<path d="M320.275 247.531L258.299 211.749C250.451 207.216 243.178 211.289 242.069 220.854L241.446 226.224C240.337 235.785 245.804 247.215 253.655 251.747L315.632 287.529C323.48 292.061 330.742 287.982 331.854 278.421L332.477 273.05C333.586 263.486 328.123 252.059 320.275 247.531ZM327.704 276.692C326.87 283.913 321.373 286.995 315.447 283.572L253.47 247.79C247.543 244.371 243.404 235.722 244.246 228.508L244.869 223.138C245.704 215.921 251.207 212.839 257.134 216.262L319.111 252.044C325.037 255.464 329.169 264.105 328.327 271.322L327.704 276.692Z" fill="#EBF2FD"/>
<path d="M320.277 247.527L323.203 246.303C331.051 250.835 336.514 262.258 335.405 271.819L332.479 273.043C333.588 263.485 328.125 252.059 320.277 247.527Z" fill="#DAE6FB"/>
<path d="M297.516 119.645C298.466 121.555 295.169 128.253 292.899 138.366C289.602 153.06 278.479 179.6 277.76 187.511C277.033 195.522 278.587 201.189 278.442 204.727C278.442 204.727 295.176 167.784 296.856 161.168C304.151 132.392 306.562 128.401 304.311 123.743C302.059 119.081 294.987 117.623 294.987 117.623L297.516 119.645Z" fill="#737787"/>
<path d="M333.797 190.781C328.613 187.866 323.031 191.189 323.031 191.189C323.031 191.189 297.326 222.109 296.102 224.197C294.878 226.285 302.41 234.162 304.728 233.787C307.046 233.413 341.949 203.105 341.13 194.805C338.463 191.934 333.797 190.781 333.797 190.781Z" fill="#737787"/>
<path d="M297.427 224.427L289.858 228.577C289.858 228.577 283.809 229.96 282.537 230.639C281.265 231.318 277.656 236.373 277.463 237C277.267 237.626 277.942 239.362 277.942 239.362C277.942 239.362 277.56 242.618 277.897 243.29C278.235 243.961 280.552 244.836 280.552 244.836C280.552 244.836 280.905 246.186 281.951 246.49C282.997 246.794 283.623 246.594 283.623 246.594C283.623 246.594 283.846 247.788 286.416 246.954C288.986 246.119 289.157 244.132 291.319 243.063C293.481 241.995 297.286 240.53 300.086 237.408C302.887 234.285 303.321 232.964 303.321 232.964C303.321 232.964 304.255 232.045 304.136 231.355C304.014 230.665 300.624 225.948 297.427 224.427Z" fill="#FF9C78"/>
<path d="M275.387 136.178C275.387 136.178 272.29 139.089 272.312 141.904C272.334 144.719 274.53 148.202 274.53 148.202L277.282 148.899C277.282 148.899 281.15 145.839 279.418 141.904C277.694 137.966 275.387 136.178 275.387 136.178Z" fill="#595E71"/>
<defs>
<linearGradient id="paint0_linear_64_25585" x1="234.862" y1="155.378" x2="364.902" y2="155.378" gradientUnits="userSpaceOnUse">
<stop offset="0.1546" stop-color="#B7D1FA"/>
<stop offset="1" stop-color="#C2D8FB"/>
</linearGradient>
<linearGradient id="paint1_linear_64_25585" x1="378.533" y1="155.172" x2="231.166" y2="70.0897" gradientUnits="userSpaceOnUse">
<stop stop-color="#C2D8FB"/>
<stop offset="0.9356" stop-color="#D2E2FC"/>
</linearGradient>
<linearGradient id="paint2_linear_64_25585" x1="-0.356759" y1="282.447" x2="143.744" y2="32.857" gradientUnits="userSpaceOnUse">
<stop offset="0.1546" stop-color="#B7D1FA"/>
<stop offset="1" stop-color="#C2D8FB"/>
</linearGradient>
<linearGradient id="paint3_linear_64_25585" x1="63.4708" y1="135.664" x2="102.357" y2="68.3124" gradientUnits="userSpaceOnUse">
<stop stop-color="#C2D8FB"/>
<stop offset="0.9356" stop-color="#D2E2FC"/>
</linearGradient>
<linearGradient id="paint4_linear_64_25585" x1="36.3421" y1="247.574" x2="82.8694" y2="166.986" gradientUnits="userSpaceOnUse">
<stop stop-color="#C2D8FB"/>
<stop offset="0.9356" stop-color="#D2E2FC"/>
</linearGradient>
<linearGradient id="paint5_linear_64_25585" x1="242.178" y1="257.006" x2="360.139" y2="52.692" gradientUnits="userSpaceOnUse">
<stop offset="0.0309" stop-color="#97BDF8"/>
<stop offset="0.9356" stop-color="#D2E2FC"/>
</linearGradient>
<linearGradient id="paint6_linear_64_25585" x1="126.992" y1="255.028" x2="13.8441" y2="59.0514" gradientUnits="userSpaceOnUse">
<stop offset="0.0309" stop-color="#97BDF8"/>
<stop offset="0.9356" stop-color="#D2E2FC"/>
</linearGradient>
</defs>
</svg>
