<svg width="297" height="276" viewBox="0 0 297 276" fill="none" xmlns="http://www.w3.org/2000/svg">
<path d="M294.05 206.055L246.479 178.588C242.998 176.579 237.681 176.359 234.667 178.098L207.75 193.638L197.146 187.516C190.094 183.446 177.779 183.957 169.64 188.654L47.2749 259.3C39.1358 264.002 38.2489 271.109 45.301 275.182L55.6534 281.159L3.31424 311.376C-0.688599 313.688 -1.1281 317.216 2.33711 319.217L55.983 350.188C59.4482 352.19 65.5623 351.935 69.5652 349.627L122.195 319.241C129.388 321.823 139.733 320.925 146.871 316.804L269.236 246.158C277.376 241.456 278.262 234.349 271.21 230.276L267.981 228.412L294.898 212.871C297.916 211.133 297.531 208.064 294.05 206.055Z" fill="black" fill-opacity="0.2"/>
<path d="M272.755 196.893C272.755 197.902 273.572 198.718 274.58 198.718C275.589 198.718 276.405 197.902 276.405 196.893C276.405 195.885 275.589 195.068 274.58 195.068C273.575 195.068 272.755 195.885 272.755 196.893Z" fill="#202020"/>
<path d="M264.964 224.161C264.964 225.169 265.78 225.985 266.789 225.985C267.797 225.985 268.614 225.169 268.614 224.161C268.614 223.152 267.797 222.336 266.789 222.336C265.78 222.336 264.964 223.152 264.964 224.161Z" fill="#202020"/>
<path d="M217.629 228.822C217.629 229.83 218.445 230.647 219.453 230.647C220.462 230.647 221.278 229.83 221.278 228.822C221.278 227.813 220.462 226.997 219.453 226.997C218.445 226.997 217.629 227.817 217.629 228.822Z" fill="#202020"/>
<path d="M196.261 203.918C196.261 204.926 197.078 205.742 198.086 205.742C199.095 205.742 199.911 204.926 199.911 203.918C199.911 202.909 199.095 202.093 198.086 202.093C197.082 202.089 196.261 202.909 196.261 203.918Z" fill="#202020"/>
<path d="M229.905 184.555C229.905 185.564 230.721 186.38 231.73 186.38C232.739 186.38 233.555 185.564 233.555 184.555C233.555 183.547 232.739 182.73 231.73 182.73C230.725 182.73 229.905 183.547 229.905 184.555Z" fill="#202020"/>
<path d="M239.131 205.981L220.831 227.479L220.168 228.079L217.853 227.42V226.003L234.221 204.541L196.332 202.912V201.495L235.1 201.389L230.736 182.568L230.658 181.858V180.441L240.555 200.879L276.871 193.984V195.401L243.047 203.717L269.179 221.196V222.612L268.375 223.123L267.359 223.707L239.131 205.981Z" fill="#929FB3"/>
<path d="M239.131 203.106L220.831 226.067L220.168 226.667L217.853 226.008L234.221 201.669L196.332 201.501L196.752 199.982L235.1 198.518L230.736 181.157L230.658 180.446L233.221 180.199L240.555 198.008L275.651 192.632L276.871 193.989L243.047 200.845L268.398 220.683L269.179 221.201L268.375 221.711L267.359 222.296L239.131 203.106Z" fill="#ACAFB2"/>
<path d="M220.597 225.517L239.061 202.344L267.379 221.593L268.199 221.118L268.533 220.91L268.203 220.69L242.228 200.366L276.197 193.483L275.518 192.725L240.336 198.117L232.998 180.293L231.055 180.477L231.095 180.831L235.553 198.569L197.027 200.04L196.8 200.86L234.886 201.029L218.423 225.513L220.075 225.984L220.597 225.517Z" fill="#C0C0C0"/>
<path d="M234.289 200.116V184.246H242.412V200.108V200.116C242.404 200.713 242.008 201.313 241.215 201.768C239.626 202.687 237.051 202.691 235.47 201.78C234.677 201.325 234.285 200.721 234.289 200.116Z" fill="#979DA7"/>
<path d="M235.469 185.91C237.051 186.824 239.625 186.816 241.215 185.898C242.808 184.98 242.816 183.496 241.234 182.582C239.653 181.667 237.082 181.675 235.489 182.594C233.896 183.512 233.888 184.999 235.469 185.91Z" fill="#AAAAAA"/>
<path d="M235.395 183.907V162.17H241.31V183.907C241.306 184.343 241.015 184.778 240.438 185.112C239.281 185.779 237.409 185.783 236.259 185.12C235.678 184.786 235.392 184.346 235.395 183.907Z" fill="#979DA7"/>
<path d="M236.255 163.383C237.405 164.046 239.277 164.042 240.434 163.375C241.592 162.708 241.6 161.625 240.446 160.962C239.296 160.299 237.424 160.303 236.267 160.97C235.109 161.637 235.105 162.716 236.255 163.383Z" fill="#464646"/>
<path d="M198.419 139.374C193.396 136.6 189.208 129.579 189.138 127.691C189.075 126.169 189.079 124.658 189.146 123.202C189.295 119.76 191.61 115.895 194.538 114.207L224.476 96.9207C228.205 94.7701 230.442 94.8172 233.012 94.8565L233.275 94.8603C233.71 94.8682 234.35 95.0606 234.935 95.9396C235.48 96.7519 235.751 97.8899 235.72 99.2281C235.696 100.04 235.704 101.167 235.708 102.454C235.72 105.075 235.728 108.337 235.551 111.127C235.104 118.069 229.256 125.981 227.412 127.044L205.561 139.661C204.584 140.226 203.528 140.509 202.426 140.509C201.134 140.512 199.788 140.132 198.419 139.374ZM234.001 99.185C234.024 98.2 233.852 97.4072 233.506 96.8892C233.353 96.6577 233.24 96.5792 233.244 96.5714L232.977 96.5674C230.465 96.5242 228.64 96.4929 225.324 98.4041L195.385 115.691C193.007 117.064 190.97 120.471 190.849 123.281C190.786 124.689 190.786 126.153 190.841 127.629C190.888 128.79 194.64 135.336 199.239 137.875C201.272 138.998 203.101 139.1 204.69 138.181L226.541 125.565C227.82 124.827 233.412 117.465 233.832 111.017C234.005 108.286 233.993 105.056 233.985 102.462C233.985 101.155 233.981 100.013 234.001 99.185Z" fill="#E0E0E0"/>
<path d="M200.015 140.593C194.921 137.787 190.667 130.625 190.593 128.694C190.554 127.764 190.514 126.143 190.601 124.181C190.754 120.661 193.124 116.701 196.118 114.974L226.057 97.6876C229.848 95.5017 232.109 95.5371 234.989 95.592C235.48 95.5999 236.206 95.8118 236.861 96.7851C237.438 97.6445 237.72 98.8335 237.685 100.223C237.662 101.035 237.669 102.154 237.673 103.433C237.685 106.058 237.697 109.331 237.516 112.129C237.065 119.158 231.124 127.171 229.248 128.254L207.397 140.871C206.377 141.46 205.278 141.754 204.132 141.754C202.805 141.758 201.42 141.37 200.015 140.593ZM234.683 97.8132C232.203 97.7662 230.417 97.7347 227.168 99.6145L197.225 116.901C194.91 118.236 192.936 121.544 192.814 124.279C192.736 126.163 192.775 127.717 192.806 128.604C192.9 129.801 196.746 136.358 201.236 138.729C203.143 139.733 204.791 139.808 206.275 138.952L228.125 126.335C229.381 125.609 234.879 118.365 235.283 111.996C235.46 109.268 235.448 106.043 235.44 103.452C235.433 102.142 235.429 101.004 235.452 100.176C235.48 99.2652 235.315 98.5 235.005 98.033C234.899 97.8721 234.828 97.8132 234.738 97.8132C234.722 97.8054 234.703 97.8093 234.683 97.8132Z" fill="#E0E0E0"/>
<path d="M230.549 95.4583C229.673 95.788 228.716 96.2393 227.637 96.8632L197.698 114.146C195.351 115.5 193.263 118.027 191.98 120.81L188.554 118.832L187.326 117.631C187.326 117.631 192 113.479 194.272 112.168L224.211 94.8814C225.29 94.2575 226.248 93.8061 227.123 93.4765L230.502 93.8807L230.549 95.4583Z" fill="#2C3240"/>
<path d="M230.502 93.885C229.627 94.2146 227.488 95.0387 226.409 95.6627L196.47 112.946C194.123 114.299 192.035 116.827 190.752 119.609L187.326 117.631C188.609 114.849 190.697 112.326 193.044 110.968L222.983 93.6848C224.062 93.0609 226.2 92.2368 227.076 91.9071L230.502 93.885Z" fill="#31394C"/>
<path d="M233.311 120.84L234.061 86.2975L237.714 42.3643C237.95 39.5191 240.049 36.3325 242.412 35.2298L242.565 35.1591C243.828 34.5705 244.911 34.7 245.61 35.3828V35.375L288.978 60.3692L281.997 153.945L238.495 128.83L233.311 120.84Z" fill="url(#paint0_linear_64_20840)"/>
<path d="M277.562 111.413L281.215 67.48C281.451 64.6388 283.55 61.4483 285.913 60.3456L286.066 60.2749C288.377 59.1957 290.096 60.5182 289.951 63.2652L287.628 106.221L286.592 151.273L281.996 153.949L276.816 145.951L277.562 111.413Z" fill="url(#paint1_linear_64_20840)"/>
<path d="M190.364 152.879L190.462 149.1C190.513 147.111 191.914 144.74 193.625 143.755L233.312 120.841L276.814 145.957L234.752 180.118L191.266 155.01C190.69 154.669 190.336 153.927 190.364 152.879Z" fill="url(#paint2_linear_64_20840)"/>
<path d="M276.815 145.957L281.995 153.955L237.029 179.914C235.244 180.946 233.811 180.079 233.866 177.999L233.964 174.22C234.015 172.231 235.416 169.86 237.128 168.871L276.815 145.957Z" fill="url(#paint3_linear_64_20840)"/>
<path d="M225.703 34.1281C219.903 33.0018 210.3 42.7147 205.603 47.9341C200.905 53.1535 187.354 69.7456 184.081 75.7302C183.469 76.8487 190.474 86.9147 199.155 80.9065C207.836 74.8983 220.743 62.0892 224.424 54.2719C228.101 46.4507 225.703 34.1281 225.703 34.1281Z" fill="#3B3F51"/>
<path d="M177.865 208.583C177.865 210.569 175.467 212.154 175.467 212.154C175.467 212.154 160.087 220.396 159.244 221.436C158.4 222.479 158.196 224.477 157.855 227.742C157.69 229.327 161.084 231.913 165.652 231.219C170.22 230.524 173.823 228.833 176.071 227.243C178.32 225.654 179.246 224.069 181.228 223.386C182.017 223.115 181.64 224.175 182.868 224.214C184.736 224.273 188.378 223.319 190.238 222.362C193.319 220.772 193.817 219.45 193.759 216.302C193.696 213.1 193.186 208.305 193.186 208.305L190.242 204.082L177.865 208.583Z" fill="#33374A"/>
<path d="M204.511 220.399C204.378 221.682 203.032 226.477 203.032 226.477C203.032 226.477 188.582 243.14 187.613 244.781C186.644 246.421 186.557 249.623 186.557 249.623C186.557 249.623 188.637 252.17 195.521 252.68C206.246 253.477 209.892 245.754 211.159 244.188C211.579 243.67 212.811 240.558 214.354 239.016C215.288 238.082 215.488 239.118 216.371 238.906C218.655 236.437 221.661 232.839 221.661 231.442C221.661 228.463 218.086 219.543 218.086 219.543L204.511 220.399Z" fill="#33374A"/>
<path d="M229.784 111.76C209.221 124.275 180.514 148.017 179.419 151.694C178.328 155.371 178.725 161.529 180.51 165.006C182.3 168.483 189.163 170.166 193.064 168.871C196.965 167.572 196.514 167.242 196.514 167.242C196.514 167.242 238.818 142.456 241.404 139.576C243.987 136.695 245.423 117.846 245.423 117.846L229.784 111.76Z" fill="#363C53"/>
<path d="M242.796 119.609C242.796 119.609 239.221 120.9 235.05 128.251C230.878 135.601 231.274 139.474 231.274 139.474C231.274 139.474 207.037 156.361 205.546 160.038C204.055 163.715 203.36 170.665 204.852 175.633C206.343 180.601 215.879 180.005 218.858 179.11C221.836 178.216 221.664 176.312 221.664 176.312C221.664 176.312 224.32 173.946 228.892 169.97C233.46 165.995 247.172 162.62 262.865 153.182C278.559 143.744 276.766 133.246 275.38 123.09C273.999 112.934 269.121 107.385 269.121 107.385L242.796 119.609Z" fill="#3B4157"/>
<path d="M215.801 165.798C215.801 165.798 203.369 164.256 204.111 171.473C204.852 178.69 203.557 212.592 202.666 224.287C202.396 226.442 209.734 227.128 212.273 226.818C216.935 226.249 219.306 222.619 219.404 221.316C219.553 219.303 222.198 196.923 223.128 190.004C224.058 183.081 222.661 172.505 223.109 169.597C223.548 166.693 215.801 165.798 215.801 165.798Z" fill="#3B4157"/>
<path d="M190.58 151.228C190.58 151.228 179.309 147.025 178.928 154.27C178.547 161.514 178.336 198.018 177.441 209.717C177.441 211.961 182.362 213.669 186.345 212.997C191.419 212.138 193.06 209.368 193.166 207.955C193.315 205.942 198.648 176.254 197.898 169.308C197.149 162.365 197.431 157.935 197.879 155.031C198.326 152.123 190.58 151.228 190.58 151.228Z" fill="#363C53"/>
<path d="M268.524 69.1098C268.524 69.1098 272.236 51.4894 266.051 47.1687C259.866 42.848 239.711 33.8926 239.711 33.8926C239.711 33.8926 219.206 34.9326 217.491 38.8805C215.776 42.8284 214.638 52.1487 215.757 61.6849C216.875 71.2211 222.981 82.2603 229.986 112.443C230.504 114.668 237.482 122.897 253.799 122.897C270.117 122.897 272.558 115.386 272.632 113.302C272.707 111.214 272.346 101.274 272.346 101.274L268.524 69.1098Z" fill="#EAEEF9"/>
<path d="M235.453 97.3537C227.106 82.9984 222.538 55.7163 225.917 45.6307C229.295 35.5451 233.114 33.6888 233.114 33.6888C233.114 33.6888 223.079 32.5429 219.037 36.95C214.995 41.3531 213.884 47.8794 215.313 60.0959C216.741 72.3124 227.875 103.872 228.734 111.434C229.594 118.997 239.832 119.695 242.073 119.377C244.314 119.055 235.453 97.3537 235.453 97.3537Z" fill="#33374A"/>
<path d="M235.455 97.3535C235.455 97.3535 228.175 72.367 226.472 63.7374C224.769 55.1077 226.856 44.1902 229.34 42.0632C231.825 39.9323 228.681 37.452 225.149 40.6464C221.617 43.8409 220.778 52.8081 221.676 60.0367C222.571 67.2693 227.747 90.7684 235.455 97.3535Z" fill="#3B3F51"/>
<path d="M245.857 37.2642C250.986 42.0244 254.769 41.6006 248.883 58.3341C242.996 75.0636 235.073 94.9953 235.403 98.4998C235.732 102.004 237.549 123.486 244.432 124.832C251.32 126.178 261.692 128.129 269.647 122.003C277.601 115.877 274.627 111.117 272.641 102.758C270.655 94.3989 271.204 52.2042 266.868 47.8835C262.528 43.5628 241.462 33.901 241.462 33.901C241.462 33.901 237.2 33.0926 245.857 37.2642Z" fill="#33374A"/>
<path d="M248.768 168.446C243.744 165.671 239.557 158.651 239.487 156.767C239.424 155.245 239.428 153.734 239.494 152.274C239.636 148.891 242.006 144.939 244.886 143.279L274.825 125.992C278.549 123.842 280.763 123.885 283.369 123.928L283.628 123.932C284.059 123.94 284.699 124.132 285.284 125.011C285.829 125.824 286.1 126.962 286.069 128.3V128.304C286.045 129.116 286.053 130.242 286.057 131.53C286.065 134.151 286.076 137.412 285.9 140.202C285.449 147.149 279.605 155.056 277.761 156.124C276.277 156.979 262.73 164.8 255.91 168.74C254.933 169.305 253.877 169.588 252.774 169.588C251.483 169.58 250.137 169.203 248.768 168.446ZM284.346 128.257C284.369 127.272 284.197 126.479 283.851 125.961C283.698 125.729 283.581 125.651 283.585 125.643L283.325 125.639C280.81 125.596 278.985 125.561 275.669 127.472L245.73 144.759C243.348 146.136 241.315 149.538 241.194 152.348C241.131 153.761 241.131 155.221 241.186 156.7C241.233 157.862 244.985 164.408 249.584 166.947C251.613 168.069 253.445 168.171 255.035 167.253C261.855 163.313 275.402 155.492 276.886 154.636C278.161 153.898 283.753 146.54 284.173 140.089C284.35 137.357 284.334 134.131 284.33 131.533C284.33 130.227 284.33 129.085 284.346 128.257Z" fill="#E0E0E0"/>
<path d="M250.352 169.661C245.259 166.847 241.012 159.697 240.942 157.766C240.903 156.832 240.863 155.215 240.95 153.253C241.103 149.733 243.473 145.773 246.467 144.047L276.406 126.76C280.201 124.574 282.473 124.605 285.338 124.668C285.829 124.676 286.551 124.888 287.21 125.861C287.787 126.725 288.069 127.91 288.034 129.295C288.011 130.107 288.018 131.226 288.022 132.505C288.034 135.134 288.046 138.403 287.865 141.201C287.414 148.238 281.469 156.247 279.597 157.327L257.746 169.943C256.726 170.532 255.627 170.826 254.481 170.826C253.151 170.83 251.761 170.438 250.352 169.661ZM285.04 126.885C282.564 126.83 280.77 126.807 277.513 128.687L247.574 145.97C245.259 147.308 243.285 150.616 243.163 153.347C243.085 155.231 243.124 156.785 243.159 157.676C243.249 158.869 247.091 165.423 251.585 167.797C253.492 168.805 255.144 168.876 256.624 168.02L278.474 155.404C279.726 154.682 285.224 147.441 285.632 141.064C285.809 138.337 285.797 135.111 285.789 132.521C285.782 131.21 285.781 130.072 285.801 129.244C285.829 128.33 285.664 127.568 285.354 127.105C285.248 126.944 285.177 126.881 285.091 126.881C285.079 126.877 285.059 126.881 285.04 126.885Z" fill="#E0E0E0"/>
<path d="M280.896 124.531C280.021 124.86 279.064 125.311 277.985 125.935L248.046 143.218C245.699 144.572 243.611 147.1 242.328 149.882L238.902 147.904L237.674 146.703C237.674 146.703 242.348 142.551 244.62 141.241L274.559 123.958C275.638 123.334 276.595 122.882 277.471 122.553L280.849 122.957L280.896 124.531Z" fill="#2C3240"/>
<path d="M280.853 122.956C279.978 123.286 277.839 124.11 276.76 124.734L246.821 142.021C244.475 143.375 242.387 145.902 241.104 148.684L237.677 146.706C238.961 143.924 241.049 141.401 243.395 140.043L273.334 122.76C274.414 122.136 276.552 121.312 277.423 120.982L280.853 122.956Z" fill="#31394C"/>
<path d="M248.444 39.2658C251.745 42.8173 250.104 50.7641 246.741 58.0752C243.378 65.3863 235.455 97.3541 235.455 97.3541C235.455 97.3541 246.027 80.1026 251.325 64.468C256.623 48.8294 256.16 44.2929 255.151 42.4014C254.143 40.5098 250.324 36.5187 244.1 35.6357C247.247 38.4063 248.444 39.2658 248.444 39.2658Z" fill="#3B3F51"/>
<path d="M191.399 93.5352L179.128 93.6176V190.404H179.132C179.14 191.303 179.728 192.197 180.91 192.88C183.299 194.258 187.185 194.254 189.586 192.865C190.799 192.162 191.399 191.244 191.391 190.329H191.395L191.399 93.5352Z" fill="#A8ABB5"/>
<path d="M258.814 141.051C261.204 142.428 265.085 142.424 267.49 141.035C269.896 139.646 269.908 137.405 267.518 136.028C265.128 134.65 261.247 134.654 258.841 136.043C256.436 137.429 256.424 139.669 258.814 141.051Z" fill="#A8ABB5"/>
<path d="M269.302 138.513L257.03 138.595V235.381H257.034C257.038 236.28 257.631 237.175 258.812 237.858C261.198 239.239 265.083 239.231 267.489 237.842C268.701 237.14 269.302 236.221 269.298 235.307H269.302V138.513Z" fill="url(#paint4_linear_64_20840)"/>
<path d="M60.8409 168.91L48.5693 168.993V265.779H48.5733C48.5772 266.678 49.1698 267.572 50.351 268.255C52.741 269.637 56.6221 269.629 59.0278 268.24C60.2404 267.537 60.8408 266.619 60.833 265.704H60.8369V168.91H60.8409Z" fill="#A8ABB5"/>
<path d="M93.7039 258.876C93.0093 260.414 91.0275 263.86 90.7999 266.56C90.5723 269.256 90.1248 274.872 90.0777 276.755C90.0267 278.643 91.6161 281.127 97.5262 280.33C100.575 279.918 104.225 277.713 105.069 276.465C105.862 275.295 106.136 274.719 107.29 274.236C109.672 273.243 109.303 273.914 115.013 272.588C120.723 271.265 122.509 269.252 122.261 264.833C122.014 260.414 120.523 260.917 113.769 261.262C107.015 261.607 102.345 261.705 102.345 261.705L93.7039 258.876Z" fill="#33374A"/>
<path d="M92.1089 217.526C92.1089 217.526 90.6687 267.169 90.5706 269.256C90.4725 271.344 104.125 273.012 105.051 267.463C105.585 264.272 107.869 207.346 107.869 207.346L92.1089 217.526Z" fill="#363C53"/>
<path d="M123.766 275.818C125.258 275.72 138.675 273.503 141.308 274.495C143.941 275.488 144.401 278.392 144.326 279.844C144.259 281.179 143.937 283.733 139.165 286.249C137.129 287.32 131.317 288.187 129.979 288.831C128.636 289.479 123.15 293.16 118.088 292.96C113.021 292.759 110.69 290.86 110.839 288.623C110.989 286.39 111.856 277.839 112.602 276.795C113.335 275.755 123.766 275.818 123.766 275.818Z" fill="#33374A"/>
<path d="M122.282 221.17C116.062 221.441 111.357 227.814 111.4 243.084C111.443 258.354 111.474 278.415 111.733 280.487C112.028 282.806 126.905 285.33 127.576 278.898C128.098 273.925 129.161 259.362 130.327 245.607C132.623 218.482 129.958 213.887 129.958 213.887L122.282 221.17Z" fill="#3B4157"/>
<path d="M55.3996 286.875V262.721H61.969V286.875C61.9651 287.358 61.6432 287.841 60.9996 288.213C59.7124 288.955 57.6325 288.959 56.3531 288.221C55.7134 287.852 55.3956 287.362 55.3996 286.875Z" fill="#979DA7"/>
<path d="M56.3557 264.067C57.6351 264.805 59.7151 264.801 61.0023 264.06C62.2895 263.318 62.2973 262.117 61.018 261.379C59.7386 260.641 57.6586 260.645 56.3714 261.387C55.0803 262.129 55.0764 263.33 56.3557 264.067Z" fill="#464646"/>
<path d="M15.194 246.674C13.6478 245.85 11.0106 243.782 10.6888 239.167C10.4847 236.255 10.5005 232.582 10.5083 229.631C10.5162 228.23 10.52 227.009 10.4965 226.146C10.4611 224.741 10.732 223.226 11.2893 221.75C11.6896 220.695 12.1094 219.918 12.5764 219.376L12.8707 219.027C15.7865 215.609 18.0863 212.913 22.1794 210.55L55.4461 191.345C57.2788 190.285 59.08 190.124 60.5203 190.909C61.9095 191.67 62.7297 193.193 62.816 195.206C62.9102 197.278 62.8671 199.127 62.8279 200.21C62.7258 202.808 53.5271 228.469 45.3958 233.162L21.1119 247.184C20.5625 247.498 19.8248 247.651 19.0006 247.651C17.788 247.651 16.3949 247.314 15.194 246.674ZM56.6823 193.483L23.4155 212.689C19.6913 214.84 17.6192 217.269 14.7505 220.632L14.4523 220.981C14.264 221.201 13.9617 221.664 13.6007 222.626C13.1572 223.799 12.9414 224.992 12.9728 226.079C12.9924 226.958 12.9884 228.206 12.9845 229.638C12.9727 232.55 12.9571 236.172 13.1572 238.994C13.3848 242.247 15.0213 243.778 16.3556 244.488C17.9842 245.356 19.5343 245.234 19.8757 245.038L44.1596 231.016C51.1999 226.95 60.2574 202.509 60.3555 200.108C60.3947 199.072 60.4379 197.294 60.3515 195.308C60.2966 194.194 59.9395 193.397 59.3351 193.067C59.1075 192.946 58.8407 192.883 58.5424 192.883C58.0009 192.895 57.3573 193.095 56.6823 193.483Z" fill="#E0E0E0"/>
<path d="M17.0988 247.775C15.5526 246.951 12.9155 244.883 12.5898 240.264C12.3936 237.383 12.4014 233.734 12.4132 230.806C12.4171 229.37 12.4249 228.118 12.3975 227.243V227.239C12.3661 225.826 12.6368 224.307 13.1862 222.851C13.5826 221.8 14.0025 221.023 14.4734 220.473L14.7559 220.14C17.6796 216.714 19.9832 214.01 24.0842 211.647L57.3509 192.442C59.1954 191.378 60.9928 191.221 62.4213 192.006C63.8105 192.767 64.6307 194.29 64.717 196.299C64.7876 197.846 64.7915 199.533 64.7287 201.303C64.6306 203.901 55.4438 229.554 47.2968 234.26L23.0128 248.281C22.4634 248.595 21.7257 248.748 20.9055 248.748C19.6889 248.752 18.2997 248.419 17.0988 247.775ZM58.5871 194.584L25.3204 213.79C21.5922 215.945 19.5162 218.378 16.6397 221.749L16.3611 222.078C16.2041 222.259 15.8862 222.718 15.5095 223.727C15.066 224.888 14.8462 226.085 14.8776 227.184C14.9012 228.079 14.8973 229.354 14.8895 230.814C14.8816 233.706 14.8698 237.301 15.0621 240.095C15.2897 243.352 16.9262 244.883 18.2644 245.593C19.8851 246.46 21.4392 246.335 21.7806 246.143L46.0646 232.125C53.1166 228.055 62.1622 203.618 62.2603 201.217C62.2996 200.18 62.3466 198.407 62.2564 196.417C62.2014 195.303 61.8443 194.506 61.24 194.18C61.0163 194.055 60.7455 193.996 60.4473 193.996C59.9018 193.996 59.2621 194.192 58.5871 194.584Z" fill="#E0E0E0"/>
<path d="M65.4642 193.763C64.0397 192.315 61.7203 192.19 59.1106 193.697L25.8439 212.903C24.647 213.593 23.5835 214.319 22.6102 215.077L18.8036 212.879V210.705C18.8036 210.705 21.4369 211.05 22.0373 210.705L55.304 191.499C57.9137 189.992 61.0375 188.897 62.4621 190.345C62.4621 190.345 64.4164 190.918 65.4642 191.593C66.3865 192.111 65.4642 193.763 65.4642 193.763Z" fill="#A06238"/>
<path d="M65.4643 191.592C63.7179 190.552 61.7203 190.018 59.1106 191.525L25.8439 210.731C24.647 211.422 23.5835 212.148 22.6102 212.905L18.8036 210.707C19.7768 209.95 20.8404 209.224 22.0373 208.533L55.304 189.327C57.9137 187.821 59.7661 188.66 61.6576 189.394L65.4643 191.592Z" fill="#C48358"/>
<path d="M22.9619 241.363L67.0599 215.901C68.0802 215.309 69.0024 215.285 69.646 215.717L69.65 215.713L117.959 243.603L65.5452 284.801L17.205 256.891L22.9619 241.363Z" fill="#3E4963"/>
<path d="M71.296 269.272L65.5428 284.801L115.508 255.953C117.493 254.807 119.083 252.005 119.024 249.764L118.914 245.691C118.855 243.544 117.297 242.712 115.398 243.807L71.296 269.272Z" fill="url(#paint5_linear_64_20840)"/>
<path d="M82.0834 199.696C95.5793 191.91 100.175 194.574 104.633 197.18C109.091 199.786 107.945 205.516 107.87 207.344C107.796 209.173 71.3111 246.839 53.314 245.214C44.7432 244.441 38.1228 232.111 41.1563 221.284C45.4731 205.869 82.0834 199.696 82.0834 199.696Z" fill="#363C53"/>
<path d="M51.5309 223.858C50.9344 235.38 50.7657 244.504 59.6072 249.668C68.4488 254.833 85.6061 251.862 95.1305 246.957C104.655 242.051 120.337 231.424 123.115 230.027C125.893 228.63 130.536 215.142 129.967 213.882C129.394 212.622 129.323 211.724 125.509 209.338C121.698 206.952 115.325 208.117 112.904 209.063C110.483 210.009 88.7142 221.06 88.7142 221.06L79.4762 218.972L51.5309 223.858Z" fill="#3B4157"/>
<path d="M138.747 213.888L126.475 213.97V310.757C126.479 311.655 127.076 312.55 128.257 313.233C130.643 314.614 134.532 314.606 136.934 313.217C138.146 312.515 138.747 311.596 138.739 310.682L138.743 213.888H138.747Z" fill="url(#paint6_linear_64_20840)"/>
<path d="M275.97 138.473L271.747 139.03C271.567 138.913 271.402 138.791 271.21 138.681L197.141 95.9175C190.093 91.848 177.775 92.3582 169.636 97.0556L47.2702 167.702C46.6266 168.071 46.0458 168.463 45.4925 168.863L40.536 169.519V176.598L40.5557 176.606C40.5243 179.22 42.0666 181.724 45.2963 183.584L119.365 226.347C126.417 230.417 138.731 229.907 146.87 225.205L269.236 154.559C273.71 151.977 275.978 148.669 275.954 145.533L275.97 145.525V138.473Z" fill="#D67E4A"/>
<path d="M119.364 219.287L45.2962 176.523C38.2441 172.454 39.131 165.343 47.2701 160.641L169.635 89.9951C177.775 85.2937 190.089 84.7835 197.141 88.857L271.21 131.621C278.258 135.69 277.375 142.801 269.236 147.503L146.87 218.149C138.727 222.846 126.413 223.357 119.364 219.287Z" fill="#F8BB72"/>
<path d="M180.91 96.0744C183.299 97.4518 187.185 97.4479 189.586 96.0587C191.988 94.6695 192.004 92.4286 189.614 91.0472C187.224 89.6698 183.343 89.6737 180.937 91.0629C178.535 92.4522 178.524 94.693 180.91 96.0744Z" fill="#A8ABB5"/>
<path d="M50.354 171.449C52.7439 172.827 56.629 172.823 59.0307 171.434C61.4324 170.044 61.4481 167.804 59.0582 166.422C56.6682 165.045 52.7831 165.049 50.3814 166.438C47.9758 167.827 47.9641 170.072 50.354 171.449Z" fill="#A8ABB5"/>
<path d="M258.814 141.051C261.204 142.428 265.085 142.424 267.49 141.035C269.896 139.646 269.908 137.405 267.518 136.028C265.128 134.65 261.247 134.654 258.841 136.043C256.436 137.429 256.424 139.669 258.814 141.051Z" fill="#A8ABB5"/>
<path d="M178.202 148.573L139.037 125.961L191.933 95.4219L231.098 118.034L178.202 148.573Z" fill="white"/>
<path d="M223.524 42.2739C223.873 42.423 228.465 48.6549 229.359 52.8265C230.478 54.7062 235.941 56.4408 239.63 54.7023C244.056 52.6146 247.278 48.1762 248.149 43.8162C248.805 40.5315 247.313 39.1148 247.313 39.1148C247.313 39.1148 242.377 35.0178 241.258 29.7552C240.132 24.4691 235.595 18.1313 232.766 19.2262C229.936 20.321 220.993 30.0024 220.993 30.0024L223.524 42.2739Z" fill="#FF9C78"/>
<path d="M244.767 37.0328C246.054 38.8969 244.963 44.8776 241.687 48.3271C236.762 53.5072 232.052 52.7695 232.052 52.7695V54.6767L233.818 59.233C233.818 59.233 240.038 60.0727 246.765 53.3071C253.491 46.5376 250.128 41.4712 249.414 40.392C248.699 39.3089 245.47 36.4285 244.783 36.0321C244.1 35.6357 244.1 35.6357 244.1 35.6357C244.1 35.6357 243.723 36.1341 244.767 37.0328Z" fill="#F8F7FB"/>
<path d="M232.889 53.1689C232.889 53.1689 233.772 53.5692 232.049 52.7686C230.326 51.972 228.701 49.845 228.391 47.8828C227.567 50.469 227.363 55.6608 228.497 57.6544C229.969 56.4339 232.049 54.6758 232.049 54.6758L232.889 53.1689Z" fill="#F8F7FB"/>
<path d="M231.618 26.2799C231.916 27.2727 236.885 37.6526 236.834 39.242C236.783 40.8314 240.632 44.0297 226.94 51.5763C224.193 53.0911 220.391 50.5678 219.598 49.7711C218.801 48.9745 211.949 35.667 209.814 30.4515C207.68 25.236 206.907 18.7255 207.852 15.794C208.798 12.8625 215.328 10.2372 220.991 11.0299C226.654 11.8226 231.618 26.2799 231.618 26.2799Z" fill="#FF9C78"/>
<path d="M199.269 75.3694C197.628 72.4654 189.627 72.1985 187.833 72.9598C186.044 73.7212 184.439 73.3052 182.422 79.7687C181.77 81.8603 177.924 97.3262 178.521 100.383C179.117 103.436 188.693 107.471 191.373 101.435C194.057 95.3994 200.018 82.1272 200.207 80.1532C200.411 78.0419 199.269 75.3694 199.269 75.3694Z" fill="#3B3F51"/>
<path d="M188.246 96.6947C186.421 95.6508 184.522 95.0543 183.368 96.0982C182.214 97.1421 182.363 96.7301 181.17 97.3266C179.977 97.9231 179.008 99.8224 178.525 100.38C178.043 100.937 176.736 101.945 176.065 102.613C175.394 103.284 175.468 105.74 175.468 105.74C175.468 105.74 177.78 110.245 178.67 111.066C179.565 111.886 184.035 111.662 184.294 111.623C184.553 111.588 188.093 112.07 189.286 111.474C190.479 110.877 190.44 109.461 190.44 109.461L188.246 96.6947Z" fill="#FF9C78"/>
<path d="M191.859 103.064L188.245 96.6943C188.245 96.6943 186.793 99.0804 187.276 100.269C187.758 101.462 189.25 104.143 189.25 104.143C189.25 104.143 187.833 107.384 188.618 108.687C189.399 109.99 191.114 110.328 191.263 109.284C191.412 108.244 191.859 103.064 191.859 103.064Z" fill="#FF9C78"/>
<path d="M182.955 96.4553C182.696 97.7032 183.814 102.173 183.814 102.173C183.814 102.173 186.495 112.267 187.578 112.789C188.661 113.31 190.035 113.165 189.925 111.784C189.815 110.402 188.061 102.432 188.061 102.432L187.178 96.1452C187.178 96.1452 185.078 94.1635 182.955 96.4553Z" fill="#FF9C78"/>
<path d="M210.64 116.751C210.64 116.751 206.998 119.208 205.656 118.811C204.314 118.415 203.274 118.811 203.023 119.357C202.776 119.902 203.321 121.394 206.053 121.939C208.784 122.485 216.68 119.008 216.68 119.008L210.64 116.751Z" fill="#FF9C78"/>
<path d="M211.552 22.83C217.906 27.2253 226.472 25.3337 226.472 25.3337C226.472 25.3337 227.838 27.7747 228.136 28.2496C228.435 28.7244 230.189 30.561 230.189 30.561L232.402 34.1282L234.796 32.6684C234.796 32.6684 233.112 26.7308 236.837 25.4907C240.561 24.2507 237.865 28.9246 239.949 31.6049C242.036 34.2852 243.076 34.1322 243.076 34.1322C243.076 34.1322 242.452 32.3348 243.273 29.1404C245.164 21.7861 244.944 15.8015 241.173 9.59314C237.398 3.38481 231.543 3.49468 231.543 3.49468C231.543 3.49468 226.92 -2.37616 217.042 1.10082C207.165 4.57388 205.968 13.4626 206.647 19.1097C206.808 20.4558 208.177 25.0276 208.177 25.0276C208.177 25.0276 207.224 17.5871 207.851 18.9685C208.581 20.5578 210.657 22.2099 211.552 22.83Z" fill="#553012"/>
<path d="M235.054 29.4975C234.689 28.7519 234.277 25.5496 237.146 24.5057C240.015 23.4618 240.05 26.7779 239.905 28.9756C239.756 31.1732 239.532 33.7083 237.743 34.3755C235.953 35.0465 235.51 32.8097 235.51 32.1778C235.506 31.546 235.054 29.4975 235.054 29.4975Z" fill="#FF9C78"/>
<path d="M261.387 97.3541C246.584 105.399 229.204 114.739 223.042 115.233C216.885 115.728 211.022 116.525 211.022 116.525C211.022 116.525 200.124 123.765 199.579 124.361C199.033 124.958 199.579 126.151 199.579 126.151C199.579 126.151 198.338 126.351 198.982 127.839C199.63 129.33 201.266 128.682 201.266 128.682C201.266 128.682 202.012 129.475 203.154 129.475C204.296 129.475 206.43 128.533 206.43 128.533C206.43 128.533 206.925 130.323 208.714 129.973C210.504 129.624 218.674 126.43 218.674 126.43C218.674 126.43 222.697 126.512 225.428 125.319C228.16 124.126 228.156 123.031 229.298 122.089C230.44 121.144 247.624 120.151 257.608 116.352C267.592 112.553 273.329 110.092 274.447 106.294C275.566 102.495 272.434 100.034 272.434 100.034C272.434 100.034 264.79 95.5096 261.387 97.3541Z" fill="#FF9C78"/>
<path d="M263.646 101.901C263.348 101.678 263.446 104.88 261.386 97.3569C259.326 89.8339 256.567 72.7158 256.049 66.1582C255.527 59.6006 254.185 52.0031 259.848 47.0113C261.786 46.1166 261.786 46.1166 261.786 46.1166C261.786 46.1166 265 45.9164 267.108 47.9885C269.219 50.0605 271.248 52.4505 272.884 64.4472C274.525 76.44 277.225 99.3466 274.689 107.168C270.443 105.822 263.646 101.901 263.646 101.901Z" fill="#3B3F51"/>
<path d="M261.388 97.3535C255.27 99.6964 227.748 112.195 226.736 112.839C225.723 113.483 226.202 114.55 226.202 114.55C226.202 114.55 228.039 115.657 229.244 118.133C230.448 120.609 229.561 121.963 229.561 121.963C229.561 121.963 230.303 122.811 230.778 122.732C234.047 122.207 246.362 121.1 256.687 117.325C271.905 111.76 272.988 110.245 274.695 107.164C275.261 104.335 261.388 97.3535 261.388 97.3535Z" fill="#3B3F51"/>
<path d="M128.257 216.427C130.647 217.804 134.532 217.8 136.934 216.411C139.335 215.022 139.351 212.781 136.961 211.404C134.571 210.026 130.686 210.03 128.284 211.419C125.883 212.805 125.871 215.049 128.257 216.427Z" fill="#A8ABB5"/>
<path d="M107.906 165.692C110.763 164.778 111.065 163.039 113.809 162.757C116.556 162.478 117.447 161.976 117.808 161.207C118.169 160.438 115.873 159.347 115.567 159.37C115.261 159.394 110.602 156.941 108.86 156.749C107.118 156.56 103.468 156.293 102.098 156.741C100.729 157.188 95.0502 162.576 93.9279 162.722C92.8055 162.867 87.2093 168.326 93.9239 168.847C100.638 169.373 107.906 165.692 107.906 165.692Z" fill="#FF9C78"/>
<path d="M100.053 169.642C100.17 166.506 98.5221 160.298 93.4675 162.134C88.1697 164.061 76.0198 167.114 76.0198 167.114C76.0198 167.114 66.2521 184.966 74.301 183.416C82.3537 181.866 100.053 169.642 100.053 169.642Z" fill="#F8F7FB"/>
<path d="M103.238 167.179C106.032 167.485 107.37 166.61 109.223 165.672C111.075 164.734 112.527 164.353 113.053 163.49C113.583 162.623 113.072 161.779 111.601 161.826C110.129 161.873 107.304 163.074 106.923 163.231C106.542 163.392 103.893 162.956 102.351 163.423C100.809 163.89 100.055 166.775 103.238 167.179Z" fill="#FF9C78"/>
<path d="M84.3382 217.945C85.9276 224.899 78.8559 229.259 67.1339 230.153C55.4118 231.048 41.3743 220.833 41.2409 217.525C41.1074 214.221 42.0179 192.75 41.2252 188.179C40.4325 183.607 33.7375 158.059 37.6893 145.14C41.2252 133.583 56.8521 137.935 56.8521 137.935C56.8521 137.935 81.756 149.433 85.4292 153.903C89.1024 158.373 84.4324 186.487 84.2362 193.143C84.0361 199.802 84.3382 217.945 84.3382 217.945Z" fill="#EAEEF9"/>
<path d="M78.3805 151.624C75.2999 152.518 71.2264 156.294 71.1283 161.956C71.0302 167.619 80.2681 179.836 80.2681 179.836C80.2681 179.836 102.802 200.776 107.668 200.082C112.534 199.387 115.615 192.731 115.815 191.24C116.015 189.749 110.953 182.449 110.953 182.449C110.953 182.449 88.7722 155.893 85.099 153.551C81.418 151.212 78.3805 151.624 78.3805 151.624Z" fill="#F8F7FB"/>
<path d="M50.8842 125.327C52.5991 130.692 52.3754 135.809 51.7632 139.27C51.151 142.731 50.5074 142.551 51.2216 143.477C51.932 144.399 56.547 147.158 62.6572 147.755C68.7675 148.351 71.5852 146.322 71.5852 146.322C71.5852 146.322 70.9848 136.727 71.6283 135.832C72.268 134.938 76.0668 134.341 78.08 132.034C80.0932 129.722 78.08 118.773 78.08 118.773C78.08 118.773 79.0493 110.952 78.602 108.193C78.1546 105.438 77.1107 99.0298 74.5049 98.9553C71.8952 98.8768 50.8842 125.327 50.8842 125.327Z" fill="#FF9C78"/>
<path d="M72.9173 118.118C72.3953 117.353 70.0878 117.561 69.4364 120.092C68.7849 122.627 69.9582 126.74 71.5241 127.113C73.0899 127.486 72.9212 124.99 72.9212 124.99V118.118H72.9173Z" fill="#FF9C78"/>
<path d="M128.319 179.244C130.964 177.604 131.298 177.27 131.298 177.27C131.298 177.27 130.889 176.265 131.78 174.923C132.675 173.581 135.395 172.278 135.395 172.278C135.395 172.278 138.075 172.353 139.456 171.831C140.834 171.309 141.693 172.055 141.693 172.055C141.693 172.055 145.382 171.348 146.277 171.274C147.172 171.199 147.992 172.168 147.992 172.168C147.992 172.168 149.146 171.497 150.154 172.055C151.159 172.612 150.711 173.322 150.711 173.322C150.711 173.322 151.904 173.879 151.382 174.774C150.86 175.669 150.488 175.967 150.488 175.967C150.488 175.967 151.83 176.564 150.896 177.494C149.966 178.424 146.759 180.249 145.829 181.143C144.899 182.038 141.568 184.122 139.915 184.832C138.267 185.539 135.744 184.357 134.986 184.832C134.229 185.307 129.736 188.67 129.736 188.67L128.319 179.244Z" fill="#FF9C78"/>
<path d="M73.5356 121.453C73.5356 121.453 72.119 116.163 70.3334 117.505C68.5439 118.847 65.1924 127.265 62.4375 129.651C59.6826 132.033 54.4475 132.523 51.8849 130.043C49.3223 127.563 50.5153 125.326 47.0148 120.856C43.5143 116.386 42.0937 103.499 49.3577 99.3233C54.9852 93.2131 61.3191 91.8748 70.1097 94.928C78.9002 97.9811 78.0801 101.56 78.0801 101.56C78.0801 101.56 76.8831 106.689 77.7817 107.819C78.6804 108.946 77.1107 113.259 77.1107 113.259L75.6941 119.145L73.5356 121.453Z" fill="#553012"/>
<path d="M133.719 187.366C135.21 182.374 134.912 177.68 129.324 178.426C123.736 179.172 111.072 183.642 111.072 183.642C111.072 183.642 101.304 201.493 109.353 199.943C117.402 198.389 133.719 187.366 133.719 187.366Z" fill="#F8F7FB"/>
<path d="M12.6804 158.025L12.8491 157.907C14.4345 156.816 15.914 156.702 16.8912 157.413V157.405L65.1883 185.283L60.4359 287.725L12.0957 259.815L10.9458 211.078L8.36354 166.325C8.19872 163.468 10.1099 159.791 12.6804 158.025Z" fill="url(#paint7_linear_64_20840)"/>
<path d="M70.4668 231.851L66.4051 187.722C66.1422 184.865 63.811 184.013 61.1857 185.818L61.0169 185.936C58.4465 187.706 56.5354 191.379 56.7002 194.24L59.2824 238.993L60.4322 287.73L65.5378 284.806L71.2909 269.278L70.4668 231.851Z" fill="url(#paint8_linear_64_20840)"/>
<path d="M66.9588 276.561C65.4126 275.741 62.7755 273.669 62.4498 269.054C62.2536 266.169 62.2614 262.524 62.2731 259.596C62.2771 258.16 62.2849 256.912 62.2575 256.037V256.033C62.2261 254.62 62.4968 253.105 63.0502 251.642C63.4504 250.586 63.8704 249.809 64.3374 249.267L64.6317 248.918C67.5475 245.5 69.8471 242.804 73.9442 240.441L107.211 221.232C109.036 220.172 110.841 220.015 112.281 220.8C113.674 221.561 114.487 223.084 114.577 225.097C114.671 227.169 114.628 229.018 114.589 230.097C114.491 232.695 105.304 258.348 97.1568 263.05L72.8729 277.071C72.3235 277.385 71.5856 277.538 70.7655 277.538C69.5489 277.538 68.1558 277.201 66.9588 276.561ZM108.447 223.366L75.1804 242.576C71.4522 244.723 69.3802 247.156 66.5115 250.519L66.2132 250.868C66.0248 251.088 65.7227 251.551 65.3617 252.513C64.9222 253.674 64.7024 254.871 64.7338 255.966C64.7573 256.861 64.7534 258.136 64.7455 259.6C64.7377 262.488 64.7259 266.087 64.9182 268.881C65.1458 272.134 66.7822 273.669 68.1204 274.379C69.749 275.25 71.2914 275.121 71.6367 274.929L95.9206 260.907C102.969 256.837 112.018 232.4 112.116 229.999C112.156 228.963 112.199 227.185 112.113 225.199C112.058 224.085 111.7 223.288 111.096 222.958C110.868 222.833 110.602 222.774 110.303 222.774C109.762 222.778 109.122 222.978 108.447 223.366Z" fill="#E0E0E0"/>
<path d="M68.8593 277.662C67.3131 276.842 64.6719 274.77 64.3462 270.151C64.1499 267.267 64.1579 263.621 64.1696 260.693C64.1736 259.261 64.1814 258.009 64.1539 257.134V257.13C64.1225 255.713 64.3933 254.195 64.9466 252.743C65.3352 251.711 65.7708 250.906 66.2378 250.364L66.532 250.015C69.4478 246.597 71.7476 243.901 75.8407 241.539L109.107 222.333C110.952 221.265 112.757 221.116 114.182 221.897C115.571 222.658 116.383 224.185 116.473 226.19C116.548 227.768 116.552 229.451 116.489 231.198C116.387 233.796 107.185 259.457 99.0533 264.151L74.7693 278.172C74.2238 278.49 73.4821 278.639 72.6619 278.639C71.4493 278.636 70.0601 278.302 68.8593 277.662ZM110.344 224.472L77.0768 243.677C73.3526 245.828 71.2805 248.257 68.4118 251.62L68.1136 251.969C67.8428 252.287 67.5367 252.872 67.258 253.618C66.8185 254.775 66.5987 255.972 66.6301 257.071C66.6498 257.966 66.6498 259.241 66.642 260.701C66.6341 263.593 66.6224 267.188 66.8147 269.982C67.0423 273.24 68.6826 274.77 70.0208 275.48C71.6455 276.352 73.1877 276.226 73.5331 276.03L97.8171 262.008C104.861 257.942 113.915 233.501 114.017 231.1C114.056 230.064 114.099 228.29 114.009 226.3C113.958 225.19 113.601 224.393 112.996 224.063C112.769 223.942 112.502 223.879 112.204 223.879C111.662 223.879 111.022 224.079 110.344 224.472Z" fill="#E0E0E0"/>
<path d="M117.226 223.652C115.802 222.204 113.482 222.078 110.873 223.585L77.6059 242.791C76.4089 243.482 75.3454 244.208 74.3722 244.965L70.5656 242.768V240.594C70.5656 240.594 73.1988 240.939 73.7992 240.594L107.066 221.388C109.676 219.881 112.796 218.786 114.224 220.234C114.224 220.234 116.178 220.807 117.226 221.482C118.148 222 117.226 223.652 117.226 223.652Z" fill="#2C3240"/>
<path d="M117.226 221.477C115.484 220.437 113.482 219.903 110.872 221.41L77.6058 240.616C76.4088 241.306 75.3453 242.032 74.3721 242.79L70.5654 240.592C71.5387 239.835 72.6022 239.109 73.7991 238.418L107.066 219.212C109.676 217.705 111.524 218.545 113.419 219.279L117.226 221.477Z" fill="#374056"/>
<defs>
<linearGradient id="paint0_linear_64_20840" x1="240.89" y1="130.219" x2="283.166" y2="56.9946" gradientUnits="userSpaceOnUse">
<stop offset="0.8246" stop-color="#282E3B"/>
<stop offset="0.8674" stop-color="#31394C"/>
<stop offset="0.9255" stop-color="#3A445C"/>
<stop offset="0.9699" stop-color="#3D4862"/>
</linearGradient>
<linearGradient id="paint1_linear_64_20840" x1="304.722" y1="140.827" x2="265.16" y2="72.3044" gradientUnits="userSpaceOnUse">
<stop offset="0.6814" stop-color="#2C3240"/>
<stop offset="0.8254" stop-color="#2D3442"/>
<stop offset="0.9039" stop-color="#31394A"/>
<stop offset="0.9663" stop-color="#384258"/>
<stop offset="1" stop-color="#3E4963"/>
</linearGradient>
<linearGradient id="paint2_linear_64_20840" x1="219.506" y1="171.314" x2="244.814" y2="127.479" gradientUnits="userSpaceOnUse">
<stop offset="0.1008" stop-color="#2D3341"/>
<stop offset="0.162" stop-color="#3D4862"/>
<stop offset="0.9021" stop-color="#3E4962"/>
</linearGradient>
<linearGradient id="paint3_linear_64_20840" x1="258.532" y1="167.498" x2="253.775" y2="159.258" gradientUnits="userSpaceOnUse">
<stop offset="0.5039" stop-color="#2D3341"/>
<stop offset="0.6858" stop-color="#2E3543"/>
<stop offset="0.7848" stop-color="#323A4B"/>
<stop offset="0.8637" stop-color="#394259"/>
<stop offset="0.8992" stop-color="#3D4862"/>
</linearGradient>
<linearGradient id="paint4_linear_64_20840" x1="257.031" y1="188.702" x2="269.301" y2="188.702" gradientUnits="userSpaceOnUse">
<stop offset="0.0335" stop-color="#8C909D"/>
<stop offset="0.6418" stop-color="#A8ABB5"/>
</linearGradient>
<linearGradient id="paint5_linear_64_20840" x1="94.2024" y1="268.254" x2="88.9167" y2="259.098" gradientUnits="userSpaceOnUse">
<stop offset="0.5039" stop-color="#2C3240"/>
<stop offset="0.6826" stop-color="#2D3442"/>
<stop offset="0.78" stop-color="#31394A"/>
<stop offset="0.8575" stop-color="#384258"/>
<stop offset="0.8992" stop-color="#3E4963"/>
</linearGradient>
<linearGradient id="paint6_linear_64_20840" x1="126.475" y1="264.078" x2="138.745" y2="264.078" gradientUnits="userSpaceOnUse">
<stop offset="0.0335" stop-color="#8C909D"/>
<stop offset="0.6418" stop-color="#A8ABB5"/>
</linearGradient>
<linearGradient id="paint7_linear_64_20840" x1="14.0574" y1="260.947" x2="59.6047" y2="182.057" gradientUnits="userSpaceOnUse">
<stop offset="0.8246" stop-color="#282E3B"/>
<stop offset="0.8674" stop-color="#31394C"/>
<stop offset="0.9255" stop-color="#3A445C"/>
<stop offset="0.9699" stop-color="#3D4862"/>
</linearGradient>
<linearGradient id="paint8_linear_64_20840" x1="84.5101" y1="273.851" x2="40.5486" y2="197.707" gradientUnits="userSpaceOnUse">
<stop offset="0.6814" stop-color="#2C3240"/>
<stop offset="0.8254" stop-color="#2D3442"/>
<stop offset="0.9039" stop-color="#31394A"/>
<stop offset="0.9663" stop-color="#384258"/>
<stop offset="1" stop-color="#3E4963"/>
</linearGradient>
</defs>
</svg>
