<svg width="365" height="363" viewBox="0 0 365 363" fill="none" xmlns="http://www.w3.org/2000/svg">
<g clip-path="url(#clip0_54_361)">
<rect width="365" height="362.949" rx="27.5198" fill="#EF9B00"/>
<rect x="15.9328" y="11.5872" width="161.071" height="57.0714" rx="28.5357" stroke="white" stroke-width="2.89683"/>
<path d="M46.6942 29.7699L51.1076 43.833L58.0644 30.5628H60.8172L50.5541 50.3859L46.1406 36.2928L38.8547 50.3559L32.2121 30.5628H34.8452L39.3484 43.9527L46.6942 29.7699ZM71.8732 44.2669H62.3731C62.5028 45.4737 62.8867 46.3963 63.5251 47.0346C64.1734 47.673 65.0162 47.9921 66.0535 47.9921C67.1406 47.9921 68.2926 47.3588 69.5094 46.0921L70.9756 47.5732C69.6989 49.1691 68.0582 49.967 66.0535 49.967C64.2681 49.967 62.802 49.3985 61.655 48.2614C60.518 47.1244 59.9494 45.6682 59.9494 43.8929C59.9494 42.0776 60.5778 40.5317 61.8345 39.255C63.0912 37.9784 64.6172 37.34 66.4125 37.34C67.9385 37.34 69.2401 37.9036 70.3173 39.0306C71.3945 40.1577 71.933 41.5241 71.933 43.1299C71.933 43.5288 71.9131 43.9078 71.8732 44.2669ZM62.5526 42.3669H69.5692C69.1803 40.402 68.0682 39.4196 66.233 39.4196C65.3154 39.4196 64.5225 39.6789 63.8542 40.1976C63.1959 40.7162 62.7621 41.4393 62.5526 42.3669ZM84.3355 29.9793H89.3923C90.6889 29.9793 92.0703 30.2636 93.5364 30.8321C95.0126 31.4006 96.2044 32.398 97.1121 33.8243C98.0297 35.2405 98.4885 36.9112 98.4885 38.8361C98.4885 40.5516 98.1643 42.1375 97.516 43.5937C96.8777 45.0498 96 46.2517 94.8829 47.1992C93.7658 48.1368 92.6637 48.7751 91.5766 49.1142C90.4894 49.4533 89.2078 49.6229 87.7316 49.6229H81.4481L84.3355 29.9793ZM87.8214 34.0038L86.1458 45.5834H87.6419C90.0356 45.5834 91.7362 44.9501 92.7435 43.6834C93.7509 42.4068 94.2546 40.7711 94.2546 38.7763C94.2546 37.3101 93.7958 36.1482 92.8782 35.2904C91.9606 34.4327 90.7039 34.0038 89.108 34.0038H87.8214ZM112.896 44.1622H104.189C104.418 45.9874 105.326 46.9 106.911 46.9C107.999 46.9 108.931 46.3863 109.709 45.359L112.312 46.7055C110.617 48.81 108.657 49.8622 106.433 49.8622C104.627 49.8622 103.146 49.2887 101.989 48.1417C100.842 46.9948 100.269 45.5286 100.269 43.7433C100.269 41.8083 100.922 40.1527 102.229 38.7763C103.545 37.3899 105.116 36.6967 106.941 36.6967C108.777 36.6967 110.233 37.3151 111.31 38.5519C112.397 39.7886 112.926 41.6587 112.896 44.1622ZM104.368 41.6188H109.544C109.375 40.2524 108.552 39.5692 107.076 39.5692C105.809 39.5692 104.907 40.2524 104.368 41.6188ZM117.294 28.5132H120.93L117.803 49.6229H114.137L117.294 28.5132ZM124.954 34.1833C124.296 34.1833 123.737 33.9439 123.279 33.4652C122.82 32.9865 122.59 32.4179 122.59 31.7597C122.59 31.1213 122.82 30.5778 123.279 30.1289C123.747 29.6801 124.306 29.4557 124.954 29.4557C125.602 29.4557 126.156 29.6801 126.615 30.1289C127.074 30.5778 127.303 31.1213 127.303 31.7597C127.303 32.4479 127.079 33.0264 126.63 33.4951C126.191 33.9539 125.652 34.1833 125.014 34.1833H124.954ZM122.381 36.966H126.046L124.146 49.6229H120.511L122.381 36.966ZM127.527 36.966H130.983L133.227 44.1323L137.147 36.966H140.947L133.99 49.6229H131.567L127.527 36.966ZM153.17 44.1622H144.463C144.692 45.9874 145.6 46.9 147.186 46.9C148.273 46.9 149.206 46.3863 149.984 45.359L152.587 46.7055C150.891 48.81 148.931 49.8622 146.707 49.8622C144.902 49.8622 143.421 49.2887 142.264 48.1417C141.117 46.9948 140.543 45.5286 140.543 43.7433C140.543 41.8083 141.197 40.1527 142.503 38.7763C143.82 37.3899 145.391 36.6967 147.216 36.6967C149.051 36.6967 150.507 37.3151 151.584 38.5519C152.671 39.7886 153.2 41.6587 153.17 44.1622ZM144.643 41.6188H149.819C149.649 40.2524 148.827 39.5692 147.35 39.5692C146.084 39.5692 145.181 40.2524 144.643 41.6188ZM164.211 37.0558L163.329 40.4669C162.969 40.2973 162.516 40.2125 161.967 40.2125C160.282 40.2125 159.274 41.3396 158.945 43.5937L158.047 49.6229H154.382L156.282 36.966H159.947L159.828 37.8637C160.835 37.0658 161.827 36.6668 162.805 36.6668C163.274 36.6668 163.742 36.7965 164.211 37.0558Z" fill="white"/>
<path fill-rule="evenodd" clip-rule="evenodd" d="M48.6323 271.777C106.692 383.811 282.154 348.676 319.371 237.574C347 155.096 278.231 88.3091 189.288 91.9499C86.9052 96.14 4.88672 176.972 48.6323 271.777Z" fill="#E1B892"/>
<path fill-rule="evenodd" clip-rule="evenodd" d="M316.502 103.211C307.845 92.9118 303.002 96.0159 298.037 89.3936C294.527 84.7131 295.352 84.4201 292.181 79.0661C289.304 76.6474 285.58 78.2985 284.979 85.7767C284.19 95.6287 288.986 100.925 294.404 109.133C291.058 110.07 280.297 111.043 279.832 111.488C277.966 113.274 278.1 152.788 292.869 148.464C304.427 145.083 349.69 136.168 368.838 132.448V77.8044L349.587 87.5683L317.867 104.049C316.984 104.249 317.082 103.898 316.502 103.211Z" fill="#D4775E"/>
<path fill-rule="evenodd" clip-rule="evenodd" d="M292.211 105.882C292.922 106.924 293.657 108 294.405 109.133C291.637 109.908 283.795 110.707 280.904 111.213C280.477 111.437 280.047 111.664 279.615 111.897C278.002 116.439 278.703 152.612 292.869 148.464C304.427 145.083 349.69 136.168 368.838 132.448V122.673C360.084 125.564 349.519 128.681 340.596 130.241C321.391 133.598 312.128 137.068 303.4 128.412C296.649 123.376 296.01 111.531 296.01 111.531L292.301 105.844L292.211 105.882Z" fill="#BC5249"/>
<path fill-rule="evenodd" clip-rule="evenodd" d="M264.18 118.207C263.94 116.492 264.947 113.703 268.766 111.258C275.79 106.76 288.18 102.883 290.523 105.139C294.14 108.62 288.162 114.451 288.162 114.451C288.162 114.451 292.135 113.942 295.886 116.848C299.637 119.751 289.422 128.045 289.422 128.045C289.422 128.045 295.507 126.441 297.242 130.826C298.975 135.21 292.042 140.247 292.042 140.247C292.042 140.247 300.949 138.785 299.631 143.658C298.315 148.532 287.671 153.919 282.743 150.952C277.813 147.986 281.607 144.255 281.607 144.255C272.466 147.252 270.183 137.317 277.498 132.751C277.498 132.751 266.904 135.03 267.748 129.009C267.191 124.088 272.97 122.251 272.97 122.251C272.97 122.251 264.862 123.075 264.18 118.207Z" fill="#D4775E"/>
<path fill-rule="evenodd" clip-rule="evenodd" d="M283.564 106.417C283.095 106.538 282.616 106.257 282.494 105.788C282.373 105.319 282.654 104.84 283.124 104.718C286.254 103.904 288.611 103.874 290.193 104.413C291.261 104.775 292.008 105.393 292.437 106.207C292.858 107.009 292.949 107.97 292.712 109.037C292.415 110.368 291.587 111.9 290.239 113.507C292.707 113.567 294.527 114.141 295.754 115.049C296.82 115.838 297.445 116.869 297.667 118.039C297.88 119.164 297.71 120.4 297.19 121.652C296.498 123.321 295.164 125.048 293.284 126.578C295.581 126.592 298.206 127.303 299.383 130.146L299.39 130.159C300.697 133.462 297.371 137.063 294.903 139.167C297.783 139.187 301.548 139.934 300.479 143.884C300.334 144.427 300.093 144.967 299.774 145.498C298.481 147.647 295.806 149.72 292.836 151.074C289.847 152.436 286.518 153.091 283.934 152.393C283.35 152.236 282.798 152.008 282.293 151.703C281.877 151.455 281.742 150.916 281.991 150.501C282.239 150.085 282.779 149.95 283.193 150.199C283.551 150.414 283.954 150.579 284.388 150.697C286.56 151.282 289.458 150.687 292.107 149.48C294.776 148.263 297.155 146.443 298.268 144.591C298.505 144.198 298.681 143.808 298.783 143.43C299.691 140.072 292.992 140.988 292.244 141.101C291.893 141.183 291.514 141.045 291.305 140.727C291.041 140.321 291.153 139.776 291.559 139.51C291.581 139.495 299.224 134.52 297.756 130.806C296.06 126.754 289.715 128.873 289.697 128.879L289.696 128.876C289.292 129.01 288.842 128.832 288.642 128.442C288.422 128.012 288.593 127.484 289.024 127.264C292.371 125.548 294.652 123.19 295.569 120.979C295.957 120.042 296.09 119.146 295.942 118.362C295.803 117.625 295.399 116.969 294.71 116.458C293.477 115.546 291.363 115.071 288.231 115.325C287.981 115.343 287.723 115.255 287.534 115.061C287.197 114.714 287.204 114.158 287.551 113.821C289.526 111.894 290.681 110.096 291 108.659C291.145 108.006 291.106 107.452 290.883 107.026C290.665 106.612 290.249 106.287 289.629 106.076C288.351 105.641 286.339 105.695 283.564 106.417Z" fill="#1B143E"/>
<path fill-rule="evenodd" clip-rule="evenodd" d="M275.068 122.061C274.619 122.244 274.106 122.031 273.923 121.582C273.739 121.134 273.952 120.622 274.401 120.438C280.025 118.129 288.412 113.548 288.436 113.535C288.861 113.301 289.395 113.457 289.629 113.882C289.862 114.307 289.706 114.841 289.282 115.075C289.257 115.088 280.802 119.707 275.068 122.061Z" fill="#1B143E"/>
<path fill-rule="evenodd" clip-rule="evenodd" d="M279.262 133.192C278.805 133.35 278.304 133.106 278.146 132.647C277.989 132.188 278.233 131.687 278.693 131.529C284.17 129.642 290.645 126.318 290.665 126.309C291.097 126.091 291.625 126.265 291.843 126.699C292.062 127.131 291.888 127.659 291.455 127.877C291.436 127.885 284.84 131.271 279.262 133.192Z" fill="#1B143E"/>
<path fill-rule="evenodd" clip-rule="evenodd" d="M283.675 144.51C283.215 144.663 282.718 144.416 282.564 143.957C282.411 143.498 282.659 143.001 283.118 142.847C285.19 142.151 287.517 141.191 289.449 140.395C291.639 139.493 293.349 138.788 293.947 138.84L294.048 138.855C294.616 138.936 294.888 139.262 294.836 139.865C294.794 140.348 294.368 140.707 293.885 140.665C293.808 140.659 293.733 140.642 293.663 140.617C293.218 140.741 291.831 141.313 290.118 142.018C288.158 142.824 285.797 143.796 283.675 144.51Z" fill="#1B143E"/>
<path fill-rule="evenodd" clip-rule="evenodd" d="M290.887 106.169C290.587 105.788 290.653 105.236 291.034 104.936C291.416 104.637 291.969 104.702 292.268 105.084C293.294 106.387 294.563 108.302 295.574 109.995C296.616 111.741 297.396 113.324 297.414 113.914C297.555 118.638 299.454 123.168 302.437 126.577C305.334 129.889 309.249 132.132 313.558 132.444C314.041 132.478 314.407 132.898 314.373 133.383C314.339 133.866 313.919 134.231 313.435 134.198C308.642 133.849 304.305 131.377 301.117 127.733C297.877 124.031 295.815 119.105 295.662 113.963C295.654 113.681 294.977 112.417 294.069 110.896C293.098 109.27 291.877 107.427 290.887 106.169Z" fill="#1B143E"/>
<path fill-rule="evenodd" clip-rule="evenodd" d="M277.373 115.817C277.415 115.973 277.322 116.134 277.166 116.175C277.009 116.216 276.849 116.123 276.808 115.967C276.384 114.348 274.884 110.998 274.88 110.99C274.813 110.842 274.88 110.669 275.026 110.602C275.174 110.536 275.348 110.602 275.414 110.749C275.417 110.758 276.936 114.15 277.373 115.817Z" fill="#1B143E"/>
<path fill-rule="evenodd" clip-rule="evenodd" d="M283.475 127.341C283.517 127.497 283.422 127.657 283.267 127.699C283.111 127.74 282.951 127.646 282.91 127.49C282.486 125.872 280.985 122.523 280.982 122.513C280.915 122.366 280.98 122.191 281.128 122.125C281.275 122.059 281.449 122.124 281.516 122.271C281.519 122.282 283.037 125.674 283.475 127.341Z" fill="#1B143E"/>
<path fill-rule="evenodd" clip-rule="evenodd" d="M287.645 139.078C287.686 139.234 287.593 139.394 287.437 139.436C287.28 139.477 287.12 139.383 287.08 139.227C286.655 137.609 285.155 134.26 285.151 134.25C285.085 134.103 285.151 133.929 285.297 133.863C285.445 133.795 285.619 133.862 285.684 134.008C285.69 134.017 287.207 137.41 287.645 139.078Z" fill="#1B143E"/>
<path fill-rule="evenodd" clip-rule="evenodd" d="M291.685 148.399C291.722 148.556 291.624 148.714 291.467 148.75C291.309 148.788 291.151 148.689 291.115 148.531C290.809 147.22 289.567 144.52 289.564 144.512C289.499 144.364 289.566 144.19 289.713 144.125C289.861 144.06 290.034 144.127 290.1 144.275C290.103 144.284 291.365 147.021 291.685 148.399Z" fill="#1B143E"/>
<path fill-rule="evenodd" clip-rule="evenodd" d="M295.553 99.6777C295.704 99.6216 295.873 99.6971 295.929 99.8496C295.986 100.001 295.911 100.169 295.759 100.226C293.013 101.261 291.761 102.805 291.758 102.81C291.658 102.936 291.473 102.956 291.348 102.857C291.222 102.756 291.202 102.572 291.301 102.445C291.306 102.44 292.66 100.767 295.553 99.6777Z" fill="#1B143E"/>
<path fill-rule="evenodd" clip-rule="evenodd" d="M320.797 112.987C320.906 113.46 320.61 113.931 320.137 114.038C319.666 114.147 319.194 113.851 319.086 113.379C318.625 111.368 318.221 109.714 317.74 108.234C317.266 106.777 316.72 105.49 315.975 104.194C315.734 103.774 315.878 103.239 316.298 102.998C316.718 102.757 317.254 102.901 317.495 103.321C318.314 104.745 318.905 106.136 319.411 107.692C319.908 109.225 320.325 110.925 320.797 112.987Z" fill="#1B143E"/>
<path fill-rule="evenodd" clip-rule="evenodd" d="M313.441 143.559L368.839 128.092V135.206L313.441 143.559Z" fill="#1B143E"/>
<path fill-rule="evenodd" clip-rule="evenodd" d="M23.082 236.468C23.5051 223.021 29.2298 222.46 29.0309 214.186C28.8904 208.337 28.0615 208.617 27.2363 202.449C28.0002 198.768 31.9467 197.761 37.0473 203.261C43.7645 210.51 43.2772 217.639 44.1024 227.44C47.3104 226.105 56.3635 220.206 57.0048 220.269C59.5767 220.516 83.9314 251.633 69.6545 257.38C57.1991 262.396 7.57333 287.948 -4.88281 294.384V243.194L22.5274 237.971C23.3459 237.582 23.0521 237.366 23.082 236.468Z" fill="#D4775E"/>
<path fill-rule="evenodd" clip-rule="evenodd" d="M43.8124 223.528C43.8991 224.786 43.9873 226.087 44.1024 227.439C46.7566 226.334 53.4096 222.107 55.9927 220.716C56.4666 220.627 56.9442 220.54 57.4293 220.455C61.5074 223.024 83.3469 251.867 69.653 257.379C57.1991 262.396 7.57333 287.948 -4.88281 294.384V283.751C3.53938 280.659 13.2494 276.73 20.8898 272.611C38.0503 263.36 47.4741 260.351 48.9712 248.149C51.156 240.015 44.3244 230.317 44.3244 230.317L43.7167 223.555L43.8124 223.528Z" fill="#BC5249"/>
<path fill-rule="evenodd" clip-rule="evenodd" d="M73.4574 215.856C72.5844 214.362 70.0655 212.793 65.5532 213.237C57.2536 214.054 45.1226 218.678 44.6778 221.9C43.9932 226.873 52.2965 227.752 52.2965 227.752C52.2965 227.752 48.8605 229.813 47.7139 234.415C46.5651 239.018 59.7209 239.208 59.7209 239.208C59.7209 239.208 53.9499 241.716 55.3012 246.233C56.6541 250.749 65.2183 250.412 65.2183 250.412C65.2183 250.412 57.3171 254.78 61.369 257.79C65.4201 260.804 77.1131 258.446 79.1477 253.065C81.183 247.685 75.8948 247.102 75.8948 247.102C84.9277 243.797 80.5715 234.58 72.0006 235.524C72.0006 235.524 81.7308 230.755 77.3411 226.549C74.7325 222.339 69.0572 224.475 69.0572 224.475C69.0572 224.475 75.9359 220.102 73.4574 215.856Z" fill="#D4775E"/>
<path fill-rule="evenodd" clip-rule="evenodd" d="M50.232 216.989C50.6767 216.795 51.194 216.999 51.3875 217.442C51.5804 217.887 51.3771 218.404 50.9339 218.597C48.3066 219.748 46.6936 220.951 45.9604 222.083C45.6038 222.631 45.4783 223.146 45.5642 223.607C45.6509 224.078 45.9648 224.536 46.4828 224.959C47.6249 225.891 49.6445 226.59 52.3869 226.879C52.869 226.928 53.2195 227.359 53.1709 227.842C53.1433 228.113 52.9938 228.343 52.7815 228.484C50.17 230.219 48.8051 231.9 48.4015 233.383C48.1758 234.211 48.2662 234.976 48.6123 235.642C48.98 236.348 49.6393 236.97 50.5243 237.465C52.6104 238.633 55.8603 239.071 59.5549 238.346C60.031 238.253 60.4929 238.565 60.5863 239.041C60.6708 239.479 60.4144 239.907 60.0003 240.043C59.5728 240.203 53.7525 242.456 54.8886 246.538C56.0322 250.358 65.1211 249.539 65.1472 249.537C65.6308 249.497 66.0569 249.857 66.0957 250.341C66.1256 250.707 65.9276 251.039 65.6189 251.196C65.1413 251.466 59.0541 254.978 61.8929 257.087C62.2083 257.321 62.588 257.52 63.0178 257.683C65.0389 258.447 68.0331 258.403 70.8846 257.706C73.7144 257.014 76.3574 255.689 77.6976 253.888C77.9651 253.529 78.1789 253.151 78.3277 252.757C78.4981 252.303 79.0048 252.074 79.4585 252.244C79.9115 252.415 80.141 252.921 79.9698 253.375C79.7635 253.924 79.4705 254.445 79.1065 254.933C77.507 257.083 74.4865 258.631 71.2965 259.411C68.1288 260.185 64.7459 260.213 62.3996 259.325C61.8204 259.106 61.2964 258.831 60.8479 258.496C57.5652 256.055 60.0534 253.14 62.2995 251.341C59.0728 251.217 54.2555 250.452 53.2143 247.073L53.1994 247.027C52.3667 244.066 53.9857 241.884 55.7795 240.453C53.3578 240.413 51.2425 239.882 49.6639 239C48.48 238.337 47.5816 237.471 47.0516 236.455C46.5023 235.4 46.355 234.203 46.7033 232.924C47.104 231.453 48.1795 229.876 50.0825 228.299C48.0278 227.872 46.4298 227.182 45.3751 226.321C44.5275 225.629 44.0028 224.818 43.8376 223.924C43.6694 223.021 43.875 222.074 44.4886 221.129C45.3998 219.722 47.2691 218.286 50.232 216.989Z" fill="#1B143E"/>
<path fill-rule="evenodd" clip-rule="evenodd" d="M66.8109 223.934C67.2773 223.8 67.7639 224.072 67.8969 224.539C68.03 225.006 67.7579 225.492 67.2915 225.625C61.3471 227.321 51.8336 228.93 51.806 228.935C51.3284 229.017 50.8747 228.695 50.7932 228.218C50.7125 227.738 51.0331 227.284 51.5115 227.203C51.5384 227.198 60.948 225.606 66.8109 223.934Z" fill="#1B143E"/>
<path fill-rule="evenodd" clip-rule="evenodd" d="M70.3081 235.304C70.7648 235.146 71.2648 235.386 71.424 235.844C71.584 236.302 71.3433 236.801 70.8851 236.962C65.3114 238.905 58.0388 240.329 58.0179 240.334C57.5433 240.429 57.0813 240.121 56.9864 239.646C56.8915 239.171 57.1994 238.71 57.6741 238.615C57.695 238.612 64.8413 237.212 70.3081 235.304Z" fill="#1B143E"/>
<path fill-rule="evenodd" clip-rule="evenodd" d="M73.8367 246.928C74.2942 246.765 74.798 247.003 74.9616 247.461C75.1238 247.918 74.8847 248.422 74.4287 248.584C72.3329 249.334 69.8686 250.034 67.8228 250.615C66.0387 251.121 64.5946 251.531 64.1723 251.706C64.1334 251.768 64.0848 251.827 64.0303 251.879C63.6767 252.211 63.1214 252.194 62.7888 251.841C62.3508 251.375 62.3889 250.926 62.8523 250.488C63.2933 250.073 65.073 249.568 67.3489 248.922C69.3506 248.354 71.7626 247.67 73.8367 246.928Z" fill="#1B143E"/>
<path fill-rule="evenodd" clip-rule="evenodd" d="M43.2768 222.936C43.2768 222.453 43.6685 222.059 44.1529 222.059C44.6372 222.059 45.0296 222.452 45.0296 222.936C45.0303 224.525 45.212 226.727 45.4579 228.615C45.6866 230.372 45.9392 231.784 46.1074 232.012C49.1689 236.144 50.5981 241.29 50.3454 246.202C50.0973 251.039 48.2212 255.664 44.6723 258.905C44.3143 259.231 43.7582 259.204 43.4316 258.846C43.1057 258.488 43.1326 257.931 43.4906 257.605C46.68 254.692 48.3669 250.506 48.5927 246.113C48.8251 241.589 47.5119 236.854 44.6977 233.057C44.3472 232.583 43.9802 230.858 43.7186 228.84C43.4652 226.895 43.2776 224.605 43.2768 222.936Z" fill="#1B143E"/>
<path fill-rule="evenodd" clip-rule="evenodd" d="M62.1524 221.913C62.2175 222.061 62.1494 222.234 62.0015 222.299C61.8542 222.363 61.6808 222.295 61.6165 222.148C60.9281 220.567 60.02 216.963 60.0177 216.953C59.9781 216.796 60.0738 216.637 60.2308 216.597C60.3877 216.558 60.5462 216.654 60.5858 216.81C60.5888 216.82 61.4857 220.38 62.1524 221.913Z" fill="#1B143E"/>
<path fill-rule="evenodd" clip-rule="evenodd" d="M64.4935 234.741C64.5585 234.889 64.4905 235.062 64.3425 235.127C64.1953 235.191 64.0226 235.123 63.9576 234.975C63.2692 233.395 62.3618 229.791 62.3588 229.78C62.3199 229.624 62.4149 229.464 62.5718 229.425C62.7288 229.386 62.888 229.482 62.9276 229.638C62.9306 229.648 63.8275 233.208 64.4935 234.741Z" fill="#1B143E"/>
<path fill-rule="evenodd" clip-rule="evenodd" d="M68.484 246.54C68.5483 246.687 68.4803 246.86 68.333 246.925C68.185 246.99 68.0124 246.922 67.9473 246.774C67.2589 245.194 66.3508 241.589 66.3485 241.579C66.3097 241.422 66.4046 241.264 66.5616 241.224C66.7185 241.184 66.8777 241.28 66.9181 241.436C66.9196 241.447 67.8165 245.006 68.484 246.54Z" fill="#1B143E"/>
<path fill-rule="evenodd" clip-rule="evenodd" d="M71.0739 256.348C71.1427 256.493 71.0792 256.667 70.9327 256.736C70.7877 256.805 70.6135 256.741 70.544 256.595C69.9438 255.312 69.239 252.381 69.2367 252.374C69.1979 252.217 69.2928 252.058 69.4497 252.019C69.6067 251.978 69.7659 252.074 69.8055 252.231C69.8078 252.239 70.5029 255.129 71.0739 256.348Z" fill="#1B143E"/>
<path fill-rule="evenodd" clip-rule="evenodd" d="M37.5237 221.283C37.3697 221.332 37.2046 221.246 37.1567 221.091C37.1081 220.938 37.1933 220.772 37.3473 220.725C40.2945 219.789 42.3836 220.262 42.3896 220.263C42.548 220.295 42.6519 220.449 42.6205 220.608C42.5884 220.767 42.4344 220.87 42.2752 220.839C42.27 220.837 40.3206 220.396 37.5237 221.283Z" fill="#1B143E"/>
<path fill-rule="evenodd" clip-rule="evenodd" d="M27.3475 246.054C27.5538 246.492 27.3669 247.016 26.9274 247.222C26.4894 247.429 25.9655 247.242 25.7592 246.804C24.854 244.89 24.1282 243.298 23.5706 241.786C23.0026 240.243 22.6064 238.785 22.3688 237.168C22.2985 236.688 22.6304 236.242 23.111 236.171C23.5916 236.101 24.0371 236.433 24.1073 236.913C24.3271 238.401 24.6933 239.748 25.2203 241.18C25.7592 242.64 26.4647 244.19 27.3475 246.054Z" fill="#1B143E"/>
<path fill-rule="evenodd" clip-rule="evenodd" d="M55.1092 263.991L-4.88281 286.407V294.978L55.1092 263.991Z" fill="#1B143E"/>
<path fill-rule="evenodd" clip-rule="evenodd" d="M32.3832 106.482C36.6586 93.7249 42.3025 91.4206 44.4918 83.4394C46.0405 77.7977 45.166 77.8276 46.1519 71.6828C47.942 68.3769 52.0118 68.5473 55.3133 75.2833C58.3815 81.5461 58.0295 90.1342 56.8441 96.0196C63.083 95.4583 71.0126 95.5741 77.0243 96.4546C82.9874 97.3276 84.2199 99.5535 84.7633 101.237C86.3068 106.017 79.8257 108.225 79.8257 108.225C79.8257 108.225 84.3649 108.124 86.0923 112.906C86.2246 119.439 79.3436 119.653 79.3436 119.653C88.6934 121.217 86.6947 129.9 80.186 131.552C82.6742 133.652 82.1585 137.748 77.8779 139.747C63.1144 146.647 15.781 151.28 -4.88281 153.414V103.987L31.4205 107.761C32.3167 107.624 32.0977 107.334 32.3832 106.482Z" fill="#D4775E"/>
<path fill-rule="evenodd" clip-rule="evenodd" d="M77.2508 104.334C77.2695 104.495 77.1544 104.641 76.9944 104.66C76.833 104.678 76.688 104.564 76.6678 104.403C76.4645 102.697 76.6327 98.9802 76.6334 98.9697C76.6401 98.8083 76.7769 98.6835 76.9376 98.6902C77.0991 98.6969 77.2239 98.8337 77.2172 98.9952C77.2172 99.0049 77.0512 102.669 77.2508 104.334Z" fill="#1B143E"/>
<path fill-rule="evenodd" clip-rule="evenodd" d="M77.2508 116.59C77.2695 116.751 77.1544 116.896 76.9944 116.915C76.833 116.933 76.688 116.819 76.6678 116.658C76.4645 114.952 76.6327 111.235 76.6334 111.224C76.6401 111.063 76.7769 110.938 76.9376 110.945C77.0991 110.952 77.2239 111.088 77.2172 111.25C77.2172 111.261 77.0512 114.923 77.2508 116.59Z" fill="#1B143E"/>
<path fill-rule="evenodd" clip-rule="evenodd" d="M77.2508 129.038C77.2695 129.198 77.1544 129.344 76.9944 129.363C76.833 129.382 76.688 129.267 76.6678 129.106C76.4645 127.4 76.6327 123.683 76.6334 123.673C76.6401 123.511 76.7769 123.387 76.9376 123.393C77.0991 123.4 77.2239 123.537 77.2172 123.698C77.2172 123.708 77.0512 127.372 77.2508 129.038Z" fill="#1B143E"/>
<path fill-rule="evenodd" clip-rule="evenodd" d="M77.25 138.244C77.2725 138.403 77.1626 138.552 77.0026 138.575C76.8419 138.599 76.6932 138.489 76.6708 138.328C76.4652 136.935 76.6341 133.917 76.6341 133.908C76.6424 133.746 76.7799 133.622 76.9413 133.631C77.102 133.639 77.2261 133.776 77.2179 133.938C77.2179 133.946 77.052 136.905 77.25 138.244Z" fill="#1B143E"/>
<path fill-rule="evenodd" clip-rule="evenodd" d="M80.1482 107.4C80.6258 107.316 81.0818 107.636 81.1655 108.115C81.2484 108.593 80.9293 109.048 80.4509 109.131C77.7399 109.61 71.4502 109.453 71.4323 109.453C70.9479 109.441 70.5645 109.039 70.5764 108.556C70.5877 108.072 70.9898 107.689 71.4734 107.699C71.4906 107.7 77.5815 107.852 80.1482 107.4Z" fill="#1B143E"/>
<path fill-rule="evenodd" clip-rule="evenodd" d="M80.6145 119.195C81.0928 119.111 81.548 119.431 81.6318 119.909C81.7147 120.388 81.3948 120.844 80.9172 120.927C78.2062 121.405 71.9165 121.248 71.8985 121.247C71.4149 121.236 71.0315 120.834 71.0427 120.351C71.0539 119.867 71.4568 119.483 71.9397 119.495C71.9568 119.495 78.0478 119.648 80.6145 119.195Z" fill="#1B143E"/>
<path fill-rule="evenodd" clip-rule="evenodd" d="M80.6145 130.369C81.0928 130.285 81.548 130.605 81.6318 131.084C81.7147 131.562 81.3948 132.018 80.9172 132.101C78.2062 132.579 71.9165 132.422 71.8985 132.422C71.4149 132.41 71.0315 132.008 71.0427 131.525C71.0539 131.041 71.4568 130.658 71.9397 130.67C71.9568 130.67 78.0478 130.822 80.6145 130.369Z" fill="#1B143E"/>
<path fill-rule="evenodd" clip-rule="evenodd" d="M58.7307 94.9837C59.2083 94.9 59.6642 95.2191 59.748 95.6982C59.8309 96.1766 59.511 96.6318 59.0327 96.7147C56.3224 97.1931 50.0319 97.0361 50.014 97.0361C49.5312 97.0242 49.1477 96.6221 49.1589 96.1392C49.1701 95.6556 49.5715 95.2722 50.0559 95.2826C50.0731 95.2841 56.164 95.4359 58.7307 94.9837Z" fill="#1B143E"/>
<path fill-rule="evenodd" clip-rule="evenodd" d="M31.8332 112.982C31.8071 113.466 31.3915 113.838 30.9086 113.81C30.425 113.784 30.0536 113.369 30.0805 112.886C30.2359 110.073 31.532 106.746 31.535 106.737C31.7039 106.284 32.2092 106.052 32.6629 106.222C33.1173 106.39 33.3476 106.895 33.1794 107.349C33.1749 107.357 31.973 110.445 31.8332 112.982Z" fill="#1B143E"/>
<path fill-rule="evenodd" clip-rule="evenodd" d="M55.8881 145.812L-4.88281 151.4V158.767L55.8881 145.812Z" fill="#1B143E"/>
<path fill-rule="evenodd" clip-rule="evenodd" d="M334.969 235.887C331.627 222.855 326.165 220.149 324.558 212.03C323.421 206.291 324.29 206.384 323.753 200.185C322.206 196.758 318.134 196.634 314.355 203.113C310.842 209.139 310.571 217.73 311.329 223.685C305.146 222.675 297.23 222.217 291.17 222.66C285.158 223.1 283.77 225.232 283.104 226.872C281.219 231.527 287.526 234.197 287.526 234.197C287.526 234.197 283.004 233.769 280.938 238.414C280.332 244.92 287.181 245.632 287.181 245.632C277.741 246.515 279.109 255.32 285.481 257.439C282.847 259.352 283.067 263.475 287.191 265.778C301.438 273.738 348.433 281.794 368.84 285.408V236.202L335.838 237.233C334.955 237.031 335.192 236.758 334.969 235.887Z" fill="#D4775E"/>
<path fill-rule="evenodd" clip-rule="evenodd" d="M290.95 230.613C290.919 230.772 290.765 230.876 290.607 230.846C290.449 230.816 290.344 230.663 290.374 230.503C290.693 228.855 290.793 225.191 290.793 225.18C290.798 225.019 290.932 224.891 291.094 224.897C291.255 224.901 291.383 225.036 291.377 225.197C291.377 225.207 291.276 228.927 290.95 230.613Z" fill="#1B143E"/>
<path fill-rule="evenodd" clip-rule="evenodd" d="M290.064 242.836C290.034 242.996 289.88 243.099 289.721 243.069C289.562 243.038 289.458 242.885 289.488 242.726C289.807 241.079 289.908 237.414 289.908 237.403C289.912 237.242 290.047 237.115 290.207 237.12C290.369 237.124 290.497 237.259 290.492 237.42C290.492 237.431 290.39 241.149 290.064 242.836Z" fill="#1B143E"/>
<path fill-rule="evenodd" clip-rule="evenodd" d="M289.164 255.252C289.134 255.41 288.98 255.514 288.821 255.484C288.662 255.455 288.558 255.301 288.589 255.142C288.907 253.495 289.007 249.829 289.007 249.819C289.013 249.657 289.147 249.53 289.309 249.534C289.469 249.539 289.596 249.675 289.592 249.834C289.592 249.846 289.491 253.565 289.164 255.252Z" fill="#1B143E"/>
<path fill-rule="evenodd" clip-rule="evenodd" d="M288.497 264.45C288.462 264.608 288.305 264.708 288.148 264.673C287.99 264.638 287.89 264.482 287.926 264.324C288.219 263.003 288.267 260.04 288.268 260.031C288.272 259.87 288.406 259.742 288.566 259.745C288.728 259.749 288.855 259.883 288.852 260.044C288.852 260.052 288.802 263.075 288.497 264.45Z" fill="#1B143E"/>
<path fill-rule="evenodd" clip-rule="evenodd" d="M286.835 235.056C286.364 234.939 286.078 234.46 286.197 233.99C286.314 233.519 286.792 233.233 287.263 233.351C289.789 233.988 295.875 234.276 295.893 234.277C296.376 234.3 296.75 234.712 296.726 235.195C296.702 235.679 296.29 236.052 295.807 236.028C295.79 236.027 289.504 235.729 286.835 235.056Z" fill="#1B143E"/>
<path fill-rule="evenodd" clip-rule="evenodd" d="M285.518 246.787C285.046 246.67 284.76 246.191 284.879 245.721C284.997 245.25 285.475 244.963 285.946 245.082C288.473 245.719 294.558 246.007 294.576 246.008C295.06 246.031 295.433 246.443 295.408 246.926C295.385 247.409 294.973 247.783 294.49 247.76C294.472 247.757 288.188 247.461 285.518 246.787Z" fill="#1B143E"/>
<path fill-rule="evenodd" clip-rule="evenodd" d="M284.711 257.933C284.24 257.815 283.953 257.337 284.072 256.866C284.19 256.395 284.668 256.108 285.138 256.227C287.665 256.865 293.752 257.152 293.768 257.153C294.252 257.176 294.625 257.588 294.601 258.071C294.578 258.554 294.166 258.928 293.684 258.904C293.666 258.903 287.38 258.606 284.711 257.933Z" fill="#1B143E"/>
<path fill-rule="evenodd" clip-rule="evenodd" d="M309.094 224.221C308.623 224.104 308.337 223.625 308.455 223.154C308.573 222.683 309.05 222.397 309.522 222.515C312.049 223.151 318.134 223.441 318.152 223.441C318.635 223.465 319.008 223.876 318.984 224.36C318.961 224.843 318.549 225.217 318.066 225.193C318.049 225.192 311.764 224.894 309.094 224.221Z" fill="#1B143E"/>
<path fill-rule="evenodd" clip-rule="evenodd" d="M336.803 242.441C336.795 242.925 336.395 243.312 335.912 243.303C335.427 243.295 335.04 242.894 335.049 242.411C335.093 239.871 334.117 236.703 334.115 236.695C333.978 236.23 334.245 235.744 334.711 235.608C335.175 235.472 335.661 235.739 335.797 236.204C335.8 236.213 336.852 239.624 336.803 242.441Z" fill="#1B143E"/>
<path fill-rule="evenodd" clip-rule="evenodd" d="M306.225 272.927L368.839 283.29V291.093L306.225 272.927Z" fill="#1B143E"/>
<path fill-rule="evenodd" clip-rule="evenodd" d="M149.572 230.967C140.779 230.552 98.0417 247.082 80.5142 263.945C62.9904 280.807 51.5149 307.484 55.8493 345.061C60.1837 382.641 78.286 394.756 78.286 394.756L90.0441 401.792H253.526L259.646 399.038L285.024 398.222C285.024 398.222 307.231 358.175 304.684 308.711C301.983 256.289 227.075 235.279 227.075 235.279C227.075 235.279 158.362 231.381 149.572 230.967Z" fill="#4E7B71"/>
<path fill-rule="evenodd" clip-rule="evenodd" d="M63.8525 375.217C70.4487 389.51 78.2857 394.757 78.2857 394.757L90.0437 401.792H253.525L259.646 399.038L264.848 398.871C263.041 381.7 260.053 357.921 260.053 357.921C260.053 357.921 262.778 326.732 260.355 322.795C257.933 318.859 260.355 277.98 260.355 277.98C260.355 277.98 260.053 277.98 257.024 284.036C253.996 290.093 248.849 328.549 248.849 328.549C248.849 328.549 224.624 360.647 222.201 361.858C219.78 363.068 154.373 363.675 152.555 363.372C150.739 363.068 117.43 320.07 117.43 320.07C117.43 320.07 111.678 300.388 106.226 285.55C106.226 285.55 107.135 314.316 104.712 315.527C102.291 316.739 80.1849 321.887 80.1849 321.887L65.6501 338.843L85.6353 334.906C85.6353 334.906 85.3326 335.512 77.459 344.597C72.3054 350.544 66.8916 365.054 63.8525 375.217Z" fill="#3A5E64"/>
<path fill-rule="evenodd" clip-rule="evenodd" d="M266.955 268.967C267.218 268.575 267.75 268.47 268.142 268.733C268.534 268.996 268.64 269.527 268.377 269.919C267.285 271.554 265.991 273.152 264.668 274.787C261.697 278.456 258.573 282.315 257.528 286.949C256.242 292.65 255.466 300.948 255.121 309.268C254.718 319.013 254.907 328.777 255.565 334.441C255.618 334.911 255.281 335.335 254.81 335.39C254.339 335.443 253.914 335.105 253.86 334.635C253.196 328.906 253.003 319.041 253.41 309.202C253.76 300.788 254.548 292.381 255.858 286.575C256.991 281.548 260.246 277.529 263.338 273.709C264.639 272.104 265.908 270.537 266.955 268.967Z" fill="#1B143E"/>
<path fill-rule="evenodd" clip-rule="evenodd" d="M95.2778 269.158C94.9758 268.794 95.0274 268.252 95.3921 267.952C95.7561 267.65 96.2973 267.701 96.5985 268.065C107.747 281.547 108.078 284.323 109.152 293.306C109.431 295.648 109.764 298.421 110.354 301.898C113.213 318.722 111.876 338.806 111.872 338.865C111.843 339.336 111.436 339.694 110.964 339.665C110.491 339.636 110.133 339.229 110.163 338.757C110.166 338.7 111.49 318.808 108.665 302.181C108.06 298.622 107.728 295.849 107.448 293.507C106.421 284.908 106.104 282.25 95.2778 269.158Z" fill="#1B143E"/>
<path fill-rule="evenodd" clip-rule="evenodd" d="M157.932 198C158.009 203.709 157.648 209.049 157.648 214.204C157.648 216.592 158.319 220.012 158.078 221.481C156.873 228.828 137.089 233.093 137.005 234.265C136.308 243.936 169.841 264.907 182.594 262.551C203.435 261.922 229.141 238.053 227.472 235.105C225.213 234.626 205.524 234.258 206.901 220.945C207.883 211.453 208.327 195.512 208.327 195.512C208.327 195.512 157.621 174.843 157.932 198Z" fill="#D4775E"/>
<path fill-rule="evenodd" clip-rule="evenodd" d="M144.154 231.334C140.429 232.796 137.023 234.002 137.005 234.265C136.308 243.936 169.841 264.907 182.594 262.551C203.435 261.922 229.141 238.053 227.472 235.105C226.371 234.872 221.132 234.449 216.208 232.535C210.396 240.722 197.178 252.074 183.96 253.11C169.892 254.214 154.946 247.526 144.154 231.334Z" fill="white"/>
<path fill-rule="evenodd" clip-rule="evenodd" d="M245.867 320.413C268.944 319.25 309.695 334.829 306.612 360.796C305.918 366.652 290.99 381.695 290.99 381.695C290.99 381.695 280.063 370.044 266.067 359.206C252.071 348.365 233.637 346.361 233.637 346.361C233.142 347.598 215.408 338.716 245.867 320.413Z" fill="#4E7B71"/>
<path fill-rule="evenodd" clip-rule="evenodd" d="M249.998 320.38C253.121 320.472 256.465 320.821 259.91 321.416C260.036 322.042 260.183 322.515 260.356 322.795C261.321 324.364 295.033 356.793 295.444 376.963C293.118 379.531 291.284 381.396 291.023 381.66L290.925 381.628C290.026 380.677 279.449 369.57 266.066 359.206C254.366 350.145 239.568 347.258 235.026 346.554C241.868 337.798 248.849 328.548 248.849 328.548C248.849 328.548 249.294 325.224 249.998 320.38Z" fill="#3A5E64"/>
<path fill-rule="evenodd" clip-rule="evenodd" d="M135.169 235.482C134.997 235.04 135.214 234.544 135.654 234.371C136.096 234.201 136.592 234.418 136.765 234.858C138.86 240.18 147.167 247.952 157.209 253.716C165.457 258.453 174.837 261.798 182.844 261.264C190.256 260.771 198.528 257.272 205.858 252.925C216.135 246.831 224.49 239.144 226.027 235.727C226.222 235.294 226.728 235.102 227.16 235.297C227.592 235.492 227.784 235.999 227.59 236.431C225.946 240.083 217.29 248.138 206.729 254.401C199.202 258.867 190.67 262.461 182.958 262.976C174.578 263.534 164.859 260.089 156.357 255.206C146.006 249.261 137.394 241.131 135.169 235.482Z" fill="#1B143E"/>
<path fill-rule="evenodd" clip-rule="evenodd" d="M154.226 254.072C153.875 253.758 153.845 253.217 154.16 252.865C154.474 252.513 155.016 252.483 155.367 252.798C177.189 272.282 189.88 287.568 189.917 287.612C190.222 287.974 190.173 288.515 189.81 288.818C189.448 289.121 188.907 289.074 188.603 288.711C188.567 288.667 175.935 273.454 154.226 254.072Z" fill="#1B143E"/>
<path fill-rule="evenodd" clip-rule="evenodd" d="M182.686 279.879C182.411 280.263 181.877 280.35 181.493 280.074C181.109 279.799 181.023 279.263 181.298 278.88C185.278 273.371 205.25 253.323 205.307 253.264C205.64 252.93 206.183 252.929 206.517 253.262C206.853 253.595 206.854 254.137 206.521 254.472C206.465 254.529 186.581 274.49 182.686 279.879Z" fill="#1B143E"/>
<path fill-rule="evenodd" clip-rule="evenodd" d="M257.769 322.612C257.299 322.567 256.953 322.15 256.998 321.679C257.042 321.209 257.459 320.864 257.93 320.909C266.341 321.707 276.329 323.809 285.494 328.832C294.694 333.875 303.054 341.851 308.148 354.382C308.326 354.82 308.114 355.321 307.675 355.498C307.236 355.675 306.736 355.464 306.559 355.026C301.634 342.914 293.557 335.207 284.668 330.334C275.743 325.442 265.989 323.393 257.769 322.612Z" fill="#1B143E"/>
<path fill-rule="evenodd" clip-rule="evenodd" d="M182.958 262.975C175.883 263.445 167.857 261.064 160.411 257.373C169.459 265.709 176.646 273.043 181.66 278.397C184.975 274.085 195.373 263.359 201.217 257.407C195.194 260.4 188.838 262.582 182.958 262.975Z" fill="#C1861F"/>
<path fill-rule="evenodd" clip-rule="evenodd" d="M52.6193 352.574C65.0687 332.47 82.5596 323.191 99.0766 324.688C115.594 326.183 125.634 326.448 125.634 326.448L124.837 348.886C102.339 358.36 73.8153 360.129 71.2688 388.381C71.2688 388.381 48.1907 372.962 52.6193 352.574Z" fill="#4E7B71"/>
<path fill-rule="evenodd" clip-rule="evenodd" d="M70.9188 332.698C79.8731 326.501 89.634 323.833 99.0772 324.689C109.981 325.675 118.061 326.127 122.295 326.32C123.261 327.558 124.338 328.936 125.493 330.412L124.837 348.887C102.34 358.362 73.8159 360.13 71.2693 388.383C71.2693 388.383 66.9289 385.482 62.3755 380.536C64.789 370.99 71.3097 351.695 77.4596 344.599C85.3332 335.515 85.6359 334.909 85.6359 334.909L65.6508 338.845L70.9188 332.698Z" fill="#3A5E64"/>
<path fill-rule="evenodd" clip-rule="evenodd" d="M62.8312 337.955C63.1945 337.652 63.7356 337.7 64.0383 338.062C64.3411 338.425 64.294 338.965 63.9307 339.269C59.9767 342.577 57.416 345.651 55.7268 348.306C54.051 350.94 53.2311 353.163 52.7564 354.79C52.6241 355.243 52.1495 355.504 51.6966 355.373C51.2436 355.241 50.982 354.767 51.1128 354.314C51.6211 352.574 52.4971 350.197 54.285 347.387C56.0601 344.599 58.7322 341.385 62.8312 337.955Z" fill="#1B143E"/>
<path fill-rule="evenodd" clip-rule="evenodd" d="M161.549 374.115C173.402 380.855 198.602 393.951 223.913 401.792H282.757C286.581 398.97 289.635 395.12 291.674 390.017C294.052 384.063 295.228 377.78 293.714 373.687C286.35 353.78 252.478 339.868 249.682 339.505C245.683 338.988 148.193 330.419 148.193 330.419C148.193 330.419 128.59 355.374 161.549 374.115Z" fill="#BC5249"/>
<path fill-rule="evenodd" clip-rule="evenodd" d="M163.052 374.962C169.967 378.837 180.553 384.4 192.787 389.869C212.149 379.256 228.849 368.49 228.849 368.49C228.849 368.49 244.038 369.383 250.922 367.284C257.807 365.181 258.406 365.006 258.406 365.006L279.753 375.648C279.753 375.648 259.807 351.159 258.409 350.308C257.01 349.457 174.147 346.335 170.824 346.622C168.798 346.799 160.211 361.927 163.052 374.962Z" fill="#1B143E"/>
<path fill-rule="evenodd" clip-rule="evenodd" d="M154.561 329.057C142.743 320.317 122.956 311.528 122.956 311.528L80.0261 314.864L60.6987 335.137C60.6987 335.137 61.0583 339.307 68.9498 336.871C76.8413 334.434 80.7011 327.754 80.7011 327.754L100.199 327.907L83.5287 332.613L63.6878 347.747C63.6878 347.747 64.4098 354.334 72.8432 351.098C81.2773 347.866 88.7047 343.103 88.7047 343.103L115.234 347.504C115.234 347.504 166.378 337.797 154.561 329.057Z" fill="#BC5249"/>
<path fill-rule="evenodd" clip-rule="evenodd" d="M86.1779 345.767C60.9711 366.476 54.8413 392.076 77.6847 401.792H129.189C173.492 390.969 225.608 361.804 225.608 361.804C234.066 359.814 244.063 365.19 259.349 360.271C261.065 362.21 283.951 383.829 281.526 370.868C281.209 369.176 279.325 367.534 279.336 366.563C279.359 364.634 286.24 373.442 289.019 367.15C289.546 365.957 287.332 363.27 284.996 358.418C284.533 357.457 285.442 356.806 285.521 355.579C286.015 347.976 275.197 335.712 266.864 328.181C255.103 317.553 250.441 319.533 233.556 321.481C190.372 326.467 119.167 318.664 86.1779 345.767Z" fill="#D4775E"/>
<path fill-rule="evenodd" clip-rule="evenodd" d="M260.157 347.977C259.788 347.681 259.731 347.142 260.026 346.774C260.322 346.406 260.861 346.347 261.23 346.643C264.691 349.437 281.788 368.502 281.837 368.557C282.154 368.907 282.126 369.45 281.773 369.767C281.422 370.082 280.879 370.056 280.563 369.703C280.515 369.649 263.494 350.671 260.157 347.977Z" fill="#1B143E"/>
<path fill-rule="evenodd" clip-rule="evenodd" d="M265.685 339.565C265.316 339.268 265.258 338.729 265.554 338.361C265.851 337.992 266.39 337.934 266.758 338.229C268.16 339.362 271.765 343.126 275.577 347.225C279.394 351.331 283.391 355.737 285.609 358.192C285.925 358.545 285.896 359.086 285.544 359.403C285.193 359.72 284.651 359.691 284.335 359.34C282.099 356.863 278.084 352.435 274.322 348.392C270.555 344.34 267.012 340.635 265.685 339.565Z" fill="#1B143E"/>
<path fill-rule="evenodd" clip-rule="evenodd" d="M86.1602 346.324C85.8186 346.652 85.2767 346.643 84.9493 346.302C84.6219 345.961 84.6324 345.419 84.9725 345.091C85.1982 344.874 85.4382 344.636 85.7027 344.373C90.597 339.49 103.605 326.512 155.834 324.13C156.305 324.109 156.705 324.476 156.725 324.947C156.745 325.42 156.378 325.819 155.906 325.839C104.345 328.192 91.6756 340.83 86.9084 345.586C86.6341 345.861 86.3829 346.11 86.1602 346.324Z" fill="#1B143E"/>
<path fill-rule="evenodd" clip-rule="evenodd" d="M130.941 401.361C130.479 401.47 130.019 401.183 129.911 400.722C129.804 400.261 130.09 399.8 130.55 399.692C137.129 398.155 146.084 395.319 155.043 392.24C171.199 386.686 187.285 380.37 189.631 379.381C209.197 371.135 227.158 360.559 227.211 360.529C227.379 360.431 227.566 360.396 227.746 360.419L227.747 360.416C227.77 360.418 235.932 361.437 242.967 361.299C249.989 361.161 258.728 359.008 258.753 359.002C259.052 358.93 259.351 359.025 259.553 359.228C259.603 359.276 276.708 376.311 280.085 375.12C283.042 374.075 280.208 368.58 280.2 368.564C279.986 368.144 280.153 367.629 280.573 367.414C280.807 367.295 281.069 367.294 281.293 367.387C281.303 367.391 284.45 368.74 286.596 367.489C288.168 366.572 288.233 365.529 288.197 365.156L283.331 358.398C283.056 358.013 283.142 357.479 283.525 357.203C283.909 356.927 284.443 357.015 284.72 357.398L289.701 364.316C289.763 364.404 289.81 364.506 289.838 364.618C289.84 364.625 290.534 367.176 287.454 368.971C285.815 369.925 283.842 369.795 282.439 369.503C283.225 371.757 283.975 375.563 280.655 376.736C276.614 378.162 261.17 363.215 258.686 360.775C256.77 361.222 249.247 362.886 243 363.009C236.578 363.135 229.328 362.33 227.82 362.154C225.58 363.459 208.644 373.224 190.294 380.958C187.922 381.956 171.735 388.316 155.599 393.864C146.602 396.955 137.593 399.807 130.941 401.361Z" fill="#1B143E"/>
<path fill-rule="evenodd" clip-rule="evenodd" d="M64.4145 338.143C63.9436 338.096 63.602 337.675 63.6506 337.205C63.6984 336.734 64.1185 336.391 64.5894 336.441C66.5036 336.638 68.4596 336.24 70.3088 335.456C72.4233 334.556 74.3958 333.15 76.0073 331.538C79.2639 328.282 80.5331 326.865 80.5361 326.861C80.7177 326.67 80.9666 326.581 81.211 326.597L100.248 326.9C100.719 326.907 101.097 327.295 101.089 327.767C101.082 328.24 100.692 328.616 100.221 328.609L81.528 328.312C80.9935 328.889 79.5883 330.384 77.2219 332.752C75.4677 334.506 73.3098 336.042 70.9793 337.032C68.8782 337.924 66.6351 338.372 64.4145 338.143Z" fill="#1B143E"/>
<path fill-rule="evenodd" clip-rule="evenodd" d="M266.678 330.82C266.678 330.504 266.934 330.247 267.25 330.247C267.567 330.247 267.823 330.504 267.823 330.82C267.823 331.93 267.553 333.087 267.19 334.065C266.717 335.338 266.04 336.35 265.559 336.618C265.284 336.77 264.936 336.671 264.783 336.397C264.631 336.121 264.729 335.773 265.005 335.621C265.28 335.467 265.738 334.698 266.121 333.667C266.442 332.807 266.678 331.792 266.678 330.82Z" fill="#1B143E"/>
<path fill-rule="evenodd" clip-rule="evenodd" d="M263.174 339.137C263.305 338.851 263.643 338.724 263.93 338.856C264.217 338.987 264.342 339.324 264.211 339.611C263.782 340.55 263.106 341.616 262.439 342.491C261.722 343.431 260.979 344.179 260.499 344.371C260.206 344.488 259.873 344.347 259.757 344.054C259.64 343.761 259.782 343.428 260.074 343.312C260.361 343.198 260.928 342.591 261.532 341.797C262.155 340.98 262.781 339.993 263.174 339.137Z" fill="#1B143E"/>
<path fill-rule="evenodd" clip-rule="evenodd" d="M258.22 350.263C258.394 350 258.748 349.928 259.011 350.102C259.274 350.275 259.346 350.63 259.173 350.893C257.291 353.716 254.858 355.365 254.85 355.369C254.587 355.544 254.233 355.474 254.057 355.21C253.883 354.947 253.953 354.592 254.216 354.417C254.222 354.412 256.468 352.89 258.22 350.263Z" fill="#1B143E"/>
<path fill-rule="evenodd" clip-rule="evenodd" d="M100.67 315.532C100.71 315.22 100.995 314.998 101.309 315.038C101.62 315.078 101.842 315.363 101.801 315.675C101.227 320.131 103.949 323.57 103.957 323.58C104.15 323.828 104.106 324.185 103.858 324.38C103.61 324.574 103.252 324.53 103.058 324.281C103.049 324.269 100.034 320.462 100.67 315.532Z" fill="#1B143E"/>
<path fill-rule="evenodd" clip-rule="evenodd" d="M131.704 161.689C125.135 165.329 126.736 173.365 129.489 181.543C132.242 189.719 137.66 194.558 143.582 192.044C149.504 189.532 152.077 180.851 149.323 172.674C146.571 164.498 137.381 158.541 131.704 161.689Z" fill="#D4775E"/>
<path fill-rule="evenodd" clip-rule="evenodd" d="M232.688 162.802C238.903 167.153 236.607 174.972 233.147 182.805C229.69 190.639 223.876 194.853 218.201 191.698C212.529 188.538 210.731 179.618 214.188 171.784C217.647 163.953 227.316 159.042 232.688 162.802Z" fill="#D4775E"/>
<path fill-rule="evenodd" clip-rule="evenodd" d="M157.946 222.236C173.569 234.894 192.233 233.625 206.954 224.499C207.952 215.022 208.479 199.751 208.479 199.751C208.479 199.751 156.713 179.083 157.024 202.239C157.14 210.805 157.882 217.241 157.946 222.236Z" fill="#1B143E"/>
<path fill-rule="evenodd" clip-rule="evenodd" d="M142.63 139.146C143.508 163.396 144.276 196.213 145.614 201.615C146.951 207.02 163.134 222.891 180.681 222.801C188.737 222.758 201.597 218.874 208.058 214.505C221.052 205.715 218.401 195.535 218.401 195.535L222.972 138.76C222.972 138.76 206.282 118.493 186.566 116.454C166.85 114.415 141.753 114.899 142.63 139.146Z" fill="#D4775E"/>
<path fill-rule="evenodd" clip-rule="evenodd" d="M144.783 158.164C144.756 159.066 144.658 160.107 144.549 161.256C143.973 167.367 143.064 176.991 153.147 178.575C155.208 178.9 157.166 179.126 159.012 179.252C163.842 179.582 167.664 179.197 170.336 178.079C172.677 177.099 174.08 175.523 174.423 173.337C174.453 173.153 174.475 172.936 174.493 172.687C174.867 167.211 174.74 160.845 174.656 158.056C168.787 157.297 146.769 154.618 144.908 156.858C144.93 156.929 144.947 157.003 144.96 157.08C145.024 157.466 144.955 157.843 144.783 158.164ZM143.165 154.911C150.315 151.25 176.334 154.822 176.539 154.85C177.349 154.957 177.989 155.631 178.025 156.474C178.026 156.486 178.102 158.249 178.144 160.849C178.418 160.703 178.695 160.573 178.974 160.458C180.711 159.747 182.508 159.637 184.145 159.943C185.246 160.147 186.279 160.54 187.177 161.063C187.219 158.346 187.299 156.487 187.299 156.475C187.335 155.632 187.976 154.958 188.785 154.852C188.985 154.824 213.932 151.397 221.689 154.689L220.975 163.553C220.917 162.751 220.843 161.978 220.775 161.255C220.67 160.149 220.575 159.143 220.543 158.264C220.331 157.924 220.238 157.507 220.309 157.08C220.325 156.989 220.346 156.9 220.375 156.815C218.264 154.653 196.499 157.302 190.668 158.057C190.584 160.845 190.458 167.209 190.832 172.687C190.848 172.936 190.872 173.151 190.901 173.334C191.245 175.522 192.648 177.099 194.989 178.079C197.663 179.197 201.486 179.582 206.319 179.251C208.164 179.125 210.119 178.899 212.177 178.576C216.901 177.832 219.212 175.325 220.276 172.241L219.715 179.204C218.008 180.506 215.729 181.479 212.7 181.956C210.492 182.303 208.438 182.542 206.547 182.671C201.186 183.037 196.843 182.568 193.675 181.244C190.177 179.781 188.066 177.326 187.521 173.857C187.469 173.524 187.432 173.209 187.412 172.914C187.253 170.608 187.184 168.142 187.161 165.841C187.14 165.797 187.119 165.755 187.101 165.709C186.935 165.304 186.617 164.902 186.188 164.538C185.496 163.951 184.563 163.501 183.528 163.308C182.488 163.114 181.356 163.18 180.274 163.622C179.546 163.921 178.83 164.396 178.167 165.083C178.153 167.594 178.087 170.353 177.911 172.914C177.891 173.209 177.855 173.523 177.803 173.858C177.256 177.326 175.146 179.779 171.65 181.242C168.484 182.567 164.142 183.036 158.783 182.671C156.891 182.541 154.834 182.302 152.623 181.954C148.489 181.304 145.749 179.731 143.956 177.652C143.68 170.597 143.42 162.704 143.165 154.911Z" fill="#BC5249"/>
<path fill-rule="evenodd" clip-rule="evenodd" d="M148.383 149.551C155.196 143.04 157.164 137.589 157.164 137.589C157.164 137.589 173.213 142.889 180.026 143.645C186.839 144.403 186.839 144.403 186.839 144.403L185.022 138.043L198.8 145.462L197.741 140.164C197.741 140.164 209.247 141.829 213.637 146.825C218.028 151.822 213.334 131.079 208.186 128.656C203.039 126.234 175.938 112.607 162.614 118.966C149.29 125.325 146.868 125.779 145.959 130.776C145.052 135.773 148.383 149.551 148.383 149.551Z" fill="#BC5249"/>
<path fill-rule="evenodd" clip-rule="evenodd" d="M221.357 187.251C224.386 186.797 230.367 180.437 230.821 174.533C231.274 168.628 228.776 168.78 226.884 169.31C224.991 169.839 221.585 174.684 220.298 177.182C219.01 179.68 219.086 179.908 220.069 180.362C221.054 180.816 222.567 181.498 222.643 182.784C222.721 184.072 221.357 187.251 221.357 187.251Z" fill="#BC5249"/>
<path fill-rule="evenodd" clip-rule="evenodd" d="M230.732 177.459C230.611 177.916 230.143 178.19 229.685 178.069C229.228 177.949 228.955 177.48 229.075 177.023C229.634 174.914 229.814 173.069 229.583 171.751C229.474 171.132 229.28 170.657 228.998 170.367C228.767 170.13 228.444 170.01 228.022 170.034C227.46 170.067 226.745 170.33 225.87 170.867C223.482 172.331 221.38 177.699 220.654 179.735C221.109 179.903 221.694 180.168 222.431 180.585C226.007 182.598 221.971 187.252 221.959 187.266C221.652 187.625 221.111 187.667 220.752 187.36C220.393 187.052 220.351 186.512 220.658 186.152C220.666 186.144 223.333 183.06 221.594 182.081C219.979 181.171 219.942 181.046 219.948 181.032C219.755 181.127 219.526 181.152 219.305 181.08C218.855 180.937 218.607 180.454 218.752 180.004C218.76 179.98 221.472 171.555 224.979 169.406C226.105 168.717 227.086 168.374 227.923 168.325H227.926C228.879 168.27 229.643 168.575 230.226 169.175C230.76 169.723 231.107 170.502 231.274 171.457C231.546 173.011 231.354 175.112 230.732 177.459Z" fill="#1B143E"/>
<path fill-rule="evenodd" clip-rule="evenodd" d="M144.147 120.069C133.735 122.312 132.172 134.914 132.172 134.914L138.826 135.125C138.826 135.125 132.086 134.266 134.911 147.684C137.735 161.105 142.644 180.916 142.644 180.916C142.644 180.916 142.493 163.868 147.101 155.974C151.71 148.078 156.083 145.218 155.015 138.313C153.951 131.404 155.532 130.341 155.532 130.341C155.532 130.341 163.666 137.563 175.03 139.66C186.397 141.753 184.04 141.924 184.04 141.924L178.975 130.688L195.937 142.193L193.37 134.486C193.37 134.486 204.251 138.027 208.7 141.768C213.149 145.504 211.117 148.925 215.99 155.8C220.862 162.675 219.055 178.728 219.055 178.728C219.055 178.728 229.464 164.76 229.071 150.37C228.681 135.979 225.135 125.697 225.135 125.697L231.06 122.476C231.06 122.476 226.632 109.689 207.957 104.81C204.517 103.91 199.821 103.489 198.325 103.343C198.029 102.978 206.486 95.4478 207.199 94.7004C207.199 94.7004 179.832 90.5894 167.38 98.5863C154.929 106.582 152.561 115.44 152.561 115.44L154.941 102.366C150.619 106.6 147.858 111.354 147.169 116.801C144.65 114.382 139.569 114.118 135.536 116.443C140.002 116.746 144.855 119.953 144.147 120.069Z" fill="#1B143E"/>
<path fill-rule="evenodd" clip-rule="evenodd" d="M140.692 187.082C137.714 186.368 132.304 179.517 132.361 173.595C132.419 167.673 134.894 168.04 136.735 168.73C138.574 169.422 141.549 174.542 142.616 177.142C143.684 179.742 143.589 179.961 142.569 180.329C141.55 180.697 139.982 181.246 139.795 182.521C139.608 183.797 140.692 187.082 140.692 187.082Z" fill="#BC5249"/>
<path fill-rule="evenodd" clip-rule="evenodd" d="M133.887 176.225C133.968 176.692 133.657 177.137 133.19 177.217C132.723 177.299 132.279 176.986 132.198 176.52C131.78 174.13 131.771 172.021 132.178 170.493C132.428 169.555 132.841 168.809 133.417 168.309C134.051 167.761 134.841 167.521 135.786 167.66L135.818 167.665C136.64 167.793 137.579 168.22 138.627 168.994C141.934 171.437 143.909 180.061 143.915 180.086C144.021 180.547 143.733 181.006 143.271 181.112C143.071 181.158 142.87 181.129 142.698 181.043C142.691 181.057 142.566 181.155 140.904 181.911C139.091 182.736 141.479 186.042 141.486 186.051C141.76 186.436 141.67 186.97 141.284 187.244C140.899 187.519 140.365 187.428 140.091 187.044C140.08 187.03 136.46 182.048 140.199 180.35C140.974 179.997 141.577 179.78 142.041 179.649C141.489 177.551 139.86 172.033 137.608 170.369C136.794 169.769 136.114 169.447 135.563 169.36L135.538 169.356C135.12 169.296 134.788 169.387 134.538 169.603C134.231 169.868 133.995 170.324 133.835 170.93C133.491 172.219 133.512 174.073 133.887 176.225Z" fill="#1B143E"/>
<path fill-rule="evenodd" clip-rule="evenodd" d="M158.346 106.127C156.416 108.261 155.094 110.22 154.207 111.785L153.768 113.1C153.768 113.1 156.743 114.757 161.809 116.674C162.919 117.094 164.132 117.527 165.436 117.957C172.633 120.334 182.618 122.641 193.827 122.395C194.401 122.381 194.976 122.362 195.555 122.336C197.98 122.227 200.315 122.06 202.554 121.852C213.709 120.812 222.478 118.709 227.892 117.118C225.843 114.485 222.623 111.31 217.737 108.635C210.913 111.353 199.127 114.923 186.169 113.858C171.05 112.616 161.984 108.264 158.346 106.127Z" fill="#34365C"/>
<path fill-rule="evenodd" clip-rule="evenodd" d="M195.494 176.274C195.2 173.087 199.377 170.092 204.815 169.591C210.253 169.091 214.907 171.275 215.2 174.462C215.493 177.65 211.317 180.645 205.878 181.145C200.441 181.645 195.788 179.462 195.494 176.274Z" fill="#BC5249"/>
<path fill-rule="evenodd" clip-rule="evenodd" d="M148.762 173.563C149.084 170.378 153.765 168.234 159.195 168.782C164.629 169.33 168.779 172.36 168.458 175.546C168.137 178.733 163.465 180.873 158.032 180.326C152.595 179.78 148.453 176.749 148.762 173.563Z" fill="#BC5249"/>
<path fill-rule="evenodd" clip-rule="evenodd" d="M193.816 145.734C192.147 148.399 192.343 150.669 196.897 150.89C201.453 151.114 203.021 149.469 202.381 148.316C200.28 144.529 194.961 143.905 193.816 145.734Z" fill="#1B143E"/>
<path fill-rule="evenodd" clip-rule="evenodd" d="M168.756 146.663C170.471 149.288 170.319 151.563 165.767 151.888C161.216 152.212 159.62 150.602 160.239 149.439C162.273 145.602 167.578 144.858 168.756 146.663Z" fill="#1B143E"/>
<path fill-rule="evenodd" clip-rule="evenodd" d="M144.782 154.935C144.829 156.025 144.7 157.403 144.55 158.984C143.973 165.095 143.065 174.719 153.148 176.305C155.209 176.628 157.166 176.854 159.013 176.98C163.843 177.31 167.665 176.925 170.336 175.808C172.677 174.828 174.081 173.251 174.424 171.064C174.453 170.88 174.476 170.664 174.494 170.416C174.868 164.939 174.74 158.573 174.657 155.784C168.511 154.99 144.656 152.09 144.782 154.935ZM141.144 158.663C141.281 157.214 141.4 155.952 141.362 155.083C141.037 147.704 176.301 152.546 176.54 152.579C177.35 152.686 177.989 153.36 178.026 154.203C178.027 154.229 178.418 163.255 177.913 170.644C177.893 170.939 177.857 171.253 177.805 171.588C177.258 175.056 175.148 177.51 171.652 178.973C168.486 180.298 164.145 180.768 158.785 180.401C156.894 180.271 154.837 180.032 152.626 179.685C139.357 177.598 140.449 166.017 141.144 158.663Z" fill="#34365C"/>
<path fill-rule="evenodd" clip-rule="evenodd" d="M223.965 155.085C223.928 155.952 224.046 157.214 224.183 158.662C224.878 166.015 225.971 177.597 212.702 179.685C210.494 180.032 208.44 180.271 206.549 180.401C201.187 180.767 196.845 180.298 193.677 178.974C190.179 177.51 188.067 175.056 187.523 171.587C187.471 171.253 187.434 170.939 187.413 170.644C186.907 163.254 187.3 154.23 187.301 154.204C187.337 153.36 187.978 152.687 188.786 152.581C189.026 152.547 224.289 147.702 223.965 155.085ZM220.776 158.983C220.628 157.403 220.497 156.026 220.545 154.936C220.67 152.089 196.816 154.991 190.67 155.785C190.586 158.575 190.459 164.938 190.834 170.416C190.85 170.664 190.873 170.88 190.902 171.064C191.246 173.251 192.649 174.828 194.991 175.808C197.665 176.926 201.488 177.311 206.321 176.98C208.165 176.854 210.121 176.628 212.178 176.305C222.261 174.719 221.353 165.094 220.776 158.983Z" fill="#34365C"/>
<path fill-rule="evenodd" clip-rule="evenodd" d="M177.841 163.176C177.23 163.898 176.149 163.988 175.427 163.378C174.705 162.767 174.615 161.685 175.226 160.963C176.356 159.633 177.641 158.735 178.976 158.188C180.713 157.476 182.511 157.367 184.147 157.672C185.79 157.979 187.284 158.703 188.403 159.654C189.241 160.365 189.889 161.217 190.268 162.138C190.626 163.013 190.21 164.012 189.336 164.372C188.462 164.731 187.462 164.313 187.103 163.439C186.937 163.035 186.619 162.632 186.19 162.269C185.498 161.682 184.565 161.232 183.53 161.04C182.49 160.845 181.358 160.911 180.276 161.354C179.427 161.7 178.593 162.289 177.841 163.176Z" fill="#34365C"/>
<path fill-rule="evenodd" clip-rule="evenodd" d="M221.719 156.78C220.786 156.625 220.156 155.741 220.311 154.808C220.466 153.875 221.349 153.245 222.283 153.4C223.606 153.621 224.877 154.483 226.005 155.581C227.486 157.021 228.776 158.907 229.499 160.059C230.002 160.858 229.762 161.915 228.962 162.419C228.163 162.922 227.105 162.683 226.601 161.883C225.969 160.874 224.852 159.235 223.618 158.035C222.939 157.375 222.263 156.87 221.719 156.78Z" fill="#34365C"/>
<path fill-rule="evenodd" clip-rule="evenodd" d="M142.989 153.401C143.923 153.245 144.806 153.875 144.961 154.809C145.117 155.742 144.486 156.625 143.553 156.781C143.009 156.871 142.333 157.376 141.655 158.036C140.42 159.236 139.304 160.876 138.671 161.884C138.167 162.683 137.109 162.924 136.31 162.42C135.511 161.916 135.27 160.86 135.773 160.06C136.497 158.909 137.785 157.023 139.267 155.583C140.395 154.484 141.666 153.622 142.989 153.401Z" fill="#34365C"/>
<path fill-rule="evenodd" clip-rule="evenodd" d="M177.342 196.598C181.079 196.475 187.943 196.281 187.943 196.281C187.943 196.281 188.395 200.431 182.169 200.247C179.766 200.176 178.418 200.016 177.343 199.14C176.26 198.256 175.466 196.658 177.342 196.598Z" fill="#BC5249"/>
<path fill-rule="evenodd" clip-rule="evenodd" d="M194.988 162.788C194.992 163.26 194.612 163.645 194.139 163.65C193.668 163.653 193.281 163.273 193.278 162.801C193.263 161.058 193.702 159.46 194.426 158.288C195.222 156.996 196.371 156.19 197.681 156.174H197.688C197.694 156.166 197.764 156.174 197.778 156.175C199.049 156.199 200.176 156.971 200.977 158.213C201.72 159.363 202.188 160.946 202.208 162.686V162.704C202.213 163.176 201.835 163.563 201.363 163.569C200.891 163.574 200.504 163.195 200.498 162.724V162.704C200.482 161.298 200.116 160.038 199.536 159.138C199.048 158.381 198.419 157.908 197.762 157.885L197.69 157.888V157.884C197.012 157.897 196.37 158.394 195.881 159.186C195.319 160.1 194.976 161.374 194.988 162.788Z" fill="#1B143E"/>
<path fill-rule="evenodd" clip-rule="evenodd" d="M189.44 183.601C189.397 183.13 189.743 182.715 190.214 182.672C190.684 182.63 191.1 182.976 191.143 183.447C191.335 185.562 190.406 187.564 188.751 189.088C187.157 190.557 184.875 191.586 182.284 191.825L182.225 191.83C179.656 192.056 177.249 191.462 175.431 190.317C173.538 189.123 172.27 187.332 172.074 185.224L172.072 185.209C172.03 184.739 172.376 184.323 172.847 184.28C173.317 184.237 173.734 184.584 173.776 185.055L173.777 185.07C173.919 186.614 174.891 187.953 176.344 188.868C177.861 189.825 179.893 190.319 182.081 190.126L182.129 190.122C184.331 189.919 186.257 189.056 187.592 187.828C188.863 186.655 189.58 185.154 189.44 183.601Z" fill="#1B143E"/>
<path fill-rule="evenodd" clip-rule="evenodd" d="M161.741 164.188C161.744 164.66 161.364 165.046 160.893 165.049C160.42 165.053 160.035 164.673 160.032 164.201C160.016 162.458 160.455 160.86 161.18 159.687C161.975 158.396 163.126 157.59 164.437 157.576H164.444V157.572L164.535 157.577C165.804 157.602 166.928 158.372 167.729 159.611C168.47 160.759 168.938 162.337 168.959 164.074V164.111C168.961 164.583 168.58 164.968 168.108 164.969C167.635 164.971 167.251 164.589 167.25 164.117L167.249 164.094C167.233 162.689 166.866 161.432 166.286 160.536C165.799 159.782 165.173 159.309 164.519 159.287L164.443 159.289V159.286C163.766 159.297 163.124 159.792 162.634 160.585C162.071 161.5 161.728 162.774 161.741 164.188Z" fill="#1B143E"/>
<path fill-rule="evenodd" clip-rule="evenodd" d="M177.139 174.343C180.878 174.222 187.74 174.028 187.74 174.028C187.74 174.028 188.193 178.178 181.968 177.993C179.566 177.922 178.218 177.763 177.143 176.887C176.058 176.005 175.263 174.406 177.139 174.343Z" fill="#1B143E"/>
<path fill-rule="evenodd" clip-rule="evenodd" d="M180.634 166.818C181.381 166.818 181.664 167.968 181.27 169.385C180.874 170.802 179.947 171.952 179.2 171.952C178.454 171.952 178.169 170.802 178.565 169.385C178.961 167.968 179.888 166.818 180.634 166.818Z" fill="white"/>
<path fill-rule="evenodd" clip-rule="evenodd" d="M85.9039 160.49C88.6627 171.528 86.5541 169.419 97.5916 172.178C86.5541 174.938 88.6634 172.829 85.9039 183.866C83.145 172.829 85.2528 174.938 74.2153 172.178C85.2528 169.418 83.1443 171.528 85.9039 160.49Z" fill="white"/>
<path fill-rule="evenodd" clip-rule="evenodd" d="M282.698 164.835C285.457 175.873 283.348 173.764 294.385 176.524C283.348 179.283 285.458 177.174 282.698 188.211C279.938 177.175 282.047 179.283 271.01 176.524C282.047 173.764 279.938 175.873 282.698 164.835Z" fill="white"/>
<path fill-rule="evenodd" clip-rule="evenodd" d="M247.07 109.585C249.04 117.463 247.535 115.958 255.413 117.928C247.535 119.897 249.04 118.392 247.07 126.27C245.101 118.392 246.607 119.897 238.729 117.928C246.607 115.958 245.101 117.463 247.07 109.585Z" fill="white"/>
<path fill-rule="evenodd" clip-rule="evenodd" d="M264.764 161.422C266.735 169.3 265.229 167.794 273.107 169.764C265.229 171.734 266.735 170.229 264.764 178.107C262.794 170.229 264.299 171.734 256.421 169.764C264.299 167.794 262.794 169.3 264.764 161.422Z" fill="white"/>
<path fill-rule="evenodd" clip-rule="evenodd" d="M256.073 200.222C258.042 208.1 256.537 206.594 264.415 208.565C256.537 210.534 258.042 209.029 256.073 216.907C254.103 209.029 255.608 210.534 247.73 208.565C255.608 206.595 254.103 208.1 256.073 200.222Z" fill="white"/>
<path fill-rule="evenodd" clip-rule="evenodd" d="M107.7 129.451C109.671 137.329 108.165 135.823 116.043 137.794C108.165 139.763 109.671 138.258 107.7 146.136C105.732 138.258 107.237 139.763 99.3589 137.794C107.237 135.823 105.732 137.329 107.7 129.451Z" fill="white"/>
<path fill-rule="evenodd" clip-rule="evenodd" d="M108.941 200.222C110.911 208.1 109.406 206.594 117.284 208.565C109.406 210.534 110.911 209.029 108.941 216.907C106.972 209.029 108.478 210.534 100.6 208.565C108.476 206.595 106.972 208.1 108.941 200.222Z" fill="white"/>
</g>
<defs>
<clipPath id="clip0_54_361">
<rect width="365" height="362.949" rx="27.5198" fill="white"/>
</clipPath>
</defs>
</svg>
