<svg width="365" height="363" viewBox="0 0 365 363" fill="none" xmlns="http://www.w3.org/2000/svg">
<g clip-path="url(#clip0_54_439)">
<rect width="365" height="362.949" rx="27.5198" fill="#53D1FF"/>
<rect x="15.9328" y="11.5872" width="144.071" height="57.0714" rx="28.5357" stroke="#0E35AF" stroke-width="2.89683"/>
<path d="M46.7368 29.7699L51.1502 43.833L58.107 30.5628H60.8598L50.5967 50.3859L46.1832 36.2928L38.8973 50.3559L32.2547 30.5628H34.8878L39.391 43.9527L46.7368 29.7699ZM71.9158 44.2669H62.4157C62.5454 45.4737 62.9294 46.3963 63.5677 47.0346C64.216 47.673 65.0588 47.9921 66.0961 47.9921C67.1832 47.9921 68.3352 47.3588 69.552 46.0921L71.0182 47.5732C69.7415 49.1691 68.1008 49.967 66.0961 49.967C64.3107 49.967 62.8446 49.3985 61.6976 48.2614C60.5606 47.1244 59.9921 45.6682 59.9921 43.8929C59.9921 42.0776 60.6204 40.5317 61.8771 39.255C63.1338 37.9784 64.6598 37.34 66.4551 37.34C67.9811 37.34 69.2827 37.9036 70.3599 39.0306C71.4371 40.1577 71.9757 41.5241 71.9757 43.1299C71.9757 43.5288 71.9557 43.9078 71.9158 44.2669ZM62.5952 42.3669H69.6118C69.2229 40.402 68.1108 39.4196 66.2756 39.4196C65.358 39.4196 64.5651 39.6789 63.8968 40.1976C63.2385 40.7162 62.8047 41.4393 62.5952 42.3669ZM84.438 29.9793H88.4774L86.1286 46.137H92.6216L92.1279 49.6229H81.5506L84.438 29.9793ZM99.1445 34.1833C98.4862 34.1833 97.9277 33.9439 97.4689 33.4652C97.0101 32.9865 96.7807 32.4179 96.7807 31.7597C96.7807 31.1213 97.0101 30.5778 97.4689 30.1289C97.9376 29.6801 98.4962 29.4557 99.1445 29.4557C99.7928 29.4557 100.346 29.6801 100.805 30.1289C101.264 30.5778 101.493 31.1213 101.493 31.7597C101.493 32.4479 101.269 33.0264 100.82 33.4951C100.381 33.9539 99.8426 34.1833 99.2043 34.1833H99.1445ZM96.5712 36.966H100.237L98.3366 49.6229H94.7011L96.5712 36.966ZM109.497 38.5369L107.627 40.4369C106.919 39.7787 106.296 39.4495 105.757 39.4495C105.488 39.4495 105.219 39.5493 104.949 39.7487C104.69 39.9482 104.56 40.1976 104.56 40.4968C104.56 40.9057 104.695 41.2548 104.964 41.544C105.243 41.8233 105.792 42.1674 106.61 42.5763C107.438 42.9753 108.046 43.4291 108.435 43.9378C108.834 44.4365 109.034 45.0748 109.034 45.8527C109.034 46.9499 108.585 47.9024 107.687 48.7103C106.789 49.5181 105.727 49.9221 104.5 49.9221C102.775 49.9221 101.409 49.0743 100.401 47.3787L102.451 45.7929C103.049 46.6905 103.703 47.1394 104.411 47.1394C104.79 47.1394 105.114 47.0346 105.383 46.8252C105.652 46.6058 105.787 46.3415 105.787 46.0323C105.787 45.7031 105.642 45.4089 105.353 45.1496C105.064 44.8903 104.525 44.5512 103.737 44.1323C102.182 43.3044 101.404 42.1624 101.404 40.7062C101.404 39.5493 101.822 38.5918 102.66 37.8338C103.498 37.0757 104.55 36.6967 105.817 36.6967C107.173 36.6967 108.4 37.3101 109.497 38.5369ZM114.075 32.4329H117.726L117.082 36.966H118.758L118.234 40.6165H116.589L115.212 49.6229H111.562L112.849 40.6165H111.472L111.996 36.966H113.402L114.075 32.4329ZM132.746 44.1622H124.039C124.269 45.9874 125.176 46.9 126.762 46.9C127.849 46.9 128.782 46.3863 129.56 45.359L132.163 46.7055C130.467 48.81 128.508 49.8622 126.283 49.8622C124.478 49.8622 122.997 49.2887 121.84 48.1417C120.693 46.9948 120.12 45.5286 120.12 43.7433C120.12 41.8083 120.773 40.1527 122.079 38.7763C123.396 37.3899 124.967 36.6967 126.792 36.6967C128.627 36.6967 130.083 37.3151 131.161 38.5519C132.248 39.7886 132.776 41.6587 132.746 44.1622ZM124.219 41.6188H129.395C129.226 40.2524 128.403 39.5692 126.927 39.5692C125.66 39.5692 124.757 40.2524 124.219 41.6188ZM139.554 36.966L139.314 38.3125C140.072 37.744 140.686 37.3351 141.154 37.0857C141.633 36.8264 142.162 36.6967 142.74 36.6967C143.748 36.6967 144.555 37.0807 145.164 37.8487C145.782 38.6067 146.091 39.6191 146.091 40.8858C146.091 41.2947 146.067 41.6338 146.017 41.9031L144.865 49.6229H141.214L142.321 42.307C142.361 42.0577 142.381 41.7086 142.381 41.2598C142.381 40.1128 141.922 39.5393 141.005 39.5393C140.446 39.5393 139.958 39.8136 139.539 40.3621C139.13 40.9007 138.86 41.6089 138.731 42.4866L137.654 49.6229H133.958L135.858 36.966H139.554Z" fill="#0058C6"/>
<path opacity="0.35" d="M-27.6896 276.892L-2.81923 308.829C5.71875 319.793 18.8383 326.204 32.735 326.204H341.353C352.943 326.204 364.087 321.739 372.47 313.737L377.783 308.665C407.323 280.464 413.093 235.435 391.618 200.697C386.403 192.263 384.117 182.344 385.111 172.477C388.828 135.635 364.341 101.857 328.17 93.9302L259.27 78.8314C206.193 67.2003 150.686 79.0645 106.964 111.325C98.9804 117.216 93.299 121.158 92.421 121.133C90.6511 121.085 64.0864 125.295 38.6111 129.41C11.1433 133.847 -9.19942 157.325 -9.67971 185.144C-9.88624 197.099 -14.8347 208.48 -23.4357 216.785C-40.0103 232.788 -41.8447 258.715 -27.6896 276.892Z" fill="#A2D4F9"/>
<path d="M401.062 148.909C399.545 145.223 396.396 142.381 392.508 141.297C392.152 132.454 384.874 125.393 375.943 125.393C368.087 125.393 361.512 130.857 359.8 138.192C359.307 138.135 358.806 138.103 358.298 138.103C353.081 138.103 348.58 141.164 346.491 145.589C343.657 143.329 340.07 141.974 336.163 141.974C330.605 141.974 325.689 144.712 322.68 148.909H401.062Z" fill="white"/>
<path d="M34.5743 191.47C33.5556 188.995 31.4413 187.086 28.8298 186.358C28.5911 180.42 23.7035 175.678 17.7063 175.678C12.4309 175.678 8.01594 179.348 6.86564 184.272C6.53448 184.234 6.19842 184.213 5.85746 184.213C2.35406 184.213 -0.667662 186.269 -2.0707 189.24C-3.97363 187.722 -6.38345 186.813 -9.0061 186.813C-12.7384 186.813 -16.0395 188.652 -18.0601 191.47H34.5743V191.47Z" fill="white"/>
<path d="M101.131 113.415C101.87 111.621 103.403 110.237 105.296 109.709C105.469 105.403 109.013 101.965 113.362 101.965C117.187 101.965 120.388 104.625 121.222 108.196C121.462 108.169 121.706 108.153 121.953 108.153C124.493 108.153 126.684 109.644 127.702 111.798C129.082 110.697 130.828 110.039 132.731 110.039C135.437 110.039 137.83 111.372 139.295 113.415H101.131Z" fill="white"/>
<path d="M98.7208 140.597V133.705C98.7208 132.29 97.574 131.144 96.1597 131.144H89.5982C88.6796 126.106 86.6206 121.472 83.6941 117.507L88.5165 112.685C89.517 111.684 89.517 110.063 88.5165 109.063L83.643 104.189C82.6425 103.189 81.021 103.189 80.0206 104.189L74.9405 109.269C70.9841 106.72 66.4445 104.986 61.5612 104.317V96.5458C61.5612 95.1308 60.4144 93.9847 59.0001 93.9847H52.1081C50.6939 93.9847 49.5471 95.1315 49.5471 96.5458V104.84C45.0677 105.862 40.9307 107.801 37.344 110.435L31.0884 104.186C30.0879 103.187 28.4672 103.187 27.4667 104.187L22.5917 109.062C21.5913 110.062 21.5913 111.684 22.5917 112.684L29.105 119.197C26.8051 122.767 25.1745 126.81 24.3763 131.144H14.9492C13.5343 131.144 12.3882 132.29 12.3882 133.705V140.597C12.3882 142.012 13.535 143.158 14.9492 143.158H24.3763C25.1745 147.491 26.8051 151.525 29.105 155.095L22.5917 161.608C21.5913 162.608 21.5913 164.23 22.5917 165.23L27.4667 170.105C28.4665 171.105 30.0872 171.106 31.0884 170.106L37.344 163.857C40.9314 166.5 45.0677 168.44 49.5471 169.461V177.755C49.5471 179.17 50.6939 180.316 52.1081 180.316H59.0001C60.4151 180.316 61.5612 179.169 61.5612 177.755V169.984C66.4445 169.314 70.9841 167.572 74.9405 165.023L80.0206 170.103C81.021 171.104 82.6425 171.104 83.643 170.103L88.5165 165.23C89.517 164.229 89.517 162.608 88.5165 161.607L83.6941 156.785C86.6206 152.82 88.6719 148.186 89.5982 143.157H96.1597C97.574 143.158 98.7208 142.011 98.7208 140.597ZM71.9307 146.698C70.2609 149.31 67.9162 151.458 65.1528 152.886C63.6986 153.653 62.1276 154.209 60.4774 154.536C59.3509 154.765 58.1789 154.883 56.9866 154.883C55.0024 154.883 53.0904 154.556 51.3086 153.947C49.9336 153.489 48.6299 152.86 47.432 152.087C44.8192 150.424 42.6712 148.086 41.2367 145.315C40.6472 144.189 40.1823 142.99 39.8483 141.733C39.4556 140.273 39.2455 138.734 39.2455 137.149C39.2455 135.564 39.4549 134.025 39.8483 132.564C40.1823 131.307 40.6472 130.108 41.243 128.975C42.6768 126.212 44.8185 123.874 47.4313 122.204C48.6299 121.431 49.9329 120.802 51.3079 120.344C53.089 119.735 55.001 119.408 56.9859 119.408C58.1775 119.408 59.3502 119.525 60.4767 119.755C62.1269 120.082 63.6986 120.639 65.1521 121.405C67.9155 122.833 70.2532 124.98 71.93 127.593C72.8989 129.106 73.646 130.782 74.1171 132.564C74.5099 134.025 74.7192 135.564 74.7192 137.149C74.7192 138.734 74.5099 140.273 74.1171 141.733C73.6467 143.515 72.9003 145.185 71.9307 146.698Z" fill="#EA5854"/>
<path d="M96.1599 131.144H89.5991C88.6805 126.106 86.6215 121.472 83.695 117.507L88.5174 112.685C89.5179 111.685 89.5179 110.063 88.5174 109.063L83.6439 104.189C82.6434 103.189 81.0219 103.189 80.0214 104.189L74.9414 109.269C70.985 106.72 66.4454 104.987 61.5621 104.317V96.5459C61.5621 95.1309 60.4153 93.9841 59.001 93.9841H52.109C50.6948 93.9841 49.548 95.1309 49.548 96.5459V104.84C45.0686 105.862 40.9316 107.801 37.3449 110.436L31.0893 104.186C30.0888 103.187 28.4681 103.187 27.4676 104.187L22.5926 109.062C21.5922 110.062 21.5922 111.684 22.5926 112.684L29.1059 119.198C26.806 122.767 25.1754 126.81 24.3772 131.144H23.5014C28.3168 137.839 34.7369 143.3 42.21 146.951C41.86 146.424 41.5302 145.882 41.2376 145.316C40.6481 144.19 40.1832 142.992 39.8492 141.734C39.4564 140.274 39.2464 138.735 39.2464 137.15C39.2464 135.566 39.4557 134.026 39.8492 132.566C40.1832 131.308 40.6481 130.11 41.2439 128.977C42.6777 126.213 44.8194 123.876 47.4322 122.205C48.6308 121.432 49.9338 120.804 51.3088 120.346C53.0899 119.737 55.0019 119.409 56.9868 119.409C58.1784 119.409 59.3511 119.527 60.4776 119.756C62.1278 120.084 63.6995 120.641 65.153 121.406C67.9164 122.834 70.2541 124.982 71.9308 127.595C72.8998 129.108 73.6468 130.784 74.118 132.566C74.5108 134.026 74.7201 135.565 74.7201 137.15C74.7201 138.735 74.5108 140.274 74.118 141.734C73.6461 143.516 72.8998 145.185 71.9308 146.698C70.5936 148.79 68.8195 150.576 66.7486 151.942C74.8693 151.525 82.4705 149.161 89.116 145.326C89.298 144.611 89.4633 143.891 89.5984 143.159H92.5508C94.7422 141.645 96.8019 139.958 98.721 138.123V133.705C98.721 132.291 97.5742 131.144 96.1599 131.144Z" fill="#F97068"/>
<path d="M209.124 302.738H152.804V339.504H209.124V302.738Z" fill="#0058C6"/>
<path d="M209.124 302.738H152.804V319.055H209.124V302.738Z" fill="#0E35AF"/>
<path d="M315.773 290.144H46.1548V150.642C46.1548 143.191 52.1947 137.151 59.6461 137.151H302.282C309.733 137.151 315.773 143.191 315.773 150.642V290.144Z" fill="#0058C6"/>
<path d="M306.374 153.062H55.5547V282.982H306.374V153.062Z" fill="#7DB6F4"/>
<path d="M315.773 282.983H46.1548V296.601C46.1548 304.052 52.1947 310.092 59.6461 310.092H302.282C309.733 310.092 315.773 304.052 315.773 296.601V282.983Z" fill="#57AFF7"/>
<path d="M180.965 302.738C183.782 302.738 186.066 300.454 186.066 297.637C186.066 294.819 183.782 292.535 180.965 292.535C178.147 292.535 175.863 294.819 175.863 297.637C175.863 300.454 178.147 302.738 180.965 302.738Z" fill="#0058C6"/>
<path d="M282.543 346.153H79.3852C77.5138 346.153 75.9966 344.636 75.9966 342.764C75.9966 337.291 80.4339 332.854 85.9068 332.854H276.02C281.494 332.854 285.931 337.291 285.931 342.764C285.931 344.636 284.414 346.153 282.543 346.153Z" fill="#57AFF7"/>
<path d="M293.847 186.494H241.313C240.466 186.494 239.779 185.807 239.779 184.959V174.121C239.779 173.274 240.466 172.586 241.313 172.586H293.847C294.695 172.586 295.382 173.273 295.382 174.121V184.959C295.382 185.806 294.694 186.494 293.847 186.494Z" fill="#AFD9FF"/>
<path d="M247.612 181.841L245.483 182.815L245.752 180.49L244.168 178.767L246.463 178.304L247.612 176.265L248.761 178.304L251.056 178.767L249.471 180.49L249.74 182.815L247.612 181.841Z" fill="#FF777A"/>
<path d="M257.596 181.841L255.468 182.815L255.737 180.49L254.153 178.767L256.447 178.304L257.596 176.265L258.746 178.304L261.04 178.767L259.456 180.49L259.724 182.815L257.596 181.841Z" fill="#FF777A"/>
<path d="M267.58 181.841L265.452 182.815L265.72 180.49L264.136 178.767L266.431 178.304L267.58 176.265L268.729 178.304L271.023 178.767L269.44 180.49L269.708 182.815L267.58 181.841Z" fill="#FF777A"/>
<path d="M277.564 181.841L275.436 182.815L275.704 180.49L274.12 178.767L276.414 178.304L277.564 176.265L278.713 178.304L281.007 178.767L279.424 180.49L279.692 182.815L277.564 181.841Z" fill="#FF777A"/>
<path d="M287.547 181.841L285.419 182.815L285.688 180.49L284.104 178.767L286.398 178.304L287.547 176.265L288.696 178.304L290.991 178.767L289.407 180.49L289.676 182.815L287.547 181.841Z" fill="#F7F7F7"/>
<path d="M125.626 183.831H69.6167C67.9217 183.831 66.5474 182.456 66.5474 180.761V167.571C66.5474 165.876 67.9217 164.502 69.6167 164.502H125.626C127.321 164.502 128.695 165.876 128.695 167.571V180.761C128.695 182.456 127.321 183.831 125.626 183.831Z" fill="#AFD9FF"/>
<path d="M81.8888 176.255C83.0395 173.492 81.7328 170.319 78.9702 169.169C76.2075 168.018 73.0351 169.325 71.8844 172.087C70.7336 174.85 72.0404 178.022 74.803 179.173C77.5657 180.324 80.7381 179.017 81.8888 176.255Z" fill="#FF777A"/>
<path d="M73.252 178.174C74.2139 179.048 75.4874 179.585 76.8898 179.585C78.2921 179.585 79.5656 179.048 80.5276 178.174C80.4149 176.763 79.5096 175.58 78.2501 175.073C78.7899 174.662 79.1435 174.018 79.1435 173.287C79.1435 172.043 78.1346 171.034 76.8898 171.034C75.645 171.034 74.6361 172.043 74.6361 173.287C74.6361 174.018 74.9896 174.662 75.5294 175.073C74.2699 175.579 73.3647 176.763 73.252 178.174Z" fill="#F7F7F7"/>
<path d="M115.122 171.338H86.2402V172.372H115.122V171.338Z" fill="#DCF1FF"/>
<path d="M123.772 173.65H86.2402V174.684H123.772V173.65Z" fill="#DCF1FF"/>
<path d="M123.772 175.961H86.2402V176.995H123.772V175.961Z" fill="#DCF1FF"/>
<path d="M100.456 200.334H68.082C67.2349 200.334 66.5474 199.648 66.5474 198.8V193.004C66.5474 192.156 67.2342 191.469 68.082 191.469H100.456C101.303 191.469 101.991 192.156 101.991 193.004V198.8C101.991 199.648 101.303 200.334 100.456 200.334Z" fill="#AFD9FF"/>
<path d="M100.456 212.86H68.082C67.2349 212.86 66.5474 212.174 66.5474 211.326V205.529C66.5474 204.682 67.2342 203.995 68.082 203.995H100.456C101.303 203.995 101.991 204.682 101.991 205.529V211.326C101.991 212.174 101.303 212.86 100.456 212.86Z" fill="#AFD9FF"/>
<path d="M100.456 225.386H68.082C67.2349 225.386 66.5474 224.699 66.5474 223.852V218.055C66.5474 217.207 67.2342 216.521 68.082 216.521H100.456C101.303 216.521 101.991 217.207 101.991 218.055V223.852C101.991 224.699 101.303 225.386 100.456 225.386Z" fill="#DCF1FF"/>
<path d="M141.288 212.86H108.914C108.067 212.86 107.379 212.174 107.379 211.326V205.529C107.379 204.682 108.066 203.995 108.914 203.995H141.288C142.136 203.995 142.823 204.682 142.823 205.529V211.326C142.822 212.174 142.136 212.86 141.288 212.86Z" fill="#FF777A"/>
<path d="M141.288 225.386H108.914C108.067 225.386 107.379 224.699 107.379 223.852V218.055C107.379 217.207 108.066 216.521 108.914 216.521H141.288C142.136 216.521 142.823 217.207 142.823 218.055V223.852C142.822 224.699 142.136 225.386 141.288 225.386Z" fill="#AFD9FF"/>
<path d="M293.846 217.293H261.472C260.624 217.293 259.938 216.606 259.938 215.758V209.962C259.938 209.115 260.624 208.427 261.472 208.427H293.846C294.694 208.427 295.381 209.114 295.381 209.962V215.758C295.381 216.606 294.694 217.293 293.846 217.293Z" fill="#FF777A"/>
<path d="M293.846 229.819H261.472C260.624 229.819 259.938 229.132 259.938 228.284V222.488C259.938 221.641 260.624 220.953 261.472 220.953H293.846C294.694 220.953 295.381 221.64 295.381 222.488V228.284C295.381 229.132 294.694 229.819 293.846 229.819Z" fill="#AFD9FF"/>
<path d="M293.846 242.345H261.472C260.624 242.345 259.938 241.658 259.938 240.81V235.014C259.938 234.167 260.624 233.48 261.472 233.48H293.846C294.694 233.48 295.381 234.166 295.381 235.014V240.811C295.381 241.658 294.694 242.345 293.846 242.345Z" fill="#DCF1FF"/>
<path d="M138.45 161.766C136.851 202.183 118.056 206.275 138.45 235.43C158.845 264.586 229.09 254.256 230.284 232.183C231.478 210.11 216.645 196.812 226.363 169.19C236.081 141.569 138.45 161.766 138.45 161.766Z" fill="#252384"/>
<path d="M143.683 172.524C141.314 190.894 135.011 209.01 138.248 218.968C138.248 218.968 138.602 207.765 140.7 205.066C140.7 205.066 138.606 220.79 145.02 233.544C151.436 246.299 220.674 243.869 220.674 243.869C220.674 243.869 222.091 229.9 220.674 219.778C219.257 209.655 216.558 205.722 215.782 200.299C215.782 200.299 220.05 209.115 221.712 212.489C223.373 215.863 223.597 220.81 223.597 220.81C223.597 220.81 224.048 211.814 220.539 204.932C217.03 198.048 219.134 179.068 220.174 171.687C221.214 164.306 171.335 155.553 165.906 158.513C160.479 161.471 143.683 172.524 143.683 172.524Z" fill="#0C0835"/>
<path d="M159.766 222.419C135.699 230.571 118.437 233.64 113.45 249.369C108.463 265.098 101.471 282.982 101.471 282.982H264.214C264.214 282.982 256.158 245.916 247.335 239.778C238.511 233.64 203.986 223.355 193.436 221.592C182.886 219.83 159.766 222.419 159.766 222.419Z" fill="white"/>
<path d="M226.104 258.047C226.104 258.047 226.718 272.804 224.562 282.983H230.078L226.104 258.047Z" fill="#DCEDFF"/>
<path d="M140.472 263.862C140.472 263.862 140.001 275.177 141.655 282.982H137.424L140.472 263.862Z" fill="#DCEDFF"/>
<path d="M121.122 244.876C123.231 239.316 130.038 232.79 130.045 232.783C121.785 236.58 116.004 241.313 113.45 249.369C108.463 265.098 101.471 282.983 101.471 282.983H114.601C114.025 266.231 119.012 250.439 121.122 244.876Z" fill="#DCEDFF"/>
<path d="M189.216 253.014C189.216 253.014 177.516 252.246 170.419 246.876C163.322 241.505 164.281 236.134 164.281 236.134C164.281 236.134 159.102 236.518 157.184 236.134C155.265 235.751 158.02 215.765 169.206 215.4C180.393 215.035 203.826 219.675 206.703 219.83C209.58 219.985 219.071 228.492 216.676 239.27C216.292 240.996 211.658 236.134 209.548 238.628C207.438 241.121 205.712 251.671 189.216 253.014Z" fill="#0058C6"/>
<path d="M185.335 249.797C185.335 249.797 171.282 240.369 164.952 221.858C163.951 218.93 165.642 217.293 168.75 216.794L185.335 249.797Z" fill="#0E35AF"/>
<path d="M189.81 252.636C198.039 247.37 205.616 234.423 207.918 230.107C210.22 225.792 210.311 221.729 203.264 220.979C196.216 220.228 189.81 252.636 189.81 252.636Z" fill="#0E35AF"/>
<path d="M204.313 194.72C202.193 211.832 200.979 220.981 206.702 228.078C206.702 228.078 196.504 248.794 189.216 253.014C189.216 253.014 171.761 240.546 166.965 220.598C166.965 220.598 169.842 216.186 170.227 209.664C170.61 203.143 169.651 191.826 169.651 191.826L204.313 194.72Z" fill="#FFC5C7"/>
<path d="M199.85 240.331C189.206 253.219 178.237 242.341 174.162 236.815C180.893 247.065 189.216 253.013 189.216 253.013C192.571 251.071 196.54 245.634 199.85 240.331Z" fill="#FE8A8B"/>
<path d="M170.226 209.664C169.898 215.246 167.747 219.273 167.133 220.319C175.029 218.918 191.969 215.67 202.588 211.885C202.756 207.194 203.461 201.602 204.313 194.72L183.168 192.955L169.671 192.077C169.808 193.766 170.577 203.71 170.226 209.664Z" fill="#FE8A8B"/>
<path d="M231.884 151.12C232.563 140.329 232.741 130.509 224.319 117.924C215.897 105.339 217.677 138.55 217.815 138.93C217.953 139.311 225.28 153.314 225.28 153.314L231.884 151.12Z" fill="#FFA6A4"/>
<path d="M227.131 168.201C226.061 174.408 226.786 179.532 229.761 180.044C232.736 180.557 236.015 175.942 237.084 169.735C238.153 163.529 236.609 158.082 233.633 157.57C230.658 157.057 228.2 161.994 227.131 168.201Z" fill="#F97068"/>
<path d="M232.947 172.183L231.074 172.946L229.237 178.033C229.237 178.033 228.926 178.664 228.543 179.475C228.898 179.764 229.3 179.966 229.762 180.046C232.398 180.5 235.27 176.924 236.635 171.786C234.268 173.014 232.947 172.183 232.947 172.183Z" fill="#CB3034"/>
<path d="M224.377 149.103C226.686 148.675 233.233 150.411 233.977 153.793C235.667 161.483 232.859 179.322 227.707 183.726C225.829 185.331 220.602 185.005 218.747 184.435C214.038 182.989 214.022 175.461 215.743 165.473C217.464 155.486 221.174 149.697 224.377 149.103Z" fill="#F97068"/>
<path d="M232.947 172.183C230.552 173.911 229.307 172.183 229.307 172.183C227.683 175.638 224.698 175.634 220.929 176.145L218.816 175.027C218.816 175.027 216.751 176.546 214.815 177.919C215.163 181.357 216.338 183.695 218.747 184.435C220.602 185.005 225.83 185.332 227.707 183.727C229.964 181.797 231.771 177.288 232.947 172.183Z" fill="#CB3034"/>
<path d="M233.976 153.793C233.232 150.411 226.685 148.676 224.377 149.104C224.185 149.14 223.993 149.196 223.798 149.268C228.029 148.955 230.244 151.916 230.73 155.308C231.216 158.701 230.731 174.051 225.749 180.823C225.114 181.687 224.015 184.209 220.313 184.746C222.663 185.055 226.225 184.992 227.706 183.726C232.858 179.323 235.666 161.484 233.976 153.793Z" fill="#FFA6A4"/>
<path d="M232.947 172.183C230.551 173.911 229.307 172.183 229.307 172.183C229.306 172.185 229.306 172.186 229.306 172.186C228.515 175.501 227.373 178.617 225.75 180.823C225.115 181.687 224.016 184.209 220.314 184.746C222.664 185.054 226.226 184.992 227.707 183.726C229.964 181.797 231.771 177.288 232.947 172.183Z" fill="#F97068"/>
<path d="M224.727 166.876C223.794 172.294 221.861 176.484 220.409 176.234C218.959 175.984 218.539 171.389 219.473 165.97C220.407 160.552 222.339 156.363 223.79 156.613C225.242 156.863 225.661 161.458 224.727 166.876Z" fill="#CB3034"/>
<path d="M152.221 184.104C152.286 184.261 152.352 184.419 152.421 184.576C154.782 190.015 159.036 195.679 163.2 199.921C169.354 206.191 177.705 211.642 186.559 212.829C196.075 214.105 204.805 208.811 211.17 202.021C214.095 198.901 216.381 195.045 217.325 190.849C218.329 186.387 217.784 181.604 218.513 177.044C218.905 174.593 219.89 172.284 220.718 169.944C223.259 162.77 224.532 154.736 223.658 147.018C223.295 143.81 222.771 139.21 221.035 136.429C219.039 133.231 214.421 130.715 211.305 128.764C201.317 122.513 188.075 120.225 176.724 123.759C165.121 127.371 155.66 136.673 150.772 147.671C148.446 152.907 147.093 158.06 148.223 163.703C149.632 170.733 149.419 177.329 152.221 184.104Z" fill="#FFC5C7"/>
<path d="M149.894 157.668C149.894 157.668 167.924 162.623 183.845 157.668C199.766 152.714 205.168 142.739 206.495 137.56C206.495 137.56 219.499 147.756 222.1 162.799C222.1 162.799 222.994 136.091 214.694 132.765C206.396 129.44 189.023 125.092 187.105 126.819C185.187 128.545 152.963 146.959 152.963 146.959L149.894 157.668Z" fill="#FE8A8B"/>
<path d="M168.245 158.044C169.556 157.402 170.913 156.853 172.311 156.37C173.713 155.905 175.17 155.554 176.668 155.373C178.154 155.189 179.717 154.976 181.209 155.362C183.372 155.951 184.235 156.384 185.286 157.382L185.214 157.58C184.429 157.629 183.706 157.584 182.99 157.552L180.893 157.438C179.523 157.386 178.176 157.052 176.773 157.05C175.379 157.049 173.969 157.176 172.558 157.391C171.14 157.588 169.734 157.918 168.315 158.242L168.245 158.044Z" fill="#0C0835"/>
<path d="M215.174 158.493C213.829 157.918 212.435 157.526 211.018 157.33C209.605 157.117 208.179 157.057 206.768 157.117C205.348 157.182 203.983 157.566 202.583 157.649C201.174 157.748 199.765 157.887 198.196 157.835L198.124 157.638C199.313 156.592 200.748 155.974 202.228 155.578C203.719 155.166 205.289 155.315 206.8 155.436C208.319 155.553 209.823 155.836 211.262 156.307C212.692 156.796 214.077 157.43 215.279 158.31L215.174 158.493Z" fill="#0C0835"/>
<path d="M177.014 168.915C177.771 168.915 178.384 167.661 178.384 166.115C178.384 164.568 177.771 163.314 177.014 163.314C176.257 163.314 175.644 164.568 175.644 166.115C175.644 167.661 176.257 168.915 177.014 168.915Z" fill="#0C0835"/>
<path d="M205.839 169.049C206.566 169.049 207.155 167.796 207.155 166.249C207.155 164.702 206.566 163.448 205.839 163.448C205.112 163.448 204.523 164.702 204.523 166.249C204.523 167.796 205.112 169.049 205.839 169.049Z" fill="#0C0835"/>
<path d="M195.61 179.584C195.208 180.628 194.526 181.589 193.577 182.18C192.627 182.772 191.396 182.955 190.365 182.519C188.7 181.816 188.242 179.873 190.507 180.312C191.391 180.483 192.233 180.588 193.134 180.462C193.597 180.398 195.41 180.103 195.61 179.584Z" fill="#FE8A8B"/>
<path d="M179.108 187.197C184.811 187.936 198.555 188.269 203.044 188.047C201.207 194.139 196.689 200.108 190.497 199.888C184.144 199.663 180.451 193.547 179.108 187.197Z" fill="#C31F2A"/>
<path d="M197.996 196.727C193.216 192.701 189.765 196.145 189.765 196.145C188.677 195.406 185.662 194.155 183.016 195.944C184.479 197.732 186.315 199.053 188.537 199.603C189.229 199.697 189.949 199.792 190.671 199.883C193.502 199.93 195.974 198.681 197.996 196.727Z" fill="#FB8384"/>
<path d="M180.591 187.362C180.69 188.384 180.888 189.396 181.195 190.369C187.373 192.638 194.28 192.996 200.631 191.372C200.862 190.309 201.035 189.209 201.16 188.101C196.009 188.18 186.126 187.907 180.591 187.362Z" fill="white"/>
<path d="M216.023 199.05C215.561 199.087 215.107 199.076 214.664 199.016C210.307 198.426 207.973 198.1 207.973 198.1L208.239 196.19C208.239 196.19 210.572 196.515 214.923 197.104C218.934 197.652 224.08 191.276 225.437 183.782C225.53 183.266 226 182.907 226.52 182.979C227.055 183.052 227.437 183.553 227.343 184.085C225.932 191.996 220.742 198.673 216.023 199.05Z" fill="#FFA6A4"/>
<path d="M227.115 183.303C227.118 183.371 227.115 183.44 227.102 183.511C225.692 191.421 220.502 198.098 215.783 198.474C215.321 198.511 214.867 198.501 214.424 198.441C210.985 197.974 208.812 197.675 208.047 197.568L207.973 198.1C207.973 198.1 210.307 198.426 214.664 199.016C215.107 199.076 215.561 199.086 216.023 199.05C220.743 198.673 225.933 191.996 227.342 184.086C227.395 183.792 227.299 183.511 227.115 183.303Z" fill="#F97068"/>
<path d="M208.079 199.19L204.257 198.667C202.938 198.486 202.014 197.27 202.195 195.951C202.376 194.632 203.591 193.708 204.911 193.889L208.733 194.412C210.052 194.593 210.975 195.809 210.795 197.128C210.614 198.448 209.398 199.37 208.079 199.19Z" fill="#252384"/>
<path d="M210.236 195.246C210.246 195.402 210.241 195.561 210.219 195.722C210.038 197.041 208.823 197.965 207.503 197.784L204.159 197.326C203.249 197.201 202.538 196.58 202.237 195.777C202.224 195.835 202.203 195.891 202.195 195.952C202.014 197.271 202.938 198.487 204.257 198.667L208.079 199.19C209.398 199.371 210.614 198.448 210.795 197.129C210.891 196.421 210.664 195.75 210.236 195.246Z" fill="#261B60"/>
<path d="M202.834 132.846C202.834 132.846 222.015 140.902 222.207 167.18C222.207 167.18 237.552 150.301 228.537 124.982C219.521 99.6629 193.435 100.622 193.435 100.622L202.834 132.846Z" fill="#252384"/>
<path d="M202.834 132.846C202.834 132.846 221.542 140.721 222.179 166.249C222.179 166.102 222.181 165.961 222.179 165.81C221.866 140.054 212.936 133.212 204.113 128.521L202.012 130.025L202.834 132.846Z" fill="#261B60"/>
<path d="M148.807 156.247C148.807 156.247 201.683 159.316 205.903 132.462C210.122 105.608 196.569 99.0908 189.918 98.4474C183.269 97.804 170.312 96.2645 159.229 107.015C148.145 117.765 135.772 124.278 137.149 159.06L148.807 156.247Z" fill="#252384"/>
<path d="M147.709 148.973C150.015 147.69 152.316 146.373 154.542 144.922C156.78 143.493 158.979 141.989 161.131 140.413C165.44 137.271 169.612 133.907 173.55 130.27C169.974 134.268 166.125 138.034 162.093 141.609C160.079 143.401 158.005 145.131 155.874 146.799C153.758 148.486 151.542 150.053 149.299 151.598L147.709 148.973Z" fill="#0C0835"/>
<path d="M177.768 109.299C165.239 116.076 151.461 132.377 151.194 145.879C151.194 145.879 145.896 140.96 148.683 133.91C151.469 126.86 159.672 119.048 164.217 115.693C168.76 112.337 177.768 109.299 177.768 109.299Z" fill="#0C0835"/>
<path d="M151.956 150.473C150.278 146.123 151.429 131.278 151.956 127.058C152.483 122.838 154.041 119.625 154.209 118.834C154.377 118.043 154.013 117.804 154.013 117.804C162.737 104.379 175.117 102.459 187.67 98.5309L186.948 98.1745C179.853 97.6123 168.838 97.6935 159.229 107.015C148.145 117.765 135.772 124.278 137.149 159.06L148.807 156.247C148.807 156.247 166.889 157.293 182.75 152.794C165.114 156.259 153.633 154.822 151.956 150.473Z" fill="#0C0835"/>
<path d="M199.356 132.377C194.174 140.467 187.761 148.015 163.278 151.532C146.968 153.875 144.39 150.528 144.39 150.528C144.39 150.528 172.856 148.631 184.357 142.796C195.858 136.96 199.356 132.377 199.356 132.377Z" fill="#0C0835"/>
<path d="M152.451 118.442C155.62 109.171 171.505 98.7029 189.919 98.4466C189.919 98.4466 180.456 96.1446 169.458 100.237C158.461 104.329 150.545 111.003 146.191 118.535C141.838 126.068 152.451 118.442 152.451 118.442Z" fill="#FFA6A4"/>
<path d="M168.496 102.745C158.427 106.773 152.832 115.309 152.832 115.309C152.324 115.373 147.731 116.228 147.659 116.241C147.136 116.996 146.641 117.76 146.193 118.535C146.037 118.806 145.904 119.052 145.785 119.284C147.225 119.185 149.338 119.09 149.895 119.337C150.124 119.438 150.582 119.408 151.297 119.231C151.988 118.775 152.452 118.441 152.452 118.441C155.621 109.17 171.505 98.7022 189.92 98.4459C183.721 98.3682 178.567 98.7176 168.496 102.745Z" fill="#F97068"/>
<path d="M149.99 151.122C149.123 133.899 151.556 122.151 153.73 118.954C155.904 115.757 146.984 117.148 145.193 119.658C144.033 121.283 140.109 134.983 141.549 151.242C142.989 167.501 149.99 151.122 149.99 151.122Z" fill="#FFA6A4"/>
<path d="M152.129 117.097C152.895 117.388 153.119 117.771 152.575 118.602C152.032 119.433 149.794 126.722 149.219 133.148C148.644 139.574 148.931 146.32 148.803 147.086C148.676 147.853 143.052 149.269 141.356 148.498C141.404 149.404 141.467 150.317 141.548 151.241C141.655 152.441 141.792 153.459 141.954 154.323C143.662 154.516 146.033 154.6 148.199 154.633C149.248 152.854 149.99 151.12 149.99 151.12C149.123 133.897 151.556 122.149 153.73 118.952C154.609 117.661 153.673 117.119 152.129 117.097Z" fill="#F97068"/>
<path d="M148.504 150.286C146.252 149.623 139.561 150.675 138.473 153.962C136 161.438 136.956 179.471 141.627 184.382C143.329 186.172 148.563 186.385 150.467 186.009C155.299 185.057 156.089 177.569 155.406 167.458C154.723 157.346 151.63 151.206 148.504 150.286Z" fill="#F97068"/>
<path d="M141.628 184.382C143.33 186.172 148.564 186.385 150.468 186.009C153.245 185.462 154.683 182.748 155.277 178.627C152.953 180.621 147.012 179.982 144.008 178.624C144.008 178.624 144.5 169.646 142.91 164.583C142.91 164.583 140.066 170.857 138.335 176.685C139.078 180.047 140.173 182.852 141.628 184.382Z" fill="#CB3034"/>
<path d="M147.688 167.98C148.298 177.011 146.166 184.51 142.924 184.73C139.683 184.949 136.56 177.805 135.95 168.773C135.34 159.742 137.473 152.243 140.714 152.023C143.955 151.804 147.077 158.948 147.688 167.98Z" fill="#FFA6A4"/>
<path d="M143.555 171.78C143.555 171.78 139.413 172.297 137.815 178.563C139.152 182.422 141.016 184.858 142.924 184.729C144.573 184.617 145.933 182.616 146.793 179.493C145.745 179.272 144.779 178.972 144.008 178.623C144.008 178.623 144.372 177.164 143.555 171.78Z" fill="#F97068"/>
<path d="M143.466 169.035C143.923 175.799 142.7 181.199 139.688 181.402C136.676 181.606 133.863 176.287 133.406 169.522C132.949 162.758 135.02 157.109 138.032 156.905C141.044 156.702 143.009 162.27 143.466 169.035Z" fill="#F97068"/>
<path d="M138.933 179.061C137.558 179.154 136.219 178.338 135.033 176.876C136.227 179.733 137.921 181.521 139.687 181.402C142.278 181.227 143.541 177.205 143.555 171.78C142.911 176.049 141.384 178.895 138.933 179.061Z" fill="#CB3034"/>
<path d="M285.068 204.454C284.442 206.756 286.424 208.802 287.063 209.186C287.702 209.57 292.05 211.36 294.736 211.424C297.421 211.487 301.386 205.798 299.978 205.158C298.572 204.518 288.725 203.815 287.639 203.815C286.552 203.815 285.068 204.454 285.068 204.454Z" fill="#FFC5C7"/>
<path d="M292.21 203.239C292.882 210.144 295.279 215.515 296.142 215.611C297.006 215.707 305.574 212.829 307.955 211.775C310.337 210.72 308.504 194.513 307.049 194.799C305.594 195.085 302.223 198.198 299.518 199.691C296.813 201.184 292.21 203.239 292.21 203.239Z" fill="white"/>
<path d="M305.77 206.11C304.864 207.492 297.966 210.994 294.215 212.272C294.971 214.31 295.731 215.566 296.143 215.611C296.882 215.693 303.27 213.595 306.585 212.329C306.501 209.763 305.77 206.11 305.77 206.11Z" fill="#DCEDFF"/>
<path d="M285.082 204.135C284.816 206.874 287.256 207.268 290.261 206.564C293.266 205.861 298.572 199.211 300.938 196.207C303.304 193.202 307.699 187.846 308.562 187.367C309.426 186.887 311.344 186.633 313.166 183.931C314.989 181.229 313.262 175.571 312.543 174.899C311.824 174.228 305.078 176.469 304.231 177.602C303.384 178.735 304.247 184.825 303.959 185.593C303.671 186.36 297.613 192.626 295.056 194.16C292.498 195.695 285.274 202.153 285.082 204.135Z" fill="#FFC5C7"/>
<path d="M308.843 179.42C309.645 179.036 309.959 177.294 309.449 177.601C308.939 177.908 308.088 177.901 306.937 177.885C305.785 177.869 305.321 177.77 305.321 177.77C305.321 177.77 305.148 178.524 305.108 179.143C305.108 179.143 308.04 179.803 308.843 179.42Z" fill="#FE8A8B"/>
<path d="M313.939 179.816C313.533 178.944 313.219 178.281 313.219 178.281L308.373 182.639C307.213 181.566 305.769 180.586 305.769 180.586L305.319 181.297C305.961 182.537 306.409 185.158 306.377 185.797C306.377 185.797 307.016 186.564 307.4 186.628C307.4 186.628 301.997 194.301 298.609 198.073C295.24 201.823 292.884 205.066 291.348 206.109C294.416 204.411 298.835 198.875 300.937 196.205C303.303 193.2 307.698 187.845 308.562 187.365C309.425 186.886 311.343 186.632 313.165 183.929C313.889 182.859 314.049 181.323 313.939 179.816Z" fill="#FE8A8B"/>
<path d="M304.483 180.254C304.505 180.7 308.722 184.601 309.16 185.049C309.193 185.082 309.541 185.134 309.644 185.049C310.917 183.997 316.833 174.508 316.951 174.166C317.062 173.847 313.83 170.583 312.835 169.709C312.699 169.59 312.1 169.662 311.992 169.806C310.806 171.39 304.454 179.676 304.483 180.254Z" fill="#0C0835"/>
<path d="M304.966 180.253C304.988 180.7 309.204 184.601 309.643 185.049C310.081 185.496 317.306 174.536 317.434 174.166C317.544 173.847 313.916 170.635 312.92 169.762C312.784 169.643 312.582 169.662 312.474 169.806C311.289 171.39 304.937 179.676 304.966 180.253Z" fill="#252384"/>
<path d="M305.771 179.612C305.792 180.03 309.735 183.68 310.146 184.098C310.556 184.517 317.315 174.263 317.435 173.917C317.538 173.618 314.143 170.615 313.212 169.798C313.085 169.686 312.896 169.704 312.795 169.839C311.687 171.32 305.743 179.072 305.771 179.612Z" fill="#57AFF7"/>
<path d="M308.859 174.264C309.586 173.844 310.545 172.421 310.657 171.942C310.769 171.462 310.752 171.031 310.385 170.935C310.017 170.839 308.754 172.342 308.147 172.789C307.54 173.236 306.772 174.164 307.012 174.787C307.252 175.41 308.547 175.171 308.691 175.075C308.834 174.979 308.859 174.264 308.859 174.264Z" fill="#FFC5C7"/>
<path d="M310.591 171.061C310.773 171.606 309.174 173.794 307.866 174.424L308.296 174.96C308.296 174.96 308.513 174.913 308.791 174.848C308.847 174.605 308.859 174.264 308.859 174.264C309.587 173.844 310.546 172.421 310.657 171.942C310.741 171.578 310.751 171.244 310.591 171.061Z" fill="#FE8A8B"/>
<path d="M307.077 176.475C308.323 175.834 309.258 175.906 309.93 175.642C310.601 175.379 310.793 174.372 310.362 174.204C309.93 174.036 307.196 174.468 306.477 174.779C305.758 175.091 305.321 176.527 305.321 176.527L307.077 176.475Z" fill="#FFC5C7"/>
<path d="M307.656 175.728C306.969 175.856 306.745 175.728 306.745 175.728C306.745 175.993 306.486 176.125 306.177 176.501L307.077 176.475C308.323 175.834 309.258 175.906 309.929 175.642C310.235 175.522 310.436 175.247 310.529 174.968C310.198 175.52 308.34 175.6 307.656 175.728Z" fill="#FE8A8B"/>
<path d="M304.231 177.602C304.806 178.487 307.971 178.103 308.611 178.008C309.25 177.912 309.676 177.513 309.641 177.109C309.569 176.297 305.413 176.441 305.062 176.569C304.711 176.698 304.231 177.602 304.231 177.602Z" fill="#FFC5C7"/>
<path d="M309.604 177.305C309.145 177.731 308.097 177.974 306.965 178.065C305.986 178.143 305.429 178.106 305.3 178.094C306.469 178.283 308.162 178.075 308.61 178.008C309.145 177.928 309.512 177.634 309.604 177.305Z" fill="#FE8A8B"/>
<path d="M319.688 359.903C319.88 361.581 320.552 362.205 322.997 362.54C325.443 362.875 329.039 362.828 330.909 361.005C332.779 359.183 333.93 357.073 334.075 356.162C334.219 355.251 334.17 354.243 334.458 353.764C334.746 353.284 336.267 352.985 336.08 350.311C335.892 347.638 319.688 359.903 319.688 359.903Z" fill="#FFDCDC"/>
<path d="M335.524 343.961C335.248 340.247 326.449 341.68 326.401 343.167C326.353 344.653 324.291 350.887 322.266 352.78L322.267 352.784C319.616 353.989 318.617 357.008 319.687 359.902C320.596 362.357 327.408 361.763 329.038 360.861C330.757 359.91 332.457 357.421 332.967 356.074L332.967 356.074C333.337 355.279 333.498 354.1 334.313 353.093C335.128 352.087 335.56 352.278 335.944 351.079C336.327 349.88 335.8 347.674 335.524 343.961Z" fill="#F97068"/>
<path d="M328.004 343.803C327.158 347.633 325.333 350.127 325.867 350.572C326.401 351.017 329.696 351.552 330.32 350.572C330.943 349.593 332.012 345.451 332.012 343.803C332.012 342.156 328.004 343.803 328.004 343.803Z" fill="#FFDCDC"/>
<path d="M308.535 346.944C308.755 345.277 308.776 342.832 307.364 340.05C305.952 337.268 306.021 337.029 304.391 336.741C302.76 336.453 296.814 335.639 296.814 335.639C296.814 335.639 295.807 338.42 292.307 340.338C288.806 342.256 288.087 342.927 285.834 342.927C283.58 342.927 278.598 343.193 280.559 349.161C280.559 349.161 282.141 349.849 286.105 349.817C290.069 349.784 294.097 349.465 295.536 348.921C296.975 348.378 298.477 348.09 299.34 348.442C300.203 348.793 303.017 348.666 304.615 348.442C306.213 348.218 308.535 346.944 308.535 346.944Z" fill="#F97068"/>
<path d="M289.729 341.48C289.482 341.562 289.391 341.851 289.532 342.07C290.005 342.802 290.985 343.605 291.508 343.423C292.147 343.198 295.111 340.956 296.687 339.587C297.422 338.947 298.125 337.733 297.709 337.157C297.294 336.582 296.207 335.91 295.76 336.262C295.312 336.613 294.449 338.301 292.627 339.807C291.391 340.828 290.302 341.289 289.729 341.48Z" fill="#FFDCDC"/>
<path d="M280.559 349.161C284.49 349.544 293.549 348.777 295.398 348.298C297.247 347.818 298.253 347.003 300.027 347.674C301.802 348.346 307.268 347.291 308.131 346.955C308.995 346.62 308.755 347.971 308.131 348.111C307.508 348.251 303.576 349.082 301.561 349.266C299.547 349.45 299.451 347.963 297.054 349.066C294.656 350.169 290.724 350.169 288.998 350.169C287.271 350.169 282.332 350.553 281.421 350.169C280.51 349.785 280.559 349.161 280.559 349.161Z" fill="#FFDCDC"/>
<path d="M325.682 344.03C328.371 344.764 336.039 344.51 336.423 343.455C336.806 342.4 335.368 325.808 335.368 320.533C335.368 315.257 333.545 302.215 333.833 300.776C334.121 299.337 334.121 298.282 333.641 295.789C333.162 293.295 332.973 264.396 330.668 244.927L300.746 247.74C300.746 247.74 295.951 266.154 295.567 279.197C295.184 292.24 295.631 298.506 295.567 300.424C295.504 302.342 296.383 304.26 296.582 305.794C296.782 307.329 296.526 318.71 296.271 322.802C296.015 326.894 295.828 334.438 295.41 335.333C294.992 336.229 304.455 338.019 305.734 337.379C307.012 336.74 307.012 336.612 307.012 329.962C307.012 323.312 307.908 307.328 307.908 304.515C307.908 301.702 308.803 301.19 308.419 299.783C308.036 298.377 309.442 291.983 310.849 287.252C312.255 282.52 313.917 277.405 313.917 277.405C313.917 277.405 317.882 302.98 319.161 304.515C320.439 306.049 320.183 310.013 320.951 312.315C321.718 314.617 324.019 330.218 324.019 334.949C324.019 339.68 322.868 343.263 325.682 344.03Z" fill="#0E35AF"/>
<path d="M332.054 344.405C333.349 344.341 334.533 344.205 335.346 344.003C335.665 342.638 336.006 340.92 336.359 338.926C336.064 333.343 335.369 324.202 335.369 320.533C335.369 315.258 333.547 302.215 333.835 300.776C334.122 299.337 334.122 298.282 333.643 295.789C333.163 293.295 332.974 264.396 330.669 244.927L324.648 245.493L307.028 252.12C315.521 252.357 325.399 251.027 325.399 251.027C325.399 251.027 326.777 266.616 326.824 268.917C326.87 271.219 328.533 292.711 328.533 294.688C328.533 296.666 329.3 297.238 329.428 299.381C329.556 301.526 327.893 302.292 327.893 302.292C327.893 302.292 330.195 303.06 330.195 303.443C330.195 303.827 330.675 309.997 330.675 312.394C330.675 314.792 331.719 318.053 332.013 325.246C332.305 332.439 333.265 340.975 333.265 341.934C333.264 342.869 333.26 343.844 332.054 344.405Z" fill="#001E7F"/>
<path d="M312.643 262.906L306.218 261.276L311.205 263.674L307.177 263.77L310.263 264.872C310.263 264.872 311.225 272.885 309.222 278.251C307.028 284.133 306.026 299.159 305.354 300.31C304.683 301.461 302.956 301.173 302.956 301.173C302.956 301.173 304.779 301.365 304.875 302.708C304.971 304.05 304.491 307.791 304.491 311.755C304.491 315.719 304.107 322.006 303.724 324.681C303.34 327.355 303.161 333.899 302.956 335.638C302.752 337.376 300.138 336.97 300.138 336.97L300.138 336.971C301.463 337.221 302.83 337.414 303.897 337.485C307.847 337.857 307.027 336.394 307.021 328.621C307.119 321.378 307.906 307.155 307.906 304.516C307.906 301.703 308.802 301.191 308.418 299.785C308.034 298.378 309.441 291.984 310.847 287.253C312.254 282.522 313.916 277.407 313.916 277.407C313.916 277.407 313.218 270.866 313.122 269.332C313.027 267.798 312.643 262.906 312.643 262.906Z" fill="#001E7F"/>
<path d="M318.01 190.004C311.104 193.393 310.021 193.262 307.049 194.799C304.077 196.336 303.752 212.51 303.752 215.003C303.752 217.497 303.719 227.407 303.144 230.092C302.568 232.778 300.362 242.752 299.596 244.287C298.828 245.821 297.39 248.41 299.212 249.945C301.034 251.48 305.049 252.535 313.975 251.959C322.901 251.384 332.875 245.917 333.354 245.15C333.834 244.383 330.189 230.284 330.189 227.599C330.189 224.914 329.805 222.9 329.613 221.653C329.421 220.406 332.674 214.556 333.397 210.816C334.121 207.076 338.936 196.758 338.303 194.867C337.67 192.978 330.745 190.872 326.1 188.468C321.456 186.065 318.01 190.004 318.01 190.004Z" fill="white"/>
<path d="M316.432 192.703C316.435 193.115 316.425 193.524 316.526 193.916C316.6 194.308 316.73 194.691 316.949 195.012C317.352 195.686 318.102 196.031 318.875 196.035C319.651 196.052 320.441 195.849 321.198 195.571C321.96 195.296 322.688 194.927 323.433 194.573C323.101 194.815 322.755 195.039 322.412 195.271C322.045 195.461 321.691 195.679 321.308 195.844C320.556 196.194 319.725 196.428 318.861 196.418L318.536 196.403L318.216 196.33C317.998 196.297 317.799 196.19 317.6 196.096C317.225 195.868 316.88 195.558 316.695 195.161C316.27 194.395 316.265 193.5 316.432 192.703Z" fill="#DCEDFF"/>
<path d="M333.355 245.151C333.834 244.383 330.189 230.285 330.189 227.6C330.189 224.914 329.806 222.901 329.614 221.654C329.422 220.407 332.674 214.557 333.398 210.817C333.524 210.167 333.775 209.316 334.097 208.347L331.258 206.11C329.139 211.022 327.413 219.653 325.591 221.763C323.768 223.873 319.549 224.736 319.549 224.736C319.549 224.736 323.585 225.696 325.403 225.312C325.403 225.312 326.764 232.889 326.513 236.629C326.262 240.369 325.503 246.027 325.403 246.794C325.366 247.081 325.356 248.079 325.359 249.218C329.786 247.515 333.084 245.584 333.355 245.151Z" fill="#DCEDFF"/>
<path d="M325.841 181.655C325.618 185.656 325.682 188.406 326.513 189.173C326.513 189.173 324.505 195.814 318.457 195.247C316.411 195.056 316.859 191.603 318.01 190.005L317.754 185.096L325.841 181.655Z" fill="#FFC5C7"/>
<path d="M326.101 188.468C325.669 187.241 325.664 184.848 325.841 181.655L317.754 185.096L317.918 188.243C319.261 188.866 326.101 188.468 326.101 188.468Z" fill="#FE8A8B"/>
<path d="M345.065 214.022C346.28 215.876 347.751 220.48 346.919 222.59C346.088 224.7 338.416 234.098 334.963 237.615C331.51 241.132 330.743 241.707 330.103 242.858C329.464 244.009 326.395 248.756 325.627 249.475C324.86 250.194 323.565 250.29 323.565 250.29C323.565 250.29 322.526 251.345 320.696 251.153C320.696 251.153 319.01 252.256 317.715 252.544C317.715 252.544 317.236 253.358 316.804 253.43C316.373 253.502 315.894 252.639 316.804 250.913C317.715 249.187 319.058 248.468 319.346 247.365C319.634 246.262 320.795 244.012 320.795 244.012C320.795 244.012 318.387 246.31 316.996 246.454C315.605 246.598 315.478 245.783 316.285 245.111C317.091 244.44 318.147 243.433 319.153 242.138C320.16 240.843 321.359 239.98 323.133 239.74C324.908 239.501 326.154 239.309 326.634 238.973C327.114 238.637 329.648 235.376 331.474 231.859C333.3 228.343 335.033 223.849 339.31 219.903L337.775 216.833L345.065 214.022Z" fill="#FFC5C7"/>
<path d="M317.791 252.325C318.201 251.352 318.887 250.523 319.629 249.785L319.921 249.517C320.008 249.433 320.158 249.328 320.193 249.279C320.343 249.104 320.479 248.872 320.626 248.664C320.91 248.233 321.189 247.794 321.499 247.37C321.33 247.868 321.115 248.343 320.881 248.812C320.765 249.051 320.641 249.272 320.473 249.508C320.346 249.663 320.268 249.694 320.172 249.795L319.896 250.061C319.525 250.414 319.17 250.787 318.814 251.158C318.459 251.531 318.124 251.92 317.791 252.325Z" fill="#FE8A8B"/>
<path d="M320.795 250.822C321.097 250.306 321.443 249.858 321.757 249.388C322.084 248.924 322.378 248.458 322.682 247.945C322.666 248.549 322.403 249.117 322.073 249.605C321.731 250.09 321.309 250.516 320.795 250.822Z" fill="#FE8A8B"/>
<path d="M322.184 251.027C323.072 250.775 323.566 250.291 323.566 250.291C323.566 250.291 324.86 250.195 325.627 249.476C325.941 249.182 326.64 248.213 327.399 247.094C327.383 247.111 326.517 247.984 325.887 248.704C324.999 249.719 323.855 249.384 323.855 249.384L324.08 248.448C324.08 248.448 323.149 250.571 322.184 251.027Z" fill="#FE8A8B"/>
<path d="M347.12 220.245C347.018 221.12 346.957 221.816 345.492 224.112C343.843 226.696 334.271 237.587 332.209 239.601C330.147 241.614 330.195 241.742 328.83 244.924C329.406 244.025 329.891 243.241 330.104 242.857C330.743 241.706 331.51 241.131 334.963 237.615C338.416 234.098 346.088 224.699 346.92 222.589C347.161 221.977 347.204 221.151 347.12 220.245Z" fill="#FE8A8B"/>
<path d="M340.421 217.728L341.047 218.917C341.047 218.917 340.063 219.178 339.31 219.904L338.091 217.543L340.421 217.728Z" fill="#FE8A8B"/>
<path d="M332.48 211.228C330.909 207.623 330.601 201.769 332.48 198.688C334.359 195.607 337.564 194.498 338.303 194.867C339.042 195.237 340.768 200.043 342.555 202.261C344.341 204.48 349.209 210.703 349.333 211.227C349.456 211.751 345.141 215.979 337.378 219.084C336.455 219.453 332.48 211.228 332.48 211.228Z" fill="white"/>
<path d="M337.867 214.023L338.89 216.488C338.89 216.488 333.399 210.55 331.263 206.12C331.427 207.968 331.849 209.78 332.48 211.228C332.48 211.228 336.455 219.454 337.379 219.084C338.707 218.553 339.926 217.988 341.048 217.415L337.867 214.023Z" fill="#DCEDFF"/>
<path d="M329.962 176.443C331.373 172.997 333.099 169.353 330.925 167.434C330.925 167.434 333.355 166.667 334.634 166.923C334.634 166.923 333.355 166.155 330.798 165.9C330.798 165.9 331.301 160.082 329.963 157.588C329.963 157.588 329.967 160.146 329.264 161.168C329.264 161.168 327.858 158.163 323.702 157.012C319.546 155.861 315.518 155.734 312.64 158.675C309.763 161.616 306.394 165.387 311.244 171.078C316.093 176.769 322.487 178.239 325.236 178.623C327.984 179.007 329.962 176.443 329.962 176.443Z" fill="#252384"/>
<path d="M315.138 165.513C316.091 165.963 317.094 166.199 318.094 166.446C319.098 166.673 320.109 166.876 321.127 167.033C322.144 167.2 323.167 167.328 324.191 167.425C325.217 167.499 326.243 167.59 327.284 167.427C326.321 167.881 325.224 168.001 324.171 168.023C323.109 168.047 322.051 167.948 321.005 167.79C319.962 167.613 318.927 167.371 317.926 167.019C316.932 166.67 315.934 166.218 315.138 165.513Z" fill="#0C0835"/>
<path d="M326.354 170.488C327.462 170.213 329.298 168.439 329.298 168.439C329.298 168.439 327.396 169.784 323.481 169.463C319.567 169.143 316.955 168.33 316.955 168.33C316.955 168.33 320.988 170.697 322.474 171.079C323.961 171.46 326.354 170.488 326.354 170.488Z" fill="#0C0835"/>
<path d="M312.735 167.898C310.918 167 310.39 167.911 310.39 168.679C310.39 169.446 311.242 171.079 311.242 171.079L312.735 167.898Z" fill="#0C0835"/>
<path d="M331.898 170.717C330.448 173.587 327.216 175.81 327.216 175.81C327.216 175.81 325.954 177.512 327.371 178.202C327.43 178.231 327.496 178.256 327.561 178.282C329.031 177.648 329.961 176.443 329.961 176.443C330.766 174.48 331.669 172.454 331.898 170.717Z" fill="#0C0835"/>
<path d="M327.217 175.81C327.217 175.81 328.703 174.707 329.71 175.81C330.717 176.913 328.8 182.044 326.546 180.797C326.546 180.797 322.806 185.544 320.216 186.887C317.626 188.23 315.901 187.559 315.037 186.6C314.174 185.64 311.278 181.706 311.01 177.537C310.914 176.05 311.345 173.125 311.345 172.501C311.345 171.877 310.961 169.432 311.488 168.713C312.016 167.994 312.735 167.898 312.735 167.898C312.735 167.898 315.948 169.48 318.73 169.72C318.73 169.72 317.387 168.857 316.956 168.33C316.956 168.33 322.47 170.248 326.355 170.488C326.355 170.488 326.306 172.694 326.498 173.652C326.689 174.611 327.217 175.81 327.217 175.81Z" fill="#FFC5C7"/>
<path d="M329.223 177.213C329.088 176.273 328.3 176.088 327.656 176.743C326.996 177.415 326.738 179.541 326.872 179.854C327.007 180.168 328.059 180.146 328.305 179.496C328.551 178.847 327.969 178.44 327.365 178.632C327.365 178.632 327.269 177.685 327.795 177.074C328.322 176.464 328.808 176.698 328.92 176.854C329.033 177.011 329.223 177.213 329.223 177.213Z" fill="#FE8A8B"/>
<path d="M323.036 173.054C322.825 172.843 322.598 172.647 322.359 172.46C322.118 172.277 321.859 172.112 321.58 171.978C321.305 171.843 321.015 171.698 320.701 171.674C320.389 171.646 320.072 171.672 319.777 171.795L319.778 171.838C319.927 171.899 320.07 171.938 320.21 171.98L320.625 172.097C320.894 172.177 321.177 172.202 321.449 172.295C321.719 172.387 321.984 172.505 322.243 172.641C322.505 172.773 322.756 172.93 323.009 173.087L323.036 173.054Z" fill="#0C0835"/>
<path d="M312.507 171.978C312.774 171.842 313.053 171.742 313.34 171.683C313.626 171.62 313.916 171.588 314.205 171.581C314.496 171.574 314.78 171.634 315.067 171.632C315.356 171.632 315.646 171.642 315.965 171.609L315.977 171.568C315.72 171.371 315.418 171.264 315.11 171.204C314.8 171.14 314.482 171.193 314.175 171.238C313.866 171.282 313.563 171.361 313.276 171.477C312.991 171.597 312.717 171.745 312.483 171.941L312.507 171.978Z" fill="#0C0835"/>
<path d="M320.065 174.74C320.105 174.335 320.332 174.025 320.571 174.049C320.811 174.072 320.973 174.42 320.933 174.826C320.893 175.232 320.666 175.542 320.426 175.518C320.186 175.494 320.025 175.146 320.065 174.74Z" fill="#0C0835"/>
<path d="M313.698 174.228C313.737 173.822 313.929 173.509 314.125 173.528C314.321 173.548 314.447 173.892 314.407 174.298C314.367 174.703 314.175 175.017 313.98 174.997C313.784 174.978 313.657 174.634 313.698 174.228Z" fill="#0C0835"/>
<path d="M317.773 178.683C317.189 179.069 316.371 179.06 315.795 178.662C315.842 178.975 315.959 179.28 316.255 179.391C316.551 179.502 316.889 179.469 317.177 179.341C317.467 179.213 317.577 178.932 317.773 178.683Z" fill="#FE8A8B"/>
<path d="M319.822 181.063C318.483 181.085 315.285 180.838 314.247 180.689C314.561 182.044 315.549 183.383 317.063 183.383C318.426 183.384 319.408 182.264 319.822 181.063Z" fill="#C31F2A"/>
<path d="M318.458 182.941C317.937 182.777 317.39 182.861 317.167 182.928C317.167 182.928 316.496 182.433 315.444 182.759C315.885 183.136 316.423 183.383 317.062 183.383C317.588 183.383 318.056 183.214 318.458 182.941Z" fill="#FB8384"/>
<path d="M315.072 181.822C316.395 182.244 317.882 182.122 319.191 181.663C319.214 181.463 319.244 181.261 319.275 181.06C317.954 181.032 315.826 180.871 314.689 180.744C314.761 181.118 314.883 181.485 315.072 181.822Z" fill="white"/>
<g opacity="0.25">
<path d="M353.053 164.785C353.34 164.01 353.676 163.298 354.056 162.65C354.435 162.002 354.968 161.447 355.664 160.99C356.355 160.533 357.283 160.232 358.446 160.085C358.802 160.036 359.308 159.98 359.962 159.918C360.617 159.856 361.297 159.746 362.004 159.582C362.71 159.42 363.349 159.177 363.913 158.855C364.479 158.533 364.868 158.093 365.076 157.531C365.225 157.132 365.241 156.734 365.122 156.342C365.005 155.95 364.795 155.605 364.491 155.31C364.183 155.014 363.814 154.784 363.381 154.624C362.734 154.384 362.141 154.342 361.606 154.497C361.071 154.652 360.6 154.879 360.2 155.176C359.797 155.474 359.436 155.716 359.121 155.907L355.504 150.593C356.374 149.655 357.375 148.955 358.5 148.495C359.621 148.033 360.824 147.803 362.103 147.8C363.382 147.798 364.672 148.038 365.97 148.519C367.001 148.901 367.98 149.433 368.911 150.114C369.845 150.796 370.623 151.619 371.253 152.585C371.88 153.55 372.264 154.653 372.401 155.895C372.541 157.139 372.333 158.51 371.776 160.012C371.537 160.656 371.255 161.254 370.927 161.803C370.599 162.353 370.211 162.842 369.759 163.27C369.307 163.698 368.787 164.069 368.193 164.382C367.599 164.696 366.929 164.943 366.185 165.126C365.199 165.371 364.228 165.529 363.263 165.597C362.297 165.667 361.459 165.791 360.747 165.968C360.034 166.147 359.568 166.532 359.349 167.122L353.053 164.785ZM350.443 172.197L350.578 171.833C351.223 170.096 353.154 169.209 354.892 169.854C356.63 170.499 357.516 172.43 356.871 174.168L356.736 174.532C356.092 176.269 354.161 177.156 352.422 176.511C350.684 175.866 349.798 173.934 350.443 172.197Z" fill="#00264F"/>
<path d="M341.989 165.433C341.898 164.837 341.86 164.264 341.874 163.717C341.887 163.169 342.031 162.627 342.313 162.089C342.593 161.553 343.079 161.033 343.769 160.528C343.979 160.372 344.282 160.157 344.678 159.886C345.073 159.616 345.468 159.305 345.862 158.95C346.255 158.597 346.577 158.217 346.822 157.812C347.07 157.407 347.162 156.989 347.097 156.557C347.05 156.249 346.919 155.99 346.706 155.782C346.492 155.572 346.236 155.427 345.938 155.346C345.637 155.266 345.32 155.25 344.988 155.301C344.49 155.376 344.097 155.559 343.81 155.847C343.524 156.134 343.303 156.446 343.154 156.777C343.001 157.11 342.857 157.391 342.723 157.625L338.538 155.513C338.762 154.607 339.152 153.807 339.708 153.116C340.261 152.425 340.945 151.853 341.76 151.4C342.575 150.946 343.483 150.643 344.482 150.491C345.274 150.371 346.087 150.365 346.922 150.47C347.759 150.575 348.545 150.825 349.289 151.219C350.029 151.614 350.664 152.182 351.19 152.925C351.719 153.669 352.071 154.617 352.246 155.772C352.321 156.268 352.352 156.749 352.338 157.215C352.323 157.682 352.248 158.131 352.111 158.564C351.974 158.997 351.773 159.417 351.505 159.827C351.236 160.236 350.896 160.631 350.486 161.011C349.944 161.516 349.38 161.959 348.788 162.345C348.197 162.73 347.705 163.106 347.314 163.47C346.922 163.836 346.761 164.247 346.83 164.7L341.989 165.433ZM342.942 171.084L342.899 170.805C342.696 169.468 343.616 168.221 344.952 168.018C346.289 167.815 347.536 168.734 347.739 170.07L347.782 170.35C347.984 171.686 347.066 172.934 345.729 173.137C344.393 173.34 343.145 172.421 342.942 171.084Z" fill="#00264F"/>
</g>
<path d="M349.552 161.284C349.84 160.509 350.176 159.798 350.555 159.149C350.934 158.501 351.467 157.946 352.163 157.489C352.855 157.032 353.783 156.731 354.946 156.584C355.302 156.536 355.807 156.479 356.462 156.417C357.117 156.356 357.796 156.245 358.504 156.081C359.21 155.919 359.848 155.677 360.412 155.354C360.978 155.033 361.368 154.592 361.576 154.031C361.724 153.631 361.74 153.233 361.622 152.842C361.505 152.449 361.294 152.104 360.99 151.809C360.683 151.513 360.313 151.283 359.881 151.123C359.233 150.883 358.64 150.842 358.105 150.996C357.57 151.151 357.099 151.379 356.699 151.675C356.296 151.973 355.935 152.215 355.62 152.406L352.004 147.092C352.874 146.154 353.874 145.454 354.999 144.994C356.121 144.533 357.323 144.303 358.602 144.3C359.881 144.297 361.172 144.537 362.47 145.018C363.5 145.4 364.479 145.932 365.411 146.613C366.345 147.296 367.123 148.118 367.753 149.084C368.379 150.05 368.763 151.152 368.9 152.395C369.04 153.638 368.832 155.009 368.275 156.511C368.036 157.155 367.754 157.753 367.427 158.303C367.099 158.852 366.71 159.341 366.259 159.77C365.807 160.197 365.286 160.568 364.693 160.881C364.099 161.195 363.428 161.442 362.685 161.625C361.699 161.87 360.727 162.028 359.762 162.097C358.797 162.167 357.958 162.29 357.246 162.467C356.533 162.646 356.067 163.031 355.849 163.621L349.552 161.284ZM346.942 168.696L347.078 168.333C347.722 166.595 349.654 165.709 351.392 166.354C353.129 166.998 354.016 168.929 353.371 170.668L353.236 171.031C352.591 172.769 350.66 173.655 348.922 173.01C347.184 172.365 346.298 170.434 346.942 168.696Z" fill="#F97068"/>
<path d="M338.488 161.932C338.398 161.336 338.36 160.764 338.373 160.216C338.386 159.668 338.53 159.127 338.813 158.588C339.093 158.052 339.578 157.533 340.268 157.028C340.478 156.871 340.782 156.656 341.177 156.386C341.573 156.116 341.968 155.805 342.361 155.45C342.755 155.096 343.077 154.716 343.322 154.311C343.569 153.906 343.662 153.488 343.596 153.056C343.549 152.749 343.419 152.489 343.205 152.281C342.992 152.072 342.736 151.926 342.437 151.846C342.136 151.765 341.82 151.75 341.487 151.8C340.99 151.876 340.596 152.058 340.31 152.346C340.023 152.634 339.803 152.946 339.653 153.277C339.5 153.609 339.356 153.891 339.222 154.125L335.037 152.012C335.261 151.106 335.652 150.306 336.207 149.615C336.76 148.924 337.445 148.353 338.26 147.899C339.075 147.445 339.983 147.142 340.981 146.991C341.774 146.871 342.587 146.864 343.421 146.969C344.258 147.075 345.045 147.325 345.788 147.718C346.529 148.113 347.164 148.681 347.69 149.425C348.218 150.168 348.57 151.117 348.745 152.272C348.82 152.768 348.852 153.249 348.837 153.715C348.822 154.181 348.748 154.631 348.61 155.063C348.473 155.496 348.272 155.917 348.004 156.326C347.736 156.736 347.396 157.131 346.985 157.51C346.443 158.015 345.879 158.459 345.288 158.844C344.697 159.23 344.205 159.605 343.813 159.97C343.422 160.336 343.261 160.746 343.329 161.2L338.488 161.932ZM339.442 167.584L339.399 167.304C339.196 165.968 340.115 164.72 341.452 164.517C342.788 164.314 344.036 165.233 344.239 166.57L344.281 166.849C344.484 168.186 343.565 169.433 342.229 169.636C340.892 169.839 339.645 168.92 339.442 167.584Z" fill="#F97068"/>
<path d="M361.066 321.567C364.466 321.573 367.337 318.07 367.259 313.915C367.208 311.208 366.81 308.529 366.067 306.016C364.366 300.254 360.861 294.686 362.126 288.601C362.647 286.095 363.966 283.777 364.003 281.217C364.042 278.579 362.711 276.307 361.388 274.297C359.183 270.948 356.835 267.743 354.355 264.7C353.75 270.422 351.002 275.518 349.089 280.862C347.177 286.206 346.188 292.771 348.906 297.301C350.847 300.536 354.519 302.484 354.945 306.525C355.118 308.171 354.683 309.847 354.591 311.516C354.328 316.275 357.255 320.819 361.066 321.567Z" fill="#F97068"/>
<path d="M363.814 329.247L362.344 322.407C361.983 320.11 361.597 317.817 361.168 315.533C360.32 310.964 359.338 306.417 358.111 301.944C357.799 300.828 357.478 299.714 357.119 298.615C356.947 298.063 356.753 297.52 356.566 296.973C356.364 296.44 356.162 295.901 355.989 295.292C355.68 294.109 355.539 292.918 355.494 291.739C355.428 290.558 355.445 289.384 355.465 288.212C355.527 285.872 355.678 283.545 355.765 281.227C355.989 278.915 356.211 276.601 355.906 274.285C356.58 276.538 356.601 278.932 356.685 281.261C356.597 283.597 356.446 285.92 356.385 288.235C356.365 289.391 356.349 290.548 356.413 291.692C356.455 292.839 356.596 293.975 356.874 295.043C357.018 295.556 357.221 296.108 357.432 296.664C357.623 297.219 357.821 297.773 357.995 298.332C358.359 299.447 358.682 300.572 358.998 301.698C360.236 306.209 361.221 310.776 362.073 315.364C362.507 317.657 362.884 319.959 363.26 322.261C363.475 324.59 363.689 326.914 363.814 329.247Z" fill="#FFA6A4"/>
<path d="M352.33 281.558C352.999 282.025 353.601 282.502 354.228 282.971C354.536 283.209 354.817 283.491 355.125 283.742C355.426 284.001 355.768 284.212 356.124 284.371L356.013 284.385C356.391 284.033 356.731 283.634 357.102 283.272C357.478 282.919 357.858 282.566 358.247 282.228C359.039 281.566 359.887 280.971 360.815 280.472L360.854 280.519C360.198 281.343 359.46 282.071 358.666 282.731C358.262 283.054 357.849 283.363 357.433 283.671C357.011 283.97 356.558 284.233 356.144 284.542L356.085 284.586L356.033 284.556C355.68 284.354 355.334 284.162 354.962 283.996C354.597 283.821 354.224 283.648 353.896 283.408C353.249 282.924 352.664 282.327 352.281 281.598L352.33 281.558Z" fill="#FFA6A4"/>
<path d="M349.943 291.118C350.512 291.303 351.052 291.529 351.582 291.774C352.111 292.021 352.638 292.271 353.126 292.601C353.62 292.921 354.114 293.244 354.656 293.467C355.19 293.704 355.763 293.862 356.313 294.051L356.037 294.114C356.601 293.387 357.17 292.666 357.803 292C358.445 291.343 359.094 290.691 359.837 290.122L359.883 290.163C359.412 290.971 358.847 291.697 358.276 292.416C357.695 293.128 357.052 293.784 356.401 294.434L356.265 294.569L356.125 294.497C355.599 294.223 355.104 293.897 354.575 293.642C354.054 293.371 353.492 293.187 352.936 292.988C352.372 292.801 351.856 292.515 351.35 292.214C350.844 291.912 350.36 291.568 349.913 291.17L349.943 291.118Z" fill="#FFA6A4"/>
<path d="M356.586 303.936C357.086 303.978 357.509 304.129 357.924 304.298C358.126 304.394 358.311 304.542 358.516 304.648C358.715 304.757 358.954 304.809 359.159 304.791L359.071 304.834C359.211 304.588 359.319 304.317 359.469 304.079C359.624 303.845 359.77 303.603 359.942 303.382C360.292 302.945 360.707 302.559 361.215 302.247L361.263 302.285C361.078 302.852 360.801 303.346 360.457 303.788C360.282 304.007 360.082 304.205 359.89 304.411C359.694 304.613 359.456 304.781 359.249 304.975L359.196 305.025L359.159 305.019C358.903 304.975 358.689 304.918 358.444 304.903C358.204 304.883 357.952 304.879 357.726 304.804C357.28 304.636 356.869 304.385 356.557 303.989L356.586 303.936Z" fill="#FFA6A4"/>
<path d="M357.664 314.772C358.011 314.745 358.335 314.748 358.658 314.766C358.981 314.785 359.302 314.795 359.62 314.881C359.937 314.959 360.259 315.067 360.587 315.079C360.913 315.1 361.244 315.039 361.562 314.97L361.452 315.01C361.655 314.783 361.882 314.586 362.111 314.392C362.336 314.194 362.563 313.998 362.813 313.832C363.31 313.496 363.834 313.197 364.424 312.987L364.462 313.036C364.095 313.545 363.662 313.965 363.201 314.348C362.972 314.542 362.722 314.706 362.468 314.868C362.218 315.033 361.966 315.196 361.691 315.329L361.603 315.371L361.581 315.368C361.24 315.324 360.914 315.262 360.583 315.268C360.253 315.263 359.918 315.337 359.58 315.362C359.242 315.394 358.91 315.325 358.583 315.245C358.256 315.16 357.936 315.028 357.648 314.831L357.664 314.772Z" fill="#FFA6A4"/>
<path d="M364.212 323.786C366.561 326.206 370.265 323.251 372.706 320.451C375.777 316.93 379.078 312.86 379.436 307.883C379.57 306.013 379.263 304.153 379.542 302.292C380.182 298.023 383.604 295.055 385.225 291.105C387.576 285.379 385.754 278.842 383.49 273.552C382.004 270.08 380.286 266.469 380.565 262.388C380.82 258.659 382.7 255.278 384.512 252.119C380.278 252.373 375.507 252.932 372.531 256.972C369.709 260.805 369.563 266.373 369.834 271.295C370.104 276.218 370.543 281.507 368.471 285.98C365.657 292.053 358.66 295.64 358.467 302.396C358.37 305.803 360.179 308.562 361.417 311.466C362.222 313.354 362.723 315.77 362.393 317.886C362.045 320.115 362.594 322.316 363.991 323.585L364.212 323.786Z" fill="#FFA6A4"/>
<path d="M363.814 333.7C364.076 332.07 364.376 330.453 364.652 328.834C364.904 327.21 365.176 325.592 365.373 323.967C366.008 320.762 366.491 317.532 366.649 314.293C366.736 312.671 366.704 311.056 366.712 309.387C366.716 307.719 366.908 305.992 367.331 304.355C367.753 302.715 368.333 301.154 368.978 299.603C369.658 298.073 370.419 296.571 371.301 295.156C373.006 292.306 375.183 289.752 375.866 286.714C376.216 285.207 376.209 283.626 375.999 282.055C375.745 280.502 375.34 278.892 374.997 277.276C374.309 274.051 373.684 270.776 373.597 267.403C373.672 265.717 373.917 264.023 374.438 262.418C374.946 260.81 375.767 259.319 376.814 258.046C375.978 259.468 375.398 261.01 375.098 262.589C374.798 264.17 374.771 265.782 374.9 267.38C374.982 270.587 375.588 273.806 376.272 277.001C376.61 278.6 377.012 280.179 377.29 281.871C377.517 283.554 377.531 285.31 377.137 287.007C376.753 288.711 375.955 290.271 375.076 291.688C374.194 293.112 373.258 294.451 372.414 295.835C371.556 297.21 370.83 298.649 370.175 300.119C369.559 301.601 368.992 303.13 368.595 304.675C368.197 306.223 368.021 307.784 368.016 309.402C368.007 311.02 368.04 312.693 367.951 314.354C367.794 317.685 367.285 320.97 366.663 324.215C365.838 327.423 364.881 330.581 363.814 333.7Z" fill="#F97068"/>
<path d="M372.421 312.822C372.139 313.212 371.758 313.518 371.341 313.74C370.923 313.957 370.475 314.134 370.006 314.18C369.536 314.226 369.06 314.136 368.606 314.111C368.147 314.077 367.709 314.113 367.233 314.143L367.176 314.147L367.074 314.051C366.714 313.714 366.338 313.389 366.029 313.015C365.713 312.647 365.387 312.285 365.105 311.89C364.824 311.496 364.58 311.074 364.351 310.64C364.124 310.206 363.924 309.751 363.773 309.261L363.853 309.201C364.276 309.492 364.652 309.817 364.998 310.164C365.345 310.511 365.675 310.87 365.967 311.256C366.261 311.642 366.508 312.061 366.766 312.473C367.031 312.879 367.229 313.335 367.444 313.779L367.285 313.687C367.697 313.799 368.154 313.834 368.584 313.75C369.02 313.671 369.431 313.466 369.835 313.336C370.243 313.214 370.651 313.132 371.065 313.032C371.487 312.945 371.889 312.816 372.366 312.738L372.421 312.822Z" fill="#F97068"/>
<path d="M377.304 346.153H356.255C355.024 346.153 353.976 345.253 353.791 344.036L350.422 321.924C350.193 320.415 351.361 319.056 352.887 319.056H380.672C382.198 319.056 383.366 320.415 383.136 321.924L379.768 344.036C379.582 345.254 378.535 346.153 377.304 346.153Z" fill="#B4DFF9"/>
<path d="M64.1128 283.454C64.2241 284.355 64.0358 285.263 63.5982 286.06C62.0027 288.962 61.194 292.295 61.2983 295.606C61.367 297.787 61.815 300.019 61.2213 302.119C60.1971 305.742 56.373 307.982 55.1422 311.541C54.0514 314.696 55.0659 318.663 52.7982 321.113C52.236 321.72 51.3636 322.185 50.5956 321.878C50.2098 321.723 49.9207 321.401 49.6469 321.089C47.0474 318.137 44.2644 314.549 45.066 310.698C45.8194 307.081 49.5475 304.636 50.2539 301.008C50.8315 298.045 49.3165 294.625 51.0143 292.129C51.4826 291.44 52.1534 290.913 52.6651 290.256C54.6843 287.663 53.9366 283.53 56.2631 281.209C57.022 280.452 57.9714 280.023 59.0061 279.802C61.4468 279.279 63.8069 280.979 64.1128 283.454Z" fill="#F97068"/>
<path d="M49.3299 329.423C49.1738 327.493 49.1073 325.562 49.0352 323.627C49.1234 321.697 49.2263 319.767 49.3915 317.839C49.5567 315.911 49.7738 313.982 50.1147 312.065C50.4613 310.16 50.9192 308.214 51.7208 306.423C53.1204 302.883 54.2525 299.182 55.3957 295.514L57.0536 289.984C57.7349 288.178 58.4 286.368 59.0427 284.545C58.7612 286.463 58.3223 288.346 57.9372 290.242L56.2751 295.784C55.1248 299.47 54.0039 303.149 52.5694 306.777C51.7936 308.511 51.3645 310.347 51.0207 312.225C50.6867 314.101 50.4725 316.006 50.3087 317.916C50.1483 319.827 50.0356 321.745 49.9621 323.665L49.3299 329.423Z" fill="#FFA6A4"/>
<path d="M59.5172 290.309C59.1994 290.79 58.7891 291.152 58.3487 291.471C58.1226 291.623 57.8572 291.721 57.6108 291.846C57.3608 291.966 57.1424 292.127 56.9394 292.31L56.8512 292.389L56.7727 292.27C56.5886 291.988 56.3646 291.727 56.1888 291.441C56.0187 291.153 55.8402 290.869 55.689 290.572C55.3949 289.973 55.1758 289.336 55.0645 288.646L55.1191 288.619C55.6014 289.125 55.976 289.683 56.2757 290.281C56.4213 290.581 56.5396 290.895 56.6663 291.205C56.7867 291.518 56.8596 291.854 56.973 292.171L56.8071 292.131C57.0416 291.992 57.2607 291.831 57.4484 291.628C57.6395 291.43 57.8117 291.205 58.0232 291.035C58.4579 290.708 58.9228 290.424 59.4801 290.261L59.5172 290.309Z" fill="#FFA6A4"/>
<path d="M59.0494 296.906C58.7182 297.179 58.3759 297.474 58.0181 297.721C57.6603 297.975 57.297 298.218 56.9042 298.415C56.5072 298.606 56.0858 298.756 55.7042 298.972C55.3205 299.185 54.9705 299.452 54.6281 299.73L54.5077 299.828L54.3859 299.668C53.8566 298.975 53.4043 298.239 52.9772 297.488C52.5754 296.722 52.2169 295.933 51.96 295.085L52.0132 295.055C52.6062 295.713 53.0977 296.427 53.5457 297.166C53.9686 297.919 54.3663 298.688 54.6869 299.498L54.4447 299.437C54.8452 299.25 55.2393 299.054 55.6006 298.804C55.964 298.558 56.2888 298.249 56.6389 297.981C56.9931 297.719 57.3796 297.509 57.7738 297.311C58.1735 297.12 58.5698 296.934 59.0368 296.846L59.0494 296.906Z" fill="#FFA6A4"/>
<path d="M56.7044 305.614C56.341 305.98 55.9357 306.25 55.5177 306.493C55.1053 306.747 54.6523 306.916 54.1693 307.03C53.6883 307.147 53.2521 307.359 52.8635 307.656C52.4764 307.95 52.0976 308.274 51.7097 308.528L51.4171 308.72L51.1993 308.393C50.8787 307.913 50.5874 307.416 50.3613 306.884C50.1345 306.352 49.9328 305.806 49.8208 305.211L49.888 305.173C50.3305 305.587 50.6841 306.049 51.0117 306.526C51.3401 307.002 51.604 307.514 51.8379 308.043L51.3275 307.908C51.7699 307.664 52.2404 307.524 52.706 307.361C53.1709 307.201 53.5959 306.971 53.9781 306.651C54.359 306.328 54.7756 306.073 55.2341 305.905C55.6878 305.729 56.1576 305.586 56.6715 305.543L56.7044 305.614Z" fill="#FFA6A4"/>
<path d="M46.2595 329.8C44.7514 329.552 39.0966 327.743 39.4914 326.267C41.1864 319.929 42.8814 312.74 37.0116 309.64C34.1866 308.148 30.6412 307.39 29.033 304.63C27.3765 301.788 28.5961 298.174 30.0825 295.24C31.5689 292.305 33.3591 289.162 32.722 285.935C32.0547 282.555 28.8587 280.06 28.3469 276.653C27.6489 272.001 32.1661 268.253 36.5061 266.437C37.982 265.819 39.6049 265.291 41.1605 265.666C42.2716 265.935 43.235 266.647 43.9967 267.499C47.045 270.907 46.9204 276.05 46.2252 280.57C45.5293 285.089 44.4651 289.863 46.1671 294.107C47.3762 297.121 49.9645 299.957 49.2714 303.13C48.9935 304.401 48.2009 305.51 47.8992 306.775C47.0842 310.186 49.9183 313.259 51.2171 316.517C52.8931 320.72 51.7428 325.857 48.5657 329.046C47.9615 329.653 47.1045 329.94 46.2595 329.8Z" fill="#FFA6A4"/>
<path d="M46.7936 329.87C46.4443 327.362 46.0949 324.862 45.6475 322.38C45.5411 321.759 45.4109 321.142 45.3115 320.522C45.217 319.901 45.1616 319.275 45.0587 318.655C44.8718 317.413 44.6625 316.175 44.4258 314.944C43.9469 312.486 43.3742 310.039 42.5341 307.711C42.1126 306.552 41.6127 305.418 40.9525 304.44C40.6249 303.952 40.2377 303.52 39.8092 303.229C39.2442 302.858 38.7051 302.38 38.2837 301.811C37.4141 300.658 37.1516 299.194 37.1831 297.875C37.2125 296.537 37.4652 295.261 37.7481 294.014C38.3292 291.525 39.0608 289.121 39.4676 286.673C39.8806 284.237 39.9611 281.742 39.3177 279.405C39.1196 278.835 38.9642 278.255 38.7765 277.674C38.5847 277.096 38.3362 276.534 38.0554 275.984C37.4918 274.883 36.7574 273.859 35.9438 272.885C36.9415 273.668 37.8664 274.572 38.6386 275.618C39.0258 276.138 39.3891 276.686 39.6979 277.267C40.0172 277.843 40.2874 278.455 40.4274 279.101C41.131 281.658 41.0309 284.336 40.6025 286.862C40.1789 289.403 39.4347 291.843 38.8697 294.271C38.5931 295.484 38.3586 296.702 38.3341 297.894C38.3089 299.08 38.5385 300.239 39.2092 301.125C39.5411 301.571 39.9569 301.947 40.4463 302.269C41.0645 302.691 41.5224 303.23 41.9005 303.785C42.6538 304.904 43.1726 306.104 43.6158 307.314C44.4909 309.74 45.0699 312.229 45.5565 314.724C45.7974 315.973 46.0081 317.227 46.1978 318.482C46.2846 319.111 46.4016 319.735 46.4779 320.365C46.5423 320.997 46.5703 321.633 46.6102 322.266C46.7467 324.803 46.8405 327.337 46.7936 329.87Z" fill="#F97068"/>
<path d="M36.7776 280.404C37.2117 280.555 37.5757 280.809 37.9132 281.078C38.2471 281.353 38.5664 281.644 38.8016 282.012C39.0397 282.378 39.2518 282.764 39.5571 283.064C39.8504 283.374 40.2047 283.628 40.5449 283.901L40.0976 283.929C40.2481 283.604 40.4343 283.3 40.6052 282.989C40.7809 282.68 40.9573 282.373 41.1659 282.087C41.362 281.794 41.5853 281.516 41.7982 281.235C42.0124 280.953 42.2546 280.692 42.4486 280.393L42.5242 280.405C42.541 280.8 42.4213 281.167 42.3008 281.513C42.1685 281.857 42.0208 282.191 41.8423 282.506C41.6756 282.828 41.4642 283.12 41.2507 283.411C41.0308 283.697 40.8201 283.987 40.5673 284.252L40.2873 284.547L40.12 284.28C39.891 283.917 39.6705 283.54 39.3848 283.224C39.1111 282.896 38.7393 282.661 38.3879 282.41C38.0343 282.16 37.755 281.843 37.4819 281.519C37.2103 281.192 36.9575 280.853 36.73 280.465L36.7776 280.404Z" fill="#F97068"/>
<path d="M42.2599 290C42.0807 290.431 41.8462 290.824 41.5843 291.194C41.3176 291.559 41.0396 291.915 40.7204 292.231C40.3941 292.541 40.0202 292.806 39.6702 293.093C39.3271 293.385 39.0247 293.715 38.7502 294.074L38.6627 294.188L38.5388 294.089C38.0823 293.726 37.7196 293.394 37.3598 293.007C37.0188 292.618 36.6562 292.249 36.339 291.845C36.0191 291.442 35.7208 291.024 35.4372 290.594C35.1509 290.166 34.894 289.718 34.5957 289.3L34.6391 289.237C35.1397 289.473 35.5297 289.839 35.9161 290.189C36.297 290.548 36.6499 290.929 36.9768 291.329C37.3073 291.726 37.588 292.162 37.8947 292.575C38.1943 292.979 38.4471 293.481 38.7313 293.836L38.5206 293.852C38.8678 293.567 39.1808 293.246 39.4496 292.886C39.7122 292.519 39.9474 292.129 40.2233 291.778C40.5061 291.433 40.8282 291.124 41.1481 290.813C41.4744 290.507 41.8203 290.22 42.199 289.951L42.2599 290Z" fill="#F97068"/>
<path d="M32.1761 297.407C32.6522 297.966 33.1458 298.481 33.6505 298.972C34.1567 299.466 34.7007 299.897 35.2293 300.371C35.7691 300.829 36.3803 301.239 37.0727 301.441C37.7596 301.657 38.4884 301.685 39.1913 301.677L38.877 301.898C39.0009 301.306 39.185 300.748 39.3789 300.184C39.5694 299.62 39.813 299.073 40.1078 298.55C40.399 298.025 40.7449 297.525 41.1524 297.073C41.5668 296.633 42.0471 296.22 42.6205 296.014L42.659 296.081C42.2249 296.474 41.8903 296.928 41.5997 297.413C41.3043 297.893 41.0536 298.4 40.8079 298.912L40.1022 300.469C39.8704 300.992 39.666 301.535 39.463 302.063L39.3649 302.318L39.1486 302.285C38.4002 302.168 37.6903 301.914 36.9964 301.67C36.311 301.403 35.606 301.167 34.9318 300.823C34.2499 300.49 33.6765 299.972 33.1955 299.397C32.7152 298.82 32.3231 298.164 32.1089 297.441L32.1761 297.407Z" fill="#F97068"/>
<path d="M45.8125 303.076C46.0435 303.631 46.1227 304.236 46.1072 304.835C46.082 305.433 45.9875 306.037 45.7782 306.601C45.5577 307.161 45.2349 307.676 44.8729 308.142L43.8179 309.544L43.7429 309.644L43.6211 309.558C43.0505 309.152 42.4008 308.844 41.7812 308.521C41.163 308.189 40.5224 307.906 39.8811 307.633C39.2405 307.357 38.6013 307.077 37.9431 306.831C37.2906 306.563 36.6192 306.35 35.938 306.093L35.9492 306.018C37.4033 305.986 38.8722 306.295 40.2094 306.884C40.8802 307.177 41.511 307.552 42.1215 307.949C42.7299 308.356 43.2725 308.844 43.8038 309.348L43.6071 309.361C43.9978 308.949 44.3541 308.494 44.581 307.97C44.8344 307.46 44.9591 306.904 45.1327 306.384C45.4701 305.334 45.6844 304.253 45.7376 303.096L45.8125 303.076Z" fill="#F97068"/>
<path d="M56.5125 346.153H40.3705C38.8723 346.153 37.5988 344.858 37.3733 343.105L34.8179 323.248C34.5385 321.075 35.9591 319.118 37.8151 319.118H59.068C60.9247 319.118 62.3452 321.075 62.0652 323.248L59.5097 343.105C59.2843 344.858 58.0108 346.153 56.5125 346.153Z" fill="#B4DFF9"/>
<path d="M59.0678 319.119H55.5525C57.4092 319.119 58.8298 321.076 58.5497 323.248L55.9943 343.105C55.7689 344.858 54.4953 346.154 52.9971 346.154H56.5124C58.0106 346.154 59.2842 344.858 59.5096 343.105L62.065 323.248C62.3444 321.076 60.9238 319.119 59.0678 319.119Z" fill="#A2D4F9"/>
<path d="M12.0537 241.624H-36.7098C-39.3583 241.624 -41.5049 239.477 -41.5049 236.829V211.47C-41.5049 208.821 -39.3576 206.675 -36.7098 206.675H12.0537C14.7022 206.675 16.8488 208.821 16.8488 211.47V236.829C16.8488 239.477 14.7022 241.624 12.0537 241.624Z" fill="#A2D4F9"/>
<path d="M13.701 241.624H-38.3571C-40.0955 241.624 -41.5049 240.215 -41.5049 238.476L-12.328 219.11L16.8488 238.476C16.8488 240.215 15.4394 241.624 13.701 241.624Z" fill="#B4DFF9"/>
<path d="M13.701 206.674H-38.3571C-40.0955 206.674 -41.5049 208.084 -41.5049 209.822L-12.328 229.189L16.8488 209.822C16.8488 208.084 15.4394 206.674 13.701 206.674Z" fill="#FAFDFF"/>
<path d="M360.676 79.9172H244.225C240.597 79.9172 237.656 82.8584 237.656 86.4858V113.722C237.656 117.35 240.597 120.29 244.225 120.29H255.922L251.935 130.13L265.189 120.29H360.676C364.304 120.29 367.244 117.349 367.244 113.722V86.4858C367.244 82.8584 364.304 79.9172 360.676 79.9172Z" fill="#A2D4F9"/>
<path d="M352.989 94.7458H264.238C263.391 94.7458 262.704 94.059 262.704 93.2112C262.704 92.364 263.391 91.6765 264.238 91.6765H352.989C353.836 91.6765 354.523 92.3633 354.523 93.2112C354.523 94.0583 353.836 94.7458 352.989 94.7458ZM354.523 100.104C354.523 99.2567 353.836 98.5692 352.989 98.5692H251.912C251.065 98.5692 250.377 99.256 250.377 100.104C250.377 100.951 251.064 101.639 251.912 101.639H352.989C353.836 101.639 354.523 100.952 354.523 100.104ZM310.148 106.997C310.148 106.15 309.461 105.463 308.614 105.463H251.913C251.066 105.463 250.378 106.149 250.378 106.997C250.378 107.844 251.065 108.532 251.913 108.532H308.614C309.461 108.531 310.148 107.844 310.148 106.997Z" fill="white"/>
<path d="M384.621 201.289C380.095 205.814 379.412 212.711 382.541 217.971L359.513 240.998C359.041 241.469 359.041 242.235 359.513 242.706L362.584 245.777C363.056 246.249 363.821 246.249 364.292 245.777L365.928 244.142L370.182 248.396C370.654 248.868 371.419 248.868 371.89 248.396L374.405 245.881C374.877 245.41 374.877 244.645 374.405 244.173L370.151 239.919L372.354 237.715L375.989 241.35C376.461 241.822 377.225 241.822 377.697 241.35L380.212 238.835C380.684 238.364 380.684 237.599 380.212 237.127L376.577 233.492L387.32 222.75C392.58 225.879 399.476 225.196 404.002 220.67C409.353 215.319 409.353 206.641 404.002 201.29C398.65 195.937 389.973 195.937 384.621 201.289ZM399.711 216.38C396.729 219.362 391.894 219.362 388.911 216.38C385.929 213.397 385.929 208.562 388.911 205.58C391.894 202.597 396.729 202.597 399.711 205.58C402.694 208.562 402.694 213.397 399.711 216.38Z" fill="#A2D4F9"/>
<path d="M-0.778307 284.079C-1.15847 282.996 -1.43152 281.939 -1.60165 280.91C-1.77178 279.881 -1.69406 278.817 -1.3573 277.711C-1.02405 276.609 -0.300827 275.466 0.810265 274.277C1.14772 273.91 1.63781 273.401 2.28122 272.754C2.92533 272.108 3.55264 271.387 4.16244 270.585C4.77295 269.784 5.23993 268.959 5.55498 268.115C5.87424 267.269 5.89944 266.454 5.6236 265.67C5.42756 265.111 5.09151 264.672 4.61822 264.359C4.14424 264.043 3.61425 263.862 3.02755 263.817C2.43665 263.773 1.83874 263.856 1.23384 264.069C0.329284 264.387 -0.340734 264.868 -0.774809 265.508C-1.20888 266.148 -1.50993 266.809 -1.67306 267.48C-1.83969 268.156 -2.00982 268.734 -2.17715 269.218L-10.7529 266.752C-10.6556 264.979 -10.2089 263.344 -9.4157 261.855C-8.62666 260.367 -7.54848 259.055 -6.18534 257.917C-4.82221 256.78 -3.23223 255.892 -1.41892 255.255C0.0205297 254.749 1.53769 254.449 3.13607 254.349C4.73935 254.249 6.29851 254.438 7.82828 254.911C9.35314 255.386 10.7415 256.222 11.9891 257.427C13.2416 258.631 14.2358 260.28 14.973 262.376C15.2895 263.276 15.5184 264.165 15.6556 265.043C15.7929 265.92 15.8125 266.787 15.7095 267.644C15.6066 268.502 15.3791 269.359 15.0234 270.221C14.6678 271.082 14.1714 271.941 13.5385 272.796C12.7039 273.931 11.8064 274.963 10.8367 275.892C9.86773 276.823 9.08149 277.698 8.47869 278.519C7.87659 279.342 7.72046 280.167 8.00961 280.991L-0.778307 284.079ZM3.00865 294.309L2.83011 293.801C1.97737 291.374 3.25299 288.715 5.68031 287.862C8.10762 287.008 10.7667 288.284 11.6201 290.712L11.7987 291.219C12.6514 293.647 11.3758 296.306 8.94847 297.159C6.52115 298.013 3.8621 296.736 3.00865 294.309Z" fill="white"/>
</g>
<defs>
<clipPath id="clip0_54_439">
<rect width="365" height="362.949" rx="27.5198" fill="white"/>
</clipPath>
</defs>
</svg>
