<svg width="365" height="363" viewBox="0 0 365 363" fill="none" xmlns="http://www.w3.org/2000/svg">
<g clip-path="url(#clip0_57_2045)">
<rect width="365" height="362.949" rx="27.5198" fill="#2EAA32"/>
<path d="M-30.4444 456.568H326.219C342.396 439.132 359.602 432.651 386.749 420.349C426.08 402.526 401.857 298.901 357.708 268.881C313.558 238.86 315.787 237.268 291.329 176.703C266.871 116.138 200.099 115.722 158.624 142.951C117.148 170.18 98.6643 142.046 64.6205 164.139C30.5766 186.233 41.775 231.047 26.9332 259.234C12.0914 287.421 -44.6357 305.299 -34.491 368.228C-29.1051 401.641 -29.0131 432.82 -30.4444 456.568Z" fill="black" fill-opacity="0.2"/>
<path d="M-8.73302 -195L-152.496 4.45926C-149.266 20.5335 -152.578 32.7686 -156.64 52.909C-162.526 82.0887 -94.8115 110.311 -60.2271 97.7215C-25.6426 85.1315 -25.6504 87.0199 18.0779 97.755C61.8063 108.489 88.9526 71.3162 90.444 37.1459C91.9353 2.97568 115.119 3.97955 116.485 -23.9647C117.852 -51.909 88.2764 -63.7096 78.4952 -83.3711C68.7147 -103.033 81.5816 -141.963 42.3008 -161.655C21.4444 -172.112 3.97084 -184.628 -8.73302 -195Z" fill="black" fill-opacity="0.2"/>
<path d="M568.243 135.054L481.408 -94.9717C466.224 -101.16 457.856 -110.679 443.313 -125.192C422.242 -146.219 361.308 -105.368 352.696 -69.5851C344.084 -33.8018 342.514 -34.8516 309.408 -4.33258C276.302 26.1865 292.291 69.3517 319.949 89.4718C347.608 109.592 333.962 128.363 356.5 144.939C379.038 161.516 405.214 143.383 427.006 146.093C448.799 148.802 474.14 181.035 512.255 159.172C532.492 147.563 552.578 139.913 568.243 135.054Z" fill="black" fill-opacity="0.2"/>
<path d="M242.581 360.384C252.548 358.295 258.935 348.522 256.847 338.555C254.758 328.588 244.985 322.201 235.018 324.29C225.051 326.378 218.664 336.151 220.753 346.118C222.841 356.085 232.614 362.472 242.581 360.384Z" fill="#FBE12D"/>
<path d="M230.756 342.905C231.396 343.117 231.781 343.76 231.687 344.428C231.605 345.015 231.612 345.56 231.706 346.063C231.859 346.876 232.297 347.668 233.023 348.441C233.748 349.214 234.669 349.842 235.785 350.323C236.776 350.75 237.713 350.981 238.6 351.013C239.485 351.045 240.224 350.885 240.817 350.531C241.409 350.178 241.836 349.698 242.098 349.091C242.363 348.475 242.416 347.86 242.258 347.246C242.099 346.633 241.677 345.992 240.99 345.326C240.551 344.893 239.523 344.072 237.908 342.861C236.291 341.651 235.204 340.697 234.646 340.002C233.92 339.107 233.484 338.196 233.338 337.27C233.192 336.344 233.314 335.43 233.702 334.529C234.13 333.538 234.81 332.733 235.744 332.114C236.679 331.495 237.782 331.195 239.054 331.215C240.327 331.234 241.625 331.529 242.946 332.099C244.4 332.727 245.583 333.514 246.492 334.463C247.401 335.41 247.96 336.469 248.164 337.637C248.273 338.255 248.29 338.874 248.215 339.493C248.107 340.378 247.223 340.95 246.38 340.659L246.378 340.658C245.758 340.444 245.382 339.825 245.458 339.174C245.558 338.319 245.431 337.549 245.076 336.861C244.578 335.894 243.574 335.086 242.065 334.436C240.495 333.758 239.225 333.552 238.258 333.818C237.292 334.084 236.633 334.623 236.283 335.436C235.979 336.141 235.983 336.831 236.295 337.506C236.598 338.177 237.702 339.206 239.608 340.594C241.513 341.982 242.782 343.025 243.413 343.72C244.329 344.74 244.884 345.771 245.081 346.814C245.277 347.857 245.149 348.905 244.694 349.958C244.244 351.003 243.52 351.858 242.524 352.524C241.527 353.191 240.357 353.538 239.016 353.569C237.674 353.598 236.303 353.311 234.901 352.707C233.125 351.941 231.748 351.04 230.77 350.005C229.793 348.97 229.187 347.784 228.952 346.449C228.804 345.607 228.809 344.766 228.965 343.926C229.116 343.116 229.975 342.646 230.756 342.905Z" fill="#FEA912"/>
<path d="M233.683 354.194C233.133 353.956 232.877 353.312 233.114 352.761L242.47 331.066C242.708 330.516 243.352 330.259 243.903 330.497C244.453 330.734 244.709 331.379 244.472 331.929L235.116 353.625C234.878 354.176 234.234 354.431 233.683 354.194Z" fill="#FEA912"/>
<path d="M78.3422 218.716C86.2834 212.341 87.5532 200.735 81.1782 192.794C74.8032 184.853 63.1976 183.583 55.2563 189.958C47.3151 196.333 46.0454 207.938 52.4204 215.88C58.7954 223.821 70.401 225.091 78.3422 218.716Z" fill="#FBE12D"/>
<path d="M59.8843 208.485C60.5512 208.384 61.1854 208.784 61.4045 209.422C61.5972 209.983 61.8499 210.466 62.1619 210.871C62.6658 211.526 63.4154 212.034 64.4122 212.395C65.4091 212.756 66.5143 212.899 67.7272 212.823C68.8044 212.755 69.7443 212.536 70.5493 212.163C71.3534 211.791 71.94 211.313 72.3082 210.73C72.6756 210.146 72.8393 209.526 72.798 208.866C72.7559 208.197 72.5242 207.624 72.1054 207.148C71.6865 206.673 71.0196 206.293 70.1055 206.01C69.5181 205.823 68.2303 205.556 66.2413 205.208C64.2515 204.861 62.8507 204.503 62.0387 204.136C60.9865 203.666 60.1854 203.052 59.6355 202.292C59.0856 201.532 58.7806 200.662 58.719 199.683C58.6511 198.606 58.8937 197.58 59.446 196.605C59.999 195.63 60.8468 194.863 61.9903 194.305C63.1338 193.746 64.4247 193.421 65.8607 193.331C67.4418 193.232 68.8528 193.399 70.093 193.833C71.3324 194.266 72.3097 194.958 73.0211 195.906C73.3978 196.408 73.6927 196.952 73.9064 197.539C74.2114 198.376 73.6818 199.286 72.798 199.408H72.7957C72.1467 199.499 71.5313 199.117 71.3043 198.502C71.0063 197.695 70.5438 197.065 69.9167 196.613C69.0345 195.976 67.7732 195.709 66.1337 195.813C64.4263 195.92 63.2009 196.312 62.4591 196.986C61.7181 197.661 61.3749 198.44 61.4303 199.323C61.4787 200.09 61.7945 200.703 62.3788 201.163C62.9528 201.624 64.4029 202.042 66.7312 202.417C69.0579 202.792 70.6616 203.147 71.5391 203.481C72.8175 203.976 73.7792 204.644 74.4274 205.484C75.074 206.325 75.4344 207.318 75.5062 208.463C75.5772 209.599 75.319 210.689 74.7324 211.734C74.1459 212.779 73.2598 213.618 72.0781 214.253C70.8948 214.887 69.5423 215.252 68.0189 215.348C66.0884 215.469 64.4528 215.29 63.112 214.809C61.7719 214.329 60.6948 213.547 59.8812 212.462C59.368 211.778 58.9912 211.026 58.7502 210.207C58.5178 209.416 59.0708 208.608 59.8843 208.485Z" fill="#FEA912"/>
<path d="M67.6061 217.225C67.0079 217.262 66.4876 216.804 66.4502 216.206L64.9689 192.625C64.9315 192.027 65.3901 191.507 65.9884 191.469C66.5867 191.432 67.1069 191.891 67.1444 192.489L68.6256 216.069C68.663 216.668 68.2044 217.188 67.6061 217.225Z" fill="#FEA912"/>
<path d="M346.168 256.82C343.32 264.047 335.155 267.596 327.928 264.749C320.701 261.902 317.151 253.735 319.999 246.508C322.846 239.282 331.013 235.732 338.24 238.58C345.465 241.427 349.015 249.593 346.168 256.82Z" fill="#EFE4E1"/>
<path d="M326.97 252.286C327.463 252.432 327.771 252.913 327.717 253.425C327.668 253.874 327.686 254.29 327.771 254.67C327.906 255.286 328.26 255.879 328.832 256.451C329.404 257.023 330.121 257.479 330.983 257.819C331.749 258.121 332.469 258.273 333.146 258.276C333.822 258.279 334.381 258.14 334.824 257.856C335.266 257.572 335.581 257.196 335.766 256.726C335.953 256.251 335.979 255.78 335.843 255.316C335.707 254.852 335.369 254.375 334.83 253.882C334.485 253.563 333.681 252.962 332.42 252.078C331.158 251.195 330.306 250.494 329.864 249.978C329.289 249.313 328.934 248.629 328.801 247.927C328.667 247.225 328.738 246.526 329.012 245.828C329.314 245.062 329.813 244.433 330.51 243.937C331.207 243.443 332.041 243.188 333.011 243.172C333.982 243.156 334.979 243.349 336 243.751C337.124 244.194 338.045 244.766 338.76 245.466C339.476 246.167 339.927 246.96 340.112 247.846C340.209 248.315 340.237 248.786 340.195 249.26C340.134 249.937 339.475 250.394 338.825 250.193L338.823 250.192C338.346 250.045 338.044 249.582 338.086 249.084C338.142 248.43 338.025 247.845 337.739 247.33C337.336 246.606 336.55 246.013 335.385 245.554C334.171 245.076 333.198 244.95 332.467 245.175C331.737 245.402 331.248 245.829 331.001 246.457C330.786 247.002 330.806 247.528 331.061 248.035C331.309 248.539 332.175 249.297 333.661 250.309C335.147 251.32 336.139 252.084 336.638 252.599C337.361 253.354 337.809 254.127 337.985 254.918C338.159 255.708 338.087 256.51 337.766 257.324C337.448 258.131 336.917 258.8 336.174 259.332C335.43 259.864 334.547 260.158 333.525 260.214C332.503 260.269 331.451 260.083 330.367 259.657C328.994 259.116 327.924 258.463 327.152 257.697C326.382 256.932 325.891 256.042 325.68 255.031C325.547 254.392 325.53 253.751 325.629 253.106C325.725 252.486 326.368 252.107 326.97 252.286Z" fill="#FFCC71"/>
<path d="M329.476 260.821C329.05 260.653 328.839 260.168 329.007 259.743L335.613 242.977C335.78 242.552 336.265 242.341 336.691 242.509C337.116 242.676 337.327 243.161 337.159 243.586L330.554 260.352C330.386 260.778 329.901 260.988 329.476 260.821Z" fill="#FFCC71"/>
<path d="M340.699 267.998C349.9 263.635 353.823 252.638 349.46 243.437C345.097 234.235 334.101 230.313 324.899 234.676C315.698 239.039 311.775 250.035 316.138 259.236C320.501 268.438 331.497 272.36 340.699 267.998Z" fill="#FBE12D"/>
<path d="M325.112 253.771C325.784 253.828 326.308 254.363 326.374 255.035C326.431 255.625 326.565 256.153 326.775 256.62C327.113 257.374 327.725 258.041 328.611 258.624C329.497 259.206 330.54 259.6 331.737 259.807C332.801 259.99 333.766 259.995 334.635 259.818C335.504 259.643 336.185 259.314 336.678 258.832C337.171 258.349 337.474 257.783 337.586 257.132C337.7 256.471 337.608 255.86 337.31 255.3C337.013 254.741 336.452 254.217 335.628 253.73C335.1 253.412 333.909 252.854 332.055 252.055C330.199 251.257 328.92 250.584 328.215 250.039C327.3 249.339 326.663 248.555 326.304 247.689C325.945 246.822 325.849 245.906 326.016 244.938C326.2 243.875 326.673 242.933 327.436 242.112C328.2 241.292 329.202 240.742 330.444 240.464C331.686 240.185 333.017 240.168 334.435 240.413C335.996 240.683 337.33 241.172 338.436 241.881C339.541 242.59 340.332 243.488 340.804 244.576C341.054 245.152 341.215 245.749 341.287 246.369C341.39 247.255 340.664 248.017 339.776 247.931L339.774 247.931C339.122 247.868 338.611 247.354 338.533 246.704C338.43 245.849 338.126 245.13 337.621 244.544C336.91 243.721 335.744 243.169 334.125 242.891C332.44 242.599 331.157 242.697 330.279 243.181C329.402 243.666 328.888 244.345 328.737 245.216C328.607 245.973 328.772 246.643 329.234 247.226C329.686 247.807 330.999 248.55 333.178 249.453C335.354 250.357 336.832 251.073 337.608 251.602C338.738 252.379 339.519 253.251 339.954 254.22C340.389 255.187 340.509 256.237 340.314 257.367C340.12 258.488 339.617 259.489 338.804 260.37C337.991 261.251 336.935 261.862 335.639 262.206C334.341 262.549 332.94 262.591 331.436 262.331C329.53 262.002 327.98 261.449 326.787 260.671C325.595 259.893 324.728 258.883 324.188 257.64C323.847 256.855 323.655 256.037 323.61 255.183C323.567 254.36 324.292 253.703 325.112 253.771Z" fill="#FEA912"/>
<path d="M330.6 264.062C330.009 263.959 329.609 263.393 329.711 262.802L333.731 239.52C333.833 238.929 334.399 238.529 334.99 238.631C335.581 238.733 335.981 239.3 335.878 239.891L331.859 263.173C331.757 263.765 331.191 264.164 330.6 264.062Z" fill="#FEA912"/>
<path d="M340.503 358.119L288.365 377.619C285.272 378.776 281.828 377.207 280.671 374.114L249.978 292.051C248.821 288.958 250.391 285.514 253.483 284.357L305.621 264.856C308.714 263.7 312.158 265.269 313.315 268.362L344.008 350.425C345.165 353.517 343.595 356.963 340.503 358.119Z" fill="#E5D8D6"/>
<path d="M310.102 270.848L254.01 291.827L283.853 371.62L339.946 350.641L310.102 270.848Z" fill="#F9F3F2"/>
<path d="M308.555 284.671L264.596 301.112L264.907 301.945L308.867 285.504L308.555 284.671Z" fill="#EFE4E1"/>
<path d="M310.608 290.156L266.648 306.597L266.96 307.431L310.919 290.99L310.608 290.156Z" fill="#EFE4E1"/>
<path d="M312.659 295.643L268.7 312.085L269.012 312.918L312.971 296.477L312.659 295.643Z" fill="#EFE4E1"/>
<path d="M314.71 301.129L270.751 317.57L271.063 318.404L315.022 301.963L314.71 301.129Z" fill="#EFE4E1"/>
<path d="M316.762 306.615L272.803 323.057L273.115 323.89L317.074 307.449L316.762 306.615Z" fill="#EFE4E1"/>
<path d="M318.814 312.102L274.855 328.543L275.167 329.377L319.126 312.935L318.814 312.102Z" fill="#EFE4E1"/>
<path d="M320.866 317.588L276.907 334.029L277.219 334.863L321.178 318.421L320.866 317.588Z" fill="#EFE4E1"/>
<path d="M322.917 323.074L278.958 339.515L279.27 340.349L323.229 323.907L322.917 323.074Z" fill="#EFE4E1"/>
<path d="M324.97 328.561L281.011 345.002L281.322 345.836L325.282 329.395L324.97 328.561Z" fill="#EFE4E1"/>
<path d="M327.022 334.046L283.062 350.488L283.374 351.321L327.334 334.88L327.022 334.046Z" fill="#EFE4E1"/>
<path d="M329.074 339.533L285.114 355.974L285.426 356.808L329.385 340.367L329.074 339.533Z" fill="#EFE4E1"/>
<path d="M331.126 345.019L287.167 361.46L287.478 362.294L331.438 345.853L331.126 345.019Z" fill="#EFE4E1"/>
<path d="M291 281.192L275.235 287.088C273.819 287.618 272.235 286.897 271.705 285.48L270.146 281.313L270.98 281.001L272.538 285.168C272.896 286.125 273.966 286.612 274.923 286.254L290.688 280.358C291.646 280 292.133 278.93 291.775 277.973L290.217 273.806L291.05 273.494L292.608 277.661C293.139 279.078 292.417 280.662 291 281.192Z" fill="#E8B3B1"/>
<path d="M291.509 274.193L270.258 282.141C269.597 282.388 268.86 282.053 268.612 281.392L267.521 278.474C267.274 277.813 267.609 277.076 268.271 276.829L289.522 268.88C290.183 268.633 290.92 268.969 291.168 269.63L292.259 272.547C292.507 273.209 292.171 273.946 291.509 274.193Z" fill="#E8B3B1"/>
<path d="M135.064 302.675V400.706H177.988L182.333 347.437L190.486 400.706H227.48L222.746 305.262L135.064 302.675Z" fill="#425DA0"/>
<path d="M162.359 330.39L160.569 402.44L159.449 330.39H162.359Z" fill="#3B5996"/>
<path d="M198.98 322.507L211.36 399.083L202.187 322.507H198.98Z" fill="#3B5996"/>
<path d="M158.732 333.683C178.875 324.618 202.8 321.21 223.921 328.956L222.745 305.262L135.064 302.675V353.555C140.741 345.55 150.107 337.379 158.732 333.683Z" fill="#3B5996"/>
<path d="M149.649 315.592C150.544 315.592 189.253 318.277 212.748 314.474C213.866 309.775 211.853 304.629 211.853 304.629L159.606 306.753L149.649 315.592Z" fill="#2D282C"/>
<path d="M188.392 158.134C188.392 158.134 163.528 154.654 159.252 156.986C160.116 166.866 159.331 174.16 157.02 178.967L169.701 196.969C174.685 197.415 180.014 196.81 184.765 195.051L190.963 181.361C183.211 171.501 188.392 158.134 188.392 158.134Z" fill="#FFA586"/>
<path d="M159.481 167.98C161.383 173.214 166.691 175.672 169.54 176.269C176.398 177.199 183.228 173.555 186.697 167.96C186.703 166.698 187.041 164.406 187.179 163.308C187.335 158.944 188.393 158.134 188.393 158.134C188.393 158.134 163.528 154.654 159.252 156.986C159.395 158.621 159.482 159.913 159.521 161.049C159.628 163.552 159.614 165.86 159.481 167.98Z" fill="#F99073"/>
<path d="M154.424 139.094C154.424 139.094 152.732 135.677 147.943 136.731C143.153 137.785 143.727 146.694 146.889 151.196C150.05 155.698 156.085 154.933 156.373 153.112C156.659 151.291 154.424 139.094 154.424 139.094Z" fill="#F9977D"/>
<path d="M193.823 139.094C193.823 139.094 195.515 135.677 200.304 136.731C205.094 137.785 204.519 146.694 201.358 151.196C198.197 155.698 192.162 154.933 191.874 153.112C191.587 151.291 193.823 139.094 193.823 139.094Z" fill="#F9977D"/>
<path d="M197.832 143.1C197.832 143.1 196.538 144.607 197.4 146.234C198.261 147.861 197.639 148.292 196.443 149.249C195.246 150.206 195.725 151.737 197.352 151.258C198.979 150.78 201.866 147.956 202.504 144.607C203.142 141.258 201.658 139.248 200.654 139.918C199.649 140.588 197.832 143.1 197.832 143.1Z" fill="#F78469"/>
<path d="M150.994 143.1C150.994 143.1 152.288 144.607 151.427 146.234C150.565 147.861 151.187 148.292 152.384 149.249C153.58 150.206 153.101 151.737 151.474 151.258C149.847 150.78 146.96 147.956 146.322 144.607C145.684 141.258 147.168 139.248 148.172 139.918C149.178 140.588 150.994 143.1 150.994 143.1Z" fill="#F78469"/>
<path d="M195.164 117.541C195.164 117.541 196.829 125.682 195.935 138.072C195.041 150.462 193.252 167.704 173.327 167.96C153.402 168.215 152.125 145.097 153.402 135.901C154.68 126.704 153.799 118.018 153.799 118.018C153.799 118.018 179.326 109.685 195.164 117.541Z" fill="#FFA586"/>
<path d="M164.064 153.511C166.211 153.511 167.951 151.771 167.951 149.624C167.951 147.477 166.211 145.736 164.064 145.736C161.917 145.736 160.176 147.477 160.176 149.624C160.176 151.771 161.917 153.511 164.064 153.511Z" fill="#F9977D"/>
<path d="M192.064 150.079C192.064 152.107 190.421 153.751 188.393 153.751C186.365 153.751 184.721 152.107 184.721 150.079C184.721 148.051 186.365 146.408 188.393 146.408C190.421 146.408 192.064 148.051 192.064 150.079Z" fill="#F9977D"/>
<path d="M195.165 117.541C179.327 109.685 153.8 118.018 153.8 118.018C153.8 118.018 154.68 126.704 153.403 135.901C152.674 141.148 152.783 150.921 156.706 158.305C155.673 156.009 156.166 146.505 156.398 144.785C157.02 140.157 158.835 132.619 159.842 125.738C161.939 125.318 183.671 125.066 189.377 130.521C195.843 128.176 195.418 120.032 195.418 120.032C195.453 119.902 195.475 119.776 195.502 119.649C195.316 118.283 195.165 117.541 195.165 117.541Z" fill="#F99073"/>
<path d="M157.02 107.194C157.02 107.194 158.883 97.4605 173.458 95.7827C166.553 98.4675 162.358 105.264 162.358 105.264L157.02 107.194Z" fill="#331B2D"/>
<path d="M158.666 105.432C158.666 105.432 159.925 98.1321 162.526 95.7827C158.331 99.2233 156.227 102.16 156.398 106.859C158.331 108.788 158.666 105.432 158.666 105.432Z" fill="#331B2D"/>
<path d="M189.88 127.332C189.88 127.332 169.724 113.667 155.309 121.529C156.84 135.501 153.088 143.318 153.088 143.318C153.088 143.318 153.511 138.759 147.941 136.731C146.151 128.961 140.206 106.188 158.198 105.835C164.228 95.9294 194.206 96.3171 199.949 111.055C205.116 122.731 201.078 136.993 201.078 136.993C201.078 136.993 196.704 136.787 194.718 148.519C194.691 141.259 194.387 125.478 194.578 120.789C193.74 125.738 189.88 127.332 189.88 127.332Z" fill="#331B2D"/>
<path d="M199.949 111.054C196.256 101.577 182.545 98.0417 171.621 99.3544C167.906 100.883 162.704 103.607 161.016 107.194C158.331 112.9 170.413 111.893 178.385 114.494C186.357 117.096 187.362 120.602 190.72 121.627C194.078 122.65 196.869 114.17 196.869 114.17C196.869 114.17 199.533 128.117 198.306 138.741C199.797 136.936 201.079 136.993 201.079 136.993C201.079 136.993 205.117 122.73 199.949 111.054Z" fill="#3F2136"/>
<path d="M150.414 138.038C150.414 138.038 152.625 139.164 153.632 149.233C154.725 149.015 155.88 131.557 155.671 127.334C155.462 123.109 150.414 138.038 150.414 138.038Z" fill="#3F2136"/>
<path d="M182.788 135.563C182.788 135.563 186.274 132.619 190.971 135.667C192.392 135.97 191.088 133.356 189.147 132.599C187.206 131.841 185.205 131.529 182.911 132.866C180.616 134.202 182.045 135.731 182.788 135.563Z" fill="#3F2136"/>
<path d="M170.433 134.54C170.433 134.54 166.777 131.81 162.271 135.132C160.87 135.519 162.017 132.832 163.908 131.961C165.8 131.089 167.779 130.658 170.149 131.855C172.519 133.052 171.184 134.663 170.433 134.54Z" fill="#3F2136"/>
<path d="M168.684 141.258C168.684 142.579 167.967 143.65 167.081 143.65C166.196 143.65 165.479 142.579 165.479 141.258C165.479 139.936 166.196 138.865 167.081 138.865C167.966 138.865 168.684 139.936 168.684 141.258Z" fill="#3F2136"/>
<path d="M166.166 141.736C166.463 141.736 166.704 141.382 166.704 140.946C166.704 140.511 166.463 140.157 166.166 140.157C165.868 140.157 165.627 140.511 165.627 140.946C165.627 141.382 165.868 141.736 166.166 141.736Z" fill="white"/>
<path d="M187.351 141.258C187.351 142.579 186.633 143.65 185.748 143.65C184.863 143.65 184.145 142.579 184.145 141.258C184.145 139.936 184.863 138.865 185.748 138.865C186.633 138.865 187.351 139.936 187.351 141.258Z" fill="#3F2136"/>
<path d="M185.563 140.946C185.563 141.382 185.322 141.736 185.025 141.736C184.728 141.736 184.487 141.382 184.487 140.946C184.487 140.51 184.728 140.157 185.025 140.157C185.321 140.157 185.563 140.511 185.563 140.946Z" fill="white"/>
<path d="M180.269 137.779C180.269 137.779 178.69 141.186 179.121 143.651C179.551 146.115 181.849 145.038 182.566 147.048C183.284 149.058 178.961 151.785 175.954 150.35C178.115 150.637 181.058 148.591 181.058 147.515C181.058 146.438 179.838 146.546 178.582 144.751C177.326 142.956 180.269 137.779 180.269 137.779Z" fill="#F78469"/>
<path d="M172.076 159.275C172.076 159.275 175.473 161.532 179.062 160.001C177.052 163.207 173.367 161.994 172.076 159.275Z" fill="#F99073"/>
<path d="M169.541 153.089C169.541 153.089 178.091 154.553 183.66 153.089C182.308 159.787 172.18 162.754 169.541 153.089Z" fill="#9E3528"/>
<path d="M169.541 153.089C169.664 153.539 169.807 153.952 169.961 154.348C170.17 154.41 170.389 154.471 170.637 154.526C173.882 155.253 179.196 155.029 180.595 154.526C181.106 154.342 181.511 153.918 181.822 153.456C176.39 154.26 169.541 153.089 169.541 153.089Z" fill="#FFEEEE"/>
<path d="M170.884 156.187C173.214 159.768 177.141 159.949 180.057 158.163C177.403 156.344 174.189 155.737 170.884 156.187Z" fill="#C45243"/>
<path d="M153.841 179.395L126.8 190.579C126.8 190.579 141.055 214.647 136.826 238.257C139.645 255.524 133.135 297.662 133.135 297.662C133.135 297.662 135.459 310.14 185.146 310.14C234.833 310.14 222.278 290.297 222.278 290.297L222.297 225.945C220.212 199.077 211.252 185.013 211.252 185.013L190.054 178.614C190.054 178.614 182.899 196.403 177.435 197.308C170.2 198.508 153.841 179.395 153.841 179.395Z" fill="#FFEEEE"/>
<path d="M176.932 197.109L168.678 204.382L174.564 211.847L172.805 278.813L183.463 290.298L193.865 276.517L182.531 211.416L187.483 201.296L176.932 197.109Z" fill="#B72323"/>
<path d="M181.881 202.067C181.881 202.067 180.483 200.445 178.022 200.612C175.56 200.78 174.327 203.689 173.992 205.815C173.658 207.94 177.108 211.062 180.147 210.57C183.186 210.078 184.958 206.806 184.846 205.611C184.734 204.416 181.881 202.067 181.881 202.067Z" fill="#C43333"/>
<path d="M182.915 217.307C182.835 215.756 181.977 214.308 180.577 213.638C179.305 213.031 177.747 213.133 176.601 215.971C174.307 221.647 181.098 278.201 183.559 281.221C186.021 284.242 185.527 269.81 184.851 259.573C184.175 249.337 184.762 234.569 184.007 230.038C183.447 226.682 183.072 220.364 182.915 217.307Z" fill="#C43333"/>
<path d="M159.447 168.495C159.447 168.495 162.123 187.469 177.435 196.823C183.751 191.821 187.297 172.998 186.719 169.176C188.837 171.428 193.866 179.765 193.866 179.765C193.866 179.765 193.369 198.424 185.186 207.038C181.454 202.158 177.435 197.85 177.435 197.85L168.679 207.038C168.679 207.038 155.943 195.369 153.051 179.722C155.901 174.411 159.447 168.495 159.447 168.495Z" fill="white"/>
<path d="M153.051 179.722C153.051 179.722 160.213 210.502 173.991 239.633C187.77 268.765 178.019 317.006 178.019 317.006C178.019 317.006 172.873 329.454 152.114 328.115C136.345 327.098 122.861 321.05 122.861 321.05C122.861 321.05 138.192 264.606 124.894 242.351C127.986 226.902 123.458 189.418 123.458 189.418L153.051 179.722Z" fill="#566BAF"/>
<path d="M157.479 171.839C157.479 171.839 149.355 177.445 146.169 181.977C143.413 198.855 143.7 202.732 143.7 202.732H152.166L148.58 208.474C148.58 208.474 164.282 240.413 176.6 246.407C175.281 238.62 172.984 226.849 166.812 215.795C160.639 204.741 156.588 184.784 157.479 171.839Z" fill="#617ABC"/>
<path d="M215.619 185.792C215.619 185.792 226.128 189.648 229.484 202.179C232.841 214.709 245.811 234.577 250.285 245.16C254.76 255.742 269.381 260.349 261.396 269.725C255.887 276.193 229.484 287.206 222.286 261.325C219.632 251.781 215.619 185.792 215.619 185.792Z" fill="#617ABC"/>
<path d="M258.699 255.954C248.783 261.073 231.267 263.52 225.61 243.182C224.438 238.967 223.001 223.74 221.761 208.052H217.09C218.501 228.15 220.651 255.446 222.287 261.325C229.485 287.206 255.888 276.192 261.397 269.724C266.089 264.215 262.973 260.351 258.699 255.954Z" fill="#566BAF"/>
<path d="M243.003 230.911C243.003 230.911 231.348 236.246 227.48 252.356C223.611 268.466 233.849 272.997 233.849 272.997C233.849 272.997 225.683 255.789 240.897 241.37C242.574 234.232 243.003 230.911 243.003 230.911Z" fill="#566BAF"/>
<path d="M192.983 178.614C192.983 178.614 195.593 201.008 190.964 219.669C186.335 238.331 185.474 253.548 186.335 256.993C187.196 260.438 186.955 308.662 192.207 316.414C197.459 324.165 205.267 325.143 213.665 324.782C223.692 324.351 230.86 319.614 230.86 319.614C230.86 319.614 218.074 274.207 223.693 239.545C226.885 219.858 220.214 191.533 215.62 185.792C207.007 180.05 192.983 178.614 192.983 178.614Z" fill="#566BAF"/>
<path d="M135.323 290.298H160.904L159.449 297.051H135.064L135.323 290.298Z" fill="#617ABC"/>
<path d="M205.17 290.298C205.17 290.298 219.488 289.457 224.402 287.437C225.125 292.296 225.345 293.674 225.345 293.674C225.345 293.674 212.199 297.61 205.823 297.051C205.822 294.142 205.17 290.298 205.17 290.298Z" fill="#617ABC"/>
<path d="M188.931 172.071C188.931 172.071 192.651 186.079 192.077 203.88C191.503 221.68 185.391 237.828 186.365 246.406C193.799 239.624 201.12 216.369 203.417 207.899C198.967 205.172 195.809 203.162 195.809 203.162L204.997 201.44C204.997 201.44 201.525 184.356 197.662 179.332C193.799 174.308 188.931 172.071 188.931 172.071Z" fill="#617ABC"/>
<path d="M128.291 191.04C128.291 191.04 124.562 188.083 121.252 191.04C117.942 193.997 116.648 200.281 114.061 210.076C111.474 219.871 98.777 238.538 91.3288 245.376C83.8806 252.214 78.5766 263.487 81.7184 270.88C84.8603 278.273 98.1671 280.86 109.625 270.88C121.083 260.9 132.367 249.345 135.504 243.757C138.641 238.168 138.826 200.096 128.291 191.04Z" fill="#617ABC"/>
<path d="M89.4494 247.246C83.0276 254.137 78.8484 264.127 81.718 270.88C84.8599 278.273 98.1667 280.86 109.625 270.88C121.083 260.9 132.367 249.345 135.504 243.757C136.047 242.789 136.501 240.849 136.827 238.257C120.461 236.688 103.237 239.977 89.4494 247.246Z" fill="#566BAF"/>
<path d="M110.092 266.238L122.653 258.749C122.653 258.749 123.931 265.463 120.165 268.869C116.399 272.276 110.092 266.238 110.092 266.238Z" fill="#405DA0"/>
<path d="M136.936 248.915C136.936 248.915 137.582 244.592 136.291 243.704C134.999 242.815 125.739 242.565 124.448 243.157C123.156 243.748 119.639 247.337 119.854 248.916C120.07 250.496 119.137 258.821 119.209 259.826C119.28 260.831 117.63 264.707 121.003 265.065C124.377 265.424 128.109 265.462 129.401 264.331C130.692 263.2 132.559 260.257 133.348 258.75C134.137 257.241 138.368 254.074 136.936 248.915Z" fill="#EF7E60"/>
<path d="M120.921 217.952C120.921 217.952 123.301 225.733 121.438 229.231C119.575 232.729 116.547 237.852 115.849 241.268C115.15 244.683 111.347 245.536 110.493 253.454C109.639 261.372 114.763 264.011 114.763 264.011C116.988 268.228 119.214 268.444 122.151 269.099C125.087 269.755 133.315 266.572 134.557 265.253C135.799 263.933 135.327 260.649 134.577 260.649C133.827 260.649 129.862 261.054 127.067 261.726C124.272 262.399 120.559 262.277 123.457 261.552C126.354 260.828 128.424 261.397 131.53 260.983C134.635 260.569 137.976 260.724 138.66 258.396C139.344 256.066 138.827 253.375 136.704 253.687C134.583 253.997 127.123 255.343 126.169 254.618C125.216 253.893 128.02 253.882 132.055 253.831C136.092 253.779 137.183 254.084 138.515 252.79C139.848 251.497 140.585 246.287 137.635 246.287C134.685 246.287 127.64 247.27 126.169 246.752C124.698 246.235 127.399 245.757 130.452 246.068C133.505 246.378 136.123 246.769 137.635 246.287C139.147 245.805 140.532 241.544 138.876 239.802C137.22 238.059 133.738 237.804 131.683 237.904C129.629 238.004 129.044 237.853 129.044 237.853C129.044 237.853 128.637 235.368 128.116 232.678C127.595 229.987 130.19 223.829 128.116 219.689C126.044 215.548 121.956 214.715 120.921 217.952Z" fill="#FFA586"/>
<path d="M133.046 261.325C134.053 261.344 134.78 263.656 133.438 264.831C132.095 266.005 129.046 267.376 123.257 267.092C117.467 266.808 114.162 262.948 113.86 256.132C113.557 249.316 115.681 241.89 115.681 241.89C114.68 244.82 111.293 246.04 110.494 253.455C109.64 261.373 114.763 264.012 114.763 264.012C116.988 268.229 119.215 268.445 122.151 269.1C125.087 269.756 133.315 266.573 134.558 265.253C135.594 264.152 135.436 261.69 134.92 260.903C134.32 260.941 133.67 261.059 133.046 261.325Z" fill="#F99073"/>
<path d="M129.045 237.852C129.045 237.852 128.639 235.368 128.118 232.677C127.768 230.873 128.815 227.51 128.921 224.242C128.6 226.589 127.556 229.99 125.04 232.946C122.516 235.91 119.509 238.54 122.586 238.371C125.662 238.203 129.045 237.852 129.045 237.852Z" fill="#F99073"/>
<path d="M115.059 243.156C115.059 243.156 111.005 249.933 111.599 255.734C112.192 261.534 117.003 267.047 117.003 267.047C117.003 267.047 113.691 267.235 111.54 266.835C110.387 266.621 105.426 259.467 104.517 254.298C103.608 249.131 107.388 244.824 107.388 244.824L115.059 243.156Z" fill="#FFEEEE"/>
<path d="M115.059 243.156C115.059 243.156 104.131 244.188 99.3258 244.681C94.5202 245.174 88.9876 246.485 85.0447 251.167C81.1018 255.849 77.7876 269.155 83.8802 275.808C89.9728 282.462 109.814 280.081 120.164 268.869C110.929 268.318 108.208 260.284 107.715 254.862C107.223 249.442 111.239 244.881 115.059 243.156Z" fill="#617ABC"/>
<path d="M89.8611 269.305C85.7638 267.94 82.2912 265.028 80.8943 261.413C80.0324 266.535 80.5464 272.168 83.8809 275.809C89.9735 282.462 109.815 280.082 120.165 268.869C117.936 268.737 116.09 268.165 114.56 267.302C106.625 270.024 98.495 272.184 89.8611 269.305Z" fill="#566BAF"/>
<path d="M250.965 226.763C250.965 226.763 252.283 213.781 254.237 211.156C256.192 208.532 270.851 210.569 270.851 210.569L250.965 226.763Z" fill="#405CA0"/>
<path d="M255.664 214.094L251.385 227.016C251.385 227.016 254.406 233.477 260.028 233.729C265.649 233.981 271.943 229.198 272.698 228.191C273.453 227.184 274.988 221.654 274.988 221.654L272.194 216.108L255.664 214.094Z" fill="#FFEEEE"/>
<path d="M256.192 208.532C256.192 208.532 237.223 240.394 234.96 245.158C232.697 249.922 220.925 274.654 246.098 277.675C271.27 280.696 274.987 221.653 274.987 221.653C274.987 221.653 266.261 235.602 258.43 229.216C247.585 220.373 256.192 208.532 256.192 208.532Z" fill="#617ABC"/>
<path d="M256.192 208.532C256.192 208.532 237.223 240.394 234.96 245.158C232.697 249.922 220.925 274.654 246.098 277.675C271.27 280.696 274.987 221.653 274.987 221.653C274.987 221.653 266.261 235.602 258.43 229.216C247.585 220.373 256.192 208.532 256.192 208.532Z" fill="#617ABC"/>
<path d="M273.273 224.021C270.901 240.787 263.984 272.005 245.507 269.788C236.202 268.671 231.948 264.587 230.393 259.642C229.524 267.588 228.899 279.233 243.002 279.711C272.78 280.718 274.987 221.654 274.987 221.654C274.987 221.654 274.351 222.668 273.273 224.021Z" fill="#566BAF"/>
<path d="M269.359 200.507C269.135 200.396 260.367 191.956 260.367 191.956C260.367 191.956 257.29 191.454 253.482 193.663C250.577 195.347 248.87 200.242 249.626 203.263C250.381 206.284 250.613 210.543 250.591 212.367C250.569 214.191 254.912 213.039 256.464 212.577C258.017 212.115 274.736 219.885 274.988 218.878C275.24 217.871 261.331 205.444 261.415 205.151C261.499 204.858 269.359 200.507 269.359 200.507Z" fill="#EF8265"/>
<path d="M265.226 230.068H264.446C261.291 230.068 258.71 227.487 258.71 224.333V185.884C258.71 182.73 261.291 180.149 264.446 180.149H265.226C268.38 180.149 270.961 182.73 270.961 185.884V224.333C270.961 227.488 268.38 230.068 265.226 230.068Z" fill="#D16311"/>
<path d="M273.102 189.963H263.201C262.878 191.74 262.659 193.08 262.659 193.08C262.659 193.08 262.075 193.232 260.02 193.131C257.965 193.032 254.482 193.287 252.826 195.029C251.17 196.772 252.557 201.032 254.068 201.515C251.118 201.515 251.856 206.725 253.188 208.018C253.683 208.499 254.145 208.759 254.737 208.898C252.84 208.844 252.39 211.396 253.045 213.624C253.503 215.187 255.159 215.63 257.136 215.878C257.134 215.878 257.13 215.878 257.127 215.878C256.377 215.878 255.905 219.162 257.148 220.481C258.389 221.801 266.618 224.983 269.553 224.328C272.489 223.673 274.716 223.457 276.942 219.24C276.942 219.24 279.11 207.304 275.855 196.496C275.308 194.678 274.251 192.308 273.102 189.963ZM261.252 201.296C264.305 200.985 272.322 200.99 270.851 201.507C269.787 201.881 260.496 201.945 257.259 201.689C258.444 201.608 259.796 201.444 261.252 201.296ZM259.649 209.06C263.686 209.111 271.175 208.922 270.222 209.646C269.36 210.301 258.499 209.465 255.751 209.031C256.66 209.083 257.867 209.036 259.649 209.06ZM264.637 216.955C263.592 216.703 262.383 216.489 261.24 216.32C263.782 216.507 269.514 216.056 272.068 216.695C274.966 217.419 267.432 217.628 264.637 216.955Z" fill="#FFA586"/>
<path d="M275.855 196.496C275.791 196.283 275.718 196.061 275.641 195.834C275.614 195.755 275.584 195.673 275.555 195.592C275.502 195.442 275.449 195.29 275.39 195.134C275.353 195.035 275.314 194.933 275.275 194.832C275.22 194.69 275.165 194.547 275.106 194.402C275.062 194.29 275.016 194.177 274.969 194.063C274.913 193.925 274.855 193.787 274.796 193.648C274.743 193.524 274.692 193.402 274.638 193.277C274.581 193.145 274.522 193.011 274.463 192.878C274.404 192.744 274.346 192.612 274.286 192.477C274.233 192.36 274.178 192.241 274.124 192.123C273.945 191.73 273.761 191.334 273.571 190.936C272.443 190.936 263.029 190.936 263.026 190.936C263.026 190.939 263.026 190.941 263.025 190.944C263.024 190.949 263.023 190.954 263.022 190.958L262.658 193.081C262.658 193.081 266.124 193.397 267.018 194.404C267.913 195.411 268.025 198.711 267.018 200.165C266.79 200.495 266.726 200.795 266.757 201.087C269.423 201.083 271.063 201.232 270.22 201.529C269.826 201.668 268.932 201.743 267.007 201.795C267.425 202.547 268.22 203.344 268.417 204.528C268.752 206.534 266.312 207.486 266.625 209.097C268.975 209.144 270.71 209.275 270.221 209.646C269.947 209.855 268.659 209.911 266.945 209.88C267.629 210.945 269.108 211.56 269.983 213.361C270.81 215.062 270.082 215.744 269.928 216.411C270.751 216.464 271.492 216.551 272.067 216.694C273.609 217.08 272.197 217.319 270.117 217.357C270.409 218.32 270.262 219.732 268.975 221.365C267.521 223.211 262.524 222.791 259.401 221.826H259.402C259.775 222 260.179 222.176 260.604 222.352C260.609 222.354 260.615 222.356 260.619 222.358C261.039 222.53 261.479 222.701 261.931 222.867C261.947 222.872 261.963 222.878 261.979 222.884C262.422 223.045 262.876 223.201 263.333 223.348C263.361 223.356 263.388 223.366 263.416 223.374C263.624 223.441 263.831 223.505 264.04 223.566C264.06 223.572 264.08 223.579 264.1 223.584C264.321 223.649 264.54 223.711 264.759 223.771C264.795 223.78 264.83 223.789 264.866 223.799C265.052 223.849 265.238 223.896 265.421 223.941C265.46 223.95 265.5 223.96 265.539 223.969C265.746 224.019 265.951 224.065 266.153 224.107C266.19 224.115 266.225 224.122 266.262 224.129C266.431 224.164 266.597 224.196 266.76 224.224C266.807 224.233 266.855 224.242 266.901 224.249C267.09 224.281 267.277 224.31 267.457 224.332C267.486 224.336 267.514 224.338 267.544 224.342C267.699 224.361 267.848 224.376 267.995 224.387C268.039 224.39 268.083 224.394 268.127 224.397C268.294 224.408 268.457 224.415 268.611 224.415C268.627 224.415 268.641 224.414 268.656 224.414C268.795 224.413 268.927 224.407 269.055 224.397C269.092 224.394 269.128 224.391 269.164 224.387C269.301 224.373 269.432 224.354 269.553 224.327C272.488 223.672 274.715 223.456 276.941 219.239C276.942 219.24 279.11 207.304 275.855 196.496Z" fill="#F99073"/>
<path d="M268.977 197.704C268.977 197.704 269.564 198.543 264.111 199.27C258.657 199.997 254.07 201.704 252.447 199.494C252.699 200.388 251.776 202.179 258.908 201.675C266.04 201.172 268.054 201.088 268.054 201.088C268.054 201.088 269.397 198.123 268.977 197.704Z" fill="#F99073"/>
<path d="M252.068 205.109C252.068 205.109 252.349 207.55 256.209 207.675C260.07 207.801 267.579 207.381 267.579 207.381L268.334 209.143C268.334 209.143 259.775 209.451 257.006 209.171C254.238 208.891 252.752 209.186 252.068 205.109Z" fill="#F99073"/>
<path d="M252.853 212.709C252.853 212.709 253.188 214.136 258.391 214.556C263.594 214.975 270.935 214.891 270.935 214.891L271.568 216.592C271.568 216.592 266.648 216.73 262.219 216.475C257.789 216.22 256.559 216.043 255.146 215.656C253.734 215.269 253.007 214.345 252.853 212.709Z" fill="#F99073"/>
<path d="M267.268 150.973C267.1 151.645 260.184 168.866 252.023 175.139C248.112 178.265 249.648 189.571 256.361 191.249C262.738 192.759 267.101 191.585 281.03 197.459C284.05 178.495 267.268 150.973 267.268 150.973Z" fill="#EFE4E1"/>
<path d="M256.167 176.503C256.167 173.845 256.617 171.544 257.201 169.659C255.575 171.823 253.83 173.75 252.023 175.138C248.112 178.265 249.648 189.571 256.361 191.249C259.315 191.948 261.839 192.072 265.08 192.587C258.754 189.735 256.167 182.86 256.167 176.503Z" fill="#DB2323"/>
<path d="M313.099 169.969C314.046 186.873 303.629 200.808 289.649 200.815C275.67 200.822 263.423 186.899 262.475 169.995C261.528 153.09 272.092 139.381 286.072 139.374C300.051 139.367 312.151 153.065 313.099 169.969Z" fill="#E5D8D6"/>
<path d="M287.578 175.998C288.106 185.431 282.293 193.206 274.492 193.21C266.692 193.214 259.857 185.445 259.328 176.012C258.8 166.579 264.695 158.928 272.496 158.925C280.297 158.921 287.05 166.565 287.578 175.998Z" fill="#E5D8D6"/>
<path d="M285.439 182.781L291.352 179.177L286.639 158.368L268.154 165.537L262.427 167.298C262.413 168.188 262.424 169.086 262.475 169.997C262.916 177.857 265.801 185.07 270.167 190.54L285.439 182.781Z" fill="#DDCDCA"/>
<path d="M313.099 169.969C312.152 153.064 300.051 139.367 286.072 139.374C272.092 139.381 261.528 153.09 262.475 169.995C263.422 186.899 275.67 200.822 289.649 200.815C303.629 200.808 314.046 186.874 313.099 169.969ZM289.525 198.761C276.481 198.767 265.052 185.776 264.168 170.002C263.285 154.228 273.142 141.436 286.186 141.429C299.23 141.423 310.521 154.205 311.405 169.978C312.289 185.752 302.569 198.754 289.525 198.761Z" fill="#F2ECEB"/>
<path d="M297.319 168.693C297.625 174.556 294.261 179.387 289.746 179.39C285.231 179.392 281.276 174.564 280.97 168.703C280.664 162.84 284.076 158.086 288.591 158.084C293.105 158.08 297.013 162.831 297.319 168.693Z" fill="#EFE4E1"/>
<path d="M168.12 147.275C166.683 147.275 165.124 147.196 163.582 147.118L162.772 147.078C160.911 146.987 159.723 146.565 159.035 145.749C158.16 144.711 158.333 143.288 158.5 141.912C158.529 141.675 158.559 141.434 158.584 141.19C158.628 140.758 158.665 140.363 158.699 140.001C158.941 137.426 159.075 136.007 160.874 135.86C161.287 135.822 169.843 135.046 173.258 135.876C175.786 136.463 175.02 141.457 174.563 144.441L174.487 144.939C174.204 146.841 171.494 147.275 168.12 147.275ZM168.475 136.837C164.942 136.837 161.052 137.192 160.994 137.198L160.986 137.198C160.392 137.246 160.29 137.431 160.036 140.127C160.002 140.492 159.964 140.891 159.92 141.327C159.894 141.58 159.864 141.829 159.834 142.075C159.689 143.265 159.564 144.293 160.063 144.885C160.482 145.381 161.416 145.668 162.839 145.738L163.65 145.778C166.895 145.943 172.934 146.249 173.158 144.743L173.235 144.239C173.921 139.761 173.824 137.388 172.947 137.184C171.882 136.924 170.222 136.837 168.475 136.837Z" fill="white"/>
<path d="M187.111 147.275C183.737 147.275 181.028 146.841 180.746 144.94L180.671 144.445C180.213 141.46 179.446 136.464 181.982 135.875C185.391 135.046 193.947 135.822 194.359 135.86C196.159 136.007 196.292 137.425 196.534 140.001C196.568 140.363 196.605 140.758 196.649 141.19C196.674 141.434 196.704 141.675 196.733 141.912C196.9 143.288 197.073 144.711 196.198 145.749C195.509 146.565 194.322 146.987 192.461 147.078L191.652 147.118C190.107 147.196 188.549 147.275 187.111 147.275ZM186.752 136.837C185.008 136.837 183.353 136.924 182.293 137.182C181.407 137.387 181.311 139.762 181.998 144.242L182.074 144.743C182.297 146.249 188.337 145.943 191.582 145.778L192.394 145.738C193.817 145.668 194.751 145.381 195.17 144.885C195.669 144.293 195.544 143.265 195.399 142.075C195.369 141.829 195.339 141.58 195.313 141.327C195.269 140.891 195.231 140.492 195.197 140.127C194.943 137.431 194.841 137.247 194.247 137.198L194.239 137.198C194.181 137.192 190.284 136.837 186.752 136.837Z" fill="white"/>
<path d="M174.339 138.559L174.026 137.254C174.215 137.209 178.688 136.154 181.316 137.29L180.783 138.523C178.565 137.563 174.381 138.549 174.339 138.559Z" fill="white"/>
<path d="M151.972 140.682L151.446 139.435L159.473 137.134L159.843 138.424L151.972 140.682Z" fill="white"/>
<path d="M197.646 139.649L195.262 138.742L195.74 137.488L198.483 138.531L197.646 139.649Z" fill="white"/>
<path d="M137.23 238.708C137.23 238.708 138.475 239.46 137.383 242.579C136.291 245.699 133.997 245.754 128.515 245.363C123.034 244.971 120.74 245.489 121.523 246.405C122.306 247.32 127.564 246.902 127.564 246.902C127.564 246.902 135.681 246.651 137.636 246.286C139.591 245.922 139.815 243.181 139.982 241.782C140.15 240.385 138.378 239.101 137.23 238.708Z" fill="#F99073"/>
<path d="M138.132 246.343C138.132 246.343 139.089 247.585 137.997 250.705C136.905 253.825 134.612 253.88 129.13 253.489C123.648 253.097 121.354 253.615 122.138 254.531C122.921 255.446 128.179 255.028 128.179 255.028C128.179 255.028 136.295 254.777 138.251 254.412C140.206 254.048 140.429 251.306 140.597 249.908C140.765 248.511 139.28 246.735 138.132 246.343Z" fill="#F99073"/>
<path d="M136.988 253.075C136.988 253.075 137.928 254.29 136.988 257.439C136.049 260.587 133.888 260.706 128.705 260.466C123.522 260.225 121.374 260.806 122.139 261.7C122.904 262.594 127.852 262.03 127.852 262.03C127.852 262.03 135.502 261.556 137.335 261.138C139.169 260.72 139.3 257.974 139.417 256.571C139.536 255.169 138.083 253.436 136.988 253.075Z" fill="#F99073"/>
<path d="M140.64 305.675H32.2515V378H140.64V305.675Z" fill="#E5D8D6"/>
<path d="M123.661 328.626H45.6582V363.357H123.661V328.626Z" fill="#D6A4A1"/>
<path d="M123.661 357.161H45.6582V363.357H123.661V357.161Z" fill="#EAC6C3"/>
<path d="M32.2515 323.573C35.1 321.914 37.3246 319.295 38.0453 316.337C36.8223 321.355 40.3759 325.423 45.9826 325.423C51.5892 325.423 56.7294 321.355 57.4626 316.337C56.7286 321.356 60.6793 325.423 66.286 325.423C71.8926 325.423 76.6358 321.356 76.8807 316.337C76.6358 321.355 80.9827 325.423 86.5894 325.423C92.196 325.423 96.543 321.356 96.298 316.337C96.543 321.355 101.286 325.423 106.893 325.423C112.499 325.423 116.449 321.356 115.716 316.337C116.45 321.356 121.59 325.423 127.196 325.423C132.803 325.423 136.357 321.355 135.133 316.337C135.83 319.196 137.929 321.743 140.64 323.409V305.675H32.2515V323.573Z" fill="#EAC6C3"/>
<path d="M25.6792 318.312C20.0725 318.312 16.9151 315.381 18.6272 311.766C24.4772 299.412 30.3272 287.058 36.1772 274.705C41.9383 274.705 44.8188 274.705 50.5807 274.705C46.4022 287.058 42.223 299.412 38.0445 311.766C36.8223 315.381 31.2858 318.312 25.6792 318.312Z" fill="#DB2323"/>
<path d="M45.9829 318.312C40.3762 318.312 36.8226 315.381 38.0456 311.766C42.2241 299.412 46.4025 287.058 50.5818 274.705C56.3428 274.705 59.2234 274.705 64.9852 274.705C62.4783 287.058 59.9706 299.412 57.4637 311.766C56.7289 315.381 51.5895 318.312 45.9829 318.312Z" fill="#EFE4E1"/>
<path d="M66.286 318.312C60.6793 318.312 56.7294 315.381 57.4626 311.766C59.9695 299.412 62.4772 287.058 64.9841 274.705C70.7452 274.705 73.6258 274.705 79.3876 274.705C78.5522 287.058 77.7161 299.412 76.8807 311.766C76.6358 315.381 71.8926 318.312 66.286 318.312Z" fill="#DB2323"/>
<path d="M86.5891 318.312C80.9825 318.312 76.6355 315.381 76.8805 311.766C77.7158 299.412 78.552 287.058 79.3874 274.705C85.1485 274.705 88.029 274.705 93.7909 274.705C94.6262 287.058 95.4624 299.412 96.2978 311.766C96.5427 315.381 92.1958 318.312 86.5891 318.312Z" fill="#EFE4E1"/>
<path d="M106.893 318.312C101.286 318.312 96.5429 315.381 96.2979 311.766C95.4618 299.412 94.6264 287.058 93.791 274.705C99.5521 274.705 102.433 274.705 108.194 274.705C110.701 287.058 113.209 299.412 115.716 311.766C116.449 315.381 112.499 318.312 106.893 318.312Z" fill="#DB2323"/>
<path d="M127.196 318.312C121.589 318.312 116.449 315.381 115.716 311.766C113.209 299.412 110.701 287.058 108.194 274.705C113.955 274.705 116.836 274.705 122.598 274.705C126.776 287.058 130.955 299.412 135.134 311.766C136.356 315.381 132.803 318.312 127.196 318.312Z" fill="#EFE4E1"/>
<path d="M147.499 318.312C141.892 318.312 136.356 315.381 135.133 311.766C130.954 299.412 126.775 287.058 122.597 274.705C128.358 274.705 131.238 274.705 137 274.705C142.85 287.058 148.7 299.412 154.55 311.766C156.263 315.381 153.106 318.312 147.499 318.312Z" fill="#DB2323"/>
<path d="M136.272 275.43H36.9066C35.5127 275.43 34.3716 274.29 34.3716 272.895C34.3716 271.5 35.5127 270.36 36.9066 270.36H136.272C137.666 270.36 138.807 271.5 138.807 272.895C138.807 274.29 137.666 275.43 136.272 275.43Z" fill="#EF5454"/>
<path d="M135.064 302.675V400.706H177.988L182.333 347.437L190.486 400.706H227.48L222.746 305.262L135.064 302.675Z" fill="#32518E"/>
<path d="M162.359 330.39L160.569 402.44L159.449 330.39H162.359Z" fill="#2A4B7F"/>
<path d="M198.98 322.507L211.36 399.083L202.187 322.507H198.98Z" fill="#2A4B7F"/>
<path d="M158.732 333.683C178.875 324.618 202.8 321.21 223.921 328.956L222.745 305.262L135.064 302.675V353.555C140.741 345.55 150.107 337.379 158.732 333.683Z" fill="#2A4B7F"/>
<path d="M149.649 319.472C150.544 319.472 189.253 322.157 212.748 318.353C213.866 313.655 211.853 308.508 211.853 308.508L159.606 310.633L149.649 319.472Z" fill="#2D282C"/>
<path d="M188.392 158.134C188.392 158.134 163.528 154.654 159.252 156.986C160.116 166.866 159.331 174.16 157.02 178.967L169.701 196.969C174.685 197.415 180.014 196.81 184.765 195.051L190.963 181.361C183.211 171.501 188.392 158.134 188.392 158.134Z" fill="#FFA586"/>
<path opacity="0.75" d="M159.481 167.98C161.383 173.214 166.691 175.672 169.54 176.269C176.398 177.199 183.228 173.555 186.697 167.96C186.703 166.698 187.041 164.406 187.179 163.308C187.335 158.944 188.393 158.134 188.393 158.134C188.393 158.134 163.528 154.654 159.252 156.986C159.395 158.621 159.482 159.913 159.521 161.049C159.628 163.552 159.614 165.86 159.481 167.98Z" fill="#F99073"/>
<path d="M154.424 139.094C154.424 139.094 152.732 135.677 147.943 136.731C143.153 137.785 143.727 146.694 146.889 151.196C150.05 155.698 156.085 154.933 156.373 153.112C156.659 151.291 154.424 139.094 154.424 139.094Z" fill="#F9977D"/>
<path d="M193.823 139.094C193.823 139.094 195.515 135.677 200.304 136.731C205.094 137.785 204.519 146.694 201.358 151.196C198.197 155.698 192.162 154.933 191.874 153.112C191.587 151.291 193.823 139.094 193.823 139.094Z" fill="#F9977D"/>
<path d="M197.832 143.1C197.832 143.1 196.538 144.607 197.4 146.234C198.261 147.861 197.639 148.292 196.443 149.249C195.246 150.206 195.725 151.737 197.352 151.258C198.979 150.78 201.866 147.956 202.504 144.607C203.142 141.258 201.658 139.248 200.654 139.918C199.649 140.588 197.832 143.1 197.832 143.1Z" fill="#F78469"/>
<path d="M150.994 143.1C150.994 143.1 152.288 144.607 151.427 146.234C150.565 147.861 151.187 148.292 152.384 149.249C153.58 150.206 153.101 151.737 151.474 151.258C149.847 150.78 146.96 147.956 146.322 144.607C145.684 141.258 147.168 139.248 148.172 139.918C149.178 140.588 150.994 143.1 150.994 143.1Z" fill="#F78469"/>
<path d="M195.164 117.541C195.164 117.541 196.829 125.682 195.935 138.072C195.041 150.462 193.252 167.704 173.327 167.96C153.402 168.215 152.125 145.097 153.402 135.901C154.68 126.704 153.799 118.018 153.799 118.018C153.799 118.018 179.326 109.685 195.164 117.541Z" fill="#FFA586"/>
<path d="M164.064 153.511C166.211 153.511 167.951 151.771 167.951 149.624C167.951 147.477 166.211 145.736 164.064 145.736C161.917 145.736 160.176 147.477 160.176 149.624C160.176 151.771 161.917 153.511 164.064 153.511Z" fill="#F9977D"/>
<path d="M192.064 150.079C192.064 152.107 190.421 153.751 188.393 153.751C186.365 153.751 184.721 152.107 184.721 150.079C184.721 148.051 186.365 146.408 188.393 146.408C190.421 146.408 192.064 148.051 192.064 150.079Z" fill="#F9977D"/>
<path opacity="0.52" d="M195.165 117.541C179.327 109.685 153.8 118.018 153.8 118.018C153.8 118.018 154.68 126.704 153.403 135.901C152.674 141.148 152.783 150.921 156.706 158.305C155.673 156.009 156.166 146.505 156.398 144.785C157.02 140.157 158.835 132.619 159.842 125.738C163.008 120.99 183.724 122.653 189.43 128.108C195.896 125.763 195.419 120.032 195.419 120.032C195.454 119.902 195.476 119.776 195.502 119.649C195.316 118.283 195.165 117.541 195.165 117.541Z" fill="#F99073"/>
<path d="M157.02 107.194C157.02 107.194 158.883 97.4605 173.458 95.7827C166.553 98.4675 162.358 105.264 162.358 105.264L157.02 107.194Z" fill="#331B2D"/>
<path d="M158.666 105.432C158.666 105.432 159.925 98.1321 162.526 95.7827C158.331 99.2233 156.227 102.16 156.398 106.859C158.331 108.788 158.666 105.432 158.666 105.432Z" fill="#331B2D"/>
<path d="M189.88 127.332C189.88 127.332 169.724 113.667 155.309 121.529C156.84 135.501 153.088 143.318 153.088 143.318C153.088 143.318 153.511 138.759 147.941 136.731C146.151 128.961 140.206 106.188 158.198 105.835C164.228 95.9294 194.206 96.3171 199.949 111.055C205.116 122.731 201.078 136.993 201.078 136.993C201.078 136.993 196.704 136.787 194.718 148.519C194.691 141.259 194.387 125.478 194.578 120.789C193.74 125.738 189.88 127.332 189.88 127.332Z" fill="#331B2D"/>
<path d="M199.949 111.054C196.256 101.577 182.545 98.0417 171.621 99.3544C167.906 100.883 162.704 103.607 161.016 107.194C158.331 112.9 170.413 111.893 178.385 114.494C186.357 117.096 187.362 120.602 190.72 121.627C194.078 122.65 196.869 114.17 196.869 114.17C196.869 114.17 199.533 128.117 198.306 138.741C199.797 136.936 201.079 136.993 201.079 136.993C201.079 136.993 205.117 122.73 199.949 111.054Z" fill="#3F2136"/>
<path d="M182.788 135.563C182.788 135.563 186.274 132.619 190.971 135.667C192.392 135.97 191.088 133.356 189.147 132.599C187.206 131.841 185.205 131.529 182.911 132.866C180.616 134.202 182.045 135.731 182.788 135.563Z" fill="#3F2136"/>
<path d="M170.433 134.54C170.433 134.54 166.777 131.81 162.271 135.132C160.87 135.519 162.017 132.832 163.908 131.961C165.8 131.089 167.779 130.658 170.149 131.855C172.519 133.052 171.184 134.663 170.433 134.54Z" fill="#3F2136"/>
<path d="M168.684 141.258C168.684 142.579 167.967 143.65 167.081 143.65C166.196 143.65 165.479 142.579 165.479 141.258C165.479 139.936 166.196 138.865 167.081 138.865C167.966 138.865 168.684 139.936 168.684 141.258Z" fill="#3F2136"/>
<path d="M166.166 141.736C166.463 141.736 166.704 141.382 166.704 140.946C166.704 140.511 166.463 140.157 166.166 140.157C165.868 140.157 165.627 140.511 165.627 140.946C165.627 141.382 165.868 141.736 166.166 141.736Z" fill="white"/>
<path d="M187.351 141.258C187.351 142.579 186.633 143.65 185.748 143.65C184.863 143.65 184.145 142.579 184.145 141.258C184.145 139.936 184.863 138.865 185.748 138.865C186.633 138.865 187.351 139.936 187.351 141.258Z" fill="#3F2136"/>
<path d="M185.563 140.946C185.563 141.382 185.322 141.736 185.025 141.736C184.728 141.736 184.487 141.382 184.487 140.946C184.487 140.51 184.728 140.157 185.025 140.157C185.321 140.157 185.563 140.511 185.563 140.946Z" fill="white"/>
<path d="M180.269 137.779C180.269 137.779 178.69 141.186 179.121 143.651C179.551 146.115 181.849 145.038 182.566 147.048C183.284 149.058 178.961 151.785 175.954 150.35C178.115 150.637 181.058 148.591 181.058 147.515C181.058 146.438 179.838 146.546 178.582 144.751C177.326 142.956 180.269 137.779 180.269 137.779Z" fill="#F78469"/>
<path d="M172.076 159.275C172.076 159.275 175.473 161.532 179.062 160.001C177.052 163.207 173.367 161.994 172.076 159.275Z" fill="#F99073"/>
<path d="M169.541 153.089C169.541 153.089 178.091 154.553 183.66 153.089C182.308 159.787 172.18 162.754 169.541 153.089Z" fill="#9E3528"/>
<path d="M169.541 153.089C169.664 153.539 169.807 153.952 169.961 154.348C170.17 154.41 170.389 154.471 170.637 154.526C173.882 155.253 179.196 155.029 180.595 154.526C181.106 154.342 181.511 153.918 181.822 153.456C176.39 154.26 169.541 153.089 169.541 153.089Z" fill="#FFEEEE"/>
<path d="M170.884 156.187C173.214 159.768 177.141 159.949 180.057 158.163C177.403 156.344 174.189 155.737 170.884 156.187Z" fill="#C45243"/>
<path d="M153.841 179.395L126.8 190.579C126.8 190.579 141.055 214.647 136.826 238.257C139.645 255.524 133.135 297.662 133.135 297.662C133.135 297.662 135.459 310.14 185.146 310.14C234.833 310.14 222.278 290.297 222.278 290.297L222.297 225.945C220.212 199.077 211.252 185.013 211.252 185.013L190.054 178.614C190.054 178.614 182.899 196.403 177.435 197.308C170.2 198.508 153.841 179.395 153.841 179.395Z" fill="#FFEEEE"/>
<path d="M176.932 197.109L168.678 204.382L174.564 211.847L172.805 278.813L183.463 290.298L193.865 276.517L182.531 211.416L187.483 201.296L176.932 197.109Z" fill="#B72323"/>
<path d="M181.881 202.067C181.881 202.067 180.483 200.445 178.022 200.612C175.56 200.78 174.327 203.689 173.992 205.815C173.658 207.94 177.108 211.062 180.147 210.57C183.186 210.078 184.958 206.806 184.846 205.611C184.734 204.416 181.881 202.067 181.881 202.067Z" fill="#C43333"/>
<path d="M182.915 217.307C182.835 215.756 181.977 214.308 180.577 213.638C179.305 213.031 177.747 213.133 176.601 215.971C174.307 221.647 181.098 278.201 183.559 281.221C186.021 284.242 185.527 269.81 184.851 259.573C184.175 249.337 184.762 234.569 184.007 230.038C183.447 226.682 183.072 220.364 182.915 217.307Z" fill="#C43333"/>
<path d="M159.447 168.495C159.447 168.495 162.123 187.469 177.435 196.823C183.751 191.821 187.297 172.998 186.719 169.176C188.837 171.428 193.866 179.765 193.866 179.765C193.866 179.765 193.369 198.424 185.186 207.038C181.454 202.158 177.435 197.85 177.435 197.85L168.679 207.038C168.679 207.038 155.943 195.369 153.051 179.722C155.901 174.411 159.447 168.495 159.447 168.495Z" fill="white"/>
<path d="M153.051 179.722C153.051 179.722 160.213 210.502 173.991 239.633C187.77 268.765 178.019 317.006 178.019 317.006C178.019 317.006 172.873 329.454 152.114 328.115C136.345 327.098 122.861 321.05 122.861 321.05C122.861 321.05 138.192 264.606 124.894 242.351C127.986 226.902 123.458 189.418 123.458 189.418L153.051 179.722Z" fill="#566BAF"/>
<path d="M125.844 233.458C125.691 236.825 125.391 239.872 124.895 242.351C138.192 264.607 122.862 321.05 122.862 321.05C122.862 321.05 126.06 322.482 131.153 324.069C143.304 293.819 152.583 256.299 125.844 233.458Z" fill="#4C66A5"/>
<path d="M157.479 171.839C157.479 171.839 149.355 177.445 146.169 181.977C143.413 198.855 143.7 202.732 143.7 202.732H152.166L148.58 208.474C148.58 208.474 164.282 240.413 176.6 246.407C175.281 238.62 172.984 226.849 166.812 215.795C160.639 204.741 156.588 184.784 157.479 171.839Z" fill="#617ABC"/>
<path d="M215.619 185.792C215.619 185.792 226.128 189.648 229.484 202.179C232.841 214.709 245.811 234.577 250.285 245.16C254.76 255.742 269.381 260.349 261.396 269.725C255.887 276.193 229.484 287.206 222.286 261.325C219.632 251.781 215.619 185.792 215.619 185.792Z" fill="#617ABC"/>
<path d="M258.699 255.954C248.783 261.073 231.267 263.52 225.61 243.182C224.438 238.967 223.001 223.74 221.761 208.052H217.09C218.501 228.15 220.651 255.446 222.287 261.325C229.485 287.206 255.888 276.192 261.397 269.724C266.089 264.215 262.973 260.351 258.699 255.954Z" fill="#566BAF"/>
<path d="M243.003 230.911C243.003 230.911 231.348 236.246 227.48 252.356C223.611 268.466 233.849 272.997 233.849 272.997C233.849 272.997 225.683 255.789 240.897 241.37C242.574 234.232 243.003 230.911 243.003 230.911Z" fill="#566BAF"/>
<path d="M192.983 178.614C192.983 178.614 195.593 201.008 190.964 219.669C186.335 238.331 185.474 253.548 186.335 256.993C187.196 260.438 186.955 308.662 192.207 316.414C197.459 324.165 205.267 325.143 213.665 324.782C223.692 324.351 230.86 319.614 230.86 319.614C230.86 319.614 218.074 274.207 223.693 239.545C226.885 219.858 220.214 191.533 215.62 185.792C207.007 180.05 192.983 178.614 192.983 178.614Z" fill="#566BAF"/>
<path d="M219.869 323.949C226.513 322.473 230.86 319.615 230.86 319.615C230.86 319.615 218.074 274.208 223.693 239.546C224.568 234.149 224.698 228.103 224.336 222.052C212.487 254.665 208.498 291.379 219.869 323.949Z" fill="#4C66A5"/>
<path d="M135.323 290.298H160.904L159.449 297.051H135.064L135.323 290.298Z" fill="#617ABC"/>
<path d="M205.17 290.298C205.17 290.298 219.488 289.457 224.402 287.437C225.125 292.296 225.345 293.674 225.345 293.674C225.345 293.674 212.199 297.61 205.823 297.051C205.822 294.142 205.17 290.298 205.17 290.298Z" fill="#617ABC"/>
<path d="M188.931 172.071C188.931 172.071 192.651 186.079 192.077 203.88C191.503 221.68 185.391 237.828 186.365 246.406C193.799 239.624 201.12 216.369 203.417 207.899C198.967 205.172 195.809 203.162 195.809 203.162L204.997 201.44C204.997 201.44 201.525 184.356 197.662 179.332C193.799 174.308 188.931 172.071 188.931 172.071Z" fill="#617ABC"/>
<path d="M128.291 191.04C128.291 191.04 124.562 188.083 121.252 191.04C117.942 193.997 116.648 200.281 114.061 210.076C111.474 219.871 98.777 238.538 91.3288 245.376C83.8806 252.214 78.5766 263.487 81.7184 270.88C84.8603 278.273 98.1671 280.86 109.625 270.88C121.083 260.9 132.367 249.345 135.504 243.757C138.641 238.168 138.826 200.096 128.291 191.04Z" fill="#617ABC"/>
<path d="M89.4494 247.246C83.0276 254.137 78.8484 264.127 81.718 270.88C84.8599 278.273 98.1667 280.86 109.625 270.88C121.083 260.9 132.367 249.345 135.504 243.757C136.047 242.789 136.501 240.849 136.827 238.257C120.461 236.688 103.237 239.977 89.4494 247.246Z" fill="#566BAF"/>
<path d="M110.092 266.238L122.653 258.749C122.653 258.749 123.931 265.463 120.165 268.869C116.399 272.276 110.092 266.238 110.092 266.238Z" fill="#405DA0"/>
<path d="M136.936 248.915C136.936 248.915 137.582 244.592 136.291 243.704C134.999 242.815 125.739 242.565 124.448 243.157C123.156 243.748 119.639 247.337 119.854 248.916C120.07 250.496 119.137 258.821 119.209 259.826C119.28 260.831 117.63 264.707 121.003 265.065C124.377 265.424 128.109 265.462 129.401 264.331C130.692 263.2 132.559 260.257 133.348 258.75C134.137 257.241 138.368 254.074 136.936 248.915Z" fill="#EF7E60"/>
<path d="M120.921 217.952C120.921 217.952 123.301 225.733 121.438 229.231C119.575 232.729 116.547 237.852 115.849 241.268C115.15 244.683 111.347 245.536 110.493 253.454C109.639 261.372 114.763 264.011 114.763 264.011C116.988 268.228 119.214 268.444 122.151 269.099C125.087 269.755 133.315 266.572 134.557 265.253C135.799 263.933 135.327 260.649 134.577 260.649C133.827 260.649 129.862 261.054 127.067 261.726C124.272 262.399 120.559 262.277 123.457 261.552C126.354 260.828 128.424 261.397 131.53 260.983C134.635 260.569 137.976 260.724 138.66 258.396C139.344 256.066 138.827 253.375 136.704 253.687C134.583 253.997 127.123 255.343 126.169 254.618C125.216 253.893 128.02 253.882 132.055 253.831C136.092 253.779 137.183 254.084 138.515 252.79C139.848 251.497 140.585 246.287 137.635 246.287C134.685 246.287 127.64 247.27 126.169 246.752C124.698 246.235 127.399 245.757 130.452 246.068C133.505 246.378 136.123 246.769 137.635 246.287C139.147 245.805 140.532 241.544 138.876 239.802C137.22 238.059 133.738 237.804 131.683 237.904C129.629 238.004 129.044 237.853 129.044 237.853C129.044 237.853 128.637 235.368 128.116 232.678C127.595 229.987 130.19 223.829 128.116 219.689C126.044 215.548 121.956 214.715 120.921 217.952Z" fill="#FFA586"/>
<path d="M133.046 261.325C134.053 261.344 134.78 263.656 133.438 264.831C132.095 266.005 129.046 267.376 123.257 267.092C117.467 266.808 114.162 262.948 113.86 256.132C113.557 249.316 115.681 241.89 115.681 241.89C114.68 244.82 111.293 246.04 110.494 253.455C109.64 261.373 114.763 264.012 114.763 264.012C116.988 268.229 119.215 268.445 122.151 269.1C125.087 269.756 133.315 266.573 134.558 265.253C135.594 264.152 135.436 261.69 134.92 260.903C134.32 260.941 133.67 261.059 133.046 261.325Z" fill="#F99073"/>
<path d="M129.045 237.852C129.045 237.852 128.639 235.368 128.118 232.677C127.768 230.873 128.815 227.51 128.921 224.242C128.6 226.589 127.556 229.99 125.04 232.946C122.516 235.91 119.509 238.54 122.586 238.371C125.662 238.203 129.045 237.852 129.045 237.852Z" fill="#F99073"/>
<path d="M115.059 243.156C115.059 243.156 111.005 249.933 111.599 255.734C112.192 261.534 117.003 267.047 117.003 267.047C117.003 267.047 113.691 267.235 111.54 266.835C110.387 266.621 105.426 259.467 104.517 254.298C103.608 249.131 107.388 244.824 107.388 244.824L115.059 243.156Z" fill="#FFEEEE"/>
<path d="M115.059 243.156C115.059 243.156 104.131 244.188 99.3258 244.681C94.5202 245.174 88.9876 246.485 85.0447 251.167C81.1018 255.849 77.7876 269.155 83.8802 275.808C89.9728 282.462 109.814 280.081 120.164 268.869C110.929 268.318 108.208 260.284 107.715 254.862C107.223 249.442 111.239 244.881 115.059 243.156Z" fill="#617ABC"/>
<path d="M89.8611 269.305C85.7638 267.94 82.2912 265.028 80.8943 261.413C80.0324 266.535 80.5464 272.168 83.8809 275.809C89.9735 282.462 109.815 280.082 120.165 268.869C117.936 268.737 116.09 268.165 114.56 267.302C106.625 270.024 98.495 272.184 89.8611 269.305Z" fill="#566BAF"/>
<path d="M250.965 226.763C250.965 226.763 252.283 213.781 254.237 211.156C256.192 208.532 270.851 210.569 270.851 210.569L250.965 226.763Z" fill="#405CA0"/>
<path d="M255.664 214.094L251.385 227.016C251.385 227.016 254.406 233.477 260.028 233.729C265.649 233.981 271.943 229.198 272.698 228.191C273.453 227.184 274.988 221.654 274.988 221.654L272.194 216.108L255.664 214.094Z" fill="#FFEEEE"/>
<path d="M256.192 208.532C256.192 208.532 237.223 240.394 234.96 245.158C232.697 249.922 220.925 274.654 246.098 277.675C271.27 280.696 274.987 221.653 274.987 221.653C274.987 221.653 266.261 235.602 258.43 229.216C247.585 220.373 256.192 208.532 256.192 208.532Z" fill="#617ABC"/>
<path d="M256.192 208.532C256.192 208.532 237.223 240.394 234.96 245.158C232.697 249.922 220.925 274.654 246.098 277.675C271.27 280.696 274.987 221.653 274.987 221.653C274.987 221.653 266.261 235.602 258.43 229.216C247.585 220.373 256.192 208.532 256.192 208.532Z" fill="#617ABC"/>
<path d="M273.273 224.021C270.901 240.787 263.984 272.005 245.507 269.788C236.202 268.671 231.948 264.587 230.393 259.642C229.524 267.588 228.899 279.233 243.002 279.711C272.78 280.718 274.987 221.654 274.987 221.654C274.987 221.654 274.351 222.668 273.273 224.021Z" fill="#566BAF"/>
<path d="M269.359 200.507C269.135 200.396 260.367 191.956 260.367 191.956C260.367 191.956 257.29 191.454 253.482 193.663C250.577 195.347 248.87 200.242 249.626 203.263C250.381 206.284 250.613 210.543 250.591 212.367C250.569 214.191 254.912 213.039 256.464 212.577C258.017 212.115 274.736 219.885 274.988 218.878C275.24 217.871 261.331 205.444 261.415 205.151C261.499 204.858 269.359 200.507 269.359 200.507Z" fill="#EF8265"/>
<path d="M265.226 230.068H264.446C261.291 230.068 258.71 227.487 258.71 224.333V185.884C258.71 182.73 261.291 180.149 264.446 180.149H265.226C268.38 180.149 270.961 182.73 270.961 185.884V224.333C270.961 227.488 268.38 230.068 265.226 230.068Z" fill="#D16311"/>
<path d="M273.102 189.963H263.201C262.878 191.74 262.659 193.08 262.659 193.08C262.659 193.08 262.075 193.232 260.02 193.131C257.965 193.032 254.482 193.287 252.826 195.029C251.17 196.772 252.557 201.032 254.068 201.515C251.118 201.515 251.856 206.725 253.188 208.018C253.683 208.499 254.145 208.759 254.737 208.898C252.84 208.844 252.39 211.396 253.045 213.624C253.503 215.187 255.159 215.63 257.136 215.878C257.134 215.878 257.13 215.878 257.127 215.878C256.377 215.878 255.905 219.162 257.148 220.481C258.389 221.801 266.618 224.983 269.553 224.328C272.489 223.673 274.716 223.457 276.942 219.24C276.942 219.24 279.11 207.304 275.855 196.496C275.308 194.678 274.251 192.308 273.102 189.963ZM261.252 201.296C264.305 200.985 272.322 200.99 270.851 201.507C269.787 201.881 260.496 201.945 257.259 201.689C258.444 201.608 259.796 201.444 261.252 201.296ZM259.649 209.06C263.686 209.111 271.175 208.922 270.222 209.646C269.36 210.301 258.499 209.465 255.751 209.031C256.66 209.083 257.867 209.036 259.649 209.06ZM264.637 216.955C263.592 216.703 262.383 216.489 261.24 216.32C263.782 216.507 269.514 216.056 272.068 216.695C274.966 217.419 267.432 217.628 264.637 216.955Z" fill="#FFA586"/>
<path d="M275.855 196.496C275.791 196.283 275.718 196.061 275.641 195.834C275.614 195.755 275.584 195.673 275.555 195.592C275.502 195.442 275.449 195.29 275.39 195.134C275.353 195.035 275.314 194.933 275.275 194.832C275.22 194.69 275.165 194.547 275.106 194.402C275.062 194.29 275.016 194.177 274.969 194.063C274.913 193.925 274.855 193.787 274.796 193.648C274.743 193.524 274.692 193.402 274.638 193.277C274.581 193.145 274.522 193.011 274.463 192.878C274.404 192.744 274.346 192.612 274.286 192.477C274.233 192.36 274.178 192.241 274.124 192.123C273.945 191.73 273.761 191.334 273.571 190.936C272.443 190.936 263.029 190.936 263.026 190.936C263.026 190.939 263.026 190.941 263.025 190.944C263.024 190.949 263.023 190.954 263.022 190.958L262.658 193.081C262.658 193.081 266.124 193.397 267.018 194.404C267.913 195.411 268.025 198.711 267.018 200.165C266.79 200.495 266.726 200.795 266.757 201.087C269.423 201.083 271.063 201.232 270.22 201.529C269.826 201.668 268.932 201.743 267.007 201.795C267.425 202.547 268.22 203.344 268.417 204.528C268.752 206.534 266.312 207.486 266.625 209.097C268.975 209.144 270.71 209.275 270.221 209.646C269.947 209.855 268.659 209.911 266.945 209.88C267.629 210.945 269.108 211.56 269.983 213.361C270.81 215.062 270.082 215.744 269.928 216.411C270.751 216.464 271.492 216.551 272.067 216.694C273.609 217.08 272.197 217.319 270.117 217.357C270.409 218.32 270.262 219.732 268.975 221.365C267.521 223.211 262.524 222.791 259.401 221.826H259.402C259.775 222 260.179 222.176 260.604 222.352C260.609 222.354 260.615 222.356 260.619 222.358C261.039 222.53 261.479 222.701 261.931 222.867C261.947 222.872 261.963 222.878 261.979 222.884C262.422 223.045 262.876 223.201 263.333 223.348C263.361 223.356 263.388 223.366 263.416 223.374C263.624 223.441 263.831 223.505 264.04 223.566C264.06 223.572 264.08 223.579 264.1 223.584C264.321 223.649 264.54 223.711 264.759 223.771C264.795 223.78 264.83 223.789 264.866 223.799C265.052 223.849 265.238 223.896 265.421 223.941C265.46 223.95 265.5 223.96 265.539 223.969C265.746 224.019 265.951 224.065 266.153 224.107C266.19 224.115 266.225 224.122 266.262 224.129C266.431 224.164 266.597 224.196 266.76 224.224C266.807 224.233 266.855 224.242 266.901 224.249C267.09 224.281 267.277 224.31 267.457 224.332C267.486 224.336 267.514 224.338 267.544 224.342C267.699 224.361 267.848 224.376 267.995 224.387C268.039 224.39 268.083 224.394 268.127 224.397C268.294 224.408 268.457 224.415 268.611 224.415C268.627 224.415 268.641 224.414 268.656 224.414C268.795 224.413 268.927 224.407 269.055 224.397C269.092 224.394 269.128 224.391 269.164 224.387C269.301 224.373 269.432 224.354 269.553 224.327C272.488 223.672 274.715 223.456 276.941 219.239C276.942 219.24 279.11 207.304 275.855 196.496Z" fill="#F99073"/>
<path d="M268.977 197.704C268.977 197.704 269.564 198.543 264.111 199.27C258.657 199.997 254.07 201.704 252.447 199.494C252.699 200.388 251.776 202.179 258.908 201.675C266.04 201.172 268.054 201.088 268.054 201.088C268.054 201.088 269.397 198.123 268.977 197.704Z" fill="#F99073"/>
<path d="M252.068 205.109C252.068 205.109 252.349 207.55 256.209 207.675C260.07 207.801 267.579 207.381 267.579 207.381L268.334 209.143C268.334 209.143 259.775 209.451 257.006 209.171C254.238 208.891 252.752 209.186 252.068 205.109Z" fill="#F99073"/>
<path d="M252.853 212.709C252.853 212.709 253.188 214.136 258.391 214.556C263.594 214.975 270.935 214.891 270.935 214.891L271.568 216.592C271.568 216.592 266.648 216.73 262.219 216.475C257.789 216.22 256.559 216.043 255.146 215.656C253.734 215.269 253.007 214.345 252.853 212.709Z" fill="#F99073"/>
<path d="M267.268 150.973C267.1 151.645 260.184 168.866 252.023 175.139C248.112 178.265 249.648 189.571 256.361 191.249C262.738 192.759 267.101 191.585 281.03 197.459C284.05 178.495 267.268 150.973 267.268 150.973Z" fill="#EFE4E1"/>
<path d="M256.167 176.503C256.167 173.845 256.617 171.544 257.201 169.659C255.575 171.823 253.83 173.75 252.023 175.138C248.112 178.265 249.648 189.571 256.361 191.249C259.315 191.948 261.839 192.072 265.08 192.587C258.754 189.735 256.167 182.86 256.167 176.503Z" fill="#DB2323"/>
<path d="M313.099 169.969C314.046 186.873 303.629 200.808 289.649 200.815C275.67 200.822 263.423 186.899 262.475 169.995C261.528 153.09 272.092 139.381 286.072 139.374C300.051 139.367 312.151 153.065 313.099 169.969Z" fill="#EAC6C3"/>
<path d="M272.496 158.925C268.497 158.927 265.001 160.942 262.611 164.175C262.417 166.06 262.363 168.005 262.475 169.995C262.986 179.11 266.785 187.352 272.366 193.018C273.064 193.144 273.774 193.211 274.492 193.21C282.293 193.206 288.106 185.431 287.578 175.998C287.05 166.565 280.297 158.921 272.496 158.925Z" fill="#E8B3B1"/>
<path d="M285.439 182.781L291.352 179.177L286.639 158.368L268.154 165.537L262.427 167.298C262.413 168.188 262.424 169.086 262.475 169.997C262.916 177.857 265.801 185.07 270.167 190.54L285.439 182.781Z" fill="#E5D8D6"/>
<path d="M313.099 169.969C312.152 153.064 300.051 139.367 286.072 139.374C272.092 139.381 261.528 153.09 262.475 169.995C263.422 186.899 275.67 200.822 289.649 200.815C303.629 200.808 314.046 186.874 313.099 169.969ZM289.525 198.761C276.481 198.767 265.052 185.776 264.168 170.002C263.285 154.228 273.142 141.436 286.186 141.429C299.23 141.423 310.521 154.205 311.405 169.978C312.289 185.752 302.569 198.754 289.525 198.761Z" fill="#F2ECEB"/>
<path d="M297.319 168.693C297.625 174.556 294.261 179.387 289.746 179.39C285.231 179.392 281.276 174.564 280.97 168.703C280.664 162.84 284.076 158.086 288.591 158.084C293.105 158.08 297.013 162.831 297.319 168.693Z" fill="#EFE4E1"/>
<path d="M168.12 147.275C166.683 147.275 165.124 147.196 163.582 147.118L162.772 147.078C160.911 146.987 159.723 146.565 159.035 145.749C158.16 144.711 158.333 143.288 158.5 141.912C158.529 141.675 158.559 141.434 158.584 141.19C158.628 140.758 158.665 140.363 158.699 140.001C158.941 137.426 159.075 136.007 160.874 135.86C161.287 135.822 169.843 135.046 173.258 135.876C175.786 136.463 175.02 141.457 174.563 144.441L174.487 144.939C174.204 146.841 171.494 147.275 168.12 147.275ZM168.475 136.837C164.942 136.837 161.052 137.192 160.994 137.198L160.986 137.198C160.392 137.246 160.29 137.431 160.036 140.127C160.002 140.492 159.964 140.891 159.92 141.327C159.894 141.58 159.864 141.829 159.834 142.075C159.689 143.265 159.564 144.293 160.063 144.885C160.482 145.381 161.416 145.668 162.839 145.738L163.65 145.778C166.895 145.943 172.934 146.249 173.158 144.743L173.235 144.239C173.921 139.761 173.824 137.388 172.947 137.184C171.882 136.924 170.222 136.837 168.475 136.837Z" fill="white"/>
<path d="M187.111 147.275C183.737 147.275 181.028 146.841 180.746 144.94L180.671 144.445C180.213 141.46 179.446 136.464 181.982 135.875C185.391 135.046 193.947 135.822 194.359 135.86C196.159 136.007 196.292 137.425 196.534 140.001C196.568 140.363 196.605 140.758 196.649 141.19C196.674 141.434 196.704 141.675 196.733 141.912C196.9 143.288 197.073 144.711 196.198 145.749C195.509 146.565 194.322 146.987 192.461 147.078L191.652 147.118C190.107 147.196 188.549 147.275 187.111 147.275ZM186.752 136.837C185.008 136.837 183.353 136.924 182.293 137.182C181.407 137.387 181.311 139.762 181.998 144.242L182.074 144.743C182.297 146.249 188.337 145.943 191.582 145.778L192.394 145.738C193.817 145.668 194.751 145.381 195.17 144.885C195.669 144.293 195.544 143.265 195.399 142.075C195.369 141.829 195.339 141.58 195.313 141.327C195.269 140.891 195.231 140.492 195.197 140.127C194.943 137.431 194.841 137.247 194.247 137.198L194.239 137.198C194.181 137.192 190.284 136.837 186.752 136.837Z" fill="white"/>
<path d="M174.339 138.559L174.026 137.254C174.215 137.209 178.688 136.154 181.316 137.29L180.783 138.523C178.565 137.563 174.381 138.549 174.339 138.559Z" fill="white"/>
<path d="M151.972 140.682L151.446 139.435L159.473 137.134L159.843 138.424L151.972 140.682Z" fill="white"/>
<path d="M197.646 139.649L195.262 138.742L195.74 137.488L198.483 138.531L197.646 139.649Z" fill="white"/>
<path d="M137.23 238.708C137.23 238.708 138.475 239.46 137.383 242.579C136.291 245.699 133.997 245.754 128.515 245.363C123.034 244.971 120.74 245.489 121.523 246.405C122.306 247.32 127.564 246.902 127.564 246.902C127.564 246.902 135.681 246.651 137.636 246.286C139.591 245.922 139.815 243.181 139.982 241.782C140.15 240.385 138.378 239.101 137.23 238.708Z" fill="#F99073"/>
<path d="M138.132 246.343C138.132 246.343 139.089 247.585 137.997 250.705C136.905 253.825 134.612 253.88 129.13 253.489C123.648 253.097 121.354 253.615 122.138 254.531C122.921 255.446 128.179 255.028 128.179 255.028C128.179 255.028 136.295 254.777 138.251 254.412C140.206 254.048 140.429 251.306 140.597 249.908C140.765 248.511 139.28 246.735 138.132 246.343Z" fill="#F99073"/>
<path d="M136.988 253.075C136.988 253.075 137.928 254.29 136.988 257.439C136.049 260.587 133.888 260.706 128.705 260.466C123.522 260.225 121.374 260.806 122.139 261.7C122.904 262.594 127.852 262.03 127.852 262.03C127.852 262.03 135.502 261.556 137.335 261.138C139.169 260.72 139.3 257.974 139.417 256.571C139.536 255.169 138.083 253.436 136.988 253.075Z" fill="#F99073"/>
<path d="M164.962 223.265L145.104 221.172C144.292 221.087 143.568 221.685 143.497 222.498L142.57 233.291C142.503 234.071 143.063 234.765 143.84 234.864L163.833 237.402C164.664 237.507 165.413 236.893 165.471 236.057L166.264 224.818C166.319 224.034 165.744 223.347 164.962 223.265Z" fill="#445EA0"/>
<path d="M165.592 222.278L145.734 220.185C144.922 220.099 144.197 220.697 144.127 221.511L143.199 232.304C143.132 233.084 143.692 233.777 144.469 233.876L164.462 236.415C165.293 236.52 166.042 235.906 166.101 235.07L166.893 223.831C166.95 223.047 166.374 222.36 165.592 222.278Z" fill="#EFE4E1"/>
<path d="M154.729 225.386L156.81 225.494C157.455 225.527 158.005 225.031 158.039 224.386L158.315 219.053C158.349 218.408 157.852 217.858 157.207 217.825L155.125 217.717C154.48 217.684 153.93 218.18 153.896 218.825L153.62 224.158C153.587 224.803 154.083 225.353 154.729 225.386Z" fill="#D1C6C3"/>
<path d="M154.746 223.069C154.624 223.76 155.086 224.419 155.777 224.541C156.469 224.663 157.128 224.202 157.249 223.51C157.371 222.818 156.909 222.159 156.218 222.037C155.527 221.915 154.867 222.377 154.746 223.069Z" fill="white"/>
<path d="M105.612 145.82L114.192 167.66L127.452 156.74L105.612 145.82Z" fill="#D16311"/>
<path d="M297.194 231.712L320.57 229.674L313.857 213.863L297.194 231.712Z" fill="#D16311"/>
<path d="M76.5802 166.733L69.809 152.842L61.6729 160.702L76.5802 166.733Z" fill="#EFE4E1"/>
<path d="M322.066 196.247L344.1 194.487L337.884 179.547L322.066 196.247Z" fill="#EFE4E1"/>
<path d="M125.93 119.262L125.632 103.811L114.944 107.519L125.93 119.262Z" fill="#DB2323"/>
<path d="M269.957 123.712L282.595 114.819L273.54 108.036L269.957 123.712Z" fill="#D16311"/>
<path d="M66.913 257.967L57.975 245.362L51.2241 254.439L66.913 257.967Z" fill="#D16311"/>
<path d="M225.839 159.788L242.356 143.121L227.013 135.398L225.839 159.788Z" fill="#DB2323"/>
<rect x="15.9328" y="11.5872" width="165.071" height="57.0714" rx="28.5357" stroke="#124613" stroke-width="2.89683"/>
<path d="M58.1489 29.7699L62.5623 43.8331L69.5191 30.5629H72.2719L62.0088 50.3859L57.5954 36.2929L50.3095 50.356L43.6669 30.5629H46.3L50.8032 43.9528L58.1489 29.7699ZM83.3279 44.267H73.8278C73.9575 45.4738 74.3415 46.3964 74.9798 47.0347C75.6281 47.673 76.4709 47.9922 77.5082 47.9922C78.5953 47.9922 79.7473 47.3589 80.9641 46.0922L82.4303 47.5733C81.1536 49.1691 79.5129 49.967 77.5082 49.967C75.7229 49.967 74.2567 49.3985 73.1097 48.2615C71.9727 47.1245 71.4042 45.6683 71.4042 43.8929C71.4042 42.0777 72.0325 40.5317 73.2892 39.2551C74.5459 37.9784 76.0719 37.3401 77.8672 37.3401C79.3932 37.3401 80.6948 37.9036 81.772 39.0307C82.8492 40.1577 83.3878 41.5241 83.3878 43.1299C83.3878 43.5289 83.3678 43.9079 83.3279 44.267ZM74.0074 42.3669H81.024C80.635 40.4021 79.5229 39.4197 77.6877 39.4197C76.7701 39.4197 75.9772 39.679 75.3089 40.1976C74.6507 40.7163 74.2168 41.4394 74.0074 42.3669ZM104.737 29.6802C107.729 29.6802 110.033 30.5329 111.649 32.2385C113.274 33.944 114.087 36.3178 114.087 39.3598C114.087 42.5016 113.075 45.0449 111.05 46.9898C109.026 48.9347 106.388 49.9022 103.136 49.8922C100.254 49.8822 97.9795 49.0145 96.3139 47.289C94.6582 45.5536 93.8304 43.1948 93.8304 40.2126C93.8304 37.1905 94.8477 34.6821 96.8824 32.6873C98.9171 30.6826 101.535 29.6802 104.737 29.6802ZM110.033 39.4197C110.033 37.5645 109.509 36.0635 108.462 34.9165C107.425 33.7695 106.058 33.196 104.363 33.196C102.617 33.196 101.101 33.8842 99.8147 35.2606C98.5381 36.627 97.8998 38.2577 97.8998 40.1527C97.8998 41.968 98.4234 43.4591 99.4706 44.626C100.528 45.793 101.874 46.3764 103.51 46.3764C105.295 46.3764 106.826 45.6932 108.103 44.3268C109.39 42.9604 110.033 41.3247 110.033 39.4197ZM125.143 28.7526L124.695 32.2834C124.385 32.1637 124.096 32.1038 123.827 32.1038C123.228 32.1038 122.834 32.3881 122.645 32.9566C122.455 33.5151 122.226 34.8516 121.957 36.9661H123.946L123.438 40.6165H121.373L120.087 49.6229H116.391L117.708 40.6165H116.72L117.304 36.9661H118.291L118.501 35.1558C118.73 33.3506 119.034 32.049 119.413 31.2511C119.802 30.4432 120.361 29.7799 121.089 29.2613C121.827 28.7426 122.65 28.4833 123.558 28.4833C123.946 28.4833 124.475 28.5731 125.143 28.7526ZM133.731 28.7526L133.282 32.2834C132.973 32.1637 132.684 32.1038 132.414 32.1038C131.816 32.1038 131.422 32.3881 131.232 32.9566C131.043 33.5151 130.814 34.8516 130.544 36.9661H132.534L132.025 40.6165H129.961L128.674 49.6229H124.979L126.295 40.6165H125.308L125.891 36.9661H126.879L127.088 35.1558C127.318 33.3506 127.622 32.049 128.001 31.2511C128.39 30.4432 128.948 29.7799 129.676 29.2613C130.415 28.7426 131.237 28.4833 132.145 28.4833C132.534 28.4833 133.063 28.5731 133.731 28.7526ZM145.714 44.1622H137.007C137.237 45.9875 138.144 46.9001 139.73 46.9001C140.817 46.9001 141.75 46.3864 142.528 45.3591L145.131 46.7056C143.435 48.8101 141.476 49.8623 139.251 49.8623C137.446 49.8623 135.965 49.2888 134.808 48.1418C133.661 46.9948 133.088 45.5287 133.088 43.7433C133.088 41.8084 133.741 40.1527 135.047 38.7763C136.364 37.39 137.935 36.6968 139.76 36.6968C141.595 36.6968 143.051 37.3152 144.129 38.5519C145.216 39.7887 145.744 41.6588 145.714 44.1622ZM137.187 41.6189H142.363C142.194 40.2525 141.371 39.5693 139.895 39.5693C138.628 39.5693 137.725 40.2525 137.187 41.6189ZM156.756 37.0559L155.873 40.4669C155.514 40.2974 155.06 40.2126 154.511 40.2126C152.826 40.2126 151.818 41.3396 151.489 43.5937L150.592 49.6229H146.926L148.826 36.9661H152.492L152.372 37.8637C153.379 37.0658 154.372 36.6669 155.349 36.6669C155.818 36.6669 156.287 36.7965 156.756 37.0559Z" fill="#124613"/>
</g>
<defs>
<clipPath id="clip0_57_2045">
<rect width="365" height="362.949" rx="27.5198" fill="white"/>
</clipPath>
</defs>
</svg>
